<?xml version="1.0" standalone="no"?>
<!DOCTYPE svg PUBLIC "-//W3C//DTD SVG 1.1//EN" "http://www.w3.org/Graphics/SVG/1.1/DTD/svg11.dtd" >
<svg>
<metadata>
Created by FontForge 20090622 at Mon Jan 30 09:09:55 2017
 By deploy user
BEAD CHAIN computer font v1.0 &#194;&#169;2003 Harold Lohner &#226;&#128;&#162; HLohner@aol.com &#226;&#128;&#162; www.haroldsfonts.com
</metadata>
<defs>
<font id="BeadChain" horiz-adv-x="650" >
  <font-face 
    font-family="Bead Chain"
    font-weight="400"
    font-stretch="normal"
    units-per-em="1000"
    panose-1="0 0 4 0 0 0 0 0 0 0"
    ascent="800"
    descent="-200"
    x-height="687"
    cap-height="688"
    bbox="-18 -232 2018 930"
    underline-thickness="50"
    underline-position="-75"
    unicode-range="U+0020-U+F002"
  />
<missing-glyph horiz-adv-x="500" 
d="M63 0v930h375v-930h-375zM125 63h250v805h-250v-805z" />
    <glyph glyph-name=".notdef" horiz-adv-x="500" 
d="M63 0v930h375v-930h-375zM125 63h250v805h-250v-805z" />
    <glyph glyph-name=".null" horiz-adv-x="0" 
 />
    <glyph glyph-name="nonmarkingreturn" horiz-adv-x="278" 
 />
    <glyph glyph-name="space" unicode=" " horiz-adv-x="278" 
 />
    <glyph glyph-name="exclam" unicode="!" horiz-adv-x="259" 
d="M169 634q0 -18 -13 -31t-31 -13t-31.5 13t-13.5 31t13.5 31t31.5 13t31 -13t13 -31zM174 541q0 -21 -14.5 -35.5t-34.5 -14.5t-34.5 14.5t-14.5 35.5q0 20 14.5 34.5t34.5 14.5t34.5 -14.5t14.5 -34.5zM172 444q0 -19 -14 -33t-33 -14t-33 14t-14 33t14 33t33 14t33 -14
t14 -33zM167 355q0 -17 -12.5 -29.5t-29.5 -12.5q-18 0 -30 12.5t-12 29.5q0 18 12 30t30 12q17 0 29.5 -12t12.5 -30zM158 279q0 -13 -9.5 -23t-23.5 -10t-24 10t-10 23q0 14 10 24t24 10t23.5 -10t9.5 -24zM174 47q0 -20 -14.5 -34.5t-34.5 -14.5t-34.5 14.5t-14.5 34.5
q0 21 14.5 35.5t34.5 14.5t34.5 -14.5t14.5 -35.5zM152 219q0 -28 -27 -28t-27 28q0 27 27 27t27 -27z" />
    <glyph glyph-name="quotedbl" unicode="&#x22;" horiz-adv-x="354" 
d="M141 675q0 -21 -14.5 -35t-34.5 -14q-21 0 -35.5 14t-14.5 35q0 20 14.5 34.5t35.5 14.5q20 0 34.5 -14.5t14.5 -34.5zM136 581q0 -18 -13 -31t-31 -13q-19 0 -32 13t-13 31t13 31.5t32 13.5q18 0 31 -13.5t13 -31.5zM128 501q0 15 -11 25.5t-25 10.5q-15 0 -25.5 -10.5
t-10.5 -25.5t10.5 -25.5t25.5 -10.5q14 0 25 10.5t11 25.5zM311 675q0 -21 -14.5 -35t-34.5 -14q-21 0 -35.5 14t-14.5 35q0 20 14.5 34.5t35.5 14.5q20 0 34.5 -14.5t14.5 -34.5zM306 581q0 -18 -13 -31t-31 -13q-19 0 -32 13t-13 31t13 31.5t32 13.5q18 0 31 -13.5
t13 -31.5zM298 501q0 15 -11 25.5t-25 10.5q-15 0 -25.5 -10.5t-10.5 -25.5t10.5 -25.5t25.5 -10.5q14 0 25 10.5t11 25.5z" />
    <glyph glyph-name="numbersign" unicode="#" horiz-adv-x="825" 
d="M607 801l-7 -8q-43 35 -90 40q-55 39 -140 52l2 11q84 -13 142 -53q49 -5 93 -42zM652 754l-6 -9q-136 91 -330 129l2 10q194 -37 334 -130zM695 700l-7 -8q-84 60 -188 104q-118 51 -206 57v11q181 -11 401 -164zM721 659l-7 -8q-97 71 -221 122q-138 58 -244 61v11
q112 -3 248 -60q117 -50 224 -126zM745 593l-5 -10q-20 10 -83 62l-22 3q-59 57 -210 99q-136 39 -234 39v11q100 0 236 -39q150 -43 213 -100h4q-54 60 -192 105q-101 33 -219 51l1 11q286 -44 403 -146q8 -8 25 -23q37 -1 72 -29l-7 -9q-13 11 -39 24l-11 1q21 -19 68 -50
zM744 546l-5 -10q-31 15 -83 52q-56 38 -84 53q-133 70 -304 99l2 10q172 -28 307 -100q28 -14 84 -53q52 -36 83 -51zM764 552l-7 -9q-112 95 -266 157q-166 67 -301 62l-1 11l26 1q133 2 291 -66q142 -61 258 -156zM769 455l-8 -7q-40 51 -91 95h-1l-2 3
q-169 146 -329 149l-1 -2l-4 2v0q-16 14 -58 11l-1 11h22q-14 5 -26 3l-2 10l9 1q25 0 59 -25q165 0 336 -151l4 1q32 0 74 -43l-7 -8q-35 36 -59 40q51 -47 85 -90zM775 409l-9 -6q-79 117 -211 198q-143 87 -274 82v11h16q134 2 271 -85q123 -78 207 -200zM775 290l-10 -3
l-9 25l10 4zM770 388l-8 -6q-139 181 -252 229q135 -75 253 -254l-9 -6q-56 88 -132 160q-90 87 -171 114v0q-78 33 -163 35v11q91 -3 171 -37q125 -2 311 -246zM755 225l-10 -3l-8 28l10 3zM252 727q-9 -8 -19 -8q-8 0 -19 5l-1 -1l-3 2l-36 -9l-3 11l38 8q4 6 11 10
l-49 -7l-2 11l52 7l2 -9q8 5 21 9l3 -11q-18 -5 -26 -12q8 -3 14 -3q4 0 10 5zM760 330l-9 -6q-84 128 -158 189q-84 71 -218 113q-44 13 -79 13q-79 0 -204 -80l-6 9q127 82 210 82q37 0 83 -14q137 -44 221 -114q74 -61 160 -192zM259 712l-1 -10q-16 2 -32 2
q-41 0 -74 -16l-5 10q35 16 81 16q17 0 31 -2zM273 692l-2 -10q-11 2 -25 2q-42 0 -107 -23l-3 10q65 24 113 24q12 0 24 -3zM756 287l-11 -3q-19 65 -46 82q40 -69 46 -111l-11 -2q-7 45 -50 117v0l-4 8v0q-97 175 -312 227q-57 14 -78 14q-79 0 -155 -64l-11 -11l-7 8l6 6
q-18 -2 -36 -33l-9 5q22 39 47 39q4 0 9 -2q76 62 156 62q24 0 80 -14q26 -5 77 -19q156 -59 244 -215q37 -2 65 -94zM284 666l-40 -8q-5 -13 -32 -19q-34 -7 -42 -12l-6 9q8 5 39 13q27 7 30 11q-7 4 -18 4q-30 0 -83 -32l-5 9q53 33 88 33q16 0 26 -6l41 9zM165 622
q-16 -1 -40 -21l-7 8q27 23 47 23v-10zM706 81q-15 -33 -29 -44l-6 8q-21 -29 -58 -50l-6 10q62 33 72 85l10 -3q-4 -21 -17 -40q11 8 24 39zM635 86q-28 -41 -57 -41q-33 0 -62 47l-140 240l9 5l140 -240q26 -41 51 -41q24 0 51 36zM680 32q-21 -32 -44 -41l-4 11
q20 7 40 36zM746 203l-11 -1q-5 34 -24 59q-30 136 -154 236.5t-263 100.5q-60 0 -121 -49q-12 -20 -32 -36l12 5q25 30 56 39q27 28 81 28q141 0 259 -91t155 -227q34 -46 37 -116l-11 -1q-2 42 -17 79q9 -43 9 -80q0 -29 -10 -47l-9 4q8 17 8 43q0 172 -125 298.5
t-296 126.5q-49 0 -74 -25q35 19 77 19q82 0 165 -46h4q32 0 97 -53q62 -52 102.5 -142t40.5 -173q0 -24 -4 -50l-11 1q4 24 4 54q0 99 -58 199q-59 104 -146 146q76 -53 129.5 -139.5t65.5 -178.5q1 -2 1 -3q2 -18 2 -38q0 -45 -31 -91t-72 -63q-30 -32 -62 -32
q-50 0 -94 64q-29 42 -67 133q-39 95 -53 116q7 -67 75 -198q63 -122 140 -122q45 0 96 45l7 -8q-22 -20 -42 -31q36 15 77 37l5 -9q-110 -61 -170 -61q-10 0 -17 1q-9 -2 -18 -2q-51 0 -113 79q-49 63 -74 127v5q1 15 -8 29q9 -64 41 -116q48 -76 66 -95q40 -40 104 -40
q38 0 91 21q82 33 89 35l3 -10q-10 -3 -83 -34q-53 -23 -82 -23h-18q-50 0 -86 24q-30 20 -61 66q-69 106 -77 184q-1 1 0 4q-24 70 -24 122q0 38 9 63l10 -3q-8 -24 -8 -52q0 -57 23 -128q24 -19 22 -50q24 -61 70 -121q58 -76 106 -76q8 0 18 3q19 -6 55 3h-9
q-86 -5 -158 135q-54 107 -72 218l2 1q-4 16 -4 30q0 50 22 63l62 21q-13 5 -25 5q-16 0 -30 -11l-7 8q18 15 39 15q13 0 33 -10q60 -29 102 -90q23 -33 66 -122q23 -46 50 -116q2 6 2 13t-2 16l-4 4l2 2q-9 19 -26 59q-46 115 -86 167q-66 89 -156 89q-75 0 -76 -74h-10
q0 85 83 85q96 0 165 -89q40 -52 90 -173q11 -21 28 -66l8 -7l4 12q-52 144 -96 209q-73 106 -182 124l2 11q113 -19 188 -128q46 -67 99 -215q-1 -25 -14 -25q-3 0 -7 3v-3q2 -38 -30 -38q-28 0 -69 74l-71 137q-41 74 -69 74h-2q-3 -12 -3 -24t50 -103l64 -111
q43 -79 86 -79q23 0 48.5 28.5t25.5 52.5l-2 9q-6 58 -48 143.5t-83 128.5q-65 68 -150 93q-6 -7 -45 -10q-42 -3 -68 -20q-40 -26 -61 -90l-10 4q35 107 145 118q11 0 30 5v-2v-1l4 5q-7 -1 -12 -1t-14 1.5t-13 1.5q-81 0 -123 -70q-36 -58 -36 -143q0 -87 44 -215
q50 -147 110 -174q5 -3 11 -3q8 0 18 4q12 -22 65 -19l1 -11l-13 -1q-30 0 -50 11l1 -4q-13 -4 -24 -4q-24 0 -47 11l5 10q20 -10 42 -10q10 0 17 2l-2 2q-7 -2 -13 -2q-8 0 -18 5q-69 41 -116 179q-41 120 -41 219q0 154 94 204q-53 -21 -81.5 -66.5t-28.5 -104.5
q0 -122 34 -228q40 -124 119 -192l-7 -8q-134 114 -156 403l-1 -38q-6 -223 125 -339l-7 -8q-75 68 -105 160q-24 75 -24 192q0 148 53 219q-38 -38 -58 -123q-17 -70 -17 -139q0 -28 4 -60l-11 -1q-4 33 -4 61q0 61 15 129q17 78 46 120l-12 -18v-3h-3q-49 -79 -52 -184
h-11q2 99 46 175q-31 -27 -46 -119l-11 1q11 65 31 103l-8 3q13 38 34 52l6 -9q-17 -11 -27 -38q13 20 32 25q39 60 94 93q-26 -8 -49 -34l1 -1l-5 -4v0q-15 -13 -30 -35l-9 6l12 16l-16 -19l-9 6l16 20l-13 -7v0q-39 -29 -42 -88l-11 1q4 62 45 94l-1 1l2 1q3 28 62 53l1 3
l2 -1q59 50 129 50q143 0 268 -101.5t156 -241.5q20 -27 25 -63zM120 541l-29 -38v0l-19 -31l-9 5l19 34l1 -1l28 37zM466 -53l-4 -10q-41 16 -65.5 46l-48.5 60q-3 1 -1 2q-104 128 -100 286v16h11v-17q-3 -140 90 -269q-6 37 -48 128q-36 77 -36 137q0 100 77 111l1 -11
q-67 -9 -67 -98q0 -55 44 -156q42 -97 40 -124l43.5 -57t63.5 -44zM489 -113q-33 -6 -56 -6q-51 0 -73 12q-38 21 -84 94q-40 65 -54 117q-32 109 -32 209q0 31 14 75q17 50 40 62l4 -10q-13 -7 -25 -39l-4 2l3 -3q-21 -24 -21 -88q0 -97 31 -205q14 -49 53 -113
q44 -73 80 -92q20 -10 66 -10q22 0 56 6zM416 -92l-1 -11q-23 0 -56 26q-66 52 -109 170q-40 107 -40 202q0 71 23 118q30 60 94 58h17l-1 -11h-12q-110 3 -110 -161q0 -101 52 -230q62 -154 143 -161zM630 -106l-57 -22l-4 10l57 22zM662 -63q-108 -71 -247 -80v11
q132 6 241 78zM563 -130q-12 -9 -53 -25l-4 10q18 7 51 24zM331 -95l-7 -8q-76 65 -118 190q-35 108 -35 225q0 28 2 54l11 -1q-4 -35 -4 -70q0 -109 37 -211q40 -115 114 -179zM503 -153q-21 -9 -90 -17l-2 11q23 2 46.5 5t41.5 11zM500 -175q-42 -18 -112 -19v11
q69 1 108 18zM173 -20l-8 -7q-76 89 -73 275l1 24l11 -1l-1 -25q-3 -177 70 -266zM409 -171l-67 -6l-1 11l67 5zM365 -145q-19 -5 -38 -5q-16 0 -34 4l2 11q18 -4 36 -4q13 0 31 5zM226 -82l-7 -9q-34 25 -46 48l9 5q11 -21 44 -44zM480 455q-15 20 -36 24q10 -12 36 -24z
M654 147q0 20 -11 46l-20 43q-58 143 -132 205l-1 -2q-48 18 -60 42q-17 13 -57 27l-11 -10q118 -34 192 -143q52 -77 98 -226q2 8 2 18zM667 213q-29 135 -131 236q-110 108 -242 108q-74 0 -138 -70q60 61 143 61q189 0 324 -231q14 -35 44 -104zM674 147q0 18 -2 34
q-17 22 -33 64q-22 59 -26 67q-9 18 -39 59q-60 82 -116 120q-69 46 -159 46q-9 0 -21 -1q34 0 82.5 -13t74.5 -32l2 1v-1q34 -2 58 -39q46 -31 82 -96q4 -7 55 -116l22 -44q11 -25 11 -48q0 -25 -11 -43q-5 -40 -51 -72q-6 -29 -45 -29q-52 0 -125 116q8 -28 45 -69l-9 -7
q-52 59 -46 93q-86 144 -86 195q0 30 18 30q7 0 14 -4l7 2q33 0 76 -74l71 -138q39 -73 63 -73q-21 14 -60 96q-49 103 -71 136q-46 70 -91 70q-39 0 -39 -40q0 -18 11 -42v0q54 -134 75 -175q62 -123 112 -134l-2 -10q-82 17 -203 335v1q-4 13 -4 25q0 51 50 51
q49 0 98 -72q25 -37 74 -139q39 -82 57 -94q0 10 -26 66q-49 109 -71 144q-49 81 -110 110q-9 -8 -34.5 -12t-34.5 -13q-17 -14 -17 -50q0 -17 7 -40q23 -23 57 -111q41 -103 63 -139q42 -68 92 -68q21 0 41 16l-7 -1q-43 -3 -76 47l9 6q28 -42 68 -42q10 0 21 4l4 5l3 -2
q38 17 65 59.5t27 84.5zM362 511q-44 14 -84 14q-100 0 -136 -115q23 49 70 77t101 27h6v-5q13 -4 26 -4q11 0 17 6zM152 539q-28 -16 -36 -29q22 12 36 29zM586 24q-8 -2 -15 -2q-56 0 -107 105q-2 4 -60 103q-44 76 -44 95q0 11 3 24l-7 1q-8 0 -8 -14q0 -56 79 -185
q82 -136 132 -136q19 0 27 9zM457 510h-1l-2 1zM454 511l-4 2v0zM435 139v-1l-1 1h1z" />
    <glyph glyph-name="dollar" unicode="$" horiz-adv-x="543" 
d="M492 555q0 -20 -14.5 -34.5t-34.5 -14.5t-34.5 14.5t-14.5 34.5q0 21 14.5 35.5t34.5 14.5t34.5 -14.5t14.5 -35.5zM308 694q0 -16 -11 -27t-27 -11t-27 11t-11 27t11 27t27 11t27 -11t11 -27zM406 604q0 -20 -14.5 -34.5t-34.5 -14.5t-34.5 14.5t-14.5 34.5
q0 21 14.5 35.5t34.5 14.5t34.5 -14.5t14.5 -35.5zM307 618q0 -16 -11 -27t-27 -11q-15 0 -26.5 11t-11.5 27t11.5 27t26.5 11q16 0 27 -11t11 -27zM307 542q0 -15 -11 -26.5t-27 -11.5q-15 0 -26.5 11.5t-11.5 26.5q0 16 11.5 27t26.5 11q16 0 27 -11t11 -27zM230 602
q0 -20 -14.5 -34.5t-35.5 -14.5q-20 0 -34.5 14.5t-14.5 34.5t14.5 34.5t34.5 14.5q21 0 35.5 -14.5t14.5 -34.5zM307 466q0 -15 -11 -26.5t-27 -11.5q-15 0 -26.5 11.5t-11.5 26.5q0 16 11.5 27t26.5 11q16 0 27 -11t11 -27zM482 228q0 -20 -14.5 -34.5t-34.5 -14.5
q-21 0 -35 14.5t-14 34.5q0 21 14 35t35 14q20 0 34.5 -14.5t14.5 -34.5zM412 297q0 -20 -14.5 -34.5t-34.5 -14.5t-34.5 14.5t-14.5 34.5q0 21 14.5 35t34.5 14t34.5 -14.5t14.5 -34.5zM307 391q0 -16 -11 -27t-27 -11q-15 0 -26.5 11t-11.5 27q0 15 11.5 26t26.5 11
q16 0 27 -11t11 -26zM146 535q0 -21 -14.5 -35.5t-34.5 -14.5q-21 0 -35.5 14.5t-14.5 35.5q0 20 14.5 34.5t35.5 14.5q20 0 34.5 -14.5t14.5 -34.5zM307 315q0 -16 -11 -27t-27 -11q-15 0 -26.5 11t-11.5 27q0 15 11.5 26.5t26.5 11.5q16 0 27 -11.5t11 -26.5zM482 126
q0 -21 -14.5 -35.5t-34.5 -14.5t-34.5 14.5t-14.5 35.5q0 20 14.5 34.5t34.5 14.5t34.5 -14.5t14.5 -34.5zM233 364q0 -20 -14.5 -34.5t-34.5 -14.5q-21 0 -35 14.5t-14 34.5q0 21 14 35.5t35 14.5q20 0 34.5 -14.5t14.5 -35.5zM154 432q0 -20 -14.5 -34.5t-34.5 -14.5
t-34.5 14.5t-14.5 34.5t14.5 34.5t34.5 14.5t34.5 -14.5t14.5 -34.5zM307 239q0 -16 -11 -27t-27 -11q-15 0 -26.5 11t-11.5 27q0 15 11.5 26.5t26.5 11.5q16 0 27 -11.5t11 -26.5zM307 163q0 -16 -11 -27t-27 -11q-15 0 -26.5 11t-11.5 27t11.5 27t26.5 11q16 0 27 -11
t11 -27zM407 55q0 -20 -14.5 -34.5t-35.5 -14.5q-20 0 -34.5 14.5t-14.5 34.5t14.5 34.5t34.5 14.5q21 0 35.5 -14.5t14.5 -34.5zM307 87q0 -16 -11 -27t-27 -11q-15 0 -26.5 11t-11.5 27t11.5 27t26.5 11q16 0 27 -11t11 -27zM307 11q0 -15 -11 -26.5t-27 -11.5
q-15 0 -26.5 11.5t-11.5 26.5q0 16 11.5 27t26.5 11q16 0 27 -11t11 -27zM236 50q0 -20 -14 -34.5t-35 -14.5q-20 0 -34.5 14.5t-14.5 34.5q0 21 14.5 35.5t34.5 14.5q21 0 35 -14.5t14 -35.5zM307 -65q0 -15 -11 -26.5t-26 -11.5q-16 0 -27 11.5t-11 26.5q0 16 11 27t27 11
q15 0 26 -11t11 -27zM143 86q0 -20 -14 -34.5t-35 -14.5q-20 0 -34.5 14.5t-14.5 34.5t14.5 34.5t34.5 14.5q21 0 35 -14.5t14 -34.5z" />
    <glyph glyph-name="percent" unicode="%" horiz-adv-x="680" 
d="M475 502q-21 0 -35.5 14.5t-14.5 35.5t14.5 35.5t35.5 14.5t35.5 -14.5t14.5 -35.5t-14.5 -35.5t-35.5 -14.5zM421 418q-20 0 -34.5 15t-14.5 35q0 21 14.5 35.5t35.5 14.5q20 0 34.5 -14.5t14.5 -35.5t-14.5 -35.5t-35.5 -14.5zM368 335q-21 0 -35.5 14.5t-14.5 34.5
q0 21 15 35.5t35 14.5q21 0 35.5 -14.5t14.5 -35.5q0 -20 -14.5 -34.5t-35.5 -14.5zM315 251q-21 0 -35.5 14.5t-14.5 35.5q0 20 14.5 34.5t35.5 14.5q20 0 34.5 -14.5t14.5 -35.5q0 -20 -14.5 -34.5t-34.5 -14.5zM261 167q-20 0 -34.5 14.5t-14.5 35.5q0 20 14.5 34.5
t34.5 14.5q21 0 35.5 -14.5t14.5 -35.5q0 -20 -14.5 -34.5t-35.5 -14.5zM208 83q-21 0 -35.5 14.5t-14.5 35.5q0 20 14.5 34.5t35.5 14.5q20 0 34.5 -14.5t14.5 -35.5q0 -20 -14.5 -34.5t-34.5 -14.5zM154 -1q-20 0 -34.5 14.5t-14.5 35.5q0 20 14.5 34.5t34.5 14.5
q21 0 35.5 -14.5t14.5 -34.5q0 -21 -14.5 -35.5t-35.5 -14.5zM528 586q-20 0 -34.5 14.5t-14.5 35.5t14.5 35.5t35.5 14.5q20 0 34.5 -15t14.5 -35q0 -21 -14.5 -35.5t-35.5 -14.5zM291 624q0 -17 -11.5 -28.5t-28.5 -11.5q-16 0 -27.5 11.5t-11.5 28.5q0 16 11.5 27.5
t27.5 11.5t28 -11.5t12 -27.5zM328 554q0 -16 -11.5 -27.5t-27.5 -11.5q-17 0 -28.5 11.5t-11.5 27.5q0 17 11.5 28.5t28.5 11.5q16 0 27.5 -11.5t11.5 -28.5zM217 653q0 -17 -11.5 -28.5t-27.5 -11.5t-28 11.5t-12 28.5q0 16 12 27.5t28 11.5t27.5 -11.5t11.5 -27.5z
M317 477q0 -16 -12 -28t-28 -12t-27.5 11.5t-11.5 28.5q0 16 11.5 27.5t27.5 11.5t28 -11.5t12 -27.5zM144 626q0 -16 -12 -28t-28 -12t-27.5 11.5t-11.5 28.5q0 16 11.5 27.5t27.5 11.5t28 -11.5t12 -27.5zM254 427q0 -16 -11.5 -28t-27.5 -12t-28 12t-12 28t11.5 27.5
t28.5 11.5q16 0 27.5 -11.5t11.5 -27.5zM105 558q0 -16 -12 -27.5t-28 -11.5t-27.5 11.5t-11.5 27.5q0 17 11.5 28.5t27.5 11.5t28 -11.5t12 -28.5zM176 427q0 -16 -12 -28t-28 -12t-27.5 12t-11.5 28t11.5 27.5t27.5 11.5t28 -11.5t12 -27.5zM118 481q0 -17 -11.5 -28.5
t-27.5 -11.5q-17 0 -28.5 11.5t-11.5 28.5q0 16 11.5 27.5t28.5 11.5q16 0 27.5 -11.5t11.5 -27.5zM616 228q0 -17 -11.5 -28.5t-28.5 -11.5q-16 0 -27.5 11.5t-11.5 28.5q0 16 11.5 27.5t27.5 11.5t28 -11.5t12 -27.5zM653 158q0 -16 -11.5 -27.5t-27.5 -11.5
q-17 0 -28.5 11.5t-11.5 27.5q0 17 11.5 28.5t28.5 11.5q16 0 27.5 -11.5t11.5 -28.5zM542 257q0 -17 -11.5 -28.5t-27.5 -11.5t-28 11.5t-12 28.5q0 16 12 27.5t28 11.5t27.5 -11.5t11.5 -27.5zM642 81q0 -16 -12 -28t-28 -12t-27.5 11.5t-11.5 28.5q0 16 11.5 27.5
t27.5 11.5t28 -11.5t12 -27.5zM469 230q0 -16 -12 -28t-28 -12t-27.5 11.5t-11.5 28.5q0 16 11.5 27.5t27.5 11.5t28 -11.5t12 -27.5zM579 31q0 -16 -11.5 -28t-27.5 -12t-28 12t-12 28t11.5 27.5t28.5 11.5q16 0 27.5 -11.5t11.5 -27.5zM430 162q0 -16 -12 -27.5t-28 -11.5
t-27.5 11.5t-11.5 27.5q0 17 11.5 28.5t27.5 11.5t28 -11.5t12 -28.5zM501 31q0 -16 -12 -28t-28 -12t-27.5 12t-11.5 28t11.5 27.5t27.5 11.5t28 -11.5t12 -27.5zM443 85q0 -17 -11.5 -28.5t-27.5 -11.5q-17 0 -28.5 11.5t-11.5 28.5q0 16 11.5 27.5t28.5 11.5
q16 0 27.5 -11.5t11.5 -27.5z" />
    <glyph glyph-name="ampersand" unicode="&#x26;" horiz-adv-x="663" 
d="M456 597q0 -21 -14 -36t-34 -15t-35.5 13.5t-15.5 33.5q0 21 13.5 36t34.5 15q20 0 35.5 -13.5t15.5 -33.5zM364 634q0 -20 -13.5 -35.5t-34.5 -15.5q-20 0 -35.5 13.5t-15.5 34.5q0 20 14 35.5t34 15.5t35.5 -14t15.5 -34zM471 498q0 -21 -13.5 -36t-33.5 -15
q-21 0 -36 13.5t-15 33.5q0 21 13.5 36t33.5 15q21 0 36 -13.5t15 -33.5zM603 286q0 -20 -14.5 -34.5t-34.5 -14.5q-21 0 -35.5 14.5t-14.5 34.5t14.5 34.5t35.5 14.5q20 0 34.5 -14.5t14.5 -34.5zM271 605q0 -21 -14 -36t-34 -15t-35.5 13.5t-15.5 33.5q0 21 13.5 36
t34.5 15q20 0 35.5 -13.5t15.5 -33.5zM418 414q0 -20 -13.5 -35.5t-33.5 -15.5q-21 0 -36 13.5t-15 33.5q0 21 13.5 36t33.5 15q21 0 36 -13.5t15 -33.5zM546 208q0 -15 -11 -24.5t-26 -9.5q-14 0 -24 11t-10 26q0 14 11 24t26 10q14 0 24 -11t10 -26zM237 513
q0 -21 -13.5 -36t-33.5 -15q-21 0 -36 13.5t-15 33.5q0 21 13.5 36t33.5 15q21 0 36 -13.5t15 -33.5zM276 422q0 -20 -13.5 -35.5t-33.5 -15.5q-21 0 -36 13.5t-15 34.5q0 20 13.5 35t33.5 15q21 0 36 -13.5t15 -33.5zM342 350q0 -20 -13.5 -35.5t-33.5 -15.5t-35.5 13.5
t-15.5 34.5q0 20 13.5 35.5t33.5 15.5q21 0 36 -14t15 -34zM409 278q0 -20 -14 -35.5t-34 -15.5t-35.5 14t-15.5 34t13.5 35.5t34.5 15.5q20 0 35.5 -14t15.5 -34zM475 206q0 -20 -13.5 -35.5t-34.5 -15.5q-20 0 -35.5 14t-15.5 34t14 35.5t34 15.5t35.5 -13.5t15.5 -34.5z
M540 125q0 -20 -14.5 -34.5t-34.5 -14.5q-21 0 -35.5 14.5t-14.5 34.5t14.5 34.5t35.5 14.5q20 0 34.5 -14.5t14.5 -34.5zM604 51q0 -21 -14.5 -35.5t-35.5 -14.5q-20 0 -34.5 14.5t-14.5 35.5q0 20 14.5 34.5t34.5 14.5q21 0 35.5 -14.5t14.5 -34.5zM442 118
q0 -14 -10.5 -24.5t-25.5 -10.5t-25.5 10.5t-10.5 24.5q0 15 10.5 25.5t25.5 10.5t25.5 -10.5t10.5 -25.5zM260 298q0 -20 -14 -35.5t-34 -15.5t-35.5 13.5t-15.5 33.5q0 21 14 37t34 16t35.5 -14.5t15.5 -34.5zM388 65q0 -20 -14.5 -34.5t-34.5 -14.5t-34.5 14.5
t-14.5 34.5t14.5 34.5t34.5 14.5t34.5 -14.5t14.5 -34.5zM183 237q0 -21 -14.5 -35t-34.5 -14q-21 0 -35.5 14t-14.5 35q0 20 14.5 34.5t35.5 14.5q20 0 34.5 -14.5t14.5 -34.5zM294 36q0 -20 -14.5 -34.5t-35.5 -14.5q-20 0 -34.5 14.5t-14.5 34.5t14.5 34.5t34.5 14.5
q21 0 35.5 -14t14.5 -35zM151 143q0 -20 -14.5 -34.5t-35.5 -14.5q-20 0 -34.5 14.5t-14.5 34.5q0 21 14.5 35.5t34.5 14.5q21 0 35.5 -14.5t14.5 -35.5zM198 57q0 -20 -14.5 -34.5t-34.5 -14.5q-21 0 -35.5 14.5t-14.5 34.5t14.5 34.5t35.5 14.5q20 0 34.5 -14.5
t14.5 -34.5z" />
    <glyph glyph-name="quotesingle" unicode="'" horiz-adv-x="245" 
d="M166 675q0 -21 -14.5 -35t-34.5 -14q-21 0 -35.5 14t-14.5 35q0 20 14.5 34.5t35.5 14.5q20 0 34.5 -14.5t14.5 -34.5zM161 581q0 -18 -13 -31t-31 -13q-19 0 -32 13t-13 31t13 31.5t32 13.5q18 0 31 -13.5t13 -31.5zM153 501q0 15 -11 25.5t-25 10.5q-15 0 -25.5 -10.5
t-10.5 -25.5t10.5 -25.5t25.5 -10.5q14 0 25 10.5t11 25.5z" />
    <glyph glyph-name="parenleft" unicode="(" horiz-adv-x="347" 
d="M283 758q0 -15 -10.5 -25.5t-25.5 -10.5q-14 0 -25 10.5t-11 25.5t11 25.5t25 10.5q15 0 25.5 -10.5t10.5 -25.5zM239 697q0 -16 -11.5 -28t-28.5 -12q-16 0 -27.5 12t-11.5 28q0 17 11.5 28.5t27.5 11.5q17 0 28.5 -11.5t11.5 -28.5zM206 624q0 -18 -13 -31t-31 -13
t-31 13t-13 31t13 31t31 13t31 -13t13 -31zM180 534q0 -20 -14.5 -34.5t-35.5 -14.5q-20 0 -34.5 14.5t-14.5 34.5q0 21 14.5 35.5t34.5 14.5q21 0 35.5 -14.5t14.5 -35.5zM161 437q0 -21 -14.5 -35t-35.5 -14q-20 0 -34.5 14t-14.5 35q0 20 14.5 34.5t34.5 14.5
q21 0 35.5 -14.5t14.5 -34.5zM151 338q0 -20 -14.5 -34.5t-35.5 -14.5q-20 0 -34.5 14.5t-14.5 34.5q0 21 14.5 35.5t34.5 14.5q21 0 35.5 -14.5t14.5 -35.5zM161 240q0 -20 -14.5 -34.5t-35.5 -14.5q-20 0 -34.5 14.5t-14.5 34.5t14.5 34.5t34.5 14.5q21 0 35.5 -14.5
t14.5 -34.5zM180 142q0 -20 -14.5 -34.5t-35.5 -14.5q-20 0 -34.5 14.5t-14.5 34.5q0 21 14.5 35t34.5 14q21 0 35.5 -14t14.5 -35zM206 53q0 -19 -13 -32t-31 -13t-31 13t-13 32q0 18 13 31t31 13t31 -13t13 -31zM239 -21q0 -16 -11.5 -27.5t-28.5 -11.5q-16 0 -27.5 11.5
t-11.5 27.5q0 17 11.5 28.5t27.5 11.5q17 0 28.5 -11.5t11.5 -28.5zM283 -81q0 -15 -10.5 -25.5t-25.5 -10.5q-14 0 -25 10.5t-11 25.5t11 25.5t25 10.5q15 0 25.5 -10.5t10.5 -25.5z" />
    <glyph glyph-name="parenright" unicode=")" horiz-adv-x="347" 
d="M52 -81q0 15 10.5 25.5t25.5 10.5t25.5 -10.5t10.5 -25.5t-10.5 -25.5t-25.5 -10.5t-25.5 10.5t-10.5 25.5zM96 -21q0 17 11.5 28.5t28.5 11.5q16 0 28 -11.5t12 -28.5q0 -16 -12 -27.5t-28 -11.5q-17 0 -28.5 11.5t-11.5 27.5zM129 53q0 18 13 31t31 13q19 0 32 -13
t13 -31q0 -19 -13 -32t-32 -13q-18 0 -31 13t-13 32zM156 142q0 21 14.5 35t34.5 14t34.5 -14t14.5 -35q0 -20 -14.5 -34.5t-34.5 -14.5t-34.5 14.5t-14.5 34.5zM175 240q0 20 14.5 34.5t34.5 14.5t34.5 -14.5t14.5 -34.5t-14.5 -34.5t-34.5 -14.5t-34.5 14.5t-14.5 34.5z
M185 338q0 21 14.5 35.5t34.5 14.5t34.5 -14.5t14.5 -35.5q0 -20 -14.5 -34.5t-34.5 -14.5t-34.5 14.5t-14.5 34.5zM175 437q0 20 14.5 34.5t34.5 14.5t34.5 -14.5t14.5 -34.5q0 -21 -14.5 -35t-34.5 -14t-34.5 14t-14.5 35zM156 534q0 21 14.5 35.5t34.5 14.5t34.5 -14.5
t14.5 -35.5q0 -20 -14.5 -34.5t-34.5 -14.5t-34.5 14.5t-14.5 34.5zM129 624q0 18 13 31t31 13q19 0 32 -13t13 -31t-13 -31t-32 -13q-18 0 -31 13t-13 31zM96 697q0 17 11.5 28.5t28.5 11.5q16 0 28 -11.5t12 -28.5q0 -16 -12 -28t-28 -12q-17 0 -28.5 12t-11.5 28zM52 758
q0 15 10.5 25.5t25.5 10.5t25.5 -10.5t10.5 -25.5t-10.5 -25.5t-25.5 -10.5t-25.5 10.5t-10.5 25.5z" />
    <glyph glyph-name="asterisk" unicode="*" horiz-adv-x="521" 
d="M451 592q0 -20 -14.5 -34.5t-34.5 -14.5t-34.5 14.5t-14.5 34.5t14.5 34.5t34.5 14.5t34.5 -14.5t14.5 -34.5zM301 679q0 -20 -14.5 -34.5t-34.5 -14.5t-34.5 14.5t-14.5 34.5t14.5 34.5t34.5 14.5t34.5 -14.5t14.5 -34.5zM365 547q0 -16 -12 -28t-28 -12q-17 0 -28.5 12
t-11.5 28q0 17 11.5 28.5t28.5 11.5q16 0 28 -11.5t12 -28.5zM292 590q0 -17 -12 -28.5t-28 -11.5q-17 0 -28.5 11.5t-11.5 28.5q0 16 11.5 28t28.5 12q16 0 28 -12t12 -28zM451 420q0 -21 -14.5 -35.5t-34.5 -14.5q-21 0 -35 14.5t-14 35.5q0 20 14.5 34.5t34.5 14.5
t34.5 -14.5t14.5 -34.5zM364 464q0 -16 -11.5 -28t-27.5 -12q-17 0 -28.5 12t-11.5 28q0 17 11.5 28.5t28.5 11.5q16 0 27.5 -11.5t11.5 -28.5zM297 506q0 -18 -13 -31t-31 -13t-31 13t-13 31t13 31t31 13t31 -13t13 -31zM221 548q0 -17 -11.5 -28.5t-28.5 -11.5
q-16 0 -28 11.5t-12 28.5q0 16 12 27.5t28 11.5q17 0 28.5 -11.5t11.5 -27.5zM153 592q0 -20 -14.5 -34.5t-34.5 -14.5t-34.5 14.5t-14.5 34.5t14.5 34.5t34.5 14.5t34.5 -14.5t14.5 -34.5zM294 422q0 -16 -12 -28t-28 -12q-17 0 -28.5 12t-11.5 28t11.5 28t28.5 12
q16 0 28 -12t12 -28zM221 464q0 -16 -11.5 -27.5t-28.5 -11.5q-16 0 -28 11.5t-12 27.5q0 17 12 28.5t28 11.5t28 -11.5t12 -28.5zM303 333q0 -20 -14.5 -34.5t-34.5 -14.5t-34.5 14.5t-14.5 34.5t14.5 34.5t34.5 14.5t34.5 -14.5t14.5 -34.5zM153 420q0 -20 -14.5 -34.5
t-34.5 -14.5t-34.5 14t-14.5 35q0 20 14.5 34.5t34.5 14.5t34.5 -14.5t14.5 -34.5z" />
    <glyph glyph-name="plus" unicode="+" horiz-adv-x="584" 
d="M539 354q0 -20 -14.5 -34.5t-34.5 -14.5t-34.5 14.5t-14.5 34.5t14.5 34.5t34.5 14.5t34.5 -14.5t14.5 -34.5zM441 354q0 -20 -14.5 -34.5t-35.5 -14.5q-20 0 -34.5 14.5t-14.5 34.5t14.5 34.5t34.5 14.5q21 0 35.5 -14.5t14.5 -34.5zM244 354q0 -20 -14.5 -34.5
t-35.5 -14.5q-20 0 -34.5 14.5t-14.5 34.5t14.5 34.5t34.5 14.5q21 0 35.5 -14.5t14.5 -34.5zM145 354q0 -20 -14.5 -34.5t-34.5 -14.5t-34.5 14.5t-14.5 34.5t14.5 34.5t34.5 14.5t34.5 -14.5t14.5 -34.5zM293 600q20 0 34.5 -14.5t14.5 -34.5t-14.5 -34.5t-34.5 -14.5
t-34.5 14.5t-14.5 34.5t14.5 34.5t34.5 14.5zM293 502q20 0 34.5 -14.5t14.5 -35.5q0 -20 -14.5 -34.5t-34.5 -14.5t-34.5 14.5t-14.5 34.5q0 21 14.5 35.5t34.5 14.5zM293 403q20 0 34.5 -14.5t14.5 -34.5t-14.5 -34.5t-34.5 -14.5t-34.5 14.5t-14.5 34.5t14.5 34.5
t34.5 14.5zM293 305q20 0 34.5 -14.5t14.5 -35.5q0 -20 -14.5 -34.5t-34.5 -14.5t-34.5 14.5t-14.5 34.5q0 21 14.5 35.5t34.5 14.5zM293 206q20 0 34.5 -14.5t14.5 -34.5t-14.5 -34.5t-34.5 -14.5t-34.5 14.5t-14.5 34.5t14.5 34.5t34.5 14.5z" />
    <glyph glyph-name="comma" unicode="," horiz-adv-x="271" 
d="M125 20q-22 0 -37.5 15.5t-15.5 37.5q0 23 15.5 38.5t38.5 15.5q22 0 37.5 -16t15.5 -38t-15.5 -37.5t-38.5 -15.5zM148 -52q-15 0 -25.5 10.5t-10.5 25.5t11 25.5t25 10.5q15 0 25.5 -10.5t10.5 -25.5t-10.5 -25.5t-25.5 -10.5zM113 -101q-29 0 -29 29t29 29t29 -29
t-29 -29z" />
    <glyph glyph-name="hyphen" unicode="-" horiz-adv-x="323" 
d="M257 341q0 -21 -14.5 -35.5t-34.5 -14.5q-21 0 -35.5 14.5t-14.5 35.5q0 20 14.5 34.5t35.5 14.5q20 0 34.5 -14.5t14.5 -34.5zM158 341q0 -21 -14.5 -35.5t-34.5 -14.5t-34.5 14.5t-14.5 35.5q0 20 14.5 34.5t34.5 14.5t34.5 -14.5t14.5 -34.5z" />
    <glyph glyph-name="hyphen" unicode="&#x2010;" horiz-adv-x="323" 
d="M257 341q0 -21 -14.5 -35.5t-34.5 -14.5q-21 0 -35.5 14.5t-14.5 35.5q0 20 14.5 34.5t35.5 14.5q20 0 34.5 -14.5t14.5 -34.5zM158 341q0 -21 -14.5 -35.5t-34.5 -14.5t-34.5 14.5t-14.5 35.5q0 20 14.5 34.5t34.5 14.5t34.5 -14.5t14.5 -34.5z" />
    <glyph glyph-name="period" unicode="." horiz-adv-x="259" 
d="M174 47q0 -20 -14.5 -34.5t-34.5 -14.5t-34.5 14.5t-14.5 34.5q0 21 14.5 35.5t34.5 14.5t34.5 -14.5t14.5 -35.5z" />
    <glyph glyph-name="slash" unicode="/" horiz-adv-x="281" 
d="M207 530q-20 0 -34.5 14.5t-14.5 35.5q0 20 14.5 34.5t34.5 14.5t34.5 -14.5t14.5 -35.5q0 -20 -14 -34.5t-35 -14.5zM181 435q-20 0 -34.5 14.5t-14.5 35.5q0 20 14.5 34.5t34.5 14.5t34.5 -14.5t14.5 -34.5q0 -21 -14.5 -35.5t-34.5 -14.5zM154 341q-20 0 -34.5 14
t-14.5 35q0 20 14.5 34.5t35.5 14.5q20 0 34.5 -14.5t14.5 -34.5q0 -21 -14.5 -35t-35.5 -14zM128 246q-20 0 -34.5 14.5t-14.5 34.5t14.5 34.5t34.5 14.5q21 0 35 -14.5t14 -34.5t-14 -34.5t-35 -14.5zM102 151q-20 0 -34.5 14.5t-14.5 34.5t14.5 34.5t34.5 14.5
t34.5 -14.5t14.5 -34.5t-14.5 -34.5t-34.5 -14.5zM75 56q-20 0 -34.5 14.5t-14.5 34.5t14.5 34.5t35.5 14.5q20 0 34.5 -14.5t14.5 -34.5t-14.5 -34.5t-35.5 -14.5zM49 -39q-20 0 -34.5 14.5t-14.5 34.5t14.5 34.5t34.5 14.5q21 0 35 -14.5t14 -34.5t-14 -34.5t-35 -14.5z
M233 625q-20 0 -34.5 14.5t-14.5 35.5q0 20 14.5 34.5t35.5 14.5q20 0 34.5 -14.5t14.5 -35.5q0 -20 -14.5 -34.5t-35.5 -14.5z" />
    <glyph glyph-name="zero" unicode="0" horiz-adv-x="624" 
d="M443 609q0 -20 -14.5 -34.5t-34.5 -14.5q-21 0 -35 14.5t-14 35.5q0 20 14.5 34.5t34.5 14.5t34.5 -14.5t14.5 -35.5zM510 536q0 -20 -14.5 -34.5t-35.5 -14.5q-20 0 -34.5 14.5t-14.5 35.5q0 20 15 34.5t35 14.5t34.5 -14.5t14.5 -35.5zM352 646q0 -20 -14 -34.5
t-35 -14.5q-20 0 -34.5 14.5t-14.5 34.5t14.5 34.5t34.5 14.5t34.5 -14t14.5 -35zM540 441q0 -20 -15 -34.5t-35 -14.5t-34.5 14.5t-14.5 35.5q0 20 14.5 34.5t34.5 14.5q21 0 35.5 -15t14.5 -35zM551 343q0 -20 -14.5 -34.5t-34.5 -14.5t-35 14.5t-15 34.5t14.5 34.5
t34.5 14.5q21 0 35.5 -14t14.5 -35zM262 610q0 -20 -14.5 -34.5t-34.5 -14.5q-21 0 -35.5 14.5t-14.5 34.5t14.5 34.5t34.5 14.5q21 0 35.5 -14t14.5 -35zM539 245q0 -20 -14.5 -34.5t-34.5 -14.5t-34.5 14.5t-14.5 34.5t14 34.5t35 14.5q20 0 34.5 -14t14.5 -35zM195 537
q0 -20 -14.5 -34.5t-34.5 -14.5t-34.5 14t-14.5 35q0 20 14 34.5t35 14.5q20 0 34.5 -14t14.5 -35zM509 150q0 -20 -14 -34.5t-35 -14.5q-20 0 -34.5 14t-14.5 35q0 20 14.5 34.5t34.5 14.5t34.5 -14.5t14.5 -34.5zM165 442q0 -20 -14 -34.5t-35 -14.5q-20 0 -34.5 14
t-14.5 35q0 20 14.5 34.5t34.5 14.5t34.5 -14.5t14.5 -34.5zM443 77q0 -20 -14.5 -34.5t-34.5 -14.5q-21 0 -35.5 14t-14.5 35q0 20 14.5 34.5t34.5 14.5q21 0 35.5 -14.5t14.5 -34.5zM153 343q0 -21 -14.5 -35t-34.5 -14q-21 0 -35 14.5t-14 34.5t14.5 34.5t34.5 14.5
t34.5 -14.5t14.5 -34.5zM165 244q0 -20 -14.5 -34.5t-34.5 -14.5q-21 0 -35.5 15t-14.5 35t15 34.5t35 14.5t34.5 -14.5t14.5 -35.5zM352 40q0 -20 -14.5 -34.5t-34.5 -14.5q-21 0 -35 14.5t-14 34.5q0 21 14.5 35t34.5 14t34.5 -14.5t14.5 -34.5zM195 149q0 -20 -15 -34.5
t-35 -14.5t-34.5 14.5t-14.5 35.5q0 20 14.5 34.5t35.5 14.5q20 0 34.5 -14.5t14.5 -35.5zM261 76q0 -20 -14.5 -34.5t-34.5 -14.5t-34.5 14.5t-14.5 35.5q0 20 14.5 34.5t34.5 14.5q21 0 35 -14.5t14 -35.5z" />
    <glyph glyph-name="one" unicode="1" horiz-adv-x="251" 
d="M167 641q0 -20 -14.5 -34.5t-34.5 -14.5q-21 0 -35.5 14.5t-14.5 34.5q0 21 14.5 35.5t35.5 14.5q20 0 34.5 -14.5t14.5 -35.5zM167 543q0 -20 -14.5 -34.5t-34.5 -14.5q-21 0 -35.5 14.5t-14.5 34.5t14.5 34.5t35.5 14.5q20 0 34.5 -14.5t14.5 -34.5zM167 444
q0 -20 -14.5 -34.5t-34.5 -14.5q-21 0 -35.5 14.5t-14.5 34.5q0 21 14.5 35.5t35.5 14.5q20 0 34.5 -14.5t14.5 -35.5zM167 346q0 -20 -14.5 -34.5t-34.5 -14.5q-21 0 -35.5 14.5t-14.5 34.5t14.5 34.5t35.5 14.5q20 0 34.5 -14.5t14.5 -34.5zM167 247q0 -20 -14.5 -34.5
t-34.5 -14.5q-21 0 -35.5 14.5t-14.5 34.5q0 21 14.5 35.5t35.5 14.5q20 0 34.5 -14.5t14.5 -35.5zM167 149q0 -20 -14.5 -34.5t-34.5 -14.5q-21 0 -35.5 14.5t-14.5 34.5t14.5 34.5t35.5 14.5q20 0 34.5 -14.5t14.5 -34.5zM167 50q0 -20 -14.5 -34.5t-34.5 -14.5
q-21 0 -35.5 14.5t-14.5 34.5q0 21 14.5 35.5t35.5 14.5q20 0 34.5 -14.5t14.5 -35.5z" />
    <glyph glyph-name="two" unicode="2" horiz-adv-x="522" 
d="M350 626q0 -20 -14.5 -34.5t-34.5 -14.5t-34.5 14.5t-14.5 34.5q0 21 14.5 35.5t34.5 14.5t34.5 -14.5t14.5 -35.5zM415 555q0 -20 -14.5 -34.5t-34.5 -14.5q-21 0 -35.5 14.5t-14.5 34.5t14.5 34.5t35.5 14.5q20 0 34.5 -14.5t14.5 -34.5zM253 646q0 -21 -14.5 -35.5
t-35.5 -14.5q-20 0 -34.5 14.5t-14.5 35.5q0 20 14.5 34.5t34.5 14.5q21 0 35.5 -14.5t14.5 -34.5zM422 457q0 -20 -14.5 -34.5t-34.5 -14.5t-34.5 14.5t-14.5 34.5t14.5 34.5t34.5 14.5t34.5 -14.5t14.5 -34.5zM160 609q0 -20 -14.5 -34.5t-34.5 -14.5t-34.5 14.5
t-14.5 34.5t14.5 34.5t34.5 14.5t34.5 -14.5t14.5 -34.5zM396 361q0 -20 -14.5 -34.5t-34.5 -14.5t-34.5 14.5t-14.5 34.5q0 21 14.5 35t34.5 14t34.5 -14t14.5 -35zM347 277q0 -21 -14.5 -35t-35.5 -14q-20 0 -34.5 14t-14.5 35q0 20 14.5 34.5t34.5 14.5q21 0 35.5 -14.5
t14.5 -34.5zM445 46q0 -20 -14.5 -34.5t-34.5 -14.5t-34.5 14.5t-14.5 34.5t14.5 34.5t34.5 14.5t34.5 -14.5t14.5 -34.5zM285 199q0 -20 -14.5 -34.5t-34.5 -14.5q-21 0 -35.5 14.5t-14.5 34.5t14.5 34.5t35.5 14.5q20 0 34.5 -14.5t14.5 -34.5zM347 46q0 -20 -14.5 -34.5
t-34.5 -14.5q-21 0 -35.5 14.5t-14.5 34.5t14.5 34.5t35.5 14.5q20 0 34.5 -14.5t14.5 -34.5zM211 126q0 -19 -13 -32t-31 -13t-31 13t-13 32q0 18 13 31t31 13t31 -13t13 -31zM247 41q0 -18 -13 -31.5t-32 -13.5q-18 0 -31 13.5t-13 31.5t13 31t31 13q19 0 32 -13t13 -31z
M159 46q0 -20 -14.5 -34.5t-34.5 -14.5t-34.5 14.5t-14.5 34.5t14.5 34.5t34.5 14.5t34.5 -14.5t14.5 -34.5z" />
    <glyph glyph-name="three" unicode="3" horiz-adv-x="485" 
d="M353 617q0 -20 -14.5 -34.5t-35.5 -14.5q-20 0 -34.5 14.5t-14.5 34.5t14.5 34.5t34.5 14.5q21 0 35.5 -14.5t14.5 -34.5zM403 533q0 -21 -14.5 -35.5t-34.5 -14.5t-34.5 14.5t-14.5 35.5q0 20 14.5 34.5t34.5 14.5t34.5 -14.5t14.5 -34.5zM258 647q0 -20 -14.5 -34.5
t-34.5 -14.5t-34.5 14.5t-14.5 34.5t14.5 34.5t34.5 14.5t34.5 -14.5t14.5 -34.5zM384 444q0 -16 -12 -28t-28 -12q-17 0 -28.5 12t-11.5 28q0 17 11.5 28.5t28.5 11.5q16 0 28 -11.5t12 -28.5zM160 638q0 -20 -14.5 -34.5t-34.5 -14.5t-34.5 14.5t-14.5 34.5t14.5 34.5
t34.5 14.5t34.5 -14t14.5 -35zM329 389q0 -29 -29 -29q-30 0 -30 29t30 29q29 0 29 -29zM360 313q0 -18 -13 -31t-31 -13t-31 13t-13 31q0 19 13 32t31 13t31 -13t13 -32zM412 233q0 -21 -14.5 -35.5t-34.5 -14.5t-34.5 14.5t-14.5 35.5q0 20 14.5 34.5t34.5 14.5
t34.5 -14.5t14.5 -34.5zM277 349q0 -16 -11.5 -28t-28.5 -12q-16 0 -28 12t-12 28q0 17 12 28.5t28 11.5q17 0 28.5 -11.5t11.5 -28.5zM404 134q0 -20 -14.5 -34.5t-35.5 -14.5q-20 0 -34.5 14.5t-14.5 34.5t14.5 34.5t34.5 14.5q21 0 35.5 -14.5t14.5 -34.5zM336 61
q0 -21 -14.5 -35.5t-35.5 -14.5q-20 0 -34.5 14.5t-14.5 35.5q0 20 14.5 34.5t34.5 14.5q21 0 35.5 -14.5t14.5 -34.5zM240 42q0 -21 -14.5 -35.5t-35.5 -14.5q-20 0 -34.5 14.5t-14.5 35.5q0 20 14.5 34.5t34.5 14.5q21 0 35.5 -14.5t14.5 -34.5zM146 68q0 -21 -14.5 -35.5
t-35.5 -14.5q-20 0 -34.5 14.5t-14.5 35.5q0 20 14.5 34.5t34.5 14.5q21 0 35.5 -14.5t14.5 -34.5z" />
    <glyph glyph-name="four" unicode="4" horiz-adv-x="595" 
d="M431 642q0 -20 -14.5 -34.5t-34.5 -14.5q-21 0 -35.5 14.5t-14.5 34.5t14.5 34.5t35.5 14.5q20 0 34.5 -14.5t14.5 -34.5zM432 540q0 -18 -13 -31t-31 -13t-31.5 13t-13.5 31q0 19 13.5 32t31.5 13t31 -13t13 -32zM431 445q0 -20 -14.5 -34.5t-34.5 -14.5
q-21 0 -35.5 14.5t-14.5 34.5t14.5 34.5t35.5 14.5q20 0 34.5 -14.5t14.5 -34.5zM529 248q0 -20 -14 -34.5t-35 -14.5q-20 0 -34.5 14.5t-14.5 34.5t14.5 34.5t34.5 14.5q21 0 35 -14.5t14 -34.5zM431 347q0 -21 -14.5 -35.5t-34.5 -14.5q-21 0 -35.5 14.5t-14.5 35.5
q0 20 14.5 34.5t35.5 14.5q20 0 34.5 -14.5t14.5 -34.5zM431 248q0 -20 -14.5 -34.5t-34.5 -14.5q-21 0 -35.5 14.5t-14.5 34.5t14.5 34.5t35.5 14.5q20 0 34.5 -14.5t14.5 -34.5zM332 248q0 -20 -14 -34.5t-35 -14.5q-20 0 -34.5 14.5t-14.5 34.5t14.5 34.5t34.5 14.5
q21 0 35 -14.5t14 -34.5zM431 150q0 -21 -14.5 -35.5t-34.5 -14.5q-21 0 -35.5 14.5t-14.5 35.5q0 20 14.5 34.5t35.5 14.5q20 0 34.5 -14.5t14.5 -34.5zM178 330q0 -18 -12.5 -30.5t-29.5 -12.5q-18 0 -30 12.5t-12 30.5q0 17 12 29.5t30 12.5q17 0 29.5 -12.5t12.5 -29.5z
M431 51q0 -20 -14.5 -34.5t-34.5 -14.5q-21 0 -35.5 14.5t-14.5 34.5t14.5 34.5t35.5 14.5q20 0 34.5 -14.5t14.5 -34.5zM234 248q0 -20 -14.5 -34.5t-34.5 -14.5q-21 0 -35.5 14.5t-14.5 34.5t14.5 34.5t35.5 14.5q20 0 34.5 -14.5t14.5 -34.5zM135 248q0 -20 -14 -34.5
t-35 -14.5q-20 0 -34.5 14.5t-14.5 34.5t14.5 34.5t34.5 14.5q21 0 35 -14.5t14 -34.5zM246 405q0 -19 -14 -32.5t-33 -13.5t-33 13.5t-14 32.5q0 20 14 33.5t33 13.5t33 -13.5t14 -33.5zM309 490q0 -20 -14 -35t-33 -15t-33 14t-14 33t14 33t33 14q20 0 33.5 -12.5
t13.5 -31.5zM348 571q0 -15 -11 -26t-27 -11q-15 0 -26 11t-11 26q0 16 11 27t26 11q16 0 27 -11t11 -27z" />
    <glyph glyph-name="five" unicode="5" horiz-adv-x="470" 
d="M387 641q0 -20 -14.5 -34.5t-35.5 -14.5q-20 0 -34.5 14.5t-14.5 34.5q0 21 14.5 35.5t34.5 14.5q21 0 35.5 -14.5t14.5 -35.5zM288 641q0 -20 -14.5 -34.5t-34.5 -14.5q-21 0 -35 14.5t-14 34.5q0 21 14 35.5t35 14.5q20 0 34.5 -14.5t14.5 -35.5zM190 641
q0 -20 -14.5 -34.5t-35.5 -14.5q-20 0 -34.5 14.5t-14.5 34.5q0 21 14.5 35.5t34.5 14.5q21 0 35.5 -14.5t14.5 -35.5zM190 543q0 -20 -14.5 -34.5t-35.5 -14.5q-20 0 -34.5 14.5t-14.5 34.5t14.5 34.5t34.5 14.5q21 0 35.5 -14.5t14.5 -34.5zM385 322q0 -20 -14.5 -34.5
t-34.5 -14.5t-34.5 14.5t-14.5 34.5t14.5 34.5t34.5 14.5t34.5 -14.5t14.5 -34.5zM430 229q0 -20 -14.5 -34.5t-34.5 -14.5q-21 0 -35.5 14.5t-14.5 34.5t14.5 34.5t35.5 14.5q20 0 34.5 -14t14.5 -35zM289 355q0 -21 -14.5 -35.5t-34.5 -14.5q-21 0 -35.5 14.5t-14.5 35.5
q0 20 14.5 34.5t35.5 14.5q20 0 34.5 -14.5t14.5 -34.5zM190 444q0 -20 -14.5 -34.5t-35.5 -14.5q-20 0 -34.5 14.5t-14.5 34.5q0 21 14.5 35.5t34.5 14.5q21 0 35.5 -14.5t14.5 -35.5zM412 129q0 -20 -14 -34.5t-35 -14.5q-20 0 -34.5 14.5t-14.5 34.5t14.5 34.5t34.5 14.5
t34.5 -14t14.5 -35zM190 346q0 -20 -14.5 -34.5t-35.5 -14.5q-20 0 -34.5 14.5t-14.5 34.5t14.5 34.5t34.5 14.5q21 0 35.5 -14.5t14.5 -34.5zM338 62q0 -20 -14.5 -34.5t-34.5 -14.5t-34.5 14.5t-14.5 34.5t14.5 34.5t34.5 14.5t34.5 -14.5t14.5 -34.5zM240 43
q0 -21 -14.5 -35.5t-34.5 -14.5t-34.5 14.5t-14.5 35.5q0 20 14.5 34.5t34.5 14.5t34.5 -14.5t14.5 -34.5zM144 69q0 -21 -14 -35.5t-35 -14.5q-20 0 -34.5 14.5t-14.5 35.5q0 20 14.5 34.5t34.5 14.5t34.5 -14.5t14.5 -34.5z" />
    <glyph glyph-name="six" unicode="6" horiz-adv-x="526" 
d="M384 638q0 -20 -14.5 -34.5t-34.5 -14.5q-21 0 -35.5 14.5t-14.5 34.5t14.5 34.5t35.5 14.5q20 0 34.5 -14.5t14.5 -34.5zM305 585q0 -20 -14.5 -34.5t-35.5 -14.5q-20 0 -34.5 14.5t-14.5 34.5t14.5 34.5t34.5 14.5q21 0 35.5 -14.5t14.5 -34.5zM240 512
q0 -21 -14.5 -35.5t-34.5 -14.5t-34.5 14.5t-14.5 35.5q0 20 14.5 34.5t34.5 14.5t34.5 -14.5t14.5 -34.5zM398 332q0 -21 -14.5 -35.5t-34.5 -14.5t-34.5 14.5t-14.5 35.5q0 20 14 34.5t35 14.5q20 0 34.5 -14.5t14.5 -34.5zM463 258q0 -20 -14.5 -34.5t-34.5 -14.5
q-21 0 -35.5 14.5t-14.5 34.5t14.5 34.5t34.5 14.5q21 0 35.5 -14.5t14.5 -34.5zM301 354q0 -16 -11.5 -28t-28.5 -12q-16 0 -28 12t-12 28t12 28t28 12q17 0 28.5 -12t11.5 -28zM472 160q0 -20 -14.5 -34.5t-34.5 -14.5q-21 0 -35.5 14.5t-14.5 34.5t14.5 34.5t34.5 14.5
q21 0 35.5 -14.5t14.5 -34.5zM192 423q0 -20 -14.5 -34.5t-34.5 -14.5t-34.5 14.5t-14.5 35.5q0 20 14.5 34.5t34.5 14.5t34.5 -14.5t14.5 -35.5zM226 328q0 -15 -10.5 -25.5t-25.5 -10.5t-25.5 10.5t-10.5 25.5q0 14 10.5 25t25.5 11q14 0 25 -10.5t11 -25.5zM419 77
q0 -21 -14.5 -35t-34.5 -14t-34.5 14.5t-14.5 34.5t14.5 34.5t34.5 14.5t34.5 -14.5t14.5 -34.5zM154 332q0 -20 -14.5 -34.5t-34.5 -14.5t-34.5 14.5t-14.5 34.5t14.5 34.5t34.5 14.5q21 0 35 -14.5t14 -34.5zM147 234q0 -21 -14.5 -35.5t-34.5 -14.5q-21 0 -35.5 14.5
t-14.5 35.5q0 20 14.5 34.5t35.5 14.5q20 0 34.5 -14.5t14.5 -34.5zM327 39q0 -20 -14.5 -34.5t-34.5 -14.5q-21 0 -35.5 14.5t-14.5 34.5q0 21 14.5 35.5t35.5 14.5q20 0 34.5 -14.5t14.5 -35.5zM166 135q0 -20 -14.5 -34.5t-35.5 -14.5q-20 0 -34.5 14.5t-14.5 34.5
t14.5 34.5t34.5 14.5q21 0 35.5 -14.5t14.5 -34.5zM230 62q0 -20 -14.5 -34.5t-34.5 -14.5t-34.5 14.5t-14.5 34.5t14.5 34.5t34.5 14.5q21 0 35 -14.5t14 -34.5z" />
    <glyph glyph-name="seven" unicode="7" horiz-adv-x="567" 
d="M514 647q0 -20 -14.5 -34.5t-34.5 -14.5q-21 0 -35 14.5t-14 35.5q0 20 14.5 34.5t34.5 14.5t34.5 -14.5t14.5 -35.5zM415 651q0 -18 -13 -31.5t-32 -13.5q-18 0 -31 13.5t-13 31.5t13 31t31 13q19 0 32 -13t13 -31zM468 562q0 -18 -13.5 -31t-31.5 -13t-31 13t-13 31
q0 19 13 32t31 13q19 0 32 -13t13 -32zM326 644q0 -20 -14.5 -34.5t-35.5 -14.5q-20 0 -34.5 14.5t-14.5 34.5t14.5 34.5t34.5 14.5q21 0 35.5 -14.5t14.5 -34.5zM423 482q0 -20 -14.5 -34.5t-34.5 -14.5t-34.5 14.5t-14.5 35.5q0 20 14.5 34.5t34.5 14.5t34.5 -14.5
t14.5 -35.5zM227 644q0 -20 -14.5 -34.5t-34.5 -14.5q-21 0 -35.5 14.5t-14.5 34.5t14.5 34.5t35.5 14.5q20 0 34.5 -14.5t14.5 -34.5zM376 396q0 -20 -14.5 -34.5t-35.5 -14.5q-20 0 -34.5 14.5t-14.5 34.5q0 21 14.5 35.5t34.5 14.5q21 0 35.5 -14.5t14.5 -35.5zM128 644
q0 -20 -14.5 -34.5t-34.5 -14.5q-21 0 -35 14.5t-14 34.5t14 34.5t35 14.5q20 0 34.5 -14.5t14.5 -34.5zM328 310q0 -20 -14.5 -34.5t-34.5 -14.5q-21 0 -35.5 14.5t-14.5 34.5q0 21 14.5 35t35.5 14q20 0 34.5 -14.5t14.5 -34.5zM280 224q0 -20 -14.5 -34.5t-34.5 -14.5
t-34.5 14.5t-14.5 34.5t14.5 34.5t34.5 14.5t34.5 -14.5t14.5 -34.5zM232 138q0 -20 -14.5 -34.5t-34.5 -14.5t-34.5 14.5t-14.5 34.5t14.5 34.5t34.5 14.5t34.5 -14.5t14.5 -34.5zM185 52q0 -21 -14.5 -35t-35.5 -14q-20 0 -34.5 14.5t-14.5 34.5t14.5 34.5t34.5 14.5
q21 0 35.5 -14.5t14.5 -34.5z" />
    <glyph glyph-name="eight" unicode="8" horiz-adv-x="563" 
d="M417 618q0 -20 -14.5 -34.5t-35.5 -14.5q-20 0 -34.5 14.5t-14.5 34.5q0 21 14.5 35t34.5 14q21 0 35.5 -14.5t14.5 -34.5zM476 539q0 -20 -14.5 -34.5t-34.5 -14.5q-21 0 -35.5 14.5t-14.5 34.5q0 21 14.5 35t35.5 14q20 0 34.5 -14.5t14.5 -34.5zM323 650
q0 -21 -14 -35.5t-35 -14.5q-20 0 -34.5 14.5t-14.5 34.5q0 21 14.5 35.5t34.5 14.5t34.5 -14.5t14.5 -34.5zM466 440q0 -20 -14.5 -34.5t-35.5 -14.5q-20 0 -34.5 14.5t-14.5 34.5q0 21 14.5 35.5t34.5 14.5q21 0 35.5 -14.5t14.5 -35.5zM230 618q0 -20 -14.5 -34.5
t-34.5 -14.5t-34.5 14.5t-14.5 34.5t14.5 34.5t34.5 14.5t34.5 -14t14.5 -35zM385 386q0 -15 -10.5 -25.5t-24.5 -10.5q-15 0 -25.5 10.5t-10.5 25.5q0 14 10.5 24.5t25.5 10.5q14 0 24.5 -10.5t10.5 -24.5zM430 312q0 -18 -13 -31t-31 -13t-31 13t-13 31t13 31t31 13
t31 -13t13 -31zM491 233q0 -21 -14.5 -35t-35.5 -14q-20 0 -34.5 14.5t-14.5 34.5t14.5 34.5t34.5 14.5q21 0 35.5 -14.5t14.5 -34.5zM171 539q0 -20 -14.5 -34.5t-34.5 -14.5q-21 0 -35.5 14.5t-14.5 34.5t14.5 34.5t35.5 14.5q20 0 34.5 -14.5t14.5 -34.5zM234 386
q0 -15 -10.5 -25.5t-24.5 -10.5q-15 0 -25.5 10.5t-10.5 25.5q0 14 10.5 24.5t25.5 10.5q14 0 24.5 -10.5t10.5 -24.5zM181 440q0 -20 -14 -34.5t-35 -14.5q-20 0 -34.5 14.5t-14.5 34.5t14.5 34.5t34.5 14.5t34.5 -14t14.5 -35zM487 135q0 -21 -14.5 -35.5t-35.5 -14.5
q-20 0 -34.5 14.5t-14.5 35.5q0 20 14.5 34.5t34.5 14.5q21 0 35.5 -14.5t14.5 -34.5zM207 312q0 -18 -13 -31t-31 -13q-19 0 -32 13t-13 31t13 31t32 13q18 0 31 -13t13 -31zM420 62q0 -20 -14.5 -34.5t-34.5 -14.5q-21 0 -35.5 14.5t-14.5 35.5q0 20 14.5 34.5t35.5 14.5
q20 0 34.5 -14.5t14.5 -35.5zM156 233q0 -20 -14.5 -34.5t-34.5 -14.5t-34.5 14t-14.5 35q0 20 14.5 34.5t34.5 14.5t34.5 -14.5t14.5 -34.5zM323 43q0 -21 -14.5 -35.5t-34.5 -14.5t-34.5 14.5t-14.5 34.5q0 21 14.5 35.5t34.5 14.5t34.5 -14.5t14.5 -34.5zM160 135
q0 -21 -14.5 -35.5t-34.5 -14.5t-34.5 14.5t-14.5 34.5q0 21 14.5 35.5t34.5 14.5t34.5 -14.5t14.5 -34.5zM227 62q0 -20 -14.5 -34.5t-34.5 -14.5t-34.5 14.5t-14.5 34.5q0 21 14 35.5t35 14.5q20 0 34.5 -14.5t14.5 -35.5zM323 347q0 21 -14.5 35.5t-34.5 14.5
t-34.5 -14.5t-14.5 -35.5q0 -20 14.5 -34.5t34.5 -14.5t34.5 14.5t14.5 34.5z" />
    <glyph glyph-name="nine" unicode="9" horiz-adv-x="542" 
d="M388 626q0 -21 -14.5 -35.5t-34.5 -14.5t-34.5 14.5t-14.5 35.5q0 20 14.5 34.5t34.5 14.5t34.5 -14.5t14.5 -34.5zM453 553q0 -21 -14.5 -35t-34.5 -14t-34.5 14.5t-14.5 34.5t14.5 34.5t34.5 14.5t34.5 -14.5t14.5 -34.5zM292 648q0 -20 -14.5 -34.5t-35.5 -14.5
q-20 0 -34.5 14.5t-14.5 34.5q0 21 14.5 35.5t34.5 14.5q21 0 35.5 -14.5t14.5 -35.5zM472 454q0 -20 -14.5 -34.5t-35.5 -14.5q-20 0 -34.5 14.5t-14.5 34.5t14.5 34.5t35.5 14.5q20 0 34.5 -14.5t14.5 -34.5zM464 356q0 -21 -14.5 -35.5t-34.5 -14.5t-34.5 14.5
t-14.5 35.5q0 20 14.5 34.5t34.5 14.5t34.5 -14.5t14.5 -34.5zM200 611q0 -20 -14.5 -34.5t-35.5 -14.5q-20 0 -34.5 14.5t-14.5 34.5t14.5 34.5t34.5 14.5q21 0 35.5 -14.5t14.5 -34.5zM366 359q0 -15 -10.5 -25.5t-25.5 -10.5q-14 0 -24.5 10.5t-10.5 25.5t10.5 25.5
t24.5 10.5q15 0 25.5 -10.5t10.5 -25.5zM426 264q0 -20 -14.5 -34.5t-34.5 -14.5t-34.5 14.5t-14.5 34.5q0 21 14.5 35.5t34.5 14.5q21 0 35 -14.5t14 -35.5zM147 528q0 -21 -14.5 -35.5t-34.5 -14.5q-21 0 -35.5 14.5t-14.5 35.5q0 20 14.5 34.5t35.5 14.5q20 0 34.5 -14.5
t14.5 -34.5zM299 334q0 -17 -12 -28.5t-28 -11.5q-17 0 -28.5 11.5t-11.5 28.5q0 16 11.5 28t28.5 12q16 0 28 -12t12 -28zM156 430q0 -20 -14.5 -34.5t-34.5 -14.5q-21 0 -35.5 14.5t-14.5 34.5t14.5 34.5t35.5 14.5q20 0 34.5 -14.5t14.5 -34.5zM221 356
q0 -20 -14.5 -34.5t-35.5 -14.5q-20 0 -34.5 14.5t-14.5 34.5t14.5 34.5t34.5 14.5q21 0 35.5 -14t14.5 -35zM378 176q0 -20 -14.5 -34.5t-34.5 -14.5t-34.5 14.5t-14.5 34.5t14.5 34.5t34.5 14.5t34.5 -14.5t14.5 -34.5zM314 103q0 -21 -14.5 -35.5t-34.5 -14.5
q-21 0 -35 14.5t-14 35.5q0 20 14.5 34.5t34.5 14.5t34.5 -14.5t14.5 -34.5zM235 50q0 -21 -14.5 -35.5t-35.5 -14.5q-20 0 -34.5 14.5t-14.5 35.5q0 20 14.5 34.5t35.5 14.5q20 0 34.5 -14.5t14.5 -34.5z" />
    <glyph glyph-name="colon" unicode=":" horiz-adv-x="257" 
d="M175 52q0 -20 -14.5 -34.5t-34.5 -14.5t-34.5 14.5t-14.5 34.5q0 21 14.5 35.5t34.5 14.5t34.5 -14.5t14.5 -35.5zM175 400q0 -20 -14.5 -34.5t-34.5 -14.5t-34.5 14.5t-14.5 34.5q0 21 14.5 35.5t34.5 14.5t34.5 -14.5t14.5 -35.5z" />
    <glyph glyph-name="semicolon" unicode=";" horiz-adv-x="271" 
d="M125 20q-22 0 -37.5 15.5t-15.5 37.5q0 23 15.5 38.5t38.5 15.5q22 0 37.5 -16t15.5 -38t-15.5 -37.5t-38.5 -15.5zM148 -52q-15 0 -25.5 10.5t-10.5 25.5t11 25.5t25 10.5q15 0 25.5 -10.5t10.5 -25.5t-10.5 -25.5t-25.5 -10.5zM113 -101q-29 0 -29 29t29 29t29 -29
t-29 -29zM175 400q0 -20 -14.5 -34.5t-34.5 -14.5t-34.5 14.5t-14.5 34.5q0 21 14.5 35.5t34.5 14.5t34.5 -14.5t14.5 -35.5z" />
    <glyph glyph-name="less" unicode="&#x3c;" horiz-adv-x="469" 
d="M314 584q0 -20 -14 -34t-34 -14t-34 14t-14 34t14 34.5t34 14.5t34 -14.5t14 -34.5zM262 504q0 -19 -14.5 -33.5t-34.5 -14.5q-19 0 -33.5 14.5t-14.5 33.5q0 20 14.5 34.5t33.5 14.5q20 0 34.5 -14.5t14.5 -34.5zM209 425q0 -20 -14 -34.5t-34 -14.5t-34 14.5t-14 34.5
t14 34t34 14t34 -14t14 -34zM157 345q0 -20 -14.5 -34t-34.5 -14t-34 14t-14 34t14 34t34 14t34.5 -14t14.5 -34zM419 744q0 -20 -14 -34t-34 -14t-34 14t-14 34t14 34t34 14t34 -14t14 -34zM367 664q0 -20 -14.5 -34t-33.5 -14q-20 0 -34.5 14t-14.5 34t14.5 34t34.5 14
q19 0 33.5 -14t14.5 -34zM314 105q0 20 -14 34.5t-34 14.5t-34 -14.5t-14 -34.5t14 -34t34 -14t34 14t14 34zM262 185q0 20 -14.5 34t-34.5 14q-19 0 -33.5 -14t-14.5 -34t14.5 -34t33.5 -14q20 0 34.5 14t14.5 34zM209 265q0 20 -14 34t-34 14t-34 -14t-14 -34t14 -34
t34 -14t34 14t14 34zM419 -54q0 19 -14 33.5t-34 14.5t-34 -14.5t-14 -33.5q0 -20 14 -34.5t34 -14.5t34 14.5t14 34.5zM367 25q0 20 -14.5 34.5t-33.5 14.5q-20 0 -34.5 -14.5t-14.5 -34.5t14.5 -34t34.5 -14q19 0 33.5 14t14.5 34z" />
    <glyph glyph-name="equal" unicode="=" horiz-adv-x="610" 
d="M560 468q0 -21 -14.5 -35.5t-34.5 -14.5q-21 0 -35.5 14.5t-14.5 35.5q0 20 14.5 34.5t35.5 14.5q20 0 34.5 -14.5t14.5 -34.5zM461 468q0 -21 -14.5 -35.5t-34.5 -14.5t-34.5 14.5t-14.5 35.5q0 20 14.5 34.5t34.5 14.5t34.5 -14.5t14.5 -34.5zM363 468
q0 -21 -14.5 -35.5t-34.5 -14.5q-21 0 -35.5 14.5t-14.5 35.5q0 20 14.5 34.5t35.5 14.5q20 0 34.5 -14.5t14.5 -34.5zM560 246q0 -20 -14.5 -34.5t-34.5 -14.5q-21 0 -35.5 14.5t-14.5 34.5t14.5 34.5t35.5 14.5q20 0 34.5 -14.5t14.5 -34.5zM264 468q0 -21 -14.5 -35.5
t-34.5 -14.5t-34.5 14.5t-14.5 35.5q0 20 14.5 34.5t34.5 14.5t34.5 -14.5t14.5 -34.5zM461 246q0 -20 -14.5 -34.5t-34.5 -14.5t-34.5 14.5t-14.5 34.5t14.5 34.5t34.5 14.5t34.5 -14.5t14.5 -34.5zM166 468q0 -21 -14.5 -35.5t-34.5 -14.5q-21 0 -35.5 14.5t-14.5 35.5
q0 20 14.5 34.5t35.5 14.5q20 0 34.5 -14.5t14.5 -34.5zM363 246q0 -20 -14.5 -34.5t-34.5 -14.5q-21 0 -35.5 14.5t-14.5 34.5t14.5 34.5t35.5 14.5q20 0 34.5 -14.5t14.5 -34.5zM264 246q0 -20 -14.5 -34.5t-34.5 -14.5t-34.5 14.5t-14.5 34.5t14.5 34.5t34.5 14.5
t34.5 -14.5t14.5 -34.5zM166 246q0 -20 -14.5 -34.5t-34.5 -14.5q-21 0 -35.5 14.5t-14.5 34.5t14.5 34.5t35.5 14.5q20 0 34.5 -14.5t14.5 -34.5z" />
    <glyph glyph-name="greater" unicode="&#x3e;" horiz-adv-x="469" 
d="M165 584q0 -20 14.5 -34t33.5 -14q20 0 34.5 14t14.5 34t-14.5 34.5t-34.5 14.5q-19 0 -33.5 -14.5t-14.5 -34.5zM218 504q0 -19 14 -33.5t34 -14.5t34 14.5t14 33.5q0 20 -14 34.5t-34 14.5t-34 -14.5t-14 -34.5zM270 425q0 -20 14.5 -34.5t34.5 -14.5q19 0 33.5 14.5
t14.5 34.5t-14.5 34t-33.5 14q-20 0 -34.5 -14t-14.5 -34zM323 345q0 -20 14 -34t34 -14t34 14t14 34t-14 34t-34 14t-34 -14t-14 -34zM60 744q0 -20 14 -34t34 -14t34.5 14t14.5 34t-14.5 34t-34.5 14t-34 -14t-14 -34zM113 664q0 -20 14 -34t34 -14t34 14t14 34t-14 34
t-34 14t-34 -14t-14 -34zM165 105q0 20 14.5 34.5t33.5 14.5q20 0 34.5 -14.5t14.5 -34.5t-14.5 -34t-34.5 -14q-19 0 -33.5 14t-14.5 34zM218 185q0 20 14 34t34 14t34 -14t14 -34t-14 -34t-34 -14t-34 14t-14 34zM270 265q0 20 14.5 34t34.5 14q19 0 33.5 -14t14.5 -34
t-14.5 -34t-33.5 -14q-20 0 -34.5 14t-14.5 34zM60 -54q0 19 14 33.5t34 14.5t34.5 -14.5t14.5 -33.5q0 -20 -14.5 -34.5t-34.5 -14.5t-34 14.5t-14 34.5zM113 25q0 20 14 34.5t34 14.5t34 -14.5t14 -34.5t-14 -34t-34 -14t-34 14t-14 34z" />
    <glyph glyph-name="question" unicode="?" horiz-adv-x="331" 
d="M275 554q-20 0 -34.5 14.5t-14.5 34.5t14.5 34.5t34.5 14.5t34.5 -14.5t14.5 -34.5t-14.5 -34.5t-34.5 -14.5zM292 458q-20 0 -34.5 14.5t-14.5 35.5q0 20 14.5 34.5t34.5 14.5t34.5 -14.5t14.5 -34.5q0 -21 -14.5 -35.5t-34.5 -14.5zM187 598q-20 0 -34.5 14.5
t-14.5 35.5q0 20 14.5 34.5t35.5 14.5q20 0 34.5 -14.5t14.5 -34.5q0 -21 -14.5 -35.5t-35.5 -14.5zM248 371q-20 0 -34.5 14.5t-14.5 34.5t14.5 34.5t34.5 14.5t34.5 -14.5t14.5 -34.5t-14.5 -34.5t-34.5 -14.5zM193 300q-18 0 -31 13.5t-13 31.5t13 31t31 13t31 -13
t13 -31t-13 -31.5t-31 -13.5zM147 236q-17 0 -28.5 11.5t-11.5 27.5t11.5 28t28.5 12q16 0 27.5 -12t11.5 -28t-11.5 -27.5t-27.5 -11.5zM192 47q0 -20 -14.5 -34.5t-34.5 -14.5t-34.5 14.5t-14.5 34.5q0 21 14.5 35.5t34.5 14.5t34.5 -14.5t14.5 -35.5zM88 588
q-20 0 -34.5 14.5t-14.5 34.5t14.5 34.5t34.5 14.5q21 0 35.5 -14.5t14.5 -34.5t-14.5 -34.5t-35.5 -14.5zM134 174q-31 0 -31 31t32 31q31 0 31 -31t-32 -31z" />
    <glyph glyph-name="at" unicode="@" horiz-adv-x="939" 
d="M807 528q0 -18 -13 -30.5t-31 -12.5t-30.5 13t-12.5 31t13 30.5t31 12.5t30.5 -13t12.5 -31zM742 585q0 -18 -12.5 -30.5t-30.5 -12.5t-30.5 13t-12.5 31q0 17 12.5 30t30.5 13t30.5 -13t12.5 -31zM848 452q0 -18 -12.5 -31t-30.5 -12q-18 0 -30.5 12.5t-12.5 30.5
t12.5 30.5t30.5 12.5t30.5 -12.5t12.5 -30.5zM664 620q0 -17 -12.5 -30t-30.5 -13t-31 13t-13 31q1 18 13.5 30.5t30.5 12.5t30.5 -13t12.5 -31zM871 369q0 -18 -12.5 -30.5t-30.5 -12.5t-30.5 12.5t-12.5 30.5t12.5 30.5t30.5 12.5t30.5 -12.5t12.5 -30.5zM578 637
q0 -18 -12.5 -30.5t-30.5 -12.5t-31 13t-12 31q0 18 12.5 30.5t30.5 12.5t30.5 -13t12.5 -31zM867 283q0 -18 -13 -30.5t-31 -12.5t-30.5 12.5t-12.5 30.5t13 30.5t31 12.5q17 0 30 -12.5t13 -30.5zM491 637q0 -18 -13 -30.5t-31 -12.5t-30.5 13t-12.5 31t13 30.5t31 12.5
t30.5 -13t12.5 -31zM672 442q0 -17 -13 -30t-31 -13t-30.5 13t-12.5 31t13 30.5t31 12.5t30.5 -13t12.5 -31zM834 202q0 -18 -12.5 -31t-30.5 -13q-18 1 -30.5 13.5t-12.5 30.5t12.5 30.5t30.5 12.5t30.5 -12.5t12.5 -30.5zM403 625q0 -18 -12.5 -30.5t-30.5 -12.5t-30.5 13
t-12.5 30q0 18 12.5 31t30.5 13q18 -1 30.5 -13.5t12.5 -30.5zM590 415q0 -31 -32 -31t-31 32q0 31 31 31q32 0 32 -32zM650 360q0 -18 -12.5 -31t-30.5 -12q-18 0 -30.5 12.5t-12.5 30.5t12.5 30.5t30.5 12.5t30.5 -12.5t12.5 -30.5zM536 453q0 -32 -32 -31q-31 0 -31 31
q0 32 32 32q31 0 31 -32zM473 462q0 -14 -10 -24.5t-25 -10.5q-14 0 -24.5 10.5t-10.5 24.5q0 15 10.5 25t25.5 10q14 0 24 -10t10 -25zM787 128q0 -18 -13 -30.5t-31 -12.5t-30.5 12.5t-12.5 30.5t13 31t31 12q18 0 30.5 -12.5t12.5 -30.5zM323 590q0 -18 -12.5 -30.5
t-30.5 -12.5t-30.5 12.5t-12.5 30.5t12.5 30.5t30.5 12.5t31 -12.5t12 -30.5zM629 277q0 -18 -13 -30.5t-31 -12.5t-30.5 12.5t-12.5 30.5t13 30.5t31 12.5t30.5 -12.5t12.5 -30.5zM856 -1q0 -18 -12.5 -30.5t-30.5 -12.5t-31 13t-13 31q1 18 13.5 30.5t30.5 12.5t30.5 -13
t12.5 -31zM409 431q0 -16 -11.5 -27.5t-27.5 -11.5t-27.5 11.5t-11.5 27.5t11.5 27.5t28.5 11.5q16 0 27 -11.5t11 -27.5zM607 194q0 -18 -12.5 -30.5t-30.5 -12.5t-30.5 12.5t-12.5 30.5t12.5 30.5t30.5 12.5t30.5 -12.5t12.5 -30.5zM715 79q0 -18 -13 -30.5t-31 -12.5
t-30.5 12.5t-12.5 30.5t13 30.5t31 12.5t30.5 -12.5t12.5 -30.5zM256 535q0 -18 -13 -31t-31 -13q-17 1 -30 13.5t-13 30.5t13 30.5t31 12.5t30.5 -13t12.5 -30zM792 -59q0 -18 -13 -30.5t-31 -12.5t-30.5 13t-12.5 30q0 18 13 31t31 13q17 0 30 -13t13 -31zM357 369
q0 -18 -12.5 -30.5t-30.5 -12.5t-30.5 13t-12.5 31q0 17 12.5 30t30.5 13t30.5 -13t12.5 -31zM626 74q0 -18 -13 -30.5t-31 -12.5t-30.5 13t-12.5 31t13 30.5t31 12.5t30.5 -13t12.5 -31zM556 124q0 -16 -11.5 -27.5t-27.5 -10.5q-16 0 -27.5 11.5t-11.5 27.5t11.5 27.5
t27.5 10.5q16 0 27.5 -11.5t11.5 -27.5zM199 469q0 -18 -12.5 -31t-30.5 -13q-18 1 -31 13.5t-12 30.5q0 18 12.5 30.5t30.5 12.5t30.5 -12.5t12.5 -30.5zM713 -97q0 -18 -12.5 -30.5t-30.5 -12.5t-30.5 12.5t-12.5 30.5t12.5 30.5t30.5 12.5t30.5 -12.5t12.5 -30.5z
M319 292q0 -17 -12.5 -30t-30.5 -13t-31 13t-13 31q1 18 13.5 30.5t30.5 12.5t30.5 -13t12.5 -31zM491 79q0 -18 -13 -30.5t-31 -12.5t-30.5 13t-12.5 31t13 30.5t31 12.5t30.5 -13t12.5 -31zM164 390q0 -18 -13 -30.5t-31 -12.5t-30.5 13t-12.5 31t13 30.5t31 12.5
t30.5 -13t12.5 -31zM311 207q0 -18 -12.5 -31t-30.5 -13t-30.5 13t-12.5 31t12.5 30.5t30.5 12.5t30.5 -13t12.5 -30zM629 -119q0 -18 -13 -30.5t-30 -12.5q-18 0 -31 13t-13 31t13 30.5t31 12.5t30.5 -13t12.5 -31zM403 68q0 -17 -12.5 -30t-30.5 -13t-30.5 13t-12.5 31
t12.5 30.5t30.5 12.5t31 -13t12 -31zM336 122q0 -18 -13 -30.5t-31 -12.5t-30.5 13t-12.5 31q0 17 13 30t31 13t30.5 -13t12.5 -31zM142 306q0 -18 -12.5 -30.5t-30.5 -12.5t-30.5 12.5t-12.5 30.5t12.5 31t30.5 12q18 0 30.5 -12.5t12.5 -30.5zM542 -127q0 -18 -12.5 -30.5
t-30.5 -12.5t-30.5 12.5t-12.5 30.5t12.5 30.5t30.5 12.5t30.5 -12.5t12.5 -30.5zM136 219q0 -18 -12.5 -30.5t-30.5 -12.5t-31 12.5t-12 30.5q0 18 12.5 31t30.5 13q18 -1 30.5 -13.5t12.5 -30.5zM456 -123q0 -18 -12.5 -30.5t-30.5 -12.5t-30.5 13t-12.5 31t12.5 30.5
t30.5 12.5t30.5 -13t12.5 -31zM147 133q0 -18 -13 -30.5t-31 -12.5t-30.5 13t-12.5 30q0 18 13 31t31 13t30.5 -13t12.5 -31zM374 -106q0 -18 -13 -30.5t-31 -12.5q-17 0 -30 12.5t-13 30.5t13 30.5t31 12.5t30.5 -12.5t12.5 -30.5zM179 53q0 -18 -12.5 -30.5t-30.5 -12.5
t-31 13t-13 31q1 18 13.5 30.5t30.5 12.5t30.5 -13t12.5 -31zM295 -68q0 -18 -13 -30.5t-31 -12.5t-30.5 13t-12.5 30q0 18 13 31t31 13q18 -1 30.5 -13.5t12.5 -30.5zM230 -17q0 -18 -13 -30.5t-31 -12.5t-30.5 12.5t-12.5 30.5t13 30.5t31 12.5t30.5 -12.5t12.5 -30.5z
" />
    <glyph glyph-name="A" unicode="A" horiz-adv-x="728" 
d="M406 643q0 -20 -14.5 -34.5t-34.5 -14.5q-21 0 -35.5 14.5t-14.5 34.5t14.5 34.5t35.5 14.5q20 0 34.5 -14.5t14.5 -34.5zM406 475zM324 482q2 -20 -10 -35.5t-31 -17.5q-20 -2 -35 10t-18 31q-2 20 10 35.5t31 17.5q20 2 35.5 -10t17.5 -31zM501 216q0 -20 -14.5 -34
t-33.5 -14q-20 0 -34.5 14t-14.5 34t14.5 34.5t34.5 14.5q19 0 33.5 -14.5t14.5 -34.5zM287 395q2 -20 -10 -35.5t-31 -17.5t-34.5 10t-18.5 31q-2 20 10 35.5t31 17.5q20 2 35.5 -10t17.5 -31zM405 216q0 -20 -14 -34t-34 -14t-34 14.5t-14 33.5q0 20 14 34.5t34 14.5
t34 -14.5t14 -34.5zM250 308q3 -20 -9.5 -35.5t-31.5 -17.5t-34.5 10t-18.5 31q-2 20 10 35t31 18q20 2 35.5 -10t17.5 -31zM310 216q0 -19 -14.5 -33.5t-34.5 -14.5q-19 0 -33.5 14.5t-14.5 33.5q0 20 14.5 34.5t33.5 14.5q20 0 34.5 -14.5t14.5 -34.5zM213 221
q3 -20 -9.5 -35.5t-31.5 -17.5t-34.5 10t-18.5 31q-2 19 10 34.5t31 18.5q20 2 35.5 -10t17.5 -31zM139 47q3 -19 -9.5 -34.5t-31.5 -17.5q-19 -3 -34.5 9.5t-18.5 31.5q-2 19 10 34.5t32 18.5q19 2 34.5 -10t17.5 -32zM357 566q2 -18 -9.5 -32.5t-29.5 -17.5
q-19 -2 -33.5 9.5t-16.5 29.5q-2 19 9.5 33.5t29.5 16.5q18 3 33 -8.5t17 -30.5zM178 134q2 -19 -10 -34.5t-32 -18.5q-19 -2 -34.5 10t-17.5 32q-3 19 9.5 34.5t31.5 17.5q19 3 34.5 -9.5t18.5 -31.5zM308 476zM389 482q-2 -19 10 -34.5t32 -18.5q19 -2 34.5 10t17.5 31
q3 20 -9.5 35.5t-31.5 17.5t-34.5 -10t-18.5 -31zM426 395q-2 -20 10 -35.5t32 -17.5q19 -2 34.5 10t17.5 31q3 20 -9.5 35.5t-31.5 17.5t-34.5 -10t-18.5 -31zM463 308q-2 -20 10 -35.5t32 -17.5q19 -2 34.5 10t17.5 31q3 20 -9.5 35.5t-31.5 17.5t-34.5 -10t-18.5 -31z
M500 221q-2 -20 10 -35.5t32 -17.5q19 -2 34.5 10t17.5 31q3 20 -9.5 35.5t-31.5 17.5t-34.5 -10t-18.5 -31zM574 48q-2 -20 10 -35.5t31 -17.5q20 -3 35.5 9.5t17.5 31.5q3 19 -9.5 34.5t-31.5 18.5q-19 2 -34.5 -10t-18.5 -31zM356 566q-2 -18 9.5 -32.5t30.5 -17.5
q18 -2 32.5 9.5t17.5 30.5q2 18 -9.5 32.5t-30.5 17.5q-18 2 -32.5 -9.5t-17.5 -30.5zM536 134q-3 -19 9.5 -34.5t31.5 -17.5q19 -3 34.5 9t18.5 32q2 19 -10 34.5t-31 17.5q-20 3 -35.5 -9t-17.5 -32z" />
    <glyph glyph-name="B" unicode="B" horiz-adv-x="599" 
d="M440 583q0 -21 -14.5 -35t-35.5 -14q-20 0 -34.5 14t-14.5 35q0 20 14.5 34.5t34.5 14.5q21 0 35.5 -14.5t14.5 -34.5zM353 632q0 -21 -14.5 -35.5t-35.5 -14.5q-20 0 -34.5 14.5t-14.5 35.5q0 20 14.5 34.5t34.5 14.5q21 0 35.5 -14.5t14.5 -34.5zM463 492
q0 -18 -13 -31t-31 -13q-19 0 -32 13t-13 31t13 31t32 13q18 0 31 -13t13 -31zM255 639q0 -21 -14.5 -35.5t-34.5 -14.5q-21 0 -35.5 14.5t-14.5 35.5q0 20 14.5 34.5t35.5 14.5q20 0 34.5 -14.5t14.5 -34.5zM421 412q0 -18 -13 -31t-31 -13q-19 0 -32 13t-13 31q0 19 13 32
t32 13q18 0 31 -13t13 -32zM508 289q0 -17 -11.5 -28.5t-28.5 -11.5q-16 0 -28 11.5t-12 28.5q0 16 12 27.5t28 11.5q17 0 28.5 -11.5t11.5 -27.5zM156 639q0 -21 -14 -35.5t-35 -14.5q-20 0 -34.5 14.5t-14.5 35.5q0 20 14.5 34.5t34.5 14.5q21 0 35 -14.5t14 -34.5z
M437 327q0 -16 -12 -27.5t-28 -11.5q-17 0 -28.5 11.5t-11.5 27.5q0 17 11.5 28.5t28.5 11.5q16 0 28 -11.5t12 -28.5zM548 209q0 -18 -13 -31t-32 -13q-18 0 -31 13t-13 31q0 19 13 32t31 13q19 0 32 -13t13 -32zM356 346q0 -21 -14.5 -35.5t-34.5 -14.5t-34.5 14.5
t-14.5 35.5q0 20 14.5 34.5t34.5 14.5t34.5 -14.5t14.5 -34.5zM156 540q0 -20 -14 -34.5t-35 -14.5q-20 0 -34.5 14.5t-14.5 34.5t14.5 34.5t34.5 14.5q21 0 35 -14.5t14 -34.5zM532 117q0 -20 -14.5 -34.5t-35.5 -14.5q-20 0 -34.5 14.5t-14.5 34.5t14.5 34.5t34.5 14.5
q21 0 35.5 -14.5t14.5 -34.5zM255 343q0 -20 -14.5 -34.5t-34.5 -14.5q-21 0 -35.5 14.5t-14.5 34.5t14.5 34.5t35.5 14.5q20 0 34.5 -14.5t14.5 -34.5zM156 442q0 -21 -14 -35.5t-35 -14.5q-20 0 -34.5 14.5t-14.5 35.5q0 20 14.5 34.5t34.5 14.5q21 0 35 -14.5t14 -34.5z
M452 56q0 -20 -14.5 -34.5t-34.5 -14.5q-21 0 -35.5 14.5t-14.5 34.5t14.5 34.5t35.5 14.5q20 0 34.5 -14.5t14.5 -34.5zM156 343q0 -20 -14 -34.5t-35 -14.5q-20 0 -34.5 14.5t-14.5 34.5t14.5 34.5t34.5 14.5q21 0 35 -14.5t14 -34.5zM156 245q0 -21 -14 -35.5t-35 -14.5
q-20 0 -34.5 14.5t-14.5 35.5q0 20 14.5 34.5t34.5 14.5q21 0 35 -14.5t14 -34.5zM353 48q0 -21 -14 -35.5t-35 -14.5q-20 0 -34.5 14.5t-14.5 35.5q0 20 14.5 34.5t34.5 14.5q21 0 35 -14.5t14 -34.5zM156 146q0 -20 -14 -34.5t-35 -14.5q-20 0 -34.5 14.5t-14.5 34.5
t14.5 34.5t34.5 14.5q21 0 35 -14.5t14 -34.5zM255 48q0 -21 -14.5 -35.5t-34.5 -14.5q-21 0 -35.5 14.5t-14.5 35.5q0 20 14.5 34.5t35.5 14.5q20 0 34.5 -14.5t14.5 -34.5zM156 48q0 -21 -14 -35.5t-35 -14.5q-20 0 -34.5 14.5t-14.5 35.5q0 20 14.5 34.5t34.5 14.5
q21 0 35 -14.5t14 -34.5z" />
    <glyph glyph-name="C" unicode="C" horiz-adv-x="671" 
d="M636 594q0 -20 -14 -34.5t-35 -14.5q-20 0 -34.5 14t-14.5 35q0 20 14.5 34.5t34.5 14.5t34.5 -14.5t14.5 -34.5zM546 632q0 -20 -14.5 -34.5t-34.5 -14.5q-21 0 -35.5 14t-14.5 35q0 20 14.5 34.5t34.5 14.5t35 -14.5t15 -34.5zM448 645q0 -20 -14.5 -34.5t-34.5 -14.5
q-21 0 -35.5 14t-14.5 35q0 20 14.5 34.5t34.5 14.5q21 0 35.5 -14.5t14.5 -34.5zM349 632q0 -21 -14.5 -35t-34.5 -14q-21 0 -35 14.5t-14 34.5t14.5 34.5t34.5 14.5t34.5 -14.5t14.5 -34.5zM258 594q0 -21 -14.5 -35t-34.5 -14t-34.5 14.5t-14.5 34.5t14.5 34.5t34.5 14.5
q21 0 35 -14.5t14 -34.5zM636 90q0 -20 -14.5 -34.5t-34.5 -14.5q-21 0 -35.5 14t-14.5 35q0 20 14.5 34.5t34.5 14.5t35 -14.5t15 -34.5zM185 528q0 -20 -14.5 -34.5t-34.5 -14.5t-34.5 15t-14.5 35t14.5 34.5t34.5 14.5q21 0 35 -14.5t14 -35.5zM545 51q0 -20 -14.5 -34.5
t-34.5 -14.5t-34.5 14.5t-14.5 34.5t14 34.5t35 14.5q20 0 34.5 -14t14.5 -35zM139 441q0 -20 -14.5 -34.5t-34.5 -14.5q-21 0 -35 14.5t-14 35.5q0 20 14.5 34.5t34.5 14.5t34.5 -15t14.5 -35zM447 37q0 -20 -14.5 -34.5t-34.5 -14.5t-34.5 14.5t-14.5 34.5q0 21 14.5 35
t34.5 14q21 0 35 -14.5t14 -34.5zM129 342q0 -20 -14.5 -34.5t-35.5 -14.5q-20 0 -34.5 14.5t-14.5 35.5q0 20 14.5 34.5t35.5 14.5q20 0 34.5 -14.5t14.5 -35.5zM350 51q0 -20 -14.5 -34.5t-35.5 -14.5q-20 0 -34.5 14.5t-14.5 34.5q0 21 14.5 35t35.5 14q20 0 34.5 -14.5
t14.5 -34.5zM141 243q0 -20 -14.5 -34.5t-34.5 -14.5t-34.5 14.5t-14.5 35.5q0 20 14.5 34.5t34.5 14.5q21 0 35 -15t14 -35zM259 90q0 -21 -14.5 -35t-34.5 -14q-21 0 -35 14.5t-14 34.5t14.5 34.5t34.5 14.5t34.5 -14.5t14.5 -34.5zM187 155q0 -20 -14.5 -34.5
t-35.5 -14.5q-20 0 -34.5 15t-14.5 35t14.5 34.5t35.5 14.5q20 0 34.5 -14.5t14.5 -35.5z" />
    <glyph glyph-name="D" unicode="D" horiz-adv-x="747" 
d="M617 527q0 -20 -14.5 -34.5t-34.5 -14.5q-21 0 -35.5 14.5t-14.5 34.5q0 21 14.5 35.5t35.5 14.5q20 0 34.5 -14.5t14.5 -35.5zM544 594q0 -21 -14.5 -35.5t-35.5 -14.5q-20 0 -34.5 14.5t-14.5 35.5q0 20 14.5 34.5t34.5 14.5q21 0 35.5 -14.5t14.5 -34.5zM666 440
q0 -20 -14.5 -34.5t-35.5 -14.5q-20 0 -34.5 14.5t-14.5 34.5t14.5 34.5t34.5 14.5q21 0 35.5 -14.5t14.5 -34.5zM452 631q0 -20 -14.5 -34.5t-34.5 -14.5q-21 0 -35.5 14.5t-14.5 34.5t14.5 34.5t35.5 14.5q20 0 34.5 -14.5t14.5 -34.5zM680 343q0 -20 -14.5 -34.5
t-35.5 -14.5q-20 0 -34.5 14.5t-14.5 34.5t14.5 34.5t34.5 14.5q21 0 35.5 -14.5t14.5 -34.5zM353 639q0 -21 -14.5 -35.5t-34.5 -14.5t-34.5 14.5t-14.5 35.5q0 20 14.5 34.5t34.5 14.5t34.5 -14.5t14.5 -34.5zM666 246q0 -20 -14.5 -34.5t-35.5 -14.5q-20 0 -34.5 14.5
t-14.5 34.5t14.5 34.5t34.5 14.5q21 0 35.5 -14.5t14.5 -34.5zM255 639q0 -21 -14.5 -35.5t-34.5 -14.5q-21 0 -35.5 14.5t-14.5 35.5q0 20 14.5 34.5t35.5 14.5q20 0 34.5 -14.5t14.5 -34.5zM156 639q0 -21 -14.5 -35.5t-34.5 -14.5t-34.5 14.5t-14.5 35.5q0 20 14.5 34.5
t34.5 14.5t34.5 -14.5t14.5 -34.5zM617 159q0 -20 -14.5 -34.5t-34.5 -14.5q-21 0 -35.5 14.5t-14.5 34.5t14.5 34.5t35.5 14.5q20 0 34.5 -14.5t14.5 -34.5zM156 540q0 -20 -14.5 -34.5t-34.5 -14.5t-34.5 14.5t-14.5 34.5t14.5 34.5t34.5 14.5t34.5 -14.5t14.5 -34.5z
M544 93q0 -21 -14.5 -35.5t-35.5 -14.5q-20 0 -34.5 14.5t-14.5 35.5q0 20 14.5 34.5t34.5 14.5q21 0 35.5 -14.5t14.5 -34.5zM156 442q0 -21 -14.5 -35.5t-34.5 -14.5t-34.5 14.5t-14.5 35.5q0 20 14.5 34.5t34.5 14.5t34.5 -14.5t14.5 -34.5zM452 55q0 -20 -14.5 -34.5
t-34.5 -14.5q-21 0 -35.5 14.5t-14.5 34.5t14.5 34.5t35.5 14.5q20 0 34.5 -14.5t14.5 -34.5zM156 343q0 -20 -14.5 -34.5t-34.5 -14.5t-34.5 14.5t-14.5 34.5t14.5 34.5t34.5 14.5t34.5 -14.5t14.5 -34.5zM156 245q0 -21 -14.5 -35.5t-34.5 -14.5t-34.5 14.5t-14.5 35.5
q0 20 14.5 34.5t34.5 14.5t34.5 -14.5t14.5 -34.5zM353 48q0 -21 -14.5 -35.5t-34.5 -14.5t-34.5 14.5t-14.5 35.5q0 20 14.5 34.5t34.5 14.5t34.5 -14.5t14.5 -34.5zM156 146q0 -20 -14.5 -34.5t-34.5 -14.5t-34.5 14.5t-14.5 34.5t14.5 34.5t34.5 14.5t34.5 -14.5
t14.5 -34.5zM255 48q0 -21 -14.5 -35.5t-34.5 -14.5q-21 0 -35.5 14.5t-14.5 35.5q0 20 14.5 34.5t35.5 14.5q20 0 34.5 -14.5t14.5 -34.5zM156 48q0 -21 -14.5 -35.5t-34.5 -14.5t-34.5 14.5t-14.5 35.5q0 20 14.5 34.5t34.5 14.5t34.5 -14.5t14.5 -34.5z" />
    <glyph glyph-name="E" unicode="E" horiz-adv-x="501" 
d="M446 639q0 -21 -14.5 -35.5t-34.5 -14.5t-34.5 14.5t-14.5 35.5q0 20 14.5 34.5t34.5 14.5t34.5 -14.5t14.5 -34.5zM347 639q0 -21 -14.5 -35.5t-34.5 -14.5t-34.5 14.5t-14.5 35.5q0 20 14.5 34.5t34.5 14.5t34.5 -14.5t14.5 -34.5zM249 639q0 -21 -14.5 -35.5
t-35.5 -14.5q-20 0 -34.5 14.5t-14.5 35.5q0 20 14.5 34.5t34.5 14.5q21 0 35.5 -14.5t14.5 -34.5zM446 343q0 -20 -14.5 -34.5t-34.5 -14.5t-34.5 14.5t-14.5 34.5t14.5 34.5t34.5 14.5t34.5 -14.5t14.5 -34.5zM150 639q0 -21 -14.5 -35.5t-34.5 -14.5q-21 0 -35.5 14.5
t-14.5 35.5q0 20 14.5 34.5t35.5 14.5q20 0 34.5 -14.5t14.5 -34.5zM347 343q0 -20 -14.5 -34.5t-34.5 -14.5t-34.5 14.5t-14.5 34.5t14.5 34.5t34.5 14.5t34.5 -14.5t14.5 -34.5zM150 540q0 -20 -14.5 -34.5t-34.5 -14.5q-21 0 -35.5 14.5t-14.5 34.5t14.5 34.5t35.5 14.5
q20 0 34.5 -14.5t14.5 -34.5zM249 343q0 -20 -14.5 -34.5t-35.5 -14.5q-20 0 -34.5 14.5t-14.5 34.5t14.5 34.5t34.5 14.5q21 0 35.5 -14.5t14.5 -34.5zM150 442q0 -21 -14.5 -35.5t-34.5 -14.5q-21 0 -35.5 14.5t-14.5 35.5q0 20 14.5 34.5t35.5 14.5q20 0 34.5 -14.5
t14.5 -34.5zM446 48q0 -21 -14.5 -35.5t-34.5 -14.5t-34.5 14.5t-14.5 35.5q0 20 14.5 34.5t34.5 14.5t34.5 -14.5t14.5 -34.5zM150 343q0 -20 -14.5 -34.5t-34.5 -14.5q-21 0 -35.5 14.5t-14.5 34.5t14.5 34.5t35.5 14.5q20 0 34.5 -14.5t14.5 -34.5zM347 48
q0 -21 -14.5 -35.5t-34.5 -14.5t-34.5 14.5t-14.5 35.5q0 20 14.5 34.5t34.5 14.5t34.5 -14.5t14.5 -34.5zM150 245q0 -21 -14.5 -35.5t-34.5 -14.5q-21 0 -35.5 14.5t-14.5 35.5q0 20 14.5 34.5t35.5 14.5q20 0 34.5 -14.5t14.5 -34.5zM249 48q0 -21 -14.5 -35.5
t-35.5 -14.5q-20 0 -34.5 14.5t-14.5 35.5q0 20 14.5 34.5t34.5 14.5q21 0 35.5 -14.5t14.5 -34.5zM150 146q0 -20 -14.5 -34.5t-34.5 -14.5q-21 0 -35.5 14.5t-14.5 34.5t14.5 34.5t35.5 14.5q20 0 34.5 -14.5t14.5 -34.5zM150 48q0 -21 -14.5 -35.5t-34.5 -14.5
q-21 0 -35.5 14.5t-14.5 35.5q0 20 14.5 34.5t35.5 14.5q20 0 34.5 -14.5t14.5 -34.5z" />
    <glyph glyph-name="F" unicode="F" horiz-adv-x="475" 
d="M440 639q0 -21 -14.5 -35.5t-34.5 -14.5q-21 0 -35.5 14.5t-14.5 35.5q0 20 14.5 34.5t35.5 14.5q20 0 34.5 -14.5t14.5 -34.5zM341 639q0 -21 -14.5 -35.5t-34.5 -14.5q-21 0 -35 14.5t-14 35.5q0 20 14 34.5t35 14.5q20 0 34.5 -14.5t14.5 -34.5zM242 639
q0 -21 -14.5 -35.5t-34.5 -14.5t-34.5 14.5t-14.5 35.5q0 20 14.5 34.5t34.5 14.5t34.5 -14.5t14.5 -34.5zM440 343q0 -20 -14.5 -34.5t-34.5 -14.5q-21 0 -35.5 14.5t-14.5 34.5t14.5 34.5t35.5 14.5q20 0 34.5 -14.5t14.5 -34.5zM143 639q0 -21 -14.5 -35.5t-34.5 -14.5
t-34.5 14.5t-14.5 35.5q0 20 14.5 34.5t34.5 14.5t34.5 -14.5t14.5 -34.5zM341 343q0 -20 -14.5 -34.5t-34.5 -14.5q-21 0 -35 14.5t-14 34.5t14 34.5t35 14.5q20 0 34.5 -14.5t14.5 -34.5zM143 540q0 -20 -14.5 -34.5t-34.5 -14.5t-34.5 14.5t-14.5 34.5t14.5 34.5
t34.5 14.5t34.5 -14.5t14.5 -34.5zM242 343q0 -20 -14.5 -34.5t-34.5 -14.5t-34.5 14.5t-14.5 34.5t14.5 34.5t34.5 14.5t34.5 -14.5t14.5 -34.5zM143 442q0 -21 -14.5 -35.5t-34.5 -14.5t-34.5 14.5t-14.5 35.5q0 20 14.5 34.5t34.5 14.5t34.5 -14.5t14.5 -34.5zM143 343
q0 -20 -14.5 -34.5t-34.5 -14.5t-34.5 14.5t-14.5 34.5t14.5 34.5t34.5 14.5t34.5 -14.5t14.5 -34.5zM143 245q0 -21 -14.5 -35.5t-34.5 -14.5t-34.5 14.5t-14.5 35.5q0 20 14.5 34.5t34.5 14.5t34.5 -14.5t14.5 -34.5zM143 146q0 -20 -14.5 -34.5t-34.5 -14.5t-34.5 14.5
t-14.5 34.5t14.5 34.5t34.5 14.5t34.5 -14.5t14.5 -34.5zM143 48q0 -21 -14.5 -35.5t-34.5 -14.5t-34.5 14.5t-14.5 35.5q0 20 14.5 34.5t34.5 14.5t34.5 -14.5t14.5 -34.5z" />
    <glyph glyph-name="G" unicode="G" horiz-adv-x="701" 
d="M651 594q0 -20 -14.5 -34.5t-34.5 -14.5t-34.5 14t-14.5 35q0 20 14 34.5t35 14.5q20 0 34.5 -14.5t14.5 -34.5zM560 632q0 -20 -14 -34.5t-35 -14.5q-20 0 -34.5 14t-14.5 35q0 20 14.5 34.5t34.5 14.5t34.5 -14.5t14.5 -34.5zM462 645q0 -20 -14 -34.5t-35 -14.5
q-20 0 -34.5 14t-14.5 35q0 20 14.5 34.5t34.5 14.5t34.5 -14.5t14.5 -34.5zM364 632q0 -21 -14.5 -35t-35.5 -14q-20 0 -34.5 14.5t-14.5 34.5t15 34.5t35 14.5t34.5 -14.5t14.5 -34.5zM650 287q0 -20 -14 -34.5t-35 -14.5q-20 0 -34.5 14t-14.5 35q0 20 14.5 34.5
t34.5 14.5t34.5 -14.5t14.5 -34.5zM273 594q0 -21 -14.5 -35t-34.5 -14q-21 0 -35 14.5t-14 34.5t14.5 34.5t34.5 14.5t34.5 -14.5t14.5 -34.5zM552 287q0 -20 -14.5 -34.5t-34.5 -14.5q-21 0 -35.5 14t-14.5 35q0 20 14.5 34.5t34.5 14.5q21 0 35.5 -14.5t14.5 -34.5z
M650 189q0 -21 -14 -35.5t-35 -14.5q-20 0 -34.5 14.5t-14.5 34.5t14.5 35t34.5 15t34.5 -14.5t14.5 -34.5zM650 90q0 -20 -14 -34.5t-35 -14.5q-20 0 -34.5 14t-14.5 35q0 20 14.5 34.5t34.5 14.5t34.5 -14.5t14.5 -34.5zM200 528q0 -20 -14.5 -34.5t-35.5 -14.5
q-20 0 -34.5 15t-14.5 35t15 34.5t35 14.5t34.5 -14.5t14.5 -35.5zM560 51q0 -20 -14.5 -34.5t-34.5 -14.5q-21 0 -35.5 14.5t-14.5 34.5t14.5 34.5t34.5 14.5q21 0 35.5 -14t14.5 -35zM154 441q0 -20 -14.5 -34.5t-35.5 -14.5q-20 0 -34.5 14.5t-14.5 35.5q0 20 14.5 34.5
t35.5 14.5q20 0 34.5 -15t14.5 -35zM462 37q0 -20 -14.5 -34.5t-34.5 -14.5q-21 0 -35 14.5t-14 34.5q0 21 14.5 35t34.5 14t34.5 -14.5t14.5 -34.5zM143 342q0 -20 -14.5 -34.5t-34.5 -14.5t-34.5 14.5t-14.5 35.5q0 20 14.5 34.5t34.5 14.5q21 0 35 -14.5t14 -35.5z
M364 51q0 -20 -14.5 -34.5t-34.5 -14.5t-34.5 14.5t-14.5 34.5q0 21 14.5 35t34.5 14q21 0 35 -14.5t14 -34.5zM156 243q0 -20 -14.5 -34.5t-35.5 -14.5q-20 0 -34.5 14.5t-14.5 35.5q0 20 15 34.5t35 14.5t34.5 -15t14.5 -35zM274 90q0 -21 -14.5 -35t-35.5 -14
q-20 0 -34.5 14.5t-14.5 34.5t15 34.5t35 14.5t34.5 -14.5t14.5 -34.5zM201 155q0 -20 -14.5 -34.5t-34.5 -14.5t-34.5 15t-14.5 35t14.5 34.5t34.5 14.5q21 0 35 -14.5t14 -35.5z" />
    <glyph glyph-name="H" unicode="H" horiz-adv-x="745" 
d="M660 639q0 -21 -14.5 -35.5t-34.5 -14.5t-34.5 14.5t-14.5 35.5q0 20 14.5 34.5t34.5 14.5t34.5 -14.5t14.5 -34.5zM660 540q0 -20 -14.5 -34.5t-34.5 -14.5t-34.5 14.5t-14.5 34.5t14.5 34.5t34.5 14.5t34.5 -14.5t14.5 -34.5zM660 442q0 -21 -14.5 -35.5t-34.5 -14.5
t-34.5 14.5t-14.5 35.5q0 20 14.5 34.5t34.5 14.5t34.5 -14.5t14.5 -34.5zM660 343q0 -20 -14.5 -34.5t-34.5 -14.5t-34.5 14.5t-14.5 34.5t14.5 34.5t34.5 14.5t34.5 -14.5t14.5 -34.5zM660 245q0 -21 -14.5 -35.5t-34.5 -14.5t-34.5 14.5t-14.5 35.5q0 20 14.5 34.5
t34.5 14.5t34.5 -14.5t14.5 -34.5zM562 343q0 -20 -14.5 -34.5t-35.5 -14.5q-20 0 -34.5 14.5t-14.5 34.5t14.5 34.5t34.5 14.5q21 0 35.5 -14.5t14.5 -34.5zM660 146q0 -20 -14.5 -34.5t-34.5 -14.5t-34.5 14.5t-14.5 34.5t14.5 34.5t34.5 14.5t34.5 -14.5t14.5 -34.5z
M463 343q0 -20 -14.5 -34.5t-34.5 -14.5t-34.5 14.5t-14.5 34.5t14.5 34.5t34.5 14.5t34.5 -14.5t14.5 -34.5zM167 639q0 -21 -14.5 -35.5t-35.5 -14.5q-20 0 -34.5 14.5t-14.5 35.5q0 20 14.5 34.5t34.5 14.5q21 0 35.5 -14.5t14.5 -34.5zM660 48q0 -21 -14.5 -35.5
t-34.5 -14.5t-34.5 14.5t-14.5 35.5q0 20 14.5 34.5t34.5 14.5t34.5 -14.5t14.5 -34.5zM364 343q0 -20 -14.5 -34.5t-34.5 -14.5t-34.5 14.5t-14.5 34.5t14.5 34.5t34.5 14.5t34.5 -14.5t14.5 -34.5zM167 540q0 -20 -14.5 -34.5t-35.5 -14.5q-20 0 -34.5 14.5t-14.5 34.5
t14.5 34.5t34.5 14.5q21 0 35.5 -14.5t14.5 -34.5zM265 343q0 -20 -14 -34.5t-35 -14.5q-20 0 -34.5 14.5t-14.5 34.5t14.5 34.5t34.5 14.5q21 0 35 -14.5t14 -34.5zM167 442q0 -21 -14.5 -35.5t-35.5 -14.5q-20 0 -34.5 14.5t-14.5 35.5q0 20 14.5 34.5t34.5 14.5
q21 0 35.5 -14.5t14.5 -34.5zM167 343q0 -20 -14.5 -34.5t-35.5 -14.5q-20 0 -34.5 14.5t-14.5 34.5t14.5 34.5t34.5 14.5q21 0 35.5 -14.5t14.5 -34.5zM167 245q0 -21 -14.5 -35.5t-35.5 -14.5q-20 0 -34.5 14.5t-14.5 35.5q0 20 14.5 34.5t34.5 14.5q21 0 35.5 -14.5
t14.5 -34.5zM167 146q0 -20 -14.5 -34.5t-35.5 -14.5q-20 0 -34.5 14.5t-14.5 34.5t14.5 34.5t34.5 14.5q21 0 35.5 -14.5t14.5 -34.5zM167 48q0 -21 -14.5 -35.5t-35.5 -14.5q-20 0 -34.5 14.5t-14.5 35.5q0 20 14.5 34.5t34.5 14.5q21 0 35.5 -14.5t14.5 -34.5z" />
    <glyph glyph-name="I" unicode="I" horiz-adv-x="251" 
d="M167 639q0 -21 -14.5 -35.5t-35.5 -14.5q-20 0 -34.5 14.5t-14.5 35.5q0 20 14.5 34.5t34.5 14.5q21 0 35.5 -14.5t14.5 -34.5zM167 540q0 -20 -14.5 -34.5t-35.5 -14.5q-20 0 -34.5 14.5t-14.5 34.5t14.5 34.5t34.5 14.5q21 0 35.5 -14.5t14.5 -34.5zM167 442
q0 -21 -14.5 -35.5t-35.5 -14.5q-20 0 -34.5 14.5t-14.5 35.5q0 20 14.5 34.5t34.5 14.5q21 0 35.5 -14.5t14.5 -34.5zM167 343q0 -20 -14.5 -34.5t-35.5 -14.5q-20 0 -34.5 14.5t-14.5 34.5t14.5 34.5t34.5 14.5q21 0 35.5 -14.5t14.5 -34.5zM167 245q0 -21 -14.5 -35.5
t-35.5 -14.5q-20 0 -34.5 14.5t-14.5 35.5q0 20 14.5 34.5t34.5 14.5q21 0 35.5 -14.5t14.5 -34.5zM167 146q0 -20 -14.5 -34.5t-35.5 -14.5q-20 0 -34.5 14.5t-14.5 34.5t14.5 34.5t34.5 14.5q21 0 35.5 -14.5t14.5 -34.5zM167 48q0 -21 -14.5 -35.5t-35.5 -14.5
q-20 0 -34.5 14.5t-14.5 35.5q0 20 14.5 34.5t34.5 14.5q21 0 35.5 -14.5t14.5 -34.5z" />
    <glyph glyph-name="J" unicode="J" horiz-adv-x="357" 
d="M273 639q0 -21 -14.5 -35.5t-34.5 -14.5q-21 0 -35.5 14.5t-14.5 35.5q0 20 14.5 34.5t35.5 14.5q20 0 34.5 -14.5t14.5 -34.5zM273 540q0 -20 -14.5 -34.5t-34.5 -14.5q-21 0 -35.5 14.5t-14.5 34.5t14.5 34.5t35.5 14.5q20 0 34.5 -14.5t14.5 -34.5zM273 442
q0 -21 -14.5 -35.5t-34.5 -14.5q-21 0 -35.5 14.5t-14.5 35.5q0 20 14.5 34.5t35.5 14.5q20 0 34.5 -14.5t14.5 -34.5zM273 343q0 -20 -14.5 -34.5t-34.5 -14.5q-21 0 -35.5 14.5t-14.5 34.5t14.5 34.5t35.5 14.5q20 0 34.5 -14.5t14.5 -34.5zM273 245q0 -21 -14.5 -35.5
t-34.5 -14.5q-21 0 -35.5 14.5t-14.5 35.5q0 20 14.5 34.5t35.5 14.5q20 0 34.5 -14.5t14.5 -34.5zM273 146q0 -20 -14.5 -34.5t-34.5 -14.5q-21 0 -35.5 14.5t-14.5 34.5t14.5 34.5t35.5 14.5q20 0 34.5 -14.5t14.5 -34.5zM273 48q0 -21 -14.5 -35.5t-34.5 -14.5
q-21 0 -35.5 14.5t-14.5 35.5q0 20 14.5 34.5t35.5 14.5q20 0 34.5 -14.5t14.5 -34.5zM273 -51q0 -20 -14.5 -34.5t-34.5 -14.5q-21 0 -35.5 14.5t-14.5 34.5t14.5 34.5t35.5 14.5q20 0 34.5 -14.5t14.5 -34.5zM234 -142q0 -21 -14.5 -35.5t-34.5 -14.5t-34.5 14.5
t-14.5 35.5q0 20 14.5 34.5t34.5 14.5t34.5 -14.5t14.5 -34.5zM144 -182q0 -21 -14.5 -35.5t-35.5 -14.5q-20 0 -34.5 14.5t-14.5 35.5q0 20 14.5 34.5t34.5 14.5q21 0 35.5 -14.5t14.5 -34.5z" />
    <glyph glyph-name="K" unicode="K" horiz-adv-x="586" 
d="M523 638q0 -20 -14.5 -34.5t-34.5 -14.5t-34.5 14.5t-14.5 34.5q0 21 14.5 35.5t34.5 14.5t34.5 -14.5t14.5 -35.5zM458 565q0 -21 -14.5 -35.5t-34.5 -14.5q-21 0 -35.5 14.5t-14.5 35.5q0 20 14.5 34.5t35.5 14.5q20 0 34.5 -14.5t14.5 -34.5zM393 491
q0 -20 -14.5 -34.5t-35.5 -14.5q-20 0 -34.5 14.5t-14.5 34.5t14.5 34.5t34.5 14.5q21 0 35.5 -14.5t14.5 -34.5zM155 639q0 -21 -14.5 -35.5t-34.5 -14.5q-21 0 -35.5 14.5t-14.5 35.5q0 20 14.5 34.5t35.5 14.5q20 0 34.5 -14.5t14.5 -34.5zM327 417q0 -20 -14.5 -34.5
t-34.5 -14.5t-34.5 14.5t-14.5 34.5q0 21 14.5 35t34.5 14t34.5 -14.5t14.5 -34.5zM155 540q0 -20 -14.5 -34.5t-34.5 -14.5q-21 0 -35.5 14.5t-14.5 34.5t14.5 34.5t35.5 14.5q20 0 34.5 -14.5t14.5 -34.5zM262 343q0 -20 -14.5 -34.5t-34.5 -14.5q-21 0 -35.5 14.5
t-14.5 35.5q0 20 14.5 34.5t35.5 14.5q20 0 34.5 -14.5t14.5 -35.5zM326 269q0 -20 -14.5 -34.5t-34.5 -14.5t-34.5 14.5t-14.5 34.5t14.5 34.5t34.5 14.5t34.5 -14.5t14.5 -34.5zM155 442q0 -21 -14.5 -35.5t-34.5 -14.5q-21 0 -35.5 14.5t-14.5 35.5q0 20 14.5 34.5
t35.5 14.5q20 0 34.5 -14.5t14.5 -34.5zM390 194q0 -20 -14 -34.5t-35 -14.5q-20 0 -34.5 14.5t-14.5 34.5q0 21 14.5 35t34.5 14t34.5 -14t14.5 -35zM455 120q0 -21 -14.5 -35.5t-34.5 -14.5q-21 0 -35.5 14.5t-14.5 35.5q0 20 14.5 34.5t34.5 14.5q21 0 35.5 -14.5
t14.5 -34.5zM519 45q0 -20 -14.5 -34.5t-34.5 -14.5q-21 0 -35 14.5t-14 34.5t14 34.5t35 14.5q20 0 34.5 -14.5t14.5 -34.5zM155 343q0 -20 -14.5 -34.5t-34.5 -14.5q-21 0 -35.5 14.5t-14.5 34.5t14.5 34.5t35.5 14.5q20 0 34.5 -14.5t14.5 -34.5zM155 245
q0 -21 -14.5 -35.5t-34.5 -14.5q-21 0 -35.5 14.5t-14.5 35.5q0 20 14.5 34.5t35.5 14.5q20 0 34.5 -14.5t14.5 -34.5zM155 146q0 -20 -14.5 -34.5t-34.5 -14.5q-21 0 -35.5 14.5t-14.5 34.5t14.5 34.5t35.5 14.5q20 0 34.5 -14.5t14.5 -34.5zM155 48q0 -21 -14.5 -35.5
t-34.5 -14.5q-21 0 -35.5 14.5t-14.5 35.5q0 20 14.5 34.5t35.5 14.5q20 0 34.5 -14.5t14.5 -34.5z" />
    <glyph glyph-name="L" unicode="L" horiz-adv-x="467" 
d="M136 639q0 -21 -14.5 -35.5t-34.5 -14.5t-34.5 14.5t-14.5 35.5q0 20 14.5 34.5t34.5 14.5t34.5 -14.5t14.5 -34.5zM136 540q0 -20 -14.5 -34.5t-34.5 -14.5t-34.5 14.5t-14.5 34.5t14.5 34.5t34.5 14.5t34.5 -14.5t14.5 -34.5zM136 442q0 -21 -14.5 -35.5t-34.5 -14.5
t-34.5 14.5t-14.5 35.5q0 20 14.5 34.5t34.5 14.5t34.5 -14.5t14.5 -34.5zM136 343q0 -20 -14.5 -34.5t-34.5 -14.5t-34.5 14.5t-14.5 34.5t14.5 34.5t34.5 14.5t34.5 -14.5t14.5 -34.5zM432 48q0 -21 -14.5 -35.5t-35.5 -14.5q-20 0 -34.5 14.5t-14.5 35.5q0 20 14.5 34.5
t34.5 14.5q21 0 35.5 -14.5t14.5 -34.5zM136 245q0 -21 -14.5 -35.5t-34.5 -14.5t-34.5 14.5t-14.5 35.5q0 20 14.5 34.5t34.5 14.5t34.5 -14.5t14.5 -34.5zM333 48q0 -21 -14.5 -35.5t-34.5 -14.5q-21 0 -35 14.5t-14 35.5q0 20 14 34.5t35 14.5q20 0 34.5 -14.5
t14.5 -34.5zM136 146q0 -20 -14.5 -34.5t-34.5 -14.5t-34.5 14.5t-14.5 34.5t14.5 34.5t34.5 14.5t34.5 -14.5t14.5 -34.5zM235 48q0 -21 -14.5 -35.5t-35.5 -14.5q-20 0 -34.5 14.5t-14.5 35.5q0 20 14.5 34.5t34.5 14.5q21 0 35.5 -14.5t14.5 -34.5zM136 48
q0 -21 -14.5 -35.5t-34.5 -14.5t-34.5 14.5t-14.5 35.5q0 20 14.5 34.5t34.5 14.5t34.5 -14.5t14.5 -34.5z" />
    <glyph glyph-name="M" unicode="M" horiz-adv-x="796" 
d="M711 440q0 -20 -14.5 -34.5t-34.5 -14.5t-34.5 14.5t-14.5 34.5q0 21 14.5 35.5t34.5 14.5t34.5 -14.5t14.5 -35.5zM573 490q0 -21 -14.5 -35.5t-34.5 -14.5t-34.5 14.5t-14.5 35.5q0 20 14.5 34.5t34.5 14.5t34.5 -14.5t14.5 -34.5zM711 342q0 -20 -14.5 -34.5
t-34.5 -14.5t-34.5 14.5t-14.5 34.5t14.5 34.5t34.5 14.5t34.5 -14.5t14.5 -34.5zM711 243q0 -20 -14.5 -34.5t-34.5 -14.5t-34.5 14.5t-14.5 34.5q0 21 14.5 35.5t34.5 14.5t34.5 -14.5t14.5 -35.5zM505 416q0 -21 -14.5 -35t-34.5 -14t-34.5 14t-14.5 35q0 20 14.5 34.5
t34.5 14.5t34.5 -14.5t14.5 -34.5zM711 145q0 -20 -14.5 -34.5t-34.5 -14.5t-34.5 14.5t-14.5 34.5t14.5 34.5t34.5 14.5t34.5 -14.5t14.5 -34.5zM167 637q0 -20 -14.5 -34.5t-34.5 -14.5q-21 0 -35.5 14.5t-14.5 34.5q0 21 14.5 35.5t35.5 14.5q20 0 34.5 -14.5t14.5 -35.5
zM233 566q0 -17 -12 -29.5t-30 -12.5q-17 0 -29 12.5t-12 29.5t12 29.5t29 12.5q18 0 30 -12.5t12 -29.5zM301 490q0 -21 -14.5 -35.5t-34.5 -14.5q-21 0 -35.5 14.5t-14.5 35.5q0 20 14.5 34.5t35.5 14.5q20 0 34.5 -14.5t14.5 -34.5zM369 416q0 -21 -14.5 -35t-34.5 -14
q-21 0 -35.5 14t-14.5 35q0 20 14.5 34.5t35.5 14.5q20 0 34.5 -14.5t14.5 -34.5zM437 342q0 -20 -14.5 -34.5t-34.5 -14.5q-21 0 -35 14.5t-14 34.5t14 34.5t35 14.5q20 0 34.5 -14.5t14.5 -34.5zM711 46q0 -20 -14.5 -34.5t-34.5 -14.5t-34.5 14.5t-14.5 34.5
q0 21 14.5 35.5t34.5 14.5t34.5 -14.5t14.5 -35.5zM153 539q0 -17 -12.5 -29.5t-29.5 -12.5t-29.5 12.5t-12.5 29.5t12.5 29.5t29.5 12.5t29.5 -12.5t12.5 -29.5zM167 440q0 -20 -14.5 -34.5t-34.5 -14.5q-21 0 -35.5 14.5t-14.5 34.5q0 21 14.5 35.5t35.5 14.5
q20 0 34.5 -14.5t14.5 -35.5zM167 342q0 -20 -14.5 -34.5t-34.5 -14.5q-21 0 -35.5 14.5t-14.5 34.5t14.5 34.5t35.5 14.5q20 0 34.5 -14.5t14.5 -34.5zM167 243q0 -20 -14.5 -34.5t-34.5 -14.5q-21 0 -35.5 14.5t-14.5 34.5q0 21 14.5 35.5t35.5 14.5q20 0 34.5 -14.5
t14.5 -35.5zM167 145q0 -20 -14.5 -34.5t-34.5 -14.5q-21 0 -35.5 14.5t-14.5 34.5t14.5 34.5t35.5 14.5q20 0 34.5 -14.5t14.5 -34.5zM167 46q0 -20 -14.5 -34.5t-34.5 -14.5q-21 0 -35.5 14.5t-14.5 34.5q0 21 14.5 35.5t35.5 14.5q20 0 34.5 -14.5t14.5 -35.5zM613 637
q0 -20 14.5 -34.5t34.5 -14.5t34.5 14.5t14.5 34.5q0 21 -14.5 35.5t-34.5 14.5t-34.5 -14.5t-14.5 -35.5zM546 566q0 -17 12.5 -29.5t29.5 -12.5t29.5 12.5t12.5 29.5t-12.5 29.5t-29.5 12.5t-29.5 -12.5t-12.5 -29.5zM627 539q0 -17 12 -29.5t30 -12.5q17 0 29.5 12.5
t12.5 29.5t-12.5 29.5t-29.5 12.5q-18 0 -30 -12.5t-12 -29.5z" />
    <glyph glyph-name="N" unicode="N" horiz-adv-x="796" 
d="M711 637q0 -20 -14.5 -34.5t-34.5 -14.5t-34.5 14.5t-14.5 34.5q0 21 14.5 35.5t34.5 14.5t34.5 -14.5t14.5 -35.5zM711 539q0 -20 -14.5 -34.5t-34.5 -14.5t-34.5 14.5t-14.5 34.5t14.5 34.5t34.5 14.5t34.5 -14.5t14.5 -34.5zM711 440q0 -20 -14.5 -34.5t-34.5 -14.5
t-34.5 14.5t-14.5 34.5q0 21 14.5 35.5t34.5 14.5t34.5 -14.5t14.5 -35.5zM711 342q0 -20 -14.5 -34.5t-34.5 -14.5t-34.5 14.5t-14.5 34.5t14.5 34.5t34.5 14.5t34.5 -14.5t14.5 -34.5zM711 243q0 -20 -14.5 -34.5t-34.5 -14.5t-34.5 14.5t-14.5 34.5q0 21 14.5 35.5
t34.5 14.5t34.5 -14.5t14.5 -35.5zM303 490q0 -21 -14.5 -35.5t-34.5 -14.5q-21 0 -35.5 14.5t-14.5 35.5q0 20 14.5 34.5t35.5 14.5q20 0 34.5 -14.5t14.5 -34.5zM371 416q0 -21 -14.5 -35t-34.5 -14q-21 0 -35 14t-14 35q0 20 14 34.5t35 14.5q20 0 34.5 -14.5t14.5 -34.5
zM439 342q0 -20 -14.5 -34.5t-34.5 -14.5t-34.5 14.5t-14.5 34.5t14.5 34.5t34.5 14.5t34.5 -14.5t14.5 -34.5zM507 268q0 -20 -14.5 -34.5t-34.5 -14.5t-34.5 14.5t-14.5 34.5t14.5 34.5t34.5 14.5t34.5 -14.5t14.5 -34.5zM575 194q0 -20 -14.5 -34.5t-34.5 -14.5
t-34.5 14.5t-14.5 34.5t14.5 34.5t34.5 14.5t34.5 -14.5t14.5 -34.5zM167 440q0 -20 -14.5 -34.5t-34.5 -14.5q-21 0 -35.5 14.5t-14.5 34.5q0 21 14.5 35.5t35.5 14.5q20 0 34.5 -14.5t14.5 -35.5zM167 342q0 -20 -14.5 -34.5t-34.5 -14.5q-21 0 -35.5 14.5t-14.5 34.5
t14.5 34.5t35.5 14.5q20 0 34.5 -14.5t14.5 -34.5zM167 243q0 -20 -14.5 -34.5t-34.5 -14.5q-21 0 -35.5 14.5t-14.5 34.5q0 21 14.5 35.5t35.5 14.5q20 0 34.5 -14.5t14.5 -35.5zM167 145q0 -20 -14.5 -34.5t-34.5 -14.5q-21 0 -35.5 14.5t-14.5 34.5t14.5 34.5t35.5 14.5
q20 0 34.5 -14.5t14.5 -34.5zM167 46q0 -20 -14.5 -34.5t-34.5 -14.5q-21 0 -35.5 14.5t-14.5 34.5q0 21 14.5 35.5t35.5 14.5q20 0 34.5 -14.5t14.5 -35.5zM167 637q0 -20 -14.5 -34.5t-34.5 -14.5q-21 0 -35.5 14.5t-14.5 34.5q0 21 14.5 35.5t35.5 14.5q20 0 34.5 -14.5
t14.5 -35.5zM233 566q0 -17 -12 -29.5t-30 -12.5q-17 0 -29 12.5t-12 29.5t12 29.5t29 12.5q18 0 30 -12.5t12 -29.5zM153 539q0 -17 -12.5 -29.5t-29.5 -12.5t-29.5 12.5t-12.5 29.5t12.5 29.5t29.5 12.5t29.5 -12.5t12.5 -29.5zM613 46q0 21 14.5 35.5t34.5 14.5
t34.5 -14.5t14.5 -35.5q0 -20 -14.5 -34.5t-34.5 -14.5t-34.5 14.5t-14.5 34.5zM546 118q0 17 12.5 29.5t29.5 12.5t29.5 -12.5t12.5 -29.5q0 -18 -12.5 -30t-29.5 -12t-29.5 12t-12.5 30zM627 145q0 17 12 29t30 12q17 0 29.5 -12t12.5 -29q0 -18 -12.5 -30t-29.5 -12
q-18 0 -30 12t-12 30z" />
    <glyph glyph-name="O" unicode="O" horiz-adv-x="849" 
d="M728 533q0 -20 -14 -35t-35 -15q-20 0 -34.5 14.5t-14.5 34.5q0 21 14.5 35.5t34.5 14.5t34.5 -14.5t14.5 -34.5zM655 598q0 -20 -14 -34.5t-35 -14.5q-20 0 -34.5 14t-14.5 35q0 20 14.5 34.5t34.5 14.5t34.5 -14.5t14.5 -34.5zM775 446q0 -21 -14.5 -35.5t-34.5 -14.5
q-21 0 -35.5 14.5t-14.5 34.5t14.5 35t34.5 15t35 -14.5t15 -34.5zM565 636q0 -20 -14.5 -34.5t-35.5 -14.5q-20 0 -34.5 14t-14.5 35q0 20 14.5 34.5t34.5 14.5t35 -14.5t15 -34.5zM785 347q0 -21 -14.5 -35.5t-34.5 -14.5t-35 14.5t-15 34.5t14.5 35t34.5 15
q21 0 35.5 -14.5t14.5 -34.5zM467 649q0 -20 -14.5 -34.5t-34.5 -14.5q-21 0 -35.5 14t-14.5 35q0 20 14.5 34.5t34.5 14.5q21 0 35.5 -14.5t14.5 -34.5zM772 248q0 -21 -14 -35.5t-35 -14.5q-20 0 -34.5 14.5t-14.5 34.5t14.5 35t34.5 15t34.5 -14.5t14.5 -34.5zM368 636
q0 -21 -14.5 -35t-34.5 -14q-21 0 -35 14.5t-14 34.5t14.5 34.5t34.5 14.5t34.5 -14.5t14.5 -34.5zM727 160q0 -20 -14.5 -35t-34.5 -15t-34.5 14.5t-14.5 34.5q0 21 14 35.5t35 14.5q20 0 34.5 -14.5t14.5 -34.5zM277 598q0 -21 -14.5 -35t-34.5 -14t-34.5 14.5t-14.5 34.5
t14.5 34.5t34.5 14.5q21 0 35 -14.5t14 -34.5zM654 94q0 -20 -14 -34.5t-35 -14.5q-20 0 -34.5 14t-14.5 35q0 20 14.5 34.5t34.5 14.5t34.5 -14.5t14.5 -34.5zM204 532q0 -20 -14.5 -34.5t-34.5 -14.5q-21 0 -35 15t-14 35t14.5 34.5t34.5 14.5t34.5 -14.5t14.5 -35.5z
M564 55q0 -20 -14.5 -34.5t-34.5 -14.5t-34.5 14.5t-14.5 34.5t14 34.5t35 14.5q20 0 34.5 -14t14.5 -35zM158 445q0 -20 -14.5 -34.5t-34.5 -14.5q-21 0 -35 14.5t-14 35.5q0 20 14.5 34.5t34.5 14.5t34.5 -15t14.5 -35zM466 41q0 -20 -14.5 -34.5t-34.5 -14.5t-34.5 14.5
t-14.5 34.5q0 21 14.5 35t34.5 14q21 0 35 -14.5t14 -34.5zM148 346q0 -20 -14.5 -34.5t-35.5 -14.5q-20 0 -34.5 14.5t-14.5 35.5q0 20 14.5 34.5t35.5 14.5q20 0 34.5 -15t14.5 -35zM369 55q0 -20 -15 -34.5t-35 -14.5t-34.5 14.5t-14.5 34.5q0 21 14.5 35t35.5 14
q20 0 34.5 -14.5t14.5 -34.5zM160 247q0 -20 -14.5 -34.5t-34.5 -14.5q-21 0 -35 14.5t-14 35.5q0 20 14.5 34.5t34.5 14.5t34.5 -15t14.5 -35zM278 94q0 -21 -14.5 -35t-34.5 -14q-21 0 -35 14.5t-14 34.5t14.5 34.5t34.5 14.5t34.5 -14.5t14.5 -34.5zM206 159
q0 -20 -15 -34.5t-35 -14.5t-34.5 15t-14.5 35t14.5 34.5t35.5 14.5q20 0 34.5 -14.5t14.5 -35.5z" />
    <glyph glyph-name="P" unicode="P" horiz-adv-x="501" 
d="M430 587q0 -20 -14.5 -34.5t-34.5 -14.5t-34.5 14.5t-14.5 34.5q0 21 14.5 35t34.5 14t34.5 -14t14.5 -35zM345 638q0 -21 -14.5 -35t-34.5 -14q-21 0 -35.5 14t-14.5 35q0 20 14.5 34.5t35.5 14.5q20 0 34.5 -14.5t14.5 -34.5zM456 493q0 -20 -14.5 -34.5t-34.5 -14.5
t-34.5 14.5t-14.5 34.5t14.5 34.5t34.5 14.5t34.5 -14.5t14.5 -34.5zM246 637q0 -20 -14.5 -34.5t-34.5 -14.5t-34.5 14.5t-14.5 34.5q0 21 14.5 35.5t34.5 14.5t34.5 -14.5t14.5 -35.5zM427 398q0 -20 -14.5 -34.5t-34.5 -14.5t-34.5 14.5t-14.5 34.5t14.5 34.5t34.5 14.5
t34.5 -14.5t14.5 -34.5zM148 637q0 -20 -14.5 -34.5t-34.5 -14.5q-21 0 -35.5 14.5t-14.5 34.5q0 21 14.5 35.5t35.5 14.5q20 0 34.5 -14.5t14.5 -35.5zM345 346q0 -20 -14.5 -34.5t-34.5 -14.5q-21 0 -35.5 14.5t-14.5 34.5q0 21 14.5 35.5t35.5 14.5q20 0 34.5 -14.5
t14.5 -35.5zM148 539q0 -20 -14.5 -34.5t-34.5 -14.5q-21 0 -35.5 14.5t-14.5 34.5t14.5 34.5t35.5 14.5q20 0 34.5 -14.5t14.5 -34.5zM148 440q0 -20 -14.5 -34.5t-34.5 -14.5q-21 0 -35.5 14.5t-14.5 34.5q0 21 14.5 35.5t35.5 14.5q20 0 34.5 -14.5t14.5 -35.5zM246 342
q0 -20 -14.5 -34.5t-34.5 -14.5t-34.5 14.5t-14.5 34.5t14.5 34.5t34.5 14.5t34.5 -14.5t14.5 -34.5zM148 342q0 -20 -14.5 -34.5t-34.5 -14.5q-21 0 -35.5 14.5t-14.5 34.5t14.5 34.5t35.5 14.5q20 0 34.5 -14.5t14.5 -34.5zM148 243q0 -20 -14.5 -34.5t-34.5 -14.5
q-21 0 -35.5 14.5t-14.5 34.5q0 21 14.5 35.5t35.5 14.5q20 0 34.5 -14.5t14.5 -35.5zM148 145q0 -20 -14.5 -34.5t-34.5 -14.5q-21 0 -35.5 14.5t-14.5 34.5t14.5 34.5t35.5 14.5q20 0 34.5 -14.5t14.5 -34.5zM148 46q0 -20 -14.5 -34.5t-34.5 -14.5q-21 0 -35.5 14.5
t-14.5 34.5q0 21 14.5 35.5t35.5 14.5q20 0 34.5 -14.5t14.5 -35.5z" />
    <glyph glyph-name="Q" unicode="Q" horiz-adv-x="853" 
d="M666 587q0 -20 -14.5 -34.5t-34.5 -14.5t-34.5 14.5t-14.5 34.5t14.5 34.5t34.5 14.5t34.5 -14.5t14.5 -34.5zM734 520q0 -21 -14.5 -35.5t-34.5 -14.5t-34.5 14.5t-14.5 35.5q0 20 14.5 34.5t34.5 14.5t34.5 -14.5t14.5 -34.5zM580 630q0 -20 -14.5 -34.5t-35.5 -14.5
q-20 0 -34.5 14.5t-14.5 34.5t14.5 34.5t34.5 14.5q21 0 35.5 -14.5t14.5 -34.5zM772 429q0 -21 -14.5 -35t-34.5 -14q-21 0 -35.5 14.5t-14.5 34.5t14.5 34.5t35.5 14.5q20 0 34.5 -14.5t14.5 -34.5zM484 651q0 -20 -14.5 -34.5t-34.5 -14.5t-34.5 14.5t-14.5 34.5
q0 21 14.5 35.5t34.5 14.5t34.5 -14.5t14.5 -35.5zM785 330q0 -20 -14.5 -34.5t-34.5 -14.5t-34.5 14.5t-14.5 34.5t14.5 34.5t34.5 14.5q21 0 35 -14.5t14 -34.5zM386 639q0 -21 -14.5 -35.5t-34.5 -14.5t-34.5 14.5t-14.5 35.5q0 20 14.5 34.5t34.5 14.5t34.5 -14.5
t14.5 -34.5zM764 233q0 -20 -14.5 -34.5t-34.5 -14.5t-34.5 14.5t-14.5 34.5q0 21 14.5 35.5t34.5 14.5t34.5 -14.5t14.5 -35.5zM294 600q0 -20 -14.5 -34.5t-34.5 -14.5t-34.5 14.5t-14.5 34.5q0 21 14.5 35.5t34.5 14.5t34.5 -14.5t14.5 -35.5zM711 151q0 -20 -14.5 -34.5
t-34.5 -14.5t-34.5 14.5t-14.5 34.5t14.5 34.5t34.5 14.5t34.5 -14.5t14.5 -34.5zM217 540q0 -20 -14.5 -34.5t-35.5 -14.5q-20 0 -34.5 14.5t-14.5 34.5q0 21 14.5 35t34.5 14q21 0 35.5 -14t14.5 -35zM634 90q0 -20 -14.5 -34.5t-34.5 -14.5q-21 0 -35.5 14.5t-14.5 34.5
q0 21 14.5 35.5t35.5 14.5q20 0 34.5 -14.5t14.5 -35.5zM713 -89q0 -20 -14.5 -34.5t-34.5 -14.5t-34.5 14.5t-14.5 35.5q0 20 14.5 34.5t34.5 14.5q21 0 35 -14.5t14 -35.5zM163 458q0 -20 -14.5 -34.5t-35.5 -14.5q-20 0 -34.5 14.5t-14.5 34.5q0 21 14.5 35.5t35.5 14.5
q20 0 34.5 -14.5t14.5 -35.5zM616 -70q0 -20 -14.5 -34.5t-35.5 -14.5q-20 0 -34.5 14.5t-14.5 34.5q0 21 14.5 35t35.5 14q20 0 34.5 -14.5t14.5 -34.5zM141 362q0 -20 -14.5 -34.5t-35.5 -14.5q-20 0 -34.5 14.5t-14.5 34.5t14.5 34.5t35.5 14.5q20 0 34.5 -14.5
t14.5 -34.5zM440 15q0 -20 -14.5 -34.5t-35.5 -14.5q-20 0 -34.5 14.5t-14.5 34.5t14.5 34.5t34.5 14.5q21 0 35.5 -14.5t14.5 -34.5zM156 264q0 -20 -14.5 -34.5t-34.5 -14.5t-34.5 14.5t-14.5 34.5t14.5 34.5t34.5 14.5t34.5 -14.5t14.5 -34.5zM348 54q0 -21 -14.5 -35.5
t-35.5 -14.5q-20 0 -34.5 14.5t-14.5 35.5q0 20 14.5 34.5t34.5 14.5q21 0 35.5 -14.5t14.5 -34.5zM194 171q0 -20 -14.5 -34.5t-34.5 -14.5t-34.5 14.5t-14.5 34.5q0 21 14.5 35.5t34.5 14.5t34.5 -14.5t14.5 -35.5zM261 98q0 -20 -14.5 -34.5t-35.5 -14.5
q-20 0 -34.5 14.5t-14.5 34.5q0 21 14.5 35.5t34.5 14.5q21 0 35.5 -14.5t14.5 -35.5zM544 52q0 -19 -14 -32.5t-33 -13.5t-32.5 13.5t-13.5 32.5t13.5 33t32.5 14t33 -14t14 -33zM519 -39q0 -20 -14 -33.5t-33 -13.5t-32.5 14t-13.5 33t13.5 32.5t33.5 13.5
q19 0 32.5 -13.5t13.5 -32.5z" />
    <glyph glyph-name="R" unicode="R" horiz-adv-x="591" 
d="M435 587q0 -20 -14.5 -34.5t-35.5 -14.5q-20 0 -34.5 14.5t-14.5 34.5q0 21 14.5 35t34.5 14q21 0 35.5 -14t14.5 -35zM349 638q0 -21 -14.5 -35t-34.5 -14t-34.5 14t-14.5 35q0 20 14.5 34.5t34.5 14.5t34.5 -14.5t14.5 -34.5zM460 493q0 -20 -14.5 -34.5t-34.5 -14.5
t-34.5 14.5t-14.5 34.5t14.5 34.5t34.5 14.5t34.5 -14.5t14.5 -34.5zM251 637q0 -20 -14.5 -34.5t-35.5 -14.5q-20 0 -34.5 14.5t-14.5 34.5q0 21 14.5 35.5t34.5 14.5q21 0 35.5 -14.5t14.5 -35.5zM432 398q0 -20 -14.5 -34.5t-35.5 -14.5q-20 0 -34.5 14.5t-14.5 34.5
t14.5 34.5t34.5 14.5q21 0 35.5 -14.5t14.5 -34.5zM152 637q0 -20 -14.5 -34.5t-34.5 -14.5t-34.5 14.5t-14.5 34.5q0 21 14.5 35.5t34.5 14.5t34.5 -14.5t14.5 -35.5zM349 346q0 -20 -14.5 -34.5t-34.5 -14.5t-34.5 14.5t-14.5 34.5q0 21 14.5 35.5t34.5 14.5t34.5 -14.5
t14.5 -35.5zM417 277q0 -20 -14.5 -34.5t-34.5 -14.5q-21 0 -35 14.5t-14 34.5t14 34.5t35 14.5q20 0 34.5 -14.5t14.5 -34.5zM152 539q0 -20 -14.5 -34.5t-34.5 -14.5t-34.5 14.5t-14.5 34.5t14.5 34.5t34.5 14.5t34.5 -14.5t14.5 -34.5zM483 205q0 -20 -14.5 -34.5
t-34.5 -14.5t-34.5 14.5t-14.5 34.5q0 21 14.5 35.5t34.5 14.5t34.5 -14.5t14.5 -35.5zM539 127q0 -20 -14.5 -34.5t-34.5 -14.5t-34.5 14.5t-14.5 34.5t14.5 34.5t34.5 14.5t34.5 -14.5t14.5 -34.5zM591 45q0 -20 -14 -34.5t-35 -14.5q-20 0 -34.5 14.5t-14.5 34.5
t14.5 34.5t34.5 14.5q21 0 35 -14.5t14 -34.5zM152 440q0 -20 -14.5 -34.5t-34.5 -14.5t-34.5 14.5t-14.5 34.5q0 21 14.5 35.5t34.5 14.5t34.5 -14.5t14.5 -35.5zM251 342q0 -20 -14.5 -34.5t-35.5 -14.5q-20 0 -34.5 14.5t-14.5 34.5t14.5 34.5t34.5 14.5q21 0 35.5 -14.5
t14.5 -34.5zM152 342q0 -20 -14.5 -34.5t-34.5 -14.5t-34.5 14.5t-14.5 34.5t14.5 34.5t34.5 14.5t34.5 -14.5t14.5 -34.5zM152 243q0 -20 -14.5 -34.5t-34.5 -14.5t-34.5 14.5t-14.5 34.5q0 21 14.5 35.5t34.5 14.5t34.5 -14.5t14.5 -35.5zM152 145q0 -20 -14.5 -34.5
t-34.5 -14.5t-34.5 14.5t-14.5 34.5t14.5 34.5t34.5 14.5t34.5 -14.5t14.5 -34.5zM152 46q0 -20 -14.5 -34.5t-34.5 -14.5t-34.5 14.5t-14.5 34.5q0 21 14.5 35.5t34.5 14.5t34.5 -14.5t14.5 -35.5z" />
    <glyph glyph-name="S" unicode="S" horiz-adv-x="480" 
d="M410 616q0 -20 -14 -35t-35 -15q-20 0 -34.5 14.5t-14.5 34.5t14 35t35 15q20 0 34.5 -14.5t14.5 -34.5zM317 648q0 -20 -14 -34.5t-34 -14.5q-21 0 -35.5 14t-14.5 35q0 20 14.5 34.5t34.5 14.5t34.5 -14t14.5 -35zM220 635q0 -20 -14.5 -34.5t-34.5 -14.5t-35 14
t-15 34q0 21 14.5 35.5t34.5 14.5t35 -14t15 -35zM147 570q0 -20 -14 -34.5t-35 -14.5q-20 0 -34.5 14t-14.5 34q0 21 14 35.5t35 14.5q20 0 34.5 -14.5t14.5 -34.5zM299 347q0 -20 -14 -34.5t-35 -14.5q-20 0 -34.5 14t-14.5 35q0 20 14 34.5t34 14.5q21 0 35.5 -14
t14.5 -35zM429 207q0 -20 -14.5 -35t-34.5 -15t-35 14.5t-15 34.5q0 21 14.5 35.5t34.5 14.5t35 -14.5t15 -34.5zM148 472q0 -21 -14.5 -35.5t-34.5 -14.5t-34.5 14.5t-14.5 34.5t14 35t34 15q21 0 35.5 -14.5t14.5 -34.5zM213 399q0 -20 -14 -35t-35 -15q-20 0 -34.5 14.5
t-14.5 34.5t14 35t35 15q20 0 34.5 -14.5t14.5 -34.5zM414 109q0 -20 -14.5 -34.5t-34.5 -14.5t-35 14t-15 34q0 21 14.5 35.5t34.5 14.5t35 -14t15 -35zM336 49q0 -20 -14.5 -34.5t-34.5 -14.5t-35 14t-15 34q0 21 14.5 35.5t34.5 14.5t35 -14t15 -35zM238 48
q0 -20 -14.5 -34.5t-34.5 -14.5t-34.5 14t-14.5 35q0 20 14 34.5t34 14.5q21 0 35.5 -14t14.5 -35zM148 83q0 -20 -14.5 -35t-34.5 -15q-21 0 -35.5 14.5t-14.5 34.5t14.5 35t34.5 15t35 -14.5t15 -34.5zM382 294q0 20 -15 34.5t-35 14.5t-34.5 -15t-14.5 -35t15 -34.5
t35 -14.5t34.5 15t14.5 35z" />
    <glyph glyph-name="T" unicode="T" horiz-adv-x="560" 
d="M519 637q0 -20 -14.5 -34.5t-34.5 -14.5t-34.5 14.5t-14.5 34.5q0 21 14.5 35.5t34.5 14.5t34.5 -14.5t14.5 -35.5zM421 637q0 -20 -14.5 -34.5t-34.5 -14.5q-21 0 -35.5 14.5t-14.5 34.5q0 21 14.5 35.5t35.5 14.5q20 0 34.5 -14.5t14.5 -35.5zM322 637
q0 -20 -14.5 -34.5t-34.5 -14.5t-34.5 14.5t-14.5 34.5q0 21 14.5 35.5t34.5 14.5t34.5 -14.5t14.5 -35.5zM322 539q0 -20 -14.5 -34.5t-34.5 -14.5t-34.5 14.5t-14.5 34.5t14.5 34.5t34.5 14.5t34.5 -14.5t14.5 -34.5zM224 637q0 -20 -14.5 -34.5t-34.5 -14.5
q-21 0 -35.5 14.5t-14.5 34.5q0 21 14.5 35.5t35.5 14.5q20 0 34.5 -14.5t14.5 -35.5zM322 440q0 -20 -14.5 -34.5t-34.5 -14.5t-34.5 14.5t-14.5 34.5q0 21 14.5 35.5t34.5 14.5t34.5 -14.5t14.5 -35.5zM125 637q0 -20 -14.5 -34.5t-34.5 -14.5t-34.5 14.5t-14.5 34.5
q0 21 14.5 35.5t34.5 14.5t34.5 -14.5t14.5 -35.5zM322 342q0 -20 -14.5 -34.5t-34.5 -14.5t-34.5 14.5t-14.5 34.5t14.5 34.5t34.5 14.5t34.5 -14.5t14.5 -34.5zM322 243q0 -20 -14.5 -34.5t-34.5 -14.5t-34.5 14.5t-14.5 34.5q0 21 14.5 35.5t34.5 14.5t34.5 -14.5
t14.5 -35.5zM322 145q0 -20 -14.5 -34.5t-34.5 -14.5t-34.5 14.5t-14.5 34.5t14.5 34.5t34.5 14.5t34.5 -14.5t14.5 -34.5zM322 46q0 -20 -14.5 -34.5t-34.5 -14.5t-34.5 14.5t-14.5 34.5q0 21 14.5 35.5t34.5 14.5t34.5 -14.5t14.5 -35.5z" />
    <glyph glyph-name="U" unicode="U" horiz-adv-x="691" 
d="M611 638q0 -20 -14.5 -34.5t-35.5 -14.5q-20 0 -34.5 14.5t-14.5 34.5q0 21 14.5 35t34.5 14q21 0 35.5 -14t14.5 -35zM611 540q0 -21 -14.5 -35.5t-35.5 -14.5q-20 0 -34.5 14.5t-14.5 35.5q0 20 14.5 34.5t34.5 14.5q21 0 35.5 -14.5t14.5 -34.5zM611 441
q0 -20 -14.5 -34.5t-35.5 -14.5q-20 0 -34.5 14.5t-14.5 34.5q0 21 14.5 35t34.5 14q21 0 35.5 -14t14.5 -35zM611 343q0 -21 -14.5 -35t-35.5 -14q-20 0 -34.5 14t-14.5 35q0 20 14.5 34.5t34.5 14.5q21 0 35.5 -14.5t14.5 -34.5zM611 243q0 -20 -14.5 -34.5t-35.5 -14.5
q-20 0 -34.5 14.5t-14.5 34.5t14.5 34.5t34.5 14.5q21 0 35.5 -14.5t14.5 -34.5zM162 638q0 -20 -14.5 -34.5t-34.5 -14.5t-34.5 14.5t-14.5 34.5q0 21 14.5 35t34.5 14t34.5 -14t14.5 -35zM596 147q0 -21 -14.5 -35.5t-34.5 -14.5t-34.5 14.5t-14.5 35.5q0 20 14.5 34.5
t34.5 14.5t34.5 -14.5t14.5 -34.5zM162 540q0 -21 -14.5 -35.5t-34.5 -14.5t-34.5 14.5t-14.5 35.5q0 20 14.5 34.5t34.5 14.5t34.5 -14.5t14.5 -34.5zM531 75q0 -20 -14.5 -34.5t-34.5 -14.5q-21 0 -35 14.5t-14 34.5t14 34.5t35 14.5q20 0 34.5 -14.5t14.5 -34.5zM162 441
q0 -20 -14.5 -34.5t-34.5 -14.5t-34.5 14.5t-14.5 34.5q0 21 14.5 35t34.5 14t34.5 -14t14.5 -35zM162 343q0 -21 -14.5 -35t-34.5 -14t-34.5 14t-14.5 35q0 20 14.5 34.5t34.5 14.5t34.5 -14.5t14.5 -34.5zM436 45q0 -20 -14.5 -34.5t-35.5 -14.5q-20 0 -34.5 14.5
t-14.5 34.5q0 21 14.5 35.5t34.5 14.5q21 0 35.5 -14.5t14.5 -35.5zM162 243q0 -20 -14.5 -34.5t-34.5 -14.5t-34.5 14.5t-14.5 34.5t14.5 34.5t34.5 14.5t34.5 -14.5t14.5 -34.5zM337 45q0 -20 -14.5 -34.5t-34.5 -14.5t-34.5 14.5t-14.5 34.5q0 21 14.5 35.5t34.5 14.5
t34.5 -14.5t14.5 -35.5zM177 147q0 -21 -14.5 -35.5t-35.5 -14.5q-20 0 -34.5 14.5t-14.5 35.5q0 20 14.5 34.5t34.5 14.5q21 0 35.5 -14.5t14.5 -34.5zM242 75q0 -20 -14.5 -34.5t-34.5 -14.5q-21 0 -35.5 14.5t-14.5 34.5t14.5 34.5t35.5 14.5q20 0 34.5 -14.5t14.5 -34.5
z" />
    <glyph glyph-name="V" unicode="V" horiz-adv-x="649" 
d="M599 640q0 -20 -14.5 -34.5t-35.5 -14.5q-20 0 -34.5 14.5t-14.5 34.5t14.5 34.5t35.5 14.5q20 0 34.5 -14.5t14.5 -34.5zM560 549q0 -20 -14.5 -34.5t-34.5 -14.5t-34.5 14.5t-14.5 34.5q0 21 14.5 35.5t34.5 14.5t34.5 -14.5t14.5 -35.5zM522 459q0 -21 -14.5 -35.5
t-35.5 -14.5q-20 0 -34.5 14.5t-14.5 35.5q0 20 14.5 34.5t35.5 14.5q20 0 34.5 -14.5t14.5 -34.5zM483 368q0 -20 -14.5 -34.5t-34.5 -14.5t-34.5 14.5t-14.5 34.5t14.5 34.5t34.5 14.5t34.5 -14.5t14.5 -34.5zM138 642q0 -20 -14.5 -34.5t-35.5 -14.5q-20 0 -34.5 14.5
t-14.5 34.5t14.5 34.5t34.5 14.5q21 0 35.5 -14.5t14.5 -34.5zM176 551q0 -20 -14.5 -34.5t-34.5 -14.5t-34.5 14.5t-14.5 34.5q0 21 14 35.5t35 14.5q20 0 34.5 -14.5t14.5 -35.5zM445 280q0 -21 -14.5 -35.5t-34.5 -14.5q-21 0 -35.5 14.5t-14.5 34.5q0 21 14.5 35.5
t35.5 14.5q20 0 34.5 -14.5t14.5 -34.5zM215 461q0 -20 -14.5 -34.5t-35.5 -14.5q-20 0 -34.5 14t-14.5 35q0 20 14.5 34.5t34.5 14.5q21 0 35.5 -14.5t14.5 -34.5zM253 370q0 -20 -14.5 -34.5t-34.5 -14.5q-21 0 -35 14.5t-14 34.5t14 34.5t35 14.5q20 0 34.5 -14.5
t14.5 -34.5zM409 192q0 -18 -13 -31t-31 -13t-31 13t-13 31t13 31t31 13t31 -13t13 -31zM291 280q0 -21 -14 -35.5t-35 -14.5q-20 0 -34.5 14.5t-14.5 34.5q0 21 14.5 35.5t34.5 14.5q21 0 35 -14.5t14 -34.5zM321 192q0 -18 -13 -31t-31 -13t-31 13t-13 31t13 31t31 13
t31 -13t13 -31zM368 110q0 -20 -14.5 -34.5t-34.5 -14.5t-34.5 14.5t-14.5 34.5t14.5 34.5t34.5 14.5t34.5 -14.5t14.5 -34.5zM350 31q0 -29 -29 -29t-29 29t29 29t29 -29z" />
    <glyph glyph-name="W" unicode="W" horiz-adv-x="1110" 
d="M1059 639q0 -20 -14.5 -34.5t-34.5 -14.5t-34.5 14.5t-14.5 34.5t14.5 34.5t34.5 14.5q21 0 35 -14.5t14 -34.5zM1021 549q0 -21 -14.5 -35.5t-34.5 -14.5q-21 0 -35.5 14.5t-14.5 35.5q0 20 14.5 34.5t35.5 14.5q20 0 34.5 -14.5t14.5 -34.5zM983 458q0 -20 -14.5 -34.5
t-35.5 -14.5q-20 0 -34.5 14.5t-14.5 34.5t14.5 34.5t34.5 14.5q21 0 35.5 -14.5t14.5 -34.5zM944 367q0 -20 -14.5 -34.5t-34.5 -14.5q-21 0 -35 14.5t-14 34.5q0 21 14.5 35t34.5 14t34.5 -14.5t14.5 -34.5zM598 632q0 -20 -14.5 -34.5t-34.5 -14.5t-34.5 14.5t-14.5 34.5
t14.5 34.5t34.5 14.5t34.5 -14.5t14.5 -34.5zM638 547q0 -18 -13 -31t-31 -13t-31 13t-13 31t13 31t31 13t31 -13t13 -31zM906 279q0 -21 -14.5 -35.5t-35.5 -14.5q-20 0 -34.5 14.5t-14.5 35.5q0 20 14.5 34.5t34.5 14.5q21 0 35.5 -14.5t14.5 -34.5zM675 460
q0 -20 -14.5 -34.5t-34.5 -14.5t-34.5 14.5t-14.5 34.5t14.5 34.5t34.5 14.5t34.5 -14.5t14.5 -34.5zM550 547q0 -18 -13 -31t-31 -13t-31 13t-13 31t13 31t31 13t31 -13t13 -31zM714 369q0 -20 -14.5 -34.5t-34.5 -14.5q-21 0 -35.5 14.5t-14.5 34.5q0 21 14.5 35.5
t34.5 14.5q21 0 35.5 -14.5t14.5 -35.5zM870 191q0 -18 -13 -31t-31 -13t-31 13t-13 31q0 19 13 32t31 13t31 -13t13 -32zM752 279q0 -21 -14.5 -35.5t-34.5 -14.5t-34.5 14.5t-14.5 35.5q0 20 14.5 34.5t34.5 14.5t34.5 -14.5t14.5 -34.5zM522 458q0 -20 -14.5 -34.5
t-35.5 -14.5q-20 0 -34.5 14.5t-14.5 34.5t14.5 34.5t34.5 14.5q21 0 35.5 -14.5t14.5 -34.5zM782 191q0 -18 -13 -31t-31 -13t-31.5 13t-13.5 31q0 19 13 32t32 13q18 0 31 -13t13 -32zM829 109q0 -20 -14.5 -34.5t-34.5 -14.5q-21 0 -35.5 14.5t-14.5 34.5q0 21 14.5 35
t35.5 14q20 0 34.5 -14.5t14.5 -34.5zM811 30q0 -29 -29 -29t-29 29t29 29t29 -29zM483 367q0 -20 -14.5 -34.5t-34.5 -14.5t-34.5 14.5t-14.5 34.5q0 21 14.5 35t34.5 14t34.5 -14.5t14.5 -34.5zM137 641q0 -20 -14 -34.5t-35 -14.5q-20 0 -34.5 14.5t-14.5 34.5
q0 21 14.5 35.5t34.5 14.5t34.5 -14.5t14.5 -35.5zM176 551q0 -21 -14.5 -35.5t-34.5 -14.5q-21 0 -35.5 14.5t-14.5 35.5q0 20 14.5 34.5t35.5 14.5q20 0 34.5 -14.5t14.5 -34.5zM445 279q0 -21 -14.5 -35.5t-34.5 -14.5q-21 0 -35.5 14.5t-14.5 35.5q0 20 14.5 34.5
t35.5 14.5q20 0 34.5 -14.5t14.5 -34.5zM214 460q0 -20 -14 -34.5t-35 -14.5q-20 0 -34.5 14.5t-14.5 34.5t14.5 34.5t34.5 14.5t34.5 -14.5t14.5 -34.5zM253 369q0 -20 -14.5 -34.5t-34.5 -14.5q-21 0 -35.5 14.5t-14.5 34.5q0 21 14.5 35.5t35.5 14.5q20 0 34.5 -14.5
t14.5 -35.5zM409 191q0 -18 -13 -31t-31 -13t-31 13t-13 31q0 19 13 32t31 13t31 -13t13 -32zM291 279q0 -21 -14.5 -35.5t-34.5 -14.5t-34.5 14.5t-14.5 35.5q0 20 14.5 34.5t34.5 14.5t34.5 -14.5t14.5 -34.5zM321 191q0 -18 -13 -31t-31 -13t-31 13t-13 31q0 19 13 32
t31 13t31 -13t13 -32zM368 109q0 -20 -14.5 -34.5t-34.5 -14.5t-34.5 14.5t-14.5 34.5q0 21 14.5 35t34.5 14t34.5 -14.5t14.5 -34.5zM350 30q0 -29 -29 -29t-29 29t29 29t29 -29z" />
    <glyph glyph-name="X" unicode="X" horiz-adv-x="729" 
d="M666 643q0 -20 -14.5 -34.5t-35.5 -14.5q-20 0 -34.5 14.5t-14.5 34.5t14.5 34.5t34.5 14.5q21 0 35.5 -14.5t14.5 -34.5zM600 569q0 -20 -14.5 -34.5t-34.5 -14.5t-34.5 14.5t-14.5 34.5q0 21 14.5 35.5t34.5 14.5t34.5 -14.5t14.5 -35.5zM535 496q0 -21 -14.5 -35.5
t-34.5 -14.5q-21 0 -35 14.5t-14 35.5q0 20 14.5 34.5t34.5 14.5t34.5 -14.5t14.5 -34.5zM470 422q0 -20 -14.5 -34.5t-35.5 -14.5q-20 0 -34.5 14.5t-14.5 34.5t14.5 34.5t34.5 14.5q21 0 35.5 -14.5t14.5 -34.5zM143 643q0 -20 -14.5 -34.5t-34.5 -14.5t-34.5 14.5
t-14.5 34.5t14.5 34.5t34.5 14.5t34.5 -14.5t14.5 -34.5zM208 569q0 -20 -14 -34.5t-35 -14.5q-20 0 -34.5 14.5t-14.5 34.5q0 21 14.5 35.5t34.5 14.5t34.5 -14.5t14.5 -35.5zM274 496q0 -21 -14.5 -35.5t-34.5 -14.5q-21 0 -35.5 14.5t-14.5 35.5q0 20 14.5 34.5
t35.5 14.5q20 0 34.5 -14.5t14.5 -34.5zM339 422q0 -20 -14.5 -34.5t-34.5 -14.5t-34.5 14.5t-14.5 34.5t14.5 34.5t34.5 14.5t34.5 -14.5t14.5 -34.5zM404 348q0 -20 -14.5 -34.5t-34.5 -14.5t-34.5 14.5t-14.5 34.5q0 21 14.5 35t34.5 14t34.5 -14t14.5 -35zM469 274
q0 -21 -14.5 -35.5t-35.5 -14.5q-20 0 -34.5 14.5t-14.5 35.5q0 20 14.5 34.5t34.5 14.5q21 0 35.5 -14.5t14.5 -34.5zM533 199q0 -20 -14.5 -34.5t-34.5 -14.5q-21 0 -35.5 14.5t-14.5 34.5t14.5 34.5t35.5 14.5q20 0 34.5 -14.5t14.5 -34.5zM597 124q0 -20 -14.5 -34.5
t-34.5 -14.5t-34.5 14.5t-14.5 34.5q0 21 14.5 35.5t34.5 14.5t34.5 -14.5t14.5 -35.5zM662 50q0 -21 -14.5 -35t-35.5 -14q-20 0 -34.5 14t-14.5 35q0 20 14.5 34.5t34.5 14.5q21 0 35.5 -14.5t14.5 -34.5zM340 274q0 -21 -14.5 -35.5t-34.5 -14.5t-34.5 14.5t-14.5 35.5
q0 20 14.5 34.5t34.5 14.5t34.5 -14.5t14.5 -34.5zM276 199q0 -20 -14.5 -34.5t-34.5 -14.5q-21 0 -35.5 14.5t-14.5 34.5t14.5 34.5t35.5 14.5q20 0 34.5 -14.5t14.5 -34.5zM212 124q0 -20 -14.5 -34.5t-35.5 -14.5q-20 0 -34.5 14.5t-14.5 34.5q0 21 14.5 35.5t34.5 14.5
q21 0 35.5 -14.5t14.5 -35.5zM147 50q0 -21 -14.5 -35t-34.5 -14t-34.5 14t-14.5 35q0 20 14.5 34.5t34.5 14.5t34.5 -14.5t14.5 -34.5z" />
    <glyph glyph-name="Y" unicode="Y" horiz-adv-x="681" 
d="M643 640q0 -20 -14.5 -34.5t-35.5 -14.5q-20 0 -34.5 14.5t-14.5 34.5t14.5 34.5t34.5 14.5q21 0 35.5 -14.5t14.5 -34.5zM577 566q0 -20 -14.5 -34.5t-34.5 -14.5t-34.5 14.5t-14.5 34.5q0 21 14.5 35.5t34.5 14.5t34.5 -14.5t14.5 -35.5zM512 493q0 -21 -14.5 -35.5
t-34.5 -14.5q-21 0 -35 14.5t-14 35.5q0 20 14.5 34.5t34.5 14.5t34.5 -14.5t14.5 -34.5zM447 419q0 -20 -14.5 -34.5t-35.5 -14.5q-20 0 -34.5 14.5t-14.5 34.5t14.5 34.5t34.5 14.5q21 0 35.5 -14.5t14.5 -34.5zM124 643q0 -20 -14.5 -34.5t-34.5 -14.5t-34.5 14.5
t-14.5 34.5t14.5 34.5t34.5 14.5t34.5 -14.5t14.5 -34.5zM190 569q0 -20 -14.5 -34.5t-35.5 -14.5q-20 0 -34.5 14.5t-14.5 34.5q0 21 14.5 35.5t34.5 14.5q21 0 35.5 -14.5t14.5 -35.5zM255 496q0 -21 -14.5 -35.5t-34.5 -14.5q-21 0 -35.5 14.5t-14.5 35.5q0 20 14.5 34.5
t35.5 14.5q20 0 34.5 -14.5t14.5 -34.5zM320 422q0 -20 -14.5 -34.5t-34.5 -14.5t-34.5 14.5t-14.5 34.5t14.5 34.5t34.5 14.5t34.5 -14.5t14.5 -34.5zM383 345q0 -20 -14.5 -34.5t-34.5 -14.5t-34.5 14.5t-14.5 34.5q0 21 14.5 35t34.5 14q21 0 35 -14.5t14 -34.5zM382 247
q0 -21 -14.5 -35.5t-34.5 -14.5q-21 0 -35.5 14.5t-14.5 35.5q0 20 14.5 34.5t35.5 14.5q20 0 34.5 -14.5t14.5 -34.5zM382 148q0 -20 -14.5 -34.5t-34.5 -14.5q-21 0 -35.5 14.5t-14.5 34.5t14.5 34.5t35.5 14.5q20 0 34.5 -14.5t14.5 -34.5zM382 50q0 -21 -14.5 -35.5
t-34.5 -14.5q-21 0 -35.5 14.5t-14.5 35.5q0 20 14.5 34.5t35.5 14.5q20 0 34.5 -14.5t14.5 -34.5z" />
    <glyph glyph-name="Z" unicode="Z" horiz-adv-x="684" 
d="M646 644q0 -21 -14.5 -35.5t-35.5 -14.5q-20 0 -34.5 14.5t-14.5 35.5q0 20 14.5 34.5t34.5 14.5q21 0 35.5 -14.5t14.5 -34.5zM540 648q0 -18 -13 -31t-31 -13t-31 13t-13 31t13 31t31 13t31 -13t13 -31zM579 567q0 -19 -13.5 -32t-31.5 -13t-31 13t-13 32q0 18 13 31
t31 13q19 0 32 -13t13 -31zM447 644q0 -20 -14.5 -34.5t-35.5 -14.5q-20 0 -34.5 14.5t-14.5 34.5t14.5 34.5t34.5 14.5q21 0 35.5 -14.5t14.5 -34.5zM515 496q0 -20 -14.5 -34.5t-34.5 -14.5q-21 0 -35.5 14.5t-14.5 34.5t14.5 34.5t35.5 14.5q20 0 34.5 -14.5t14.5 -34.5z
M348 644q0 -20 -14.5 -34.5t-34.5 -14.5q-21 0 -35.5 14.5t-14.5 34.5t14.5 34.5t35.5 14.5q20 0 34.5 -14.5t14.5 -34.5zM249 644q0 -20 -14.5 -34.5t-34.5 -14.5t-34.5 14.5t-14.5 34.5t14.5 34.5t34.5 14.5t34.5 -14.5t14.5 -34.5zM450 422q0 -20 -14.5 -34.5
t-35.5 -14.5q-20 0 -34.5 14.5t-14.5 34.5q0 21 14.5 35.5t34.5 14.5q21 0 35.5 -14.5t14.5 -35.5zM151 644q0 -20 -14.5 -34.5t-35.5 -14.5q-20 0 -34.5 14.5t-14.5 34.5t14.5 34.5t34.5 14.5q21 0 35.5 -14.5t14.5 -34.5zM384 349q0 -21 -14.5 -35.5t-34.5 -14.5
t-34.5 14.5t-14.5 35.5q0 20 14.5 34.5t34.5 14.5t34.5 -14.5t14.5 -34.5zM621 50q0 -20 -14.5 -34.5t-34.5 -14.5q-21 0 -35.5 14.5t-14.5 34.5q0 21 14.5 35.5t35.5 14.5q20 0 34.5 -14.5t14.5 -35.5zM320 274q0 -20 -14.5 -34.5t-34.5 -14.5q-21 0 -35.5 14.5t-14.5 34.5
t14.5 34.5t35.5 14.5q20 0 34.5 -14.5t14.5 -34.5zM522 50q0 -20 -14.5 -34.5t-34.5 -14.5t-34.5 14.5t-14.5 34.5q0 21 14.5 35.5t34.5 14.5t34.5 -14.5t14.5 -35.5zM423 50q0 -20 -14.5 -34.5t-34.5 -14.5t-34.5 14.5t-14.5 34.5q0 21 14.5 35.5t34.5 14.5t34.5 -14.5
t14.5 -35.5zM256 199q0 -20 -14.5 -34.5t-35.5 -14.5q-20 0 -34.5 14.5t-14.5 35.5q0 20 14.5 34.5t34.5 14.5q21 0 35.5 -14.5t14.5 -35.5zM324 50q0 -20 -14 -34.5t-35 -14.5q-20 0 -34.5 14.5t-14.5 34.5q0 21 14.5 35.5t34.5 14.5q21 0 35 -14.5t14 -35.5zM29 50
q0 21 14.5 35.5t34.5 14.5t34.5 -14.5t14.5 -35.5q0 -20 -14.5 -34.5t-34.5 -14.5t-34.5 14.5t-14.5 34.5zM134 46q0 18 13 31t31 13t31 -13t13 -31q0 -19 -13 -32t-31 -13t-31 13t-13 32zM96 127q0 19 13 32t31 13t31 -13t13 -32q0 -18 -13 -31t-31 -13t-31 13t-13 31z" />
    <glyph glyph-name="bracketleft" unicode="[" horiz-adv-x="314" 
d="M256 736q0 -21 -14.5 -35t-34.5 -14t-34.5 14t-14.5 35q0 20 14.5 34.5t34.5 14.5t34.5 -14.5t14.5 -34.5zM158 736q0 -21 -14.5 -35t-34.5 -14q-21 0 -35.5 14t-14.5 35q0 20 14.5 34.5t35.5 14.5q20 0 34.5 -14.5t14.5 -34.5zM158 637q0 -20 -14.5 -34.5t-34.5 -14.5
q-21 0 -35.5 14.5t-14.5 34.5q0 21 14.5 35.5t35.5 14.5q20 0 34.5 -14.5t14.5 -35.5zM158 539q0 -20 -14.5 -34.5t-34.5 -14.5q-21 0 -35.5 14.5t-14.5 34.5t14.5 34.5t35.5 14.5q20 0 34.5 -14.5t14.5 -34.5zM158 440q0 -20 -14.5 -34.5t-34.5 -14.5q-21 0 -35.5 14.5
t-14.5 34.5q0 21 14.5 35.5t35.5 14.5q20 0 34.5 -14.5t14.5 -35.5zM158 342q0 -20 -14.5 -34.5t-34.5 -14.5q-21 0 -35.5 14.5t-14.5 34.5t14.5 34.5t35.5 14.5q20 0 34.5 -14.5t14.5 -34.5zM158 243q0 -20 -14.5 -34.5t-34.5 -14.5q-21 0 -35.5 14.5t-14.5 34.5
q0 21 14.5 35.5t35.5 14.5q20 0 34.5 -14.5t14.5 -35.5zM158 145q0 -20 -14.5 -34.5t-34.5 -14.5q-21 0 -35.5 14.5t-14.5 34.5t14.5 34.5t35.5 14.5q20 0 34.5 -14.5t14.5 -34.5zM256 -52q0 -20 -14.5 -34.5t-34.5 -14.5t-34.5 14.5t-14.5 34.5t14.5 34.5t34.5 14.5
t34.5 -14.5t14.5 -34.5zM158 46q0 -20 -14.5 -34.5t-34.5 -14.5q-21 0 -35.5 14.5t-14.5 34.5q0 21 14.5 35.5t35.5 14.5q20 0 34.5 -14.5t14.5 -35.5zM158 -52q0 -20 -14.5 -34.5t-34.5 -14.5q-21 0 -35.5 14.5t-14.5 34.5t14.5 34.5t35.5 14.5q20 0 34.5 -14.5t14.5 -34.5
z" />
    <glyph glyph-name="backslash" unicode="\" horiz-adv-x="2119" 
d="M1988 781q-12 -2 -23 -14t-11 -24v-153h-34q0 5 1.5 48t1.5 72q0 80 -11 89l21 25q19 -6 21 -33q14 19 15 20q11 13 19 13v-43zM1904 757q0 -62 -50 -75q0 -19 7 -35q10 -21 27 -21q6 0 15 5v-39q-8 -3 -19 -3q-67 0 -67 117v31q0 87 44 87q43 0 43 -67zM1800 590h-35
v190q0 10 -9 10l-9 -5v-195h-34v191q0 13 -7 18l22 26q10 -3 17 -17q13 17 27 17q28 0 28 -39v-196zM1694 590h-35v189q0 11 -8 11q-6 -2 -10 -7v-193h-35v302h35v-81q12 14 25 14q28 0 28 -42v-193zM1591 706q0 -118 -42 -118q-45 0 -45 118t43 118q44 0 44 -118zM1496 590
h-65v302h41v-261h24v-41zM1844 212h-34v187q0 13 -9 13q-5 -3 -9 -8v-192h-35v188q0 12 -8 12q-6 -3 -9 -8v-192h-35q0 -3 2 64q2 58 1 92q-2 48 -8 54l20 24q14 -4 18 -17q12 18 27 18q16 0 24 -17q14 17 28 17q27 0 27 -41v-194zM1374 618l-20 -30q-14 4 -18 21
q-12 -20 -23 -20q-34 0 -34 85v47q0 104 53 104v67h34q0 -4 -1.5 -60.5t-1.5 -94.5q0 -108 11 -119zM1269 614l-27 -25q-19 5 -19 30v273h35v-254q0 -19 11 -24zM1688 328q0 -118 -42 -118q-45 0 -45 118t43 118q44 0 44 -118zM2018 -166h-34v187q0 12 -8 12q-6 -2 -10 -7
v-192h-34v188q0 11 -9 11q-6 -2 -9 -7v-192h-34q0 -4 1 63q2 58 1 93q-1 48 -8 53l20 25q14 -5 18 -17q12 17 27 17q16 0 25 -17q13 17 27 17q27 0 27 -41v-193zM1591 216q-9 -7 -17 -7q-48 0 -48 102v40q0 95 49 95q7 0 16 -3v-35l-9 3q-21 0 -21 -58v-57q0 -51 18 -51
q8 0 12 5v-34zM1206 706q0 -118 -42 -118q-45 0 -45 118t43 118q44 0 44 -118zM1468 236l-27 -26q-19 6 -19 31v272h35v-254q0 -19 11 -23zM1110 781q-12 -2 -22.5 -14t-10.5 -24v-153h-35q0 5 1.5 48t1.5 72q0 80 -11 89l21 25q19 -6 22 -33q14 19 15 20q11 13 18 13v-43z
M1862 -51q0 -118 -42 -118q-45 0 -45 118q0 119 43 119q44 0 44 -119zM1517 232q0 -22 -22 -22q-23 0 -23 22t23 22q22 0 22 -22zM1404 328q0 -118 -42 -118q-45 0 -45 118t44 118q43 0 43 -118zM1030 618l-20 -29q-11 3 -18 20q-10 -20 -24 -20q-34 0 -34 97v34
q0 104 71 104h16q0 10 -2 -60q-1 -56 0 -91q3 -48 11 -55zM1765 -163q-9 -6 -17 -6q-48 0 -48 102v40q0 95 49 95q8 0 16 -3v-35l-9 3q-21 0 -21 -58v-57q0 -51 19 -51q8 0 11 5v-35zM914 590h-40v128h-22v-128h-40v302h40v-135h22v135h40v-302zM1312 240l-20 -30
q-11 3 -19 20q-9 -20 -24 -20q-34 0 -34 98v33q0 105 71 105h17q0 10 -2 -60q-2 -57 0 -91q2 -48 11 -55zM1639 -116q0 -53 -40 -53q-12 0 -23 6v35q5 -7 14 -7q17 0 17 18q0 23 -15.5 66t-15.5 66q0 53 36 53q11 0 24 -8v-32q-7 6 -13 6q-14 0 -14 -18q0 -23 15 -66t15 -66
zM1691 -147q0 -22 -22 -22t-22 22q0 23 22 23t22 -23zM1567 -161q-10 -7 -19 -7q-33 0 -33 40v164h-18v10q12 13 42 57h10v-37h18v-30h-18v-159q0 -18 18 -9v-29zM755 677q0 -84 -77 -89v42q34 3 34 47q0 47 -34 48v33h3q30 -1 30 56q0 39 -22 39q-5 0 -11 -2v38q9 5 19 5
q29 0 44 -27q12 -22 12 -53q0 -51 -28 -69q30 -22 30 -68zM1186 377q0 -34 -13 -65q-17 -40 -45 -40q-21 0 -26 23q-12 -23 -32 -23q-38 0 -38 64q0 31 13 60q15 36 42 36q18 0 26 -18l2 11h31q-7 -26 -13 -52q-7 -32 -7 -54l2 -9l4 -3q14 1 22 31q6 22 6 41q0 35 -15 58
q-18 26 -50 26q-42 0 -65 -40q-20 -34 -20 -78q0 -43 18 -73q22 -37 62 -37q35 0 69 38l12 -28q-37 -44 -83 -44q-52 0 -81 49q-23 40 -23 96t25 100q31 51 84 51q45 0 71 -39q22 -33 22 -81zM1484 -166h-35v190q0 10 -9 9l-8 -5v-194h-35v190q0 14 -7 19l22 25
q10 -2 17 -16q13 16 27 16q28 0 28 -39v-195zM665 738q0 -149 -52 -149q-56 0 -56 151q0 154 53 154q55 0 55 -156zM1382 -51q0 -118 -42 -118q-45 0 -45 118q0 119 43 119q44 0 44 -119zM960 403q-12 -2 -22.5 -14.5t-10.5 -24.5v-152h-34q0 4 1.5 47.5t1.5 72.5
q0 79 -11 89l20 25q19 -7 22 -33q14 19 15 20q11 13 18 13v-43zM543 738q0 -149 -52 -149q-57 0 -57 151q0 154 54 154q55 0 55 -156zM1285 104q-17 -2 -17 -25l1 -13h16v-30h-16v-185q0 -61 -49 -61v38q14 -1 14 30v178h-15v30h15q0 73 46 71h5v-33zM877 378q0 -61 -50 -74
q0 -19 7 -36q9 -20 27 -20q5 0 14 4v-39q-8 -3 -18 -3q-67 0 -67 117v31q0 88 44 88q43 0 43 -68zM1210 -116q0 -53 -40 -53q-13 0 -23 6v35q5 -7 14 -7q17 0 17 18q0 23 -15.5 66t-15.5 66q0 53 36 53q10 0 23 -8v-32q-6 6 -12 6q-14 0 -14 -18q0 -23 15 -66t15 -66z
M420 590h-84q39 139 39 224q0 34 -20 34q-11 0 -19 -9v39q18 16 34 16q47 0 47 -73q0 -59 -29 -191h32v-40zM1141 -139l-20 -30q-14 4 -19 21q-12 -20 -23 -20q-34 0 -34 85v48q0 103 53 103v67h34q0 -3 -1.5 -59.5t-1.5 -95.5q0 -108 12 -119zM772 212h-34v190q0 10 -9 10
l-9 -6v-194h-34v191q0 13 -7 18l22 25q9 -2 17 -16q12 16 26 16q28 0 28 -39v-195zM1035 -143l-27 -25q-18 5 -18 30v273h34v-254q0 -19 11 -24zM667 212h-35v189q0 11 -9 11q-5 -2 -9 -7v-193h-35v301h35v-80q11 14 25 14q28 0 28 -42v-193zM316 727q0 -50 -21 -91
q-26 -49 -72 -49q-45 0 -71 49q-22 41 -22 91q0 49 22 90q26 49 71 49q46 0 72 -49q21 -41 21 -90zM972 -51q0 -118 -42 -118q-45 0 -45 118q0 119 43 119q44 0 44 -119zM564 328q0 -118 -42 -118q-45 0 -45 118t43 118q44 0 44 -118zM468 212h-64v301h41v-261h23v-40z
M876 24q-12 -2 -22.5 -14t-10.5 -24v-152h-34q0 4 1.5 47.5t1.5 71.5q0 80 -11 89l21 26q19 -7 21 -33q14 18 15 19q11 13 18 14v-44zM797 -138l-20 -30q-11 3 -19 20q-10 -20 -24 -20q-34 0 -34 97v34q0 105 71 105h17q0 9 -2 -61q-2 -56 0 -90q2 -49 11 -55zM383 212h-41
v127h-21v-127h-40v301h40v-135h21v135h41v-301zM681 -166h-34v188q0 12 -9 11q-6 -2 -10 -7v-192h-34v301h34v-81q12 14 25 14q28 0 28 -42v-192zM581 -147q0 -22 -22 -22t-22 22q0 23 22 23t22 -23zM529 66l-27 -235h-28l-13 149l-14 -149h-28l-27 235h34l8 -159l11 159h31
l11 -157l8 157h34zM384 66l-27 -235h-28l-14 149l-14 -149h-27l-28 235h35l7 -159l11 159h31l12 -157l7 157h35zM238 66l-27 -235h-28l-13 149l-14 -149h-28l-28 235h35l7 -159l11 159h32l11 -157l8 157h34zM1870 756q0 22 -8 32q-9 -16 -9 -37v-30q17 6 17 35zM1557 697v20
q0 61 -9 67q-8 -7 -8 -66v-24q0 -57 8 -66q9 10 9 69zM1332 626v156q-18 -5 -18 -50v-59q0 -50 12 -50zM1653 318v21q0 60 -9 67q-8 -7 -8 -67v-23q0 -58 8 -66q9 10 9 68zM1171 697v20q0 61 -8 67q-9 -7 -9 -66v-24q0 -57 9 -66q8 10 8 69zM1827 -60v20q0 61 -8 67
q-9 -6 -9 -66v-24q0 -57 9 -65q8 10 8 68zM1370 318v21q0 60 -9 67q-8 -7 -8 -67v-23q0 -58 8 -66q9 10 9 68zM987 625v156q-18 -6 -18 -56v-50q0 -52 12 -52zM1268 247v156q-17 -6 -17 -56v-50q0 -52 11 -53zM1103 380q0 19 -10 19q-13 0 -21 -28q-7 -21 -7 -38
q0 -27 12 -27q11 0 20 32q6 26 6 42zM623 771q-1 57 -12 76q-12 -15 -12 -80v-48q0 -69 13 -85q10 18 10 90zM1347 -60v20q0 61 -8 67q-9 -6 -9 -66v-24q0 -57 9 -65q8 10 8 68zM500 771q0 57 -11 76q-12 -15 -12 -80v-48q0 -69 12 -85q11 18 11 90v47zM842 377q0 23 -7 33
q-9 -16 -9 -38v-30q16 6 16 35zM1098 -131v157q-18 -6 -18 -50v-60q0 -50 12 -50zM291 727q0 38 -15 69q-19 40 -53 40q-33 0 -52 -39q-15 -32 -15 -70q0 -39 15 -70q19 -40 52 -40q34 0 53 40q15 31 15 70zM937 -60v20q0 61 -8 67q-8 -6 -8 -66v-24q0 -57 8 -65q8 10 8 68z
M529 318v21q0 60 -8 67q-8 -7 -8 -67v-23q0 -58 8 -66q8 10 8 68zM753 -132v156q-18 -5 -18 -56v-50q0 -52 12 -52zM273 744h-30q-3 29 -18 29q-19 0 -19 -48q0 -44 21 -44q13 0 16 26h30q-8 -65 -47 -65q-27 0 -42 30q-12 24 -12 54q0 31 11 54q13 31 40 31q43 0 50 -67z
" />
    <glyph glyph-name="bracketright" unicode="]" horiz-adv-x="314" 
d="M59 736q0 -21 14.5 -35t35.5 -14q20 0 34.5 14t14.5 35q0 20 -14.5 34.5t-34.5 14.5q-21 0 -35.5 -14.5t-14.5 -34.5zM158 736q0 -21 14.5 -35t34.5 -14t34.5 14t14.5 35q0 20 -14.5 34.5t-34.5 14.5t-34.5 -14.5t-14.5 -34.5zM158 637q0 -20 14.5 -34.5t34.5 -14.5
t34.5 14.5t14.5 34.5q0 21 -14.5 35.5t-34.5 14.5t-34.5 -14.5t-14.5 -35.5zM158 539q0 -20 14.5 -34.5t34.5 -14.5t34.5 14.5t14.5 34.5t-14.5 34.5t-34.5 14.5t-34.5 -14.5t-14.5 -34.5zM158 440q0 -20 14.5 -34.5t34.5 -14.5t34.5 14.5t14.5 34.5q0 21 -14.5 35.5
t-34.5 14.5t-34.5 -14.5t-14.5 -35.5zM158 342q0 -20 14.5 -34.5t34.5 -14.5t34.5 14.5t14.5 34.5t-14.5 34.5t-34.5 14.5t-34.5 -14.5t-14.5 -34.5zM158 243q0 -20 14.5 -34.5t34.5 -14.5t34.5 14.5t14.5 34.5q0 21 -14.5 35.5t-34.5 14.5t-34.5 -14.5t-14.5 -35.5z
M158 145q0 -20 14.5 -34.5t34.5 -14.5t34.5 14.5t14.5 34.5t-14.5 34.5t-34.5 14.5t-34.5 -14.5t-14.5 -34.5zM59 -52q0 -20 14.5 -34.5t35.5 -14.5q20 0 34.5 14.5t14.5 34.5t-14.5 34.5t-34.5 14.5q-21 0 -35.5 -14.5t-14.5 -34.5zM158 46q0 -20 14.5 -34.5t34.5 -14.5
t34.5 14.5t14.5 34.5q0 21 -14.5 35.5t-34.5 14.5t-34.5 -14.5t-14.5 -35.5zM158 -52q0 -20 14.5 -34.5t34.5 -14.5t34.5 14.5t14.5 34.5t-14.5 34.5t-34.5 14.5t-34.5 -14.5t-14.5 -34.5z" />
    <glyph glyph-name="asciicircum" unicode="^" horiz-adv-x="1533" 
d="M1288 519q0 -41 -14 -76q-19 -45 -54 -51q51 51 51 110q0 7 -3.5 20.5t-3.5 19.5q0 9 8 9q16 0 16 -11v-21zM1478 -159l-9 -12l1 -16q-14 3 -17 11q-1 3 -1 20q-4 5 -8 7q0 8 7 12h16q6 -3 11 -8v-14zM1296 -7q0 -8 -15 -10q-8 3 -8 9q0 8 6 15q10 0 16 -6zM1264 -17
q-3 -5 -10 -7q-10 0 -10 17q0 9 8 14q12 0 12 -15v-9zM1288 -107q0 -8 -7 -12q-16 2 -19 11l3 7q-13 18 -13 29q0 9 6 18l-3 17l5 8q8 -3 13 -6q1 -7 9 -39q6 -27 6 -33zM1483 -25q0 -18 -16 -18q-35 40 -79 40l-2 -9h-5q-3 14 -15 32q-14 22 -26 22l-6 -5q-11 -19 -11 -67
q1 -51 -8 -71l2 -8h2q11 0 27 5q20 7 20 18q0 8 -7 11l-14 -12q-12 0 -12 8q0 46 19 89q2 -4 5 -39q2 -28 10 -28q7 0 19 1.5t17 1.5q4 10 16 26q7 0 11.5 -16t16.5 -17q-4 -27 -21 -27q-7 3 -16 16l-6 1l-8 -6q-4 -8 -17 -17q2 -24 17 -24q6 0 18 9t18 9q7 0 15 -7v-12h-15
q-15 -9 -26 -14q-6 1 -10 3q-7 -3 -10 -10q3 -6 9 -9q8 3 14 9q32 -8 32 -24q0 -8 -9.5 -10.5l-17.5 -4.5q0 -8 25 -17q33 -12 37 -15q-23 -14 -53 -14q-20 0 -43 7l-5 7q6 5 13 18l-4 2l-26 -14l-1 -6q5 -6 15 -11h-47q0 39 -17 39q-10 0 -5 -23q-18 0 -23 -3q-1 -4 1 -13
h-37q19 13 19 29l-9 3q-4 -1 -15 -6.5t-16 -5.5q-11 0 -11 13q0 7 19 13t23 10q18 21 32 41q12 0 17 -6q0 -8 -10.5 -19.5l-19.5 -20.5l9 -5q25 12 27 12q7 0 17.5 -13t18.5 -13q14 0 19 13q-28 5 -55 33q5 8 8 16q-12 17 -12 38q0 12 4.5 34.5t4.5 34.5q0 105 -32 105
q-4 0 -11.5 -2t-10.5 -2q-12 0 -9 37q-4 10 -44 41v-4q0 -18 12.5 -51.5t12.5 -51.5q0 -59 -4 -88q6 -8 11 -14q0 -5 -3 -10q-9 -4 -22 -2q0 13 1 41t1 42q0 82 -35 122q-19 -29 -53 -70q-41 -48 -60 -58q-2 -6 -13.5 -20.5t-11.5 -22.5l1 -7q28 16 59 59l48 72
q-12 -53 -53 -103t-90 -70l-6 -1q-7 3 -23 8q-2 -11 -12 -28q-13 -10 -65 -23t-73 -13q-9 -10 -66 -23q-52 -12 -74 -12q-5 0 -12 8l-13 -9q29 -20 62 -20q32 0 87 23l85 38q-19 -26 -69.5 -47t-84.5 -21q-4 -7 -44 -15q-36 -8 -49 -8q-21 0 -52.5 27.5t-44.5 27.5
q-8 0 -11 -19q-2 -14 -3 -27l-5 -1q-7 6 -12 12q0 11 6 32.5t6 32.5q0 12 -8.5 28.5t-19.5 16.5q-14 0 -39 -61q-32 -75 -33 -77q5 59 44 138l-4 4q-8 -7 -16.5 -26.5t-25 -32.5t-16.5 -25l4 -1l4 1q5 0 8 -4l-4 -6l-9 -9l-3 12q-36 -10 -36 -29q0 -10 29 -10v-5
q-40 -1 -48 -1q-48 0 -48 26q0 8 5 17l-3 2q-8 -4 -28 -28q-16 -19 -31 -19q-18 0 -32.5 25.5t-20.5 25.5l-5 -6q0 -22 20 -42q-52 0 -169 -2v1148h369l-18 -57q-12 -37 -24 -53q-10 2 -18 6q-16 -8 -16 -27t19.5 -61.5t19.5 -64.5q0 -49 31 -49q0 -24 9 -24q19 0 53 7
q38 7 50 15q-22 15 -22 26q11 1 35 1q41 0 88 -32.5t79 -32.5q33 0 102.5 40t100.5 40q4 -9 8 -24q70 -9 72 -9l18 1q20 14 51 14q5 0 18.5 -5t21.5 -5q46 0 46 57q0 58 -40 121q-3 6 -1 20q-21 10 -42 59q-5 3 -10 5l-7 7q0 9 -5 25h247q-4 -10 -25 -122q-19 -108 -22 -133
l5 -12q6 1 22 1q33 0 43 -69q-12 16 -22 16q-7 0 -20.5 -4t-20.5 -4q2 9 13.5 17t14.5 13q0 16 -10 16q-23 0 -39 -9q-21 -12 -21 -32q0 -23 24 -18l-15 -29l4 -8q11 -7 17 -16q-2 -8 -21 -21q16 -5 16 -14q-3 -5 -16.5 -17.5t-13.5 -23.5q0 -19 12 -19q10 4 18 12
q6 -3 8 -9l-2 -5q-27 -15 -27 -45q0 -55 10 -66q20 0 52 76q27 64 32 98l6 -1q-7 -64 -64 -157q-54 -89 -54 -105q0 -33 95 -115q81 -70 134 -100q21 -10 58 -33q7 -4 7 -11zM484 636q-5 0 -16 -2t-17 -2q-2 0 -12 3l7 7l2 6q2 -2 20 1q9 -5 16 -13zM1186 57
q0 -113 -146 -227l-4 4l77 72q43 48 43 90q0 5 -6 36q7 6 16 19q-1 8 -1 15q0 18 13 44q8 -26 8 -53zM1126 -36q-3 -5 -8 -12q-9 0 -16 7q0 13 10 13q14 0 14 -8zM1239 -123q-5 -17 -11 -29l-26 -17q0 24 -8 24q-10 0 -18 -15q-10 -19 -13 -21l3 -4l11 -3q6 7 12 12
q7 -5 7 -16q-9 -6 -17 -19q4 -6 14 -6v-5q-28 0 -129 -1q71 58 77 64q42 39 57 81q5 4 12 6l5 -2v-42h3l14 -5l4 1zM1030 576q0 31 -51 40l-68 4q-2 0 -9 4t-10 4q-21 0 -62 -22q-45 -23 -45 -40q0 -8 5 -18q5 -14 6 -17q-1 -6 -4 -10l39 -39.5t54 -19.5q37 0 77 10
q54 15 54 41q0 20 -21 20q-14 -7 -33 -34q-2 4 -10 6t-10 7q1 2 15 22q10 15 10 22q0 8 -7 12q-19 -41 -40 -41q-25 0 -39 41q-19 -6 -19 -20l3 -10q9 -4 19 -9t10 -12q0 -16 -11 -16q-8 0 -20 5q-8 -7 -20 -16l9 30q-17 14 -44 40q64 43 94 43q6 0 22 -4q13 -3 21 -2
q25 3 21 3q17 0 50 -43l12 4q2 9 2 15zM1181 391q0 12 -6 28l-10 27l9 18q-3 6 -8 20q0 5 2.5 18t2.5 20q0 25 -11 52q-14 34 -34 34q-26 -10 -72 -10q-8 0 -8 -14q0 -8 7 -21t7 -21q0 -6 -3 -15l-5 -15q-7 -47 -42 -63q-17 -7 -79 -15q-3 -2 -8.5 -9t-11.5 -7q-16 0 -51 10
t-47 20l-25 18q-22 0 -22 -15q0 -3 13 -24l-4 -10q14 -43 14 -87q0 -24 18 -24q21 0 21 20q0 8 -9.5 23t-9.5 24l1 10q36 -36 36 -46q0 -15 -6 -30q-8 -19 -22 -19q-4 0 -13.5 4t-14.5 4q-17 0 -38.5 -16.5t-27.5 -16.5q-4 0 -12 2t-12 2l-7 -2q11 -10 11 -22
q0 -10 -8.5 -26.5t-8.5 -24.5q0 -17 25 -17q18 0 30 9q-11 34 -11 37q0 18 13 31t31 13q6 0 11.5 -7t9.5 -9l6 5l2 4l8 7q12 -3 52 -36l7 1q13 17 24 15q8 9 27 24q16 0 36 -30.5t20 -49.5q0 -29 -31 -29q0 -6 10 -19t12 -17q-3 -7 -10 -10t-14 -5q-5 -10 -5 -16
q0 -20 16 -20q10 0 33.5 21t23.5 32q-7 19 -20 36q7 -1 11 -1q8 0 18.5 11t13.5 13q16 -4 14 -4q7 0 9 13q1 8 -0.5 25.5t-1.5 16.5q0 8 3 18q12 -7 14 -26.5t9 -19.5q28 0 44 30q-11 2 -27 13l3 9l5 2l9 -6q10 8 10 20q0 23 -28 23q0 14 10 14q4 0 13 -3.5t14 -3.5
q16 0 31 35q14 31 14 50zM1086 162l-5 2h-2l-2 -5l6 -6zM1375 -125l-2 7l-6 4q-12 0 -12 -17q0 -10 9 -10q11 0 11 16zM1072 138l-1 7l-4 -2l-6 -13h8q3 3 3 8zM1051 166l-8 5q-8 -5 -8 -12l5 -10q2 2 11 17zM657 532q0 35 -10 45l-6 -5q11 -9 11 -48l3 -2zM1062 95l-2 5
q-6 -3 -8 -8l5 -2zM1037 108l-3 5h-8l-2 -5v-3l2 -5l8 2zM785 340q0 11 -20.5 58t-19.5 71q0 4 1 14.5t1 16.5q0 66 -36 66q-31 0 -38 -34q-1 -7 -1 -58q0 -10 -2 -29t-2 -29q0 2 4 -16q-4 -7 -27.5 -41t-23.5 -36q0 -15 9 -14q4 7 18 20l34.5 -28t37.5 -22q11 0 38 25
t27 36zM906 197l-27 12q-5 -4 -5 -11l28 -9zM519 585q0 15 -23 15q-61 0 -61 -29l5 -8l6 -3q3 1 22 13q11 7 20 7q8 0 16 -4q15 0 15 9zM630 523q2 25 -22 25q0 -35 -36 -35q15 30 27 72q-6 20 -23 20q-21 0 -21 -17q0 -1 26 -38q-8 -3 -20.5 -23t-31.5 -20
q-16 0 -23.5 14.5l-14.5 28.5l-11 -3v-3q0 -9 12.5 -22.5t12.5 -21.5t-18 -12q-13 -3 -26 -5v-13l-7 -1q-17 0 -20 24q-3 29 -7 31q-11 0 -11 -36q0 -35 34 -44q13 -4 62 -4q74 0 118 78v3v2zM1024 35l-10 1q-9 0 -8 -11l4 -2q14 0 14 12zM817 196l-5 15h-3q-9 -9 -9 -17
l5 -9l3 -1q5 4 9 12zM774 197q0 20 -19 28q-8 0 -8 -15q0 -13 21 -21l5 3zM940 130q-2 16 -15.5 27t-29.5 11q-46 0 -138 -8.5t-138 -8.5q-6 0 -16 4t-14 5q-7 -9 -15 -16q-8 1 -13 4q-4 -8 -15 -21q-20 12 -26 31q-3 12 -3 44q0 6 2 14q6 2 17 7q28 42 52 42q13 0 13 -6
q0 -9 -14.5 -17t-14.5 -20q3 -4 8 -6h4q47 54 56 54q4 0 12 -2t11 -2q7 3 7 10q0 19 -21 19q-4 0 -11.5 -3t-11.5 -3q-11 0 -18 11t-7 22q0 36 42 65q8 13 8 53q0 3 -3 32q-2 19 1 31l-4 2q-8 -6 -19 -34t-26 -41q-24 -21 -72 -21q-17 0 -43 9q-38 12 -43 13q-5 -2 -17 -6
q-44 23 -60 60h-4q-1 -20 -1 -24q0 -22 5 -66t5 -66q0 -8 12.5 -12t15.5 -6l-6 -12q-15 -7 -15 -21q0 -10 10 -30.5t18 -20.5q3 0 11.5 6.5t9.5 7.5l7 -2q22 -27 56 -91q-19 -5 -19 -27q0 -20 33 -59l10 -4q7 4 7 11l-1 5q-8 2 -16 2v11q3 5 10 7q6 -4 16 -12q3 2 23 29
q14 19 29 19q7 -6 7 -17q-27 -11 -27 -34l3 -12q5 -3 12 -5l6 2q-4 12 -3 21q31 15 31 32q17 0 18 -7q-15 -32 -40 -99l2 -9l8 1q5 15 3 23q20 0 51 40h2q18 0 30 14.5t19 14.5q4 0 13.5 -5.5t13.5 -5.5q21 0 36 7q1 1 30 19q6 -2 13.5 -13.5l13.5 -20.5q-8 2 -23 5l-6 -3
q-7 -23 -23 -67q-8 -4 -21 -9v-7q0 -21 18 -51l9 3q12 0 17 -14l7 5q10 15 28 47q0 13 -38 21q3 13 7 28.5t15 15.5q10 0 14 -18l6 -26l13 -4q6 3 11 10v27q0 7 10 7q8 -3 9 -16q46 2 46 67q0 13 -3 24l11 -3q4 4 10 12zM658 236l-5 2q-8 -3 -17 -34l3 -3q8 11 19 35z
M873 -8q0 10 -12 10t-12 -16q0 -15 11 -15q8 0 8 12zM888 -58l-3 3l-2 1l-18 -8l3 -8l10 4q3 4 10 8zM332 519q0 9 -12 28t-20 26q-27 0 -27 -42q0 -19 44 -109l7 -4l1 11q0 3 -5 15t-5 17q0 1 10 28q7 18 7 30zM859 -51l-4 8l-4 1q-13 0 -13 -15q0 -3 4 -5q13 3 17 11z
M839 -90q-4 8 -12 12q-9 0 -9 -14q3 -5 9 -5h7zM696 49l-2 8l-4 1q-18 0 -18 -18l2 -6h6q16 0 16 15zM757 51l-3 10q-7 1 -11 1q-20 0 -24 -15v-31q-7 9 -22 17l-6 -3l-1 -7q0 -17 15 -27q-8 -7 -14 -16q9 -46 28 -46l2 6q-8 9 -8 21q0 23 16 48q26 38 28 42zM753 -69l-5 13
l-7 5q-14 -5 -14 -29q3 -7 9 -9q9 5 17 20zM660 15l-2 8l-5 2l-13 -8v-9q3 -5 9 -8q6 2 10 6zM670 -31v19l-2 5q-16 -3 -16 -17q0 -10 12 -10zM435 204v2l-3 8l-7 5q-13 -2 -13 -19q0 -13 12 -13q11 0 11 17zM462 167l-5 9h-3q-12 0 -12 -15q0 -13 9 -13q11 0 11 19zM623 2
l-3 6q-22 -7 -22 -32q0 -28 17 -28q8 0 4 44zM663 -62l-1 4q-23 -1 -23 -16q0 -1 7 -4q12 10 17 16zM659 -194q0 11 -22.5 26t-34.5 15q-11 0 -11 -10q0 -14 22 -25.5t38 -13.5l7 4zM428 -32l-4 9l-4 1q-11 0 -20 -14.5t-9 -25.5q37 22 37 30zM433 -76q-3 8 -8 9
q-15 0 -23 -19l2 -10q19 1 29 20zM382 -42l-5 11h-2q-8 -6 -14 -18q0 -12 10 -12q11 5 11 19zM404 -123l-3 10q-7 4 -13 4q-16 0 -37 -36t-21 -55l3 -4q7 3 23 8q0 13 16 34q2 21 13 26q15 6 19 13zM375 -79l-8 4q-58 0 -93 -103l5 -2q10 5 26.5 26.5t28.5 28.5q4 7 0 21
l8 -1q27 0 33 26zM277 -74q0 12 -11 12l-9 -4q2 -21 10 -21q10 0 10 13zM337 -159l-1 2l-5 3q-9 0 -9 -13l4 -2q7 4 11 10zM243 -106q0 7 -16 7l-9 -6v-4q0 -12 14 -12q8 6 11 15zM272 -140l-8 5q-12 -3 -16 -9q7 -5 14 -5q10 0 10 9zM260 -196q-3 6 -12 6l-6 -2
q1 -12 9 -12q9 0 9 8zM154 -192q0 15 -13 15q-10 0 -10 -14q0 -15 11 -15q12 0 12 14zM791 -24q0 -11 -11 -11q-14 0 -14 17q0 13 11 13q14 0 14 -19zM415 268l-3 -8l-6 -7q-5 5 -6.5 17.5t-3.5 16.5l5 5q14 -14 14 -24z" />
    <glyph glyph-name="underscore" unicode="_" horiz-adv-x="849" 
d="M728 533q0 -20 -14 -35t-35 -15q-20 0 -34.5 14.5t-14.5 34.5q0 21 14.5 35.5t34.5 14.5t34.5 -14.5t14.5 -34.5zM655 598q0 -20 -14 -34.5t-35 -14.5q-20 0 -34.5 14t-14.5 35q0 20 14.5 34.5t34.5 14.5t34.5 -14.5t14.5 -34.5zM775 446q0 -21 -14.5 -35.5t-34.5 -14.5
q-21 0 -35.5 14.5t-14.5 34.5t14.5 35t34.5 15t35 -14.5t15 -34.5zM565 636q0 -20 -14.5 -34.5t-35.5 -14.5q-20 0 -34.5 14t-14.5 35q0 20 14.5 34.5t34.5 14.5t35 -14.5t15 -34.5zM785 347q0 -21 -14.5 -35.5t-34.5 -14.5t-35 14.5t-15 34.5t14.5 35t34.5 15
q21 0 35.5 -14.5t14.5 -34.5zM467 649q0 -20 -14.5 -34.5t-34.5 -14.5q-21 0 -35.5 14t-14.5 35q0 20 14.5 34.5t34.5 14.5q21 0 35.5 -14.5t14.5 -34.5zM772 248q0 -21 -14 -35.5t-35 -14.5q-20 0 -34.5 14.5t-14.5 34.5t14.5 35t34.5 15t34.5 -14.5t14.5 -34.5zM368 636
q0 -21 -14.5 -35t-34.5 -14q-21 0 -35 14.5t-14 34.5t14.5 34.5t34.5 14.5t34.5 -14.5t14.5 -34.5zM727 160q0 -20 -14.5 -35t-34.5 -15t-34.5 14.5t-14.5 34.5q0 21 14 35.5t35 14.5q20 0 34.5 -14.5t14.5 -34.5zM277 598q0 -21 -14.5 -35t-34.5 -14t-34.5 14.5t-14.5 34.5
t14.5 34.5t34.5 14.5q21 0 35 -14.5t14 -34.5zM654 94q0 -20 -14 -34.5t-35 -14.5q-20 0 -34.5 14t-14.5 35q0 20 14.5 34.5t34.5 14.5t34.5 -14.5t14.5 -34.5zM204 532q0 -20 -14.5 -34.5t-34.5 -14.5q-21 0 -35 15t-14 35t14.5 34.5t34.5 14.5t34.5 -14.5t14.5 -35.5z
M564 55q0 -20 -14.5 -34.5t-34.5 -14.5t-34.5 14.5t-14.5 34.5t14 34.5t35 14.5q20 0 34.5 -14t14.5 -35zM158 445q0 -20 -14.5 -34.5t-34.5 -14.5q-21 0 -35 14.5t-14 35.5q0 20 14.5 34.5t34.5 14.5t34.5 -15t14.5 -35zM466 41q0 -20 -14.5 -34.5t-34.5 -14.5t-34.5 14.5
t-14.5 34.5q0 21 14.5 35t34.5 14q21 0 35 -14.5t14 -34.5zM148 346q0 -20 -14.5 -34.5t-35.5 -14.5q-20 0 -34.5 14.5t-14.5 35.5q0 20 14.5 34.5t35.5 14.5q20 0 34.5 -15t14.5 -35zM369 55q0 -20 -15 -34.5t-35 -14.5t-34.5 14.5t-14.5 34.5q0 21 14.5 35t35.5 14
q20 0 34.5 -14.5t14.5 -34.5zM160 247q0 -20 -14.5 -34.5t-34.5 -14.5q-21 0 -35 14.5t-14 35.5q0 20 14.5 34.5t34.5 14.5t34.5 -15t14.5 -35zM278 94q0 -21 -14.5 -35t-34.5 -14q-21 0 -35 14.5t-14 34.5t14.5 34.5t34.5 14.5t34.5 -14.5t14.5 -34.5zM206 159
q0 -20 -15 -34.5t-35 -14.5t-34.5 15t-14.5 35t14.5 34.5t35.5 14.5q20 0 34.5 -14.5t14.5 -35.5zM467 545q0 -20 -14.5 -34.5t-35.5 -14.5q-20 0 -34.5 14.5t-14.5 34.5t14.5 34.5t34.5 14.5q21 0 35.5 -14.5t14.5 -34.5zM467 445q0 -21 -14.5 -35.5t-35.5 -14.5
q-20 0 -34.5 14.5t-14.5 35.5q0 20 14.5 34.5t34.5 14.5q21 0 35.5 -14.5t14.5 -34.5zM467 345q0 -20 -14.5 -34.5t-35.5 -14.5q-20 0 -34.5 14.5t-14.5 34.5t14.5 34.5t34.5 14.5q21 0 35.5 -14.5t14.5 -34.5zM467 244q0 -21 -14.5 -35.5t-35.5 -14.5q-20 0 -34.5 14.5
t-14.5 35.5q0 20 14.5 34.5t34.5 14.5q21 0 35.5 -14.5t14.5 -34.5zM467 143q0 -20 -14.5 -34.5t-35.5 -14.5q-20 0 -34.5 14.5t-14.5 34.5t14.5 34.5t34.5 14.5q21 0 35.5 -14.5t14.5 -34.5zM562 293q0 -21 -14 -35t-35 -14q-20 0 -34.5 14.5t-14.5 34.5t14.5 34.5
t34.5 14.5q21 0 35 -14.5t14 -34.5zM645 226q0 -21 -14.5 -35.5t-35.5 -14.5q-20 0 -34.5 14.5t-14.5 35.5q0 20 14.5 34.5t34.5 14.5q21 0 35.5 -14.5t14.5 -34.5zM272 293q0 -21 14.5 -35t35.5 -14q20 0 34.5 14.5t14.5 34.5t-14.5 34.5t-35.5 14.5q-20 0 -34.5 -14.5
t-14.5 -34.5zM190 226q0 -21 14.5 -35.5t34.5 -14.5q21 0 35.5 14.5t14.5 35.5q0 20 -14.5 34.5t-35.5 14.5q-20 0 -34.5 -14.5t-14.5 -34.5z" />
    <glyph glyph-name="grave" unicode="`" horiz-adv-x="288" 
d="M63 635q0 -20 14.5 -34.5t35.5 -14.5q20 0 34.5 14.5t14.5 34.5t-14.5 34.5t-34.5 14.5q-21 0 -35.5 -14.5t-14.5 -34.5zM118 557q0 -19 13 -32t31 -13q19 0 32 13t13 32q0 18 -13 31t-32 13q-18 0 -31 -13t-13 -31z" />
    <glyph glyph-name="a" unicode="a" horiz-adv-x="728" 
d="M406 643q0 -20 -14.5 -34.5t-34.5 -14.5q-21 0 -35.5 14.5t-14.5 34.5t14.5 34.5t35.5 14.5q20 0 34.5 -14.5t14.5 -34.5zM406 475zM324 482q2 -20 -10 -35.5t-31 -17.5q-20 -2 -35 10t-18 31q-2 20 10 35.5t31 17.5q20 2 35.5 -10t17.5 -31zM501 216q0 -20 -14.5 -34
t-33.5 -14q-20 0 -34.5 14t-14.5 34t14.5 34.5t34.5 14.5q19 0 33.5 -14.5t14.5 -34.5zM287 395q2 -20 -10 -35.5t-31 -17.5t-34.5 10t-18.5 31q-2 20 10 35.5t31 17.5q20 2 35.5 -10t17.5 -31zM405 216q0 -20 -14 -34t-34 -14t-34 14.5t-14 33.5q0 20 14 34.5t34 14.5
t34 -14.5t14 -34.5zM250 308q3 -20 -9.5 -35.5t-31.5 -17.5t-34.5 10t-18.5 31q-2 20 10 35t31 18q20 2 35.5 -10t17.5 -31zM310 216q0 -19 -14.5 -33.5t-34.5 -14.5q-19 0 -33.5 14.5t-14.5 33.5q0 20 14.5 34.5t33.5 14.5q20 0 34.5 -14.5t14.5 -34.5zM213 221
q3 -20 -9.5 -35.5t-31.5 -17.5t-34.5 10t-18.5 31q-2 19 10 34.5t31 18.5q20 2 35.5 -10t17.5 -31zM139 47q3 -19 -9.5 -34.5t-31.5 -17.5q-19 -3 -34.5 9.5t-18.5 31.5q-2 19 10 34.5t32 18.5q19 2 34.5 -10t17.5 -32zM357 566q2 -18 -9.5 -32.5t-29.5 -17.5
q-19 -2 -33.5 9.5t-16.5 29.5q-2 19 9.5 33.5t29.5 16.5q18 3 33 -8.5t17 -30.5zM178 134q2 -19 -10 -34.5t-32 -18.5q-19 -2 -34.5 10t-17.5 32q-3 19 9.5 34.5t31.5 17.5q19 3 34.5 -9.5t18.5 -31.5zM308 476zM389 482q-2 -19 10 -34.5t32 -18.5q19 -2 34.5 10t17.5 31
q3 20 -9.5 35.5t-31.5 17.5t-34.5 -10t-18.5 -31zM426 395q-2 -20 10 -35.5t32 -17.5q19 -2 34.5 10t17.5 31q3 20 -9.5 35.5t-31.5 17.5t-34.5 -10t-18.5 -31zM463 308q-2 -20 10 -35.5t32 -17.5q19 -2 34.5 10t17.5 31q3 20 -9.5 35.5t-31.5 17.5t-34.5 -10t-18.5 -31z
M500 221q-2 -20 10 -35.5t32 -17.5q19 -2 34.5 10t17.5 31q3 20 -9.5 35.5t-31.5 17.5t-34.5 -10t-18.5 -31zM574 48q-2 -20 10 -35.5t31 -17.5q20 -3 35.5 9.5t17.5 31.5q3 19 -9.5 34.5t-31.5 18.5q-19 2 -34.5 -10t-18.5 -31zM356 566q-2 -18 9.5 -32.5t30.5 -17.5
q18 -2 32.5 9.5t17.5 30.5q2 18 -9.5 32.5t-30.5 17.5q-18 2 -32.5 -9.5t-17.5 -30.5zM536 134q-3 -19 9.5 -34.5t31.5 -17.5q19 -3 34.5 9t18.5 32q2 19 -10 34.5t-31 17.5q-20 3 -35.5 -9t-17.5 -32z" />
    <glyph glyph-name="b" unicode="b" horiz-adv-x="599" 
d="M440 583q0 -21 -14.5 -35t-35.5 -14q-20 0 -34.5 14t-14.5 35q0 20 14.5 34.5t34.5 14.5q21 0 35.5 -14.5t14.5 -34.5zM353 632q0 -21 -14.5 -35.5t-35.5 -14.5q-20 0 -34.5 14.5t-14.5 35.5q0 20 14.5 34.5t34.5 14.5q21 0 35.5 -14.5t14.5 -34.5zM463 492
q0 -18 -13 -31t-31 -13q-19 0 -32 13t-13 31t13 31t32 13q18 0 31 -13t13 -31zM255 639q0 -21 -14.5 -35.5t-34.5 -14.5q-21 0 -35.5 14.5t-14.5 35.5q0 20 14.5 34.5t35.5 14.5q20 0 34.5 -14.5t14.5 -34.5zM421 412q0 -18 -13 -31t-31 -13q-19 0 -32 13t-13 31q0 19 13 32
t32 13q18 0 31 -13t13 -32zM508 289q0 -17 -11.5 -28.5t-28.5 -11.5q-16 0 -28 11.5t-12 28.5q0 16 12 27.5t28 11.5q17 0 28.5 -11.5t11.5 -27.5zM156 639q0 -21 -14 -35.5t-35 -14.5q-20 0 -34.5 14.5t-14.5 35.5q0 20 14.5 34.5t34.5 14.5q21 0 35 -14.5t14 -34.5z
M437 327q0 -16 -12 -27.5t-28 -11.5q-17 0 -28.5 11.5t-11.5 27.5q0 17 11.5 28.5t28.5 11.5q16 0 28 -11.5t12 -28.5zM548 209q0 -18 -13 -31t-32 -13q-18 0 -31 13t-13 31q0 19 13 32t31 13q19 0 32 -13t13 -32zM356 346q0 -21 -14.5 -35.5t-34.5 -14.5t-34.5 14.5
t-14.5 35.5q0 20 14.5 34.5t34.5 14.5t34.5 -14.5t14.5 -34.5zM156 540q0 -20 -14 -34.5t-35 -14.5q-20 0 -34.5 14.5t-14.5 34.5t14.5 34.5t34.5 14.5q21 0 35 -14.5t14 -34.5zM532 117q0 -20 -14.5 -34.5t-35.5 -14.5q-20 0 -34.5 14.5t-14.5 34.5t14.5 34.5t34.5 14.5
q21 0 35.5 -14.5t14.5 -34.5zM255 343q0 -20 -14.5 -34.5t-34.5 -14.5q-21 0 -35.5 14.5t-14.5 34.5t14.5 34.5t35.5 14.5q20 0 34.5 -14.5t14.5 -34.5zM156 442q0 -21 -14 -35.5t-35 -14.5q-20 0 -34.5 14.5t-14.5 35.5q0 20 14.5 34.5t34.5 14.5q21 0 35 -14.5t14 -34.5z
M452 56q0 -20 -14.5 -34.5t-34.5 -14.5q-21 0 -35.5 14.5t-14.5 34.5t14.5 34.5t35.5 14.5q20 0 34.5 -14.5t14.5 -34.5zM156 343q0 -20 -14 -34.5t-35 -14.5q-20 0 -34.5 14.5t-14.5 34.5t14.5 34.5t34.5 14.5q21 0 35 -14.5t14 -34.5zM156 245q0 -21 -14 -35.5t-35 -14.5
q-20 0 -34.5 14.5t-14.5 35.5q0 20 14.5 34.5t34.5 14.5q21 0 35 -14.5t14 -34.5zM353 48q0 -21 -14 -35.5t-35 -14.5q-20 0 -34.5 14.5t-14.5 35.5q0 20 14.5 34.5t34.5 14.5q21 0 35 -14.5t14 -34.5zM156 146q0 -20 -14 -34.5t-35 -14.5q-20 0 -34.5 14.5t-14.5 34.5
t14.5 34.5t34.5 14.5q21 0 35 -14.5t14 -34.5zM255 48q0 -21 -14.5 -35.5t-34.5 -14.5q-21 0 -35.5 14.5t-14.5 35.5q0 20 14.5 34.5t35.5 14.5q20 0 34.5 -14.5t14.5 -34.5zM156 48q0 -21 -14 -35.5t-35 -14.5q-20 0 -34.5 14.5t-14.5 35.5q0 20 14.5 34.5t34.5 14.5
q21 0 35 -14.5t14 -34.5z" />
    <glyph glyph-name="c" unicode="c" horiz-adv-x="671" 
d="M636 594q0 -20 -14 -34.5t-35 -14.5q-20 0 -34.5 14t-14.5 35q0 20 14.5 34.5t34.5 14.5t34.5 -14.5t14.5 -34.5zM546 632q0 -20 -14.5 -34.5t-34.5 -14.5q-21 0 -35.5 14t-14.5 35q0 20 14.5 34.5t34.5 14.5t35 -14.5t15 -34.5zM448 645q0 -20 -14.5 -34.5t-34.5 -14.5
q-21 0 -35.5 14t-14.5 35q0 20 14.5 34.5t34.5 14.5q21 0 35.5 -14.5t14.5 -34.5zM349 632q0 -21 -14.5 -35t-34.5 -14q-21 0 -35 14.5t-14 34.5t14.5 34.5t34.5 14.5t34.5 -14.5t14.5 -34.5zM258 594q0 -21 -14.5 -35t-34.5 -14t-34.5 14.5t-14.5 34.5t14.5 34.5t34.5 14.5
q21 0 35 -14.5t14 -34.5zM636 90q0 -20 -14.5 -34.5t-34.5 -14.5q-21 0 -35.5 14t-14.5 35q0 20 14.5 34.5t34.5 14.5t35 -14.5t15 -34.5zM185 528q0 -20 -14.5 -34.5t-34.5 -14.5t-34.5 15t-14.5 35t14.5 34.5t34.5 14.5q21 0 35 -14.5t14 -35.5zM545 51q0 -20 -14.5 -34.5
t-34.5 -14.5t-34.5 14.5t-14.5 34.5t14 34.5t35 14.5q20 0 34.5 -14t14.5 -35zM139 441q0 -20 -14.5 -34.5t-34.5 -14.5q-21 0 -35 14.5t-14 35.5q0 20 14.5 34.5t34.5 14.5t34.5 -15t14.5 -35zM447 37q0 -20 -14.5 -34.5t-34.5 -14.5t-34.5 14.5t-14.5 34.5q0 21 14.5 35
t34.5 14q21 0 35 -14.5t14 -34.5zM129 342q0 -20 -14.5 -34.5t-35.5 -14.5q-20 0 -34.5 14.5t-14.5 35.5q0 20 14.5 34.5t35.5 14.5q20 0 34.5 -14.5t14.5 -35.5zM350 51q0 -20 -14.5 -34.5t-35.5 -14.5q-20 0 -34.5 14.5t-14.5 34.5q0 21 14.5 35t35.5 14q20 0 34.5 -14.5
t14.5 -34.5zM141 243q0 -20 -14.5 -34.5t-34.5 -14.5t-34.5 14.5t-14.5 35.5q0 20 14.5 34.5t34.5 14.5q21 0 35 -15t14 -35zM259 90q0 -21 -14.5 -35t-34.5 -14q-21 0 -35 14.5t-14 34.5t14.5 34.5t34.5 14.5t34.5 -14.5t14.5 -34.5zM187 155q0 -20 -14.5 -34.5
t-35.5 -14.5q-20 0 -34.5 15t-14.5 35t14.5 34.5t35.5 14.5q20 0 34.5 -14.5t14.5 -35.5z" />
    <glyph glyph-name="d" unicode="d" horiz-adv-x="747" 
d="M617 527q0 -20 -14.5 -34.5t-34.5 -14.5q-21 0 -35.5 14.5t-14.5 34.5q0 21 14.5 35.5t35.5 14.5q20 0 34.5 -14.5t14.5 -35.5zM544 594q0 -21 -14.5 -35.5t-35.5 -14.5q-20 0 -34.5 14.5t-14.5 35.5q0 20 14.5 34.5t34.5 14.5q21 0 35.5 -14.5t14.5 -34.5zM666 440
q0 -20 -14.5 -34.5t-35.5 -14.5q-20 0 -34.5 14.5t-14.5 34.5t14.5 34.5t34.5 14.5q21 0 35.5 -14.5t14.5 -34.5zM452 631q0 -20 -14.5 -34.5t-34.5 -14.5q-21 0 -35.5 14.5t-14.5 34.5t14.5 34.5t35.5 14.5q20 0 34.5 -14.5t14.5 -34.5zM680 343q0 -20 -14.5 -34.5
t-35.5 -14.5q-20 0 -34.5 14.5t-14.5 34.5t14.5 34.5t34.5 14.5q21 0 35.5 -14.5t14.5 -34.5zM353 639q0 -21 -14.5 -35.5t-34.5 -14.5t-34.5 14.5t-14.5 35.5q0 20 14.5 34.5t34.5 14.5t34.5 -14.5t14.5 -34.5zM666 246q0 -20 -14.5 -34.5t-35.5 -14.5q-20 0 -34.5 14.5
t-14.5 34.5t14.5 34.5t34.5 14.5q21 0 35.5 -14.5t14.5 -34.5zM255 639q0 -21 -14.5 -35.5t-34.5 -14.5q-21 0 -35.5 14.5t-14.5 35.5q0 20 14.5 34.5t35.5 14.5q20 0 34.5 -14.5t14.5 -34.5zM156 639q0 -21 -14.5 -35.5t-34.5 -14.5t-34.5 14.5t-14.5 35.5q0 20 14.5 34.5
t34.5 14.5t34.5 -14.5t14.5 -34.5zM617 159q0 -20 -14.5 -34.5t-34.5 -14.5q-21 0 -35.5 14.5t-14.5 34.5t14.5 34.5t35.5 14.5q20 0 34.5 -14.5t14.5 -34.5zM156 540q0 -20 -14.5 -34.5t-34.5 -14.5t-34.5 14.5t-14.5 34.5t14.5 34.5t34.5 14.5t34.5 -14.5t14.5 -34.5z
M544 93q0 -21 -14.5 -35.5t-35.5 -14.5q-20 0 -34.5 14.5t-14.5 35.5q0 20 14.5 34.5t34.5 14.5q21 0 35.5 -14.5t14.5 -34.5zM156 442q0 -21 -14.5 -35.5t-34.5 -14.5t-34.5 14.5t-14.5 35.5q0 20 14.5 34.5t34.5 14.5t34.5 -14.5t14.5 -34.5zM452 55q0 -20 -14.5 -34.5
t-34.5 -14.5q-21 0 -35.5 14.5t-14.5 34.5t14.5 34.5t35.5 14.5q20 0 34.5 -14.5t14.5 -34.5zM156 343q0 -20 -14.5 -34.5t-34.5 -14.5t-34.5 14.5t-14.5 34.5t14.5 34.5t34.5 14.5t34.5 -14.5t14.5 -34.5zM156 245q0 -21 -14.5 -35.5t-34.5 -14.5t-34.5 14.5t-14.5 35.5
q0 20 14.5 34.5t34.5 14.5t34.5 -14.5t14.5 -34.5zM353 48q0 -21 -14.5 -35.5t-34.5 -14.5t-34.5 14.5t-14.5 35.5q0 20 14.5 34.5t34.5 14.5t34.5 -14.5t14.5 -34.5zM156 146q0 -20 -14.5 -34.5t-34.5 -14.5t-34.5 14.5t-14.5 34.5t14.5 34.5t34.5 14.5t34.5 -14.5
t14.5 -34.5zM255 48q0 -21 -14.5 -35.5t-34.5 -14.5q-21 0 -35.5 14.5t-14.5 35.5q0 20 14.5 34.5t35.5 14.5q20 0 34.5 -14.5t14.5 -34.5zM156 48q0 -21 -14.5 -35.5t-34.5 -14.5t-34.5 14.5t-14.5 35.5q0 20 14.5 34.5t34.5 14.5t34.5 -14.5t14.5 -34.5z" />
    <glyph glyph-name="e" unicode="e" horiz-adv-x="501" 
d="M446 639q0 -21 -14.5 -35.5t-34.5 -14.5t-34.5 14.5t-14.5 35.5q0 20 14.5 34.5t34.5 14.5t34.5 -14.5t14.5 -34.5zM347 639q0 -21 -14.5 -35.5t-34.5 -14.5t-34.5 14.5t-14.5 35.5q0 20 14.5 34.5t34.5 14.5t34.5 -14.5t14.5 -34.5zM249 639q0 -21 -14.5 -35.5
t-35.5 -14.5q-20 0 -34.5 14.5t-14.5 35.5q0 20 14.5 34.5t34.5 14.5q21 0 35.5 -14.5t14.5 -34.5zM446 343q0 -20 -14.5 -34.5t-34.5 -14.5t-34.5 14.5t-14.5 34.5t14.5 34.5t34.5 14.5t34.5 -14.5t14.5 -34.5zM150 639q0 -21 -14.5 -35.5t-34.5 -14.5q-21 0 -35.5 14.5
t-14.5 35.5q0 20 14.5 34.5t35.5 14.5q20 0 34.5 -14.5t14.5 -34.5zM347 343q0 -20 -14.5 -34.5t-34.5 -14.5t-34.5 14.5t-14.5 34.5t14.5 34.5t34.5 14.5t34.5 -14.5t14.5 -34.5zM150 540q0 -20 -14.5 -34.5t-34.5 -14.5q-21 0 -35.5 14.5t-14.5 34.5t14.5 34.5t35.5 14.5
q20 0 34.5 -14.5t14.5 -34.5zM249 343q0 -20 -14.5 -34.5t-35.5 -14.5q-20 0 -34.5 14.5t-14.5 34.5t14.5 34.5t34.5 14.5q21 0 35.5 -14.5t14.5 -34.5zM150 442q0 -21 -14.5 -35.5t-34.5 -14.5q-21 0 -35.5 14.5t-14.5 35.5q0 20 14.5 34.5t35.5 14.5q20 0 34.5 -14.5
t14.5 -34.5zM446 48q0 -21 -14.5 -35.5t-34.5 -14.5t-34.5 14.5t-14.5 35.5q0 20 14.5 34.5t34.5 14.5t34.5 -14.5t14.5 -34.5zM150 343q0 -20 -14.5 -34.5t-34.5 -14.5q-21 0 -35.5 14.5t-14.5 34.5t14.5 34.5t35.5 14.5q20 0 34.5 -14.5t14.5 -34.5zM347 48
q0 -21 -14.5 -35.5t-34.5 -14.5t-34.5 14.5t-14.5 35.5q0 20 14.5 34.5t34.5 14.5t34.5 -14.5t14.5 -34.5zM150 245q0 -21 -14.5 -35.5t-34.5 -14.5q-21 0 -35.5 14.5t-14.5 35.5q0 20 14.5 34.5t35.5 14.5q20 0 34.5 -14.5t14.5 -34.5zM249 48q0 -21 -14.5 -35.5
t-35.5 -14.5q-20 0 -34.5 14.5t-14.5 35.5q0 20 14.5 34.5t34.5 14.5q21 0 35.5 -14.5t14.5 -34.5zM150 146q0 -20 -14.5 -34.5t-34.5 -14.5q-21 0 -35.5 14.5t-14.5 34.5t14.5 34.5t35.5 14.5q20 0 34.5 -14.5t14.5 -34.5zM150 48q0 -21 -14.5 -35.5t-34.5 -14.5
q-21 0 -35.5 14.5t-14.5 35.5q0 20 14.5 34.5t35.5 14.5q20 0 34.5 -14.5t14.5 -34.5z" />
    <glyph glyph-name="f" unicode="f" horiz-adv-x="475" 
d="M440 639q0 -21 -14.5 -35.5t-34.5 -14.5q-21 0 -35.5 14.5t-14.5 35.5q0 20 14.5 34.5t35.5 14.5q20 0 34.5 -14.5t14.5 -34.5zM341 639q0 -21 -14.5 -35.5t-34.5 -14.5q-21 0 -35 14.5t-14 35.5q0 20 14 34.5t35 14.5q20 0 34.5 -14.5t14.5 -34.5zM242 639
q0 -21 -14.5 -35.5t-34.5 -14.5t-34.5 14.5t-14.5 35.5q0 20 14.5 34.5t34.5 14.5t34.5 -14.5t14.5 -34.5zM440 343q0 -20 -14.5 -34.5t-34.5 -14.5q-21 0 -35.5 14.5t-14.5 34.5t14.5 34.5t35.5 14.5q20 0 34.5 -14.5t14.5 -34.5zM143 639q0 -21 -14.5 -35.5t-34.5 -14.5
t-34.5 14.5t-14.5 35.5q0 20 14.5 34.5t34.5 14.5t34.5 -14.5t14.5 -34.5zM341 343q0 -20 -14.5 -34.5t-34.5 -14.5q-21 0 -35 14.5t-14 34.5t14 34.5t35 14.5q20 0 34.5 -14.5t14.5 -34.5zM143 540q0 -20 -14.5 -34.5t-34.5 -14.5t-34.5 14.5t-14.5 34.5t14.5 34.5
t34.5 14.5t34.5 -14.5t14.5 -34.5zM242 343q0 -20 -14.5 -34.5t-34.5 -14.5t-34.5 14.5t-14.5 34.5t14.5 34.5t34.5 14.5t34.5 -14.5t14.5 -34.5zM143 442q0 -21 -14.5 -35.5t-34.5 -14.5t-34.5 14.5t-14.5 35.5q0 20 14.5 34.5t34.5 14.5t34.5 -14.5t14.5 -34.5zM143 343
q0 -20 -14.5 -34.5t-34.5 -14.5t-34.5 14.5t-14.5 34.5t14.5 34.5t34.5 14.5t34.5 -14.5t14.5 -34.5zM143 245q0 -21 -14.5 -35.5t-34.5 -14.5t-34.5 14.5t-14.5 35.5q0 20 14.5 34.5t34.5 14.5t34.5 -14.5t14.5 -34.5zM143 146q0 -20 -14.5 -34.5t-34.5 -14.5t-34.5 14.5
t-14.5 34.5t14.5 34.5t34.5 14.5t34.5 -14.5t14.5 -34.5zM143 48q0 -21 -14.5 -35.5t-34.5 -14.5t-34.5 14.5t-14.5 35.5q0 20 14.5 34.5t34.5 14.5t34.5 -14.5t14.5 -34.5z" />
    <glyph glyph-name="g" unicode="g" horiz-adv-x="701" 
d="M651 594q0 -20 -14.5 -34.5t-34.5 -14.5t-34.5 14t-14.5 35q0 20 14 34.5t35 14.5q20 0 34.5 -14.5t14.5 -34.5zM560 632q0 -20 -14 -34.5t-35 -14.5q-20 0 -34.5 14t-14.5 35q0 20 14.5 34.5t34.5 14.5t34.5 -14.5t14.5 -34.5zM462 645q0 -20 -14 -34.5t-35 -14.5
q-20 0 -34.5 14t-14.5 35q0 20 14.5 34.5t34.5 14.5t34.5 -14.5t14.5 -34.5zM364 632q0 -21 -14.5 -35t-35.5 -14q-20 0 -34.5 14.5t-14.5 34.5t15 34.5t35 14.5t34.5 -14.5t14.5 -34.5zM650 287q0 -20 -14 -34.5t-35 -14.5q-20 0 -34.5 14t-14.5 35q0 20 14.5 34.5
t34.5 14.5t34.5 -14.5t14.5 -34.5zM273 594q0 -21 -14.5 -35t-34.5 -14q-21 0 -35 14.5t-14 34.5t14.5 34.5t34.5 14.5t34.5 -14.5t14.5 -34.5zM552 287q0 -20 -14.5 -34.5t-34.5 -14.5q-21 0 -35.5 14t-14.5 35q0 20 14.5 34.5t34.5 14.5q21 0 35.5 -14.5t14.5 -34.5z
M650 189q0 -21 -14 -35.5t-35 -14.5q-20 0 -34.5 14.5t-14.5 34.5t14.5 35t34.5 15t34.5 -14.5t14.5 -34.5zM650 90q0 -20 -14 -34.5t-35 -14.5q-20 0 -34.5 14t-14.5 35q0 20 14.5 34.5t34.5 14.5t34.5 -14.5t14.5 -34.5zM200 528q0 -20 -14.5 -34.5t-35.5 -14.5
q-20 0 -34.5 15t-14.5 35t15 34.5t35 14.5t34.5 -14.5t14.5 -35.5zM560 51q0 -20 -14.5 -34.5t-34.5 -14.5q-21 0 -35.5 14.5t-14.5 34.5t14.5 34.5t34.5 14.5q21 0 35.5 -14t14.5 -35zM154 441q0 -20 -14.5 -34.5t-35.5 -14.5q-20 0 -34.5 14.5t-14.5 35.5q0 20 14.5 34.5
t35.5 14.5q20 0 34.5 -15t14.5 -35zM462 37q0 -20 -14.5 -34.5t-34.5 -14.5q-21 0 -35 14.5t-14 34.5q0 21 14.5 35t34.5 14t34.5 -14.5t14.5 -34.5zM143 342q0 -20 -14.5 -34.5t-34.5 -14.5t-34.5 14.5t-14.5 35.5q0 20 14.5 34.5t34.5 14.5q21 0 35 -14.5t14 -35.5z
M364 51q0 -20 -14.5 -34.5t-34.5 -14.5t-34.5 14.5t-14.5 34.5q0 21 14.5 35t34.5 14q21 0 35 -14.5t14 -34.5zM156 243q0 -20 -14.5 -34.5t-35.5 -14.5q-20 0 -34.5 14.5t-14.5 35.5q0 20 15 34.5t35 14.5t34.5 -15t14.5 -35zM274 90q0 -21 -14.5 -35t-35.5 -14
q-20 0 -34.5 14.5t-14.5 34.5t15 34.5t35 14.5t34.5 -14.5t14.5 -34.5zM201 155q0 -20 -14.5 -34.5t-34.5 -14.5t-34.5 15t-14.5 35t14.5 34.5t34.5 14.5q21 0 35 -14.5t14 -35.5z" />
    <glyph glyph-name="h" unicode="h" horiz-adv-x="745" 
d="M660 639q0 -21 -14.5 -35.5t-34.5 -14.5t-34.5 14.5t-14.5 35.5q0 20 14.5 34.5t34.5 14.5t34.5 -14.5t14.5 -34.5zM660 540q0 -20 -14.5 -34.5t-34.5 -14.5t-34.5 14.5t-14.5 34.5t14.5 34.5t34.5 14.5t34.5 -14.5t14.5 -34.5zM660 442q0 -21 -14.5 -35.5t-34.5 -14.5
t-34.5 14.5t-14.5 35.5q0 20 14.5 34.5t34.5 14.5t34.5 -14.5t14.5 -34.5zM660 343q0 -20 -14.5 -34.5t-34.5 -14.5t-34.5 14.5t-14.5 34.5t14.5 34.5t34.5 14.5t34.5 -14.5t14.5 -34.5zM660 245q0 -21 -14.5 -35.5t-34.5 -14.5t-34.5 14.5t-14.5 35.5q0 20 14.5 34.5
t34.5 14.5t34.5 -14.5t14.5 -34.5zM562 343q0 -20 -14.5 -34.5t-35.5 -14.5q-20 0 -34.5 14.5t-14.5 34.5t14.5 34.5t34.5 14.5q21 0 35.5 -14.5t14.5 -34.5zM660 146q0 -20 -14.5 -34.5t-34.5 -14.5t-34.5 14.5t-14.5 34.5t14.5 34.5t34.5 14.5t34.5 -14.5t14.5 -34.5z
M463 343q0 -20 -14.5 -34.5t-34.5 -14.5t-34.5 14.5t-14.5 34.5t14.5 34.5t34.5 14.5t34.5 -14.5t14.5 -34.5zM167 639q0 -21 -14.5 -35.5t-35.5 -14.5q-20 0 -34.5 14.5t-14.5 35.5q0 20 14.5 34.5t34.5 14.5q21 0 35.5 -14.5t14.5 -34.5zM660 48q0 -21 -14.5 -35.5
t-34.5 -14.5t-34.5 14.5t-14.5 35.5q0 20 14.5 34.5t34.5 14.5t34.5 -14.5t14.5 -34.5zM364 343q0 -20 -14.5 -34.5t-34.5 -14.5t-34.5 14.5t-14.5 34.5t14.5 34.5t34.5 14.5t34.5 -14.5t14.5 -34.5zM167 540q0 -20 -14.5 -34.5t-35.5 -14.5q-20 0 -34.5 14.5t-14.5 34.5
t14.5 34.5t34.5 14.5q21 0 35.5 -14.5t14.5 -34.5zM265 343q0 -20 -14 -34.5t-35 -14.5q-20 0 -34.5 14.5t-14.5 34.5t14.5 34.5t34.5 14.5q21 0 35 -14.5t14 -34.5zM167 442q0 -21 -14.5 -35.5t-35.5 -14.5q-20 0 -34.5 14.5t-14.5 35.5q0 20 14.5 34.5t34.5 14.5
q21 0 35.5 -14.5t14.5 -34.5zM167 343q0 -20 -14.5 -34.5t-35.5 -14.5q-20 0 -34.5 14.5t-14.5 34.5t14.5 34.5t34.5 14.5q21 0 35.5 -14.5t14.5 -34.5zM167 245q0 -21 -14.5 -35.5t-35.5 -14.5q-20 0 -34.5 14.5t-14.5 35.5q0 20 14.5 34.5t34.5 14.5q21 0 35.5 -14.5
t14.5 -34.5zM167 146q0 -20 -14.5 -34.5t-35.5 -14.5q-20 0 -34.5 14.5t-14.5 34.5t14.5 34.5t34.5 14.5q21 0 35.5 -14.5t14.5 -34.5zM167 48q0 -21 -14.5 -35.5t-35.5 -14.5q-20 0 -34.5 14.5t-14.5 35.5q0 20 14.5 34.5t34.5 14.5q21 0 35.5 -14.5t14.5 -34.5z" />
    <glyph glyph-name="i" unicode="i" horiz-adv-x="251" 
d="M167 639q0 -21 -14.5 -35.5t-35.5 -14.5q-20 0 -34.5 14.5t-14.5 35.5q0 20 14.5 34.5t34.5 14.5q21 0 35.5 -14.5t14.5 -34.5zM167 540q0 -20 -14.5 -34.5t-35.5 -14.5q-20 0 -34.5 14.5t-14.5 34.5t14.5 34.5t34.5 14.5q21 0 35.5 -14.5t14.5 -34.5zM167 442
q0 -21 -14.5 -35.5t-35.5 -14.5q-20 0 -34.5 14.5t-14.5 35.5q0 20 14.5 34.5t34.5 14.5q21 0 35.5 -14.5t14.5 -34.5zM167 343q0 -20 -14.5 -34.5t-35.5 -14.5q-20 0 -34.5 14.5t-14.5 34.5t14.5 34.5t34.5 14.5q21 0 35.5 -14.5t14.5 -34.5zM167 245q0 -21 -14.5 -35.5
t-35.5 -14.5q-20 0 -34.5 14.5t-14.5 35.5q0 20 14.5 34.5t34.5 14.5q21 0 35.5 -14.5t14.5 -34.5zM167 146q0 -20 -14.5 -34.5t-35.5 -14.5q-20 0 -34.5 14.5t-14.5 34.5t14.5 34.5t34.5 14.5q21 0 35.5 -14.5t14.5 -34.5zM167 48q0 -21 -14.5 -35.5t-35.5 -14.5
q-20 0 -34.5 14.5t-14.5 35.5q0 20 14.5 34.5t34.5 14.5q21 0 35.5 -14.5t14.5 -34.5z" />
    <glyph glyph-name="j" unicode="j" horiz-adv-x="365" 
d="M273 639q0 -21 -14.5 -35.5t-34.5 -14.5q-21 0 -35.5 14.5t-14.5 35.5q0 20 14.5 34.5t35.5 14.5q20 0 34.5 -14.5t14.5 -34.5zM273 540q0 -20 -14.5 -34.5t-34.5 -14.5q-21 0 -35.5 14.5t-14.5 34.5t14.5 34.5t35.5 14.5q20 0 34.5 -14.5t14.5 -34.5zM273 442
q0 -21 -14.5 -35.5t-34.5 -14.5q-21 0 -35.5 14.5t-14.5 35.5q0 20 14.5 34.5t35.5 14.5q20 0 34.5 -14.5t14.5 -34.5zM273 343q0 -20 -14.5 -34.5t-34.5 -14.5q-21 0 -35.5 14.5t-14.5 34.5t14.5 34.5t35.5 14.5q20 0 34.5 -14.5t14.5 -34.5zM273 245q0 -21 -14.5 -35.5
t-34.5 -14.5q-21 0 -35.5 14.5t-14.5 35.5q0 20 14.5 34.5t35.5 14.5q20 0 34.5 -14.5t14.5 -34.5zM273 146q0 -20 -14.5 -34.5t-34.5 -14.5q-21 0 -35.5 14.5t-14.5 34.5t14.5 34.5t35.5 14.5q20 0 34.5 -14.5t14.5 -34.5zM273 48q0 -21 -14.5 -35.5t-34.5 -14.5
q-21 0 -35.5 14.5t-14.5 35.5q0 20 14.5 34.5t35.5 14.5q20 0 34.5 -14.5t14.5 -34.5zM273 -51q0 -20 -14.5 -34.5t-34.5 -14.5q-21 0 -35.5 14.5t-14.5 34.5t14.5 34.5t35.5 14.5q20 0 34.5 -14.5t14.5 -34.5zM234 -142q0 -21 -14.5 -35.5t-34.5 -14.5t-34.5 14.5
t-14.5 35.5q0 20 14.5 34.5t34.5 14.5t34.5 -14.5t14.5 -34.5zM144 -182q0 -21 -14.5 -35.5t-35.5 -14.5q-20 0 -34.5 14.5t-14.5 35.5q0 20 14.5 34.5t34.5 14.5q21 0 35.5 -14.5t14.5 -34.5z" />
    <glyph glyph-name="k" unicode="k" horiz-adv-x="586" 
d="M523 638q0 -20 -14.5 -34.5t-34.5 -14.5t-34.5 14.5t-14.5 34.5q0 21 14.5 35.5t34.5 14.5t34.5 -14.5t14.5 -35.5zM458 565q0 -21 -14.5 -35.5t-34.5 -14.5q-21 0 -35.5 14.5t-14.5 35.5q0 20 14.5 34.5t35.5 14.5q20 0 34.5 -14.5t14.5 -34.5zM393 491
q0 -20 -14.5 -34.5t-35.5 -14.5q-20 0 -34.5 14.5t-14.5 34.5t14.5 34.5t34.5 14.5q21 0 35.5 -14.5t14.5 -34.5zM155 639q0 -21 -14.5 -35.5t-34.5 -14.5q-21 0 -35.5 14.5t-14.5 35.5q0 20 14.5 34.5t35.5 14.5q20 0 34.5 -14.5t14.5 -34.5zM327 417q0 -20 -14.5 -34.5
t-34.5 -14.5t-34.5 14.5t-14.5 34.5q0 21 14.5 35t34.5 14t34.5 -14.5t14.5 -34.5zM155 540q0 -20 -14.5 -34.5t-34.5 -14.5q-21 0 -35.5 14.5t-14.5 34.5t14.5 34.5t35.5 14.5q20 0 34.5 -14.5t14.5 -34.5zM262 343q0 -20 -14.5 -34.5t-34.5 -14.5q-21 0 -35.5 14.5
t-14.5 35.5q0 20 14.5 34.5t35.5 14.5q20 0 34.5 -14.5t14.5 -35.5zM326 269q0 -20 -14.5 -34.5t-34.5 -14.5t-34.5 14.5t-14.5 34.5t14.5 34.5t34.5 14.5t34.5 -14.5t14.5 -34.5zM155 442q0 -21 -14.5 -35.5t-34.5 -14.5q-21 0 -35.5 14.5t-14.5 35.5q0 20 14.5 34.5
t35.5 14.5q20 0 34.5 -14.5t14.5 -34.5zM390 194q0 -20 -14 -34.5t-35 -14.5q-20 0 -34.5 14.5t-14.5 34.5q0 21 14.5 35t34.5 14t34.5 -14t14.5 -35zM455 120q0 -21 -14.5 -35.5t-34.5 -14.5q-21 0 -35.5 14.5t-14.5 35.5q0 20 14.5 34.5t34.5 14.5q21 0 35.5 -14.5
t14.5 -34.5zM519 45q0 -20 -14.5 -34.5t-34.5 -14.5q-21 0 -35 14.5t-14 34.5t14 34.5t35 14.5q20 0 34.5 -14.5t14.5 -34.5zM155 343q0 -20 -14.5 -34.5t-34.5 -14.5q-21 0 -35.5 14.5t-14.5 34.5t14.5 34.5t35.5 14.5q20 0 34.5 -14.5t14.5 -34.5zM155 245
q0 -21 -14.5 -35.5t-34.5 -14.5q-21 0 -35.5 14.5t-14.5 35.5q0 20 14.5 34.5t35.5 14.5q20 0 34.5 -14.5t14.5 -34.5zM155 146q0 -20 -14.5 -34.5t-34.5 -14.5q-21 0 -35.5 14.5t-14.5 34.5t14.5 34.5t35.5 14.5q20 0 34.5 -14.5t14.5 -34.5zM155 48q0 -21 -14.5 -35.5
t-34.5 -14.5q-21 0 -35.5 14.5t-14.5 35.5q0 20 14.5 34.5t35.5 14.5q20 0 34.5 -14.5t14.5 -34.5z" />
    <glyph glyph-name="l" unicode="l" horiz-adv-x="467" 
d="M136 639q0 -21 -14.5 -35.5t-34.5 -14.5t-34.5 14.5t-14.5 35.5q0 20 14.5 34.5t34.5 14.5t34.5 -14.5t14.5 -34.5zM136 540q0 -20 -14.5 -34.5t-34.5 -14.5t-34.5 14.5t-14.5 34.5t14.5 34.5t34.5 14.5t34.5 -14.5t14.5 -34.5zM136 442q0 -21 -14.5 -35.5t-34.5 -14.5
t-34.5 14.5t-14.5 35.5q0 20 14.5 34.5t34.5 14.5t34.5 -14.5t14.5 -34.5zM136 343q0 -20 -14.5 -34.5t-34.5 -14.5t-34.5 14.5t-14.5 34.5t14.5 34.5t34.5 14.5t34.5 -14.5t14.5 -34.5zM432 48q0 -21 -14.5 -35.5t-35.5 -14.5q-20 0 -34.5 14.5t-14.5 35.5q0 20 14.5 34.5
t34.5 14.5q21 0 35.5 -14.5t14.5 -34.5zM136 245q0 -21 -14.5 -35.5t-34.5 -14.5t-34.5 14.5t-14.5 35.5q0 20 14.5 34.5t34.5 14.5t34.5 -14.5t14.5 -34.5zM333 48q0 -21 -14.5 -35.5t-34.5 -14.5q-21 0 -35 14.5t-14 35.5q0 20 14 34.5t35 14.5q20 0 34.5 -14.5
t14.5 -34.5zM136 146q0 -20 -14.5 -34.5t-34.5 -14.5t-34.5 14.5t-14.5 34.5t14.5 34.5t34.5 14.5t34.5 -14.5t14.5 -34.5zM235 48q0 -21 -14.5 -35.5t-35.5 -14.5q-20 0 -34.5 14.5t-14.5 35.5q0 20 14.5 34.5t34.5 14.5q21 0 35.5 -14.5t14.5 -34.5zM136 48
q0 -21 -14.5 -35.5t-34.5 -14.5t-34.5 14.5t-14.5 35.5q0 20 14.5 34.5t34.5 14.5t34.5 -14.5t14.5 -34.5z" />
    <glyph glyph-name="m" unicode="m" horiz-adv-x="796" 
d="M711 440q0 -20 -14.5 -34.5t-34.5 -14.5t-34.5 14.5t-14.5 34.5q0 21 14.5 35.5t34.5 14.5t34.5 -14.5t14.5 -35.5zM573 490q0 -21 -14.5 -35.5t-34.5 -14.5t-34.5 14.5t-14.5 35.5q0 20 14.5 34.5t34.5 14.5t34.5 -14.5t14.5 -34.5zM711 342q0 -20 -14.5 -34.5
t-34.5 -14.5t-34.5 14.5t-14.5 34.5t14.5 34.5t34.5 14.5t34.5 -14.5t14.5 -34.5zM711 243q0 -20 -14.5 -34.5t-34.5 -14.5t-34.5 14.5t-14.5 34.5q0 21 14.5 35.5t34.5 14.5t34.5 -14.5t14.5 -35.5zM505 416q0 -21 -14.5 -35t-34.5 -14t-34.5 14t-14.5 35q0 20 14.5 34.5
t34.5 14.5t34.5 -14.5t14.5 -34.5zM711 145q0 -20 -14.5 -34.5t-34.5 -14.5t-34.5 14.5t-14.5 34.5t14.5 34.5t34.5 14.5t34.5 -14.5t14.5 -34.5zM167 637q0 -20 -14.5 -34.5t-34.5 -14.5q-21 0 -35.5 14.5t-14.5 34.5q0 21 14.5 35.5t35.5 14.5q20 0 34.5 -14.5t14.5 -35.5
zM233 566q0 -17 -12 -29.5t-30 -12.5q-17 0 -29 12.5t-12 29.5t12 29.5t29 12.5q18 0 30 -12.5t12 -29.5zM301 490q0 -21 -14.5 -35.5t-34.5 -14.5q-21 0 -35.5 14.5t-14.5 35.5q0 20 14.5 34.5t35.5 14.5q20 0 34.5 -14.5t14.5 -34.5zM369 416q0 -21 -14.5 -35t-34.5 -14
q-21 0 -35.5 14t-14.5 35q0 20 14.5 34.5t35.5 14.5q20 0 34.5 -14.5t14.5 -34.5zM437 342q0 -20 -14.5 -34.5t-34.5 -14.5q-21 0 -35 14.5t-14 34.5t14 34.5t35 14.5q20 0 34.5 -14.5t14.5 -34.5zM711 46q0 -20 -14.5 -34.5t-34.5 -14.5t-34.5 14.5t-14.5 34.5
q0 21 14.5 35.5t34.5 14.5t34.5 -14.5t14.5 -35.5zM153 539q0 -17 -12.5 -29.5t-29.5 -12.5t-29.5 12.5t-12.5 29.5t12.5 29.5t29.5 12.5t29.5 -12.5t12.5 -29.5zM167 440q0 -20 -14.5 -34.5t-34.5 -14.5q-21 0 -35.5 14.5t-14.5 34.5q0 21 14.5 35.5t35.5 14.5
q20 0 34.5 -14.5t14.5 -35.5zM167 342q0 -20 -14.5 -34.5t-34.5 -14.5q-21 0 -35.5 14.5t-14.5 34.5t14.5 34.5t35.5 14.5q20 0 34.5 -14.5t14.5 -34.5zM167 243q0 -20 -14.5 -34.5t-34.5 -14.5q-21 0 -35.5 14.5t-14.5 34.5q0 21 14.5 35.5t35.5 14.5q20 0 34.5 -14.5
t14.5 -35.5zM167 145q0 -20 -14.5 -34.5t-34.5 -14.5q-21 0 -35.5 14.5t-14.5 34.5t14.5 34.5t35.5 14.5q20 0 34.5 -14.5t14.5 -34.5zM167 46q0 -20 -14.5 -34.5t-34.5 -14.5q-21 0 -35.5 14.5t-14.5 34.5q0 21 14.5 35.5t35.5 14.5q20 0 34.5 -14.5t14.5 -35.5zM613 637
q0 -20 14.5 -34.5t34.5 -14.5t34.5 14.5t14.5 34.5q0 21 -14.5 35.5t-34.5 14.5t-34.5 -14.5t-14.5 -35.5zM546 566q0 -17 12.5 -29.5t29.5 -12.5t29.5 12.5t12.5 29.5t-12.5 29.5t-29.5 12.5t-29.5 -12.5t-12.5 -29.5zM627 539q0 -17 12 -29.5t30 -12.5q17 0 29.5 12.5
t12.5 29.5t-12.5 29.5t-29.5 12.5q-18 0 -30 -12.5t-12 -29.5z" />
    <glyph glyph-name="n" unicode="n" horiz-adv-x="796" 
d="M711 637q0 -20 -14.5 -34.5t-34.5 -14.5t-34.5 14.5t-14.5 34.5q0 21 14.5 35.5t34.5 14.5t34.5 -14.5t14.5 -35.5zM711 539q0 -20 -14.5 -34.5t-34.5 -14.5t-34.5 14.5t-14.5 34.5t14.5 34.5t34.5 14.5t34.5 -14.5t14.5 -34.5zM711 440q0 -20 -14.5 -34.5t-34.5 -14.5
t-34.5 14.5t-14.5 34.5q0 21 14.5 35.5t34.5 14.5t34.5 -14.5t14.5 -35.5zM711 342q0 -20 -14.5 -34.5t-34.5 -14.5t-34.5 14.5t-14.5 34.5t14.5 34.5t34.5 14.5t34.5 -14.5t14.5 -34.5zM711 243q0 -20 -14.5 -34.5t-34.5 -14.5t-34.5 14.5t-14.5 34.5q0 21 14.5 35.5
t34.5 14.5t34.5 -14.5t14.5 -35.5zM303 490q0 -21 -14.5 -35.5t-34.5 -14.5q-21 0 -35.5 14.5t-14.5 35.5q0 20 14.5 34.5t35.5 14.5q20 0 34.5 -14.5t14.5 -34.5zM371 416q0 -21 -14.5 -35t-34.5 -14q-21 0 -35 14t-14 35q0 20 14 34.5t35 14.5q20 0 34.5 -14.5t14.5 -34.5
zM439 342q0 -20 -14.5 -34.5t-34.5 -14.5t-34.5 14.5t-14.5 34.5t14.5 34.5t34.5 14.5t34.5 -14.5t14.5 -34.5zM507 268q0 -20 -14.5 -34.5t-34.5 -14.5t-34.5 14.5t-14.5 34.5t14.5 34.5t34.5 14.5t34.5 -14.5t14.5 -34.5zM575 194q0 -20 -14.5 -34.5t-34.5 -14.5
t-34.5 14.5t-14.5 34.5t14.5 34.5t34.5 14.5t34.5 -14.5t14.5 -34.5zM167 440q0 -20 -14.5 -34.5t-34.5 -14.5q-21 0 -35.5 14.5t-14.5 34.5q0 21 14.5 35.5t35.5 14.5q20 0 34.5 -14.5t14.5 -35.5zM167 342q0 -20 -14.5 -34.5t-34.5 -14.5q-21 0 -35.5 14.5t-14.5 34.5
t14.5 34.5t35.5 14.5q20 0 34.5 -14.5t14.5 -34.5zM167 243q0 -20 -14.5 -34.5t-34.5 -14.5q-21 0 -35.5 14.5t-14.5 34.5q0 21 14.5 35.5t35.5 14.5q20 0 34.5 -14.5t14.5 -35.5zM167 145q0 -20 -14.5 -34.5t-34.5 -14.5q-21 0 -35.5 14.5t-14.5 34.5t14.5 34.5t35.5 14.5
q20 0 34.5 -14.5t14.5 -34.5zM167 46q0 -20 -14.5 -34.5t-34.5 -14.5q-21 0 -35.5 14.5t-14.5 34.5q0 21 14.5 35.5t35.5 14.5q20 0 34.5 -14.5t14.5 -35.5zM167 637q0 -20 -14.5 -34.5t-34.5 -14.5q-21 0 -35.5 14.5t-14.5 34.5q0 21 14.5 35.5t35.5 14.5q20 0 34.5 -14.5
t14.5 -35.5zM233 566q0 -17 -12 -29.5t-30 -12.5q-17 0 -29 12.5t-12 29.5t12 29.5t29 12.5q18 0 30 -12.5t12 -29.5zM153 539q0 -17 -12.5 -29.5t-29.5 -12.5t-29.5 12.5t-12.5 29.5t12.5 29.5t29.5 12.5t29.5 -12.5t12.5 -29.5zM613 46q0 21 14.5 35.5t34.5 14.5
t34.5 -14.5t14.5 -35.5q0 -20 -14.5 -34.5t-34.5 -14.5t-34.5 14.5t-14.5 34.5zM546 118q0 17 12.5 29.5t29.5 12.5t29.5 -12.5t12.5 -29.5q0 -18 -12.5 -30t-29.5 -12t-29.5 12t-12.5 30zM627 145q0 17 12 29t30 12q17 0 29.5 -12t12.5 -29q0 -18 -12.5 -30t-29.5 -12
q-18 0 -30 12t-12 30z" />
    <glyph glyph-name="o" unicode="o" horiz-adv-x="849" 
d="M728 533q0 -20 -14 -35t-35 -15q-20 0 -34.5 14.5t-14.5 34.5q0 21 14.5 35.5t34.5 14.5t34.5 -14.5t14.5 -34.5zM655 598q0 -20 -14 -34.5t-35 -14.5q-20 0 -34.5 14t-14.5 35q0 20 14.5 34.5t34.5 14.5t34.5 -14.5t14.5 -34.5zM775 446q0 -21 -14.5 -35.5t-34.5 -14.5
q-21 0 -35.5 14.5t-14.5 34.5t14.5 35t34.5 15t35 -14.5t15 -34.5zM565 636q0 -20 -14.5 -34.5t-35.5 -14.5q-20 0 -34.5 14t-14.5 35q0 20 14.5 34.5t34.5 14.5t35 -14.5t15 -34.5zM785 347q0 -21 -14.5 -35.5t-34.5 -14.5t-35 14.5t-15 34.5t14.5 35t34.5 15
q21 0 35.5 -14.5t14.5 -34.5zM467 649q0 -20 -14.5 -34.5t-34.5 -14.5q-21 0 -35.5 14t-14.5 35q0 20 14.5 34.5t34.5 14.5q21 0 35.5 -14.5t14.5 -34.5zM772 248q0 -21 -14 -35.5t-35 -14.5q-20 0 -34.5 14.5t-14.5 34.5t14.5 35t34.5 15t34.5 -14.5t14.5 -34.5zM368 636
q0 -21 -14.5 -35t-34.5 -14q-21 0 -35 14.5t-14 34.5t14.5 34.5t34.5 14.5t34.5 -14.5t14.5 -34.5zM727 160q0 -20 -14.5 -35t-34.5 -15t-34.5 14.5t-14.5 34.5q0 21 14 35.5t35 14.5q20 0 34.5 -14.5t14.5 -34.5zM277 598q0 -21 -14.5 -35t-34.5 -14t-34.5 14.5t-14.5 34.5
t14.5 34.5t34.5 14.5q21 0 35 -14.5t14 -34.5zM654 94q0 -20 -14 -34.5t-35 -14.5q-20 0 -34.5 14t-14.5 35q0 20 14.5 34.5t34.5 14.5t34.5 -14.5t14.5 -34.5zM204 532q0 -20 -14.5 -34.5t-34.5 -14.5q-21 0 -35 15t-14 35t14.5 34.5t34.5 14.5t34.5 -14.5t14.5 -35.5z
M564 55q0 -20 -14.5 -34.5t-34.5 -14.5t-34.5 14.5t-14.5 34.5t14 34.5t35 14.5q20 0 34.5 -14t14.5 -35zM158 445q0 -20 -14.5 -34.5t-34.5 -14.5q-21 0 -35 14.5t-14 35.5q0 20 14.5 34.5t34.5 14.5t34.5 -15t14.5 -35zM466 41q0 -20 -14.5 -34.5t-34.5 -14.5t-34.5 14.5
t-14.5 34.5q0 21 14.5 35t34.5 14q21 0 35 -14.5t14 -34.5zM148 346q0 -20 -14.5 -34.5t-35.5 -14.5q-20 0 -34.5 14.5t-14.5 35.5q0 20 14.5 34.5t35.5 14.5q20 0 34.5 -15t14.5 -35zM369 55q0 -20 -15 -34.5t-35 -14.5t-34.5 14.5t-14.5 34.5q0 21 14.5 35t35.5 14
q20 0 34.5 -14.5t14.5 -34.5zM160 247q0 -20 -14.5 -34.5t-34.5 -14.5q-21 0 -35 14.5t-14 35.5q0 20 14.5 34.5t34.5 14.5t34.5 -15t14.5 -35zM278 94q0 -21 -14.5 -35t-34.5 -14q-21 0 -35 14.5t-14 34.5t14.5 34.5t34.5 14.5t34.5 -14.5t14.5 -34.5zM206 159
q0 -20 -15 -34.5t-35 -14.5t-34.5 15t-14.5 35t14.5 34.5t35.5 14.5q20 0 34.5 -14.5t14.5 -35.5z" />
    <glyph glyph-name="p" unicode="p" horiz-adv-x="501" 
d="M430 587q0 -20 -14.5 -34.5t-34.5 -14.5t-34.5 14.5t-14.5 34.5q0 21 14.5 35t34.5 14t34.5 -14t14.5 -35zM345 638q0 -21 -14.5 -35t-34.5 -14q-21 0 -35.5 14t-14.5 35q0 20 14.5 34.5t35.5 14.5q20 0 34.5 -14.5t14.5 -34.5zM456 493q0 -20 -14.5 -34.5t-34.5 -14.5
t-34.5 14.5t-14.5 34.5t14.5 34.5t34.5 14.5t34.5 -14.5t14.5 -34.5zM246 637q0 -20 -14.5 -34.5t-34.5 -14.5t-34.5 14.5t-14.5 34.5q0 21 14.5 35.5t34.5 14.5t34.5 -14.5t14.5 -35.5zM427 398q0 -20 -14.5 -34.5t-34.5 -14.5t-34.5 14.5t-14.5 34.5t14.5 34.5t34.5 14.5
t34.5 -14.5t14.5 -34.5zM148 637q0 -20 -14.5 -34.5t-34.5 -14.5q-21 0 -35.5 14.5t-14.5 34.5q0 21 14.5 35.5t35.5 14.5q20 0 34.5 -14.5t14.5 -35.5zM345 346q0 -20 -14.5 -34.5t-34.5 -14.5q-21 0 -35.5 14.5t-14.5 34.5q0 21 14.5 35.5t35.5 14.5q20 0 34.5 -14.5
t14.5 -35.5zM148 539q0 -20 -14.5 -34.5t-34.5 -14.5q-21 0 -35.5 14.5t-14.5 34.5t14.5 34.5t35.5 14.5q20 0 34.5 -14.5t14.5 -34.5zM148 440q0 -20 -14.5 -34.5t-34.5 -14.5q-21 0 -35.5 14.5t-14.5 34.5q0 21 14.5 35.5t35.5 14.5q20 0 34.5 -14.5t14.5 -35.5zM246 342
q0 -20 -14.5 -34.5t-34.5 -14.5t-34.5 14.5t-14.5 34.5t14.5 34.5t34.5 14.5t34.5 -14.5t14.5 -34.5zM148 342q0 -20 -14.5 -34.5t-34.5 -14.5q-21 0 -35.5 14.5t-14.5 34.5t14.5 34.5t35.5 14.5q20 0 34.5 -14.5t14.5 -34.5zM148 243q0 -20 -14.5 -34.5t-34.5 -14.5
q-21 0 -35.5 14.5t-14.5 34.5q0 21 14.5 35.5t35.5 14.5q20 0 34.5 -14.5t14.5 -35.5zM148 145q0 -20 -14.5 -34.5t-34.5 -14.5q-21 0 -35.5 14.5t-14.5 34.5t14.5 34.5t35.5 14.5q20 0 34.5 -14.5t14.5 -34.5zM148 46q0 -20 -14.5 -34.5t-34.5 -14.5q-21 0 -35.5 14.5
t-14.5 34.5q0 21 14.5 35.5t35.5 14.5q20 0 34.5 -14.5t14.5 -35.5z" />
    <glyph glyph-name="q" unicode="q" horiz-adv-x="853" 
d="M666 587q0 -20 -14.5 -34.5t-34.5 -14.5t-34.5 14.5t-14.5 34.5t14.5 34.5t34.5 14.5t34.5 -14.5t14.5 -34.5zM734 520q0 -21 -14.5 -35.5t-34.5 -14.5t-34.5 14.5t-14.5 35.5q0 20 14.5 34.5t34.5 14.5t34.5 -14.5t14.5 -34.5zM580 630q0 -20 -14.5 -34.5t-35.5 -14.5
q-20 0 -34.5 14.5t-14.5 34.5t14.5 34.5t34.5 14.5q21 0 35.5 -14.5t14.5 -34.5zM772 429q0 -21 -14.5 -35t-34.5 -14q-21 0 -35.5 14.5t-14.5 34.5t14.5 34.5t35.5 14.5q20 0 34.5 -14.5t14.5 -34.5zM484 651q0 -20 -14.5 -34.5t-34.5 -14.5t-34.5 14.5t-14.5 34.5
q0 21 14.5 35.5t34.5 14.5t34.5 -14.5t14.5 -35.5zM785 330q0 -20 -14.5 -34.5t-34.5 -14.5t-34.5 14.5t-14.5 34.5t14.5 34.5t34.5 14.5q21 0 35 -14.5t14 -34.5zM386 639q0 -21 -14.5 -35.5t-34.5 -14.5t-34.5 14.5t-14.5 35.5q0 20 14.5 34.5t34.5 14.5t34.5 -14.5
t14.5 -34.5zM764 233q0 -20 -14.5 -34.5t-34.5 -14.5t-34.5 14.5t-14.5 34.5q0 21 14.5 35.5t34.5 14.5t34.5 -14.5t14.5 -35.5zM294 600q0 -20 -14.5 -34.5t-34.5 -14.5t-34.5 14.5t-14.5 34.5q0 21 14.5 35.5t34.5 14.5t34.5 -14.5t14.5 -35.5zM711 151q0 -20 -14.5 -34.5
t-34.5 -14.5t-34.5 14.5t-14.5 34.5t14.5 34.5t34.5 14.5t34.5 -14.5t14.5 -34.5zM217 540q0 -20 -14.5 -34.5t-35.5 -14.5q-20 0 -34.5 14.5t-14.5 34.5q0 21 14.5 35t34.5 14q21 0 35.5 -14t14.5 -35zM634 90q0 -20 -14.5 -34.5t-34.5 -14.5q-21 0 -35.5 14.5t-14.5 34.5
q0 21 14.5 35.5t35.5 14.5q20 0 34.5 -14.5t14.5 -35.5zM713 -89q0 -20 -14.5 -34.5t-34.5 -14.5t-34.5 14.5t-14.5 35.5q0 20 14.5 34.5t34.5 14.5q21 0 35 -14.5t14 -35.5zM163 458q0 -20 -14.5 -34.5t-35.5 -14.5q-20 0 -34.5 14.5t-14.5 34.5q0 21 14.5 35.5t35.5 14.5
q20 0 34.5 -14.5t14.5 -35.5zM616 -70q0 -20 -14.5 -34.5t-35.5 -14.5q-20 0 -34.5 14.5t-14.5 34.5q0 21 14.5 35t35.5 14q20 0 34.5 -14.5t14.5 -34.5zM141 362q0 -20 -14.5 -34.5t-35.5 -14.5q-20 0 -34.5 14.5t-14.5 34.5t14.5 34.5t35.5 14.5q20 0 34.5 -14.5
t14.5 -34.5zM440 15q0 -20 -14.5 -34.5t-35.5 -14.5q-20 0 -34.5 14.5t-14.5 34.5t14.5 34.5t34.5 14.5q21 0 35.5 -14.5t14.5 -34.5zM156 264q0 -20 -14.5 -34.5t-34.5 -14.5t-34.5 14.5t-14.5 34.5t14.5 34.5t34.5 14.5t34.5 -14.5t14.5 -34.5zM348 54q0 -21 -14.5 -35.5
t-35.5 -14.5q-20 0 -34.5 14.5t-14.5 35.5q0 20 14.5 34.5t34.5 14.5q21 0 35.5 -14.5t14.5 -34.5zM194 171q0 -20 -14.5 -34.5t-34.5 -14.5t-34.5 14.5t-14.5 34.5q0 21 14.5 35.5t34.5 14.5t34.5 -14.5t14.5 -35.5zM261 98q0 -20 -14.5 -34.5t-35.5 -14.5
q-20 0 -34.5 14.5t-14.5 34.5q0 21 14.5 35.5t34.5 14.5q21 0 35.5 -14.5t14.5 -35.5zM544 52q0 -19 -14 -32.5t-33 -13.5t-32.5 13.5t-13.5 32.5t13.5 33t32.5 14t33 -14t14 -33zM519 -39q0 -20 -14 -33.5t-33 -13.5t-32.5 14t-13.5 33t13.5 32.5t33.5 13.5
q19 0 32.5 -13.5t13.5 -32.5z" />
    <glyph glyph-name="r" unicode="r" horiz-adv-x="591" 
d="M435 587q0 -20 -14.5 -34.5t-35.5 -14.5q-20 0 -34.5 14.5t-14.5 34.5q0 21 14.5 35t34.5 14q21 0 35.5 -14t14.5 -35zM349 638q0 -21 -14.5 -35t-34.5 -14t-34.5 14t-14.5 35q0 20 14.5 34.5t34.5 14.5t34.5 -14.5t14.5 -34.5zM460 493q0 -20 -14.5 -34.5t-34.5 -14.5
t-34.5 14.5t-14.5 34.5t14.5 34.5t34.5 14.5t34.5 -14.5t14.5 -34.5zM251 637q0 -20 -14.5 -34.5t-35.5 -14.5q-20 0 -34.5 14.5t-14.5 34.5q0 21 14.5 35.5t34.5 14.5q21 0 35.5 -14.5t14.5 -35.5zM432 398q0 -20 -14.5 -34.5t-35.5 -14.5q-20 0 -34.5 14.5t-14.5 34.5
t14.5 34.5t34.5 14.5q21 0 35.5 -14.5t14.5 -34.5zM152 637q0 -20 -14.5 -34.5t-34.5 -14.5t-34.5 14.5t-14.5 34.5q0 21 14.5 35.5t34.5 14.5t34.5 -14.5t14.5 -35.5zM349 346q0 -20 -14.5 -34.5t-34.5 -14.5t-34.5 14.5t-14.5 34.5q0 21 14.5 35.5t34.5 14.5t34.5 -14.5
t14.5 -35.5zM417 277q0 -20 -14.5 -34.5t-34.5 -14.5q-21 0 -35 14.5t-14 34.5t14 34.5t35 14.5q20 0 34.5 -14.5t14.5 -34.5zM152 539q0 -20 -14.5 -34.5t-34.5 -14.5t-34.5 14.5t-14.5 34.5t14.5 34.5t34.5 14.5t34.5 -14.5t14.5 -34.5zM483 205q0 -20 -14.5 -34.5
t-34.5 -14.5t-34.5 14.5t-14.5 34.5q0 21 14.5 35.5t34.5 14.5t34.5 -14.5t14.5 -35.5zM539 127q0 -20 -14.5 -34.5t-34.5 -14.5t-34.5 14.5t-14.5 34.5t14.5 34.5t34.5 14.5t34.5 -14.5t14.5 -34.5zM591 45q0 -20 -14 -34.5t-35 -14.5q-20 0 -34.5 14.5t-14.5 34.5
t14.5 34.5t34.5 14.5q21 0 35 -14.5t14 -34.5zM152 440q0 -20 -14.5 -34.5t-34.5 -14.5t-34.5 14.5t-14.5 34.5q0 21 14.5 35.5t34.5 14.5t34.5 -14.5t14.5 -35.5zM251 342q0 -20 -14.5 -34.5t-35.5 -14.5q-20 0 -34.5 14.5t-14.5 34.5t14.5 34.5t34.5 14.5q21 0 35.5 -14.5
t14.5 -34.5zM152 342q0 -20 -14.5 -34.5t-34.5 -14.5t-34.5 14.5t-14.5 34.5t14.5 34.5t34.5 14.5t34.5 -14.5t14.5 -34.5zM152 243q0 -20 -14.5 -34.5t-34.5 -14.5t-34.5 14.5t-14.5 34.5q0 21 14.5 35.5t34.5 14.5t34.5 -14.5t14.5 -35.5zM152 145q0 -20 -14.5 -34.5
t-34.5 -14.5t-34.5 14.5t-14.5 34.5t14.5 34.5t34.5 14.5t34.5 -14.5t14.5 -34.5zM152 46q0 -20 -14.5 -34.5t-34.5 -14.5t-34.5 14.5t-14.5 34.5q0 21 14.5 35.5t34.5 14.5t34.5 -14.5t14.5 -35.5z" />
    <glyph glyph-name="s" unicode="s" horiz-adv-x="480" 
d="M410 616q0 -20 -14 -35t-35 -15q-20 0 -34.5 14.5t-14.5 34.5t14 35t35 15q20 0 34.5 -14.5t14.5 -34.5zM317 648q0 -20 -14 -34.5t-34 -14.5q-21 0 -35.5 14t-14.5 35q0 20 14.5 34.5t34.5 14.5t34.5 -14t14.5 -35zM220 635q0 -20 -14.5 -34.5t-34.5 -14.5t-35 14
t-15 34q0 21 14.5 35.5t34.5 14.5t35 -14t15 -35zM147 570q0 -20 -14 -34.5t-35 -14.5q-20 0 -34.5 14t-14.5 34q0 21 14 35.5t35 14.5q20 0 34.5 -14.5t14.5 -34.5zM299 347q0 -20 -14 -34.5t-35 -14.5q-20 0 -34.5 14t-14.5 35q0 20 14 34.5t34 14.5q21 0 35.5 -14
t14.5 -35zM429 207q0 -20 -14.5 -35t-34.5 -15t-35 14.5t-15 34.5q0 21 14.5 35.5t34.5 14.5t35 -14.5t15 -34.5zM148 472q0 -21 -14.5 -35.5t-34.5 -14.5t-34.5 14.5t-14.5 34.5t14 35t34 15q21 0 35.5 -14.5t14.5 -34.5zM213 399q0 -20 -14 -35t-35 -15q-20 0 -34.5 14.5
t-14.5 34.5t14 35t35 15q20 0 34.5 -14.5t14.5 -34.5zM414 109q0 -20 -14.5 -34.5t-34.5 -14.5t-35 14t-15 34q0 21 14.5 35.5t34.5 14.5t35 -14t15 -35zM336 49q0 -20 -14.5 -34.5t-34.5 -14.5t-35 14t-15 34q0 21 14.5 35.5t34.5 14.5t35 -14t15 -35zM238 48
q0 -20 -14.5 -34.5t-34.5 -14.5t-34.5 14t-14.5 35q0 20 14 34.5t34 14.5q21 0 35.5 -14t14.5 -35zM148 83q0 -20 -14.5 -35t-34.5 -15q-21 0 -35.5 14.5t-14.5 34.5t14.5 35t34.5 15t35 -14.5t15 -34.5zM382 294q0 20 -15 34.5t-35 14.5t-34.5 -15t-14.5 -35t15 -34.5
t35 -14.5t34.5 15t14.5 35z" />
    <glyph glyph-name="t" unicode="t" horiz-adv-x="560" 
d="M519 637q0 -20 -14.5 -34.5t-34.5 -14.5t-34.5 14.5t-14.5 34.5q0 21 14.5 35.5t34.5 14.5t34.5 -14.5t14.5 -35.5zM421 637q0 -20 -14.5 -34.5t-34.5 -14.5q-21 0 -35.5 14.5t-14.5 34.5q0 21 14.5 35.5t35.5 14.5q20 0 34.5 -14.5t14.5 -35.5zM322 637
q0 -20 -14.5 -34.5t-34.5 -14.5t-34.5 14.5t-14.5 34.5q0 21 14.5 35.5t34.5 14.5t34.5 -14.5t14.5 -35.5zM322 539q0 -20 -14.5 -34.5t-34.5 -14.5t-34.5 14.5t-14.5 34.5t14.5 34.5t34.5 14.5t34.5 -14.5t14.5 -34.5zM224 637q0 -20 -14.5 -34.5t-34.5 -14.5
q-21 0 -35.5 14.5t-14.5 34.5q0 21 14.5 35.5t35.5 14.5q20 0 34.5 -14.5t14.5 -35.5zM322 440q0 -20 -14.5 -34.5t-34.5 -14.5t-34.5 14.5t-14.5 34.5q0 21 14.5 35.5t34.5 14.5t34.5 -14.5t14.5 -35.5zM125 637q0 -20 -14.5 -34.5t-34.5 -14.5t-34.5 14.5t-14.5 34.5
q0 21 14.5 35.5t34.5 14.5t34.5 -14.5t14.5 -35.5zM322 342q0 -20 -14.5 -34.5t-34.5 -14.5t-34.5 14.5t-14.5 34.5t14.5 34.5t34.5 14.5t34.5 -14.5t14.5 -34.5zM322 243q0 -20 -14.5 -34.5t-34.5 -14.5t-34.5 14.5t-14.5 34.5q0 21 14.5 35.5t34.5 14.5t34.5 -14.5
t14.5 -35.5zM322 145q0 -20 -14.5 -34.5t-34.5 -14.5t-34.5 14.5t-14.5 34.5t14.5 34.5t34.5 14.5t34.5 -14.5t14.5 -34.5zM322 46q0 -20 -14.5 -34.5t-34.5 -14.5t-34.5 14.5t-14.5 34.5q0 21 14.5 35.5t34.5 14.5t34.5 -14.5t14.5 -35.5z" />
    <glyph glyph-name="u" unicode="u" horiz-adv-x="691" 
d="M611 638q0 -20 -14.5 -34.5t-35.5 -14.5q-20 0 -34.5 14.5t-14.5 34.5q0 21 14.5 35t34.5 14q21 0 35.5 -14t14.5 -35zM611 540q0 -21 -14.5 -35.5t-35.5 -14.5q-20 0 -34.5 14.5t-14.5 35.5q0 20 14.5 34.5t34.5 14.5q21 0 35.5 -14.5t14.5 -34.5zM611 441
q0 -20 -14.5 -34.5t-35.5 -14.5q-20 0 -34.5 14.5t-14.5 34.5q0 21 14.5 35t34.5 14q21 0 35.5 -14t14.5 -35zM611 343q0 -21 -14.5 -35t-35.5 -14q-20 0 -34.5 14t-14.5 35q0 20 14.5 34.5t34.5 14.5q21 0 35.5 -14.5t14.5 -34.5zM611 243q0 -20 -14.5 -34.5t-35.5 -14.5
q-20 0 -34.5 14.5t-14.5 34.5t14.5 34.5t34.5 14.5q21 0 35.5 -14.5t14.5 -34.5zM162 638q0 -20 -14.5 -34.5t-34.5 -14.5t-34.5 14.5t-14.5 34.5q0 21 14.5 35t34.5 14t34.5 -14t14.5 -35zM596 147q0 -21 -14.5 -35.5t-34.5 -14.5t-34.5 14.5t-14.5 35.5q0 20 14.5 34.5
t34.5 14.5t34.5 -14.5t14.5 -34.5zM162 540q0 -21 -14.5 -35.5t-34.5 -14.5t-34.5 14.5t-14.5 35.5q0 20 14.5 34.5t34.5 14.5t34.5 -14.5t14.5 -34.5zM531 75q0 -20 -14.5 -34.5t-34.5 -14.5q-21 0 -35 14.5t-14 34.5t14 34.5t35 14.5q20 0 34.5 -14.5t14.5 -34.5zM162 441
q0 -20 -14.5 -34.5t-34.5 -14.5t-34.5 14.5t-14.5 34.5q0 21 14.5 35t34.5 14t34.5 -14t14.5 -35zM162 343q0 -21 -14.5 -35t-34.5 -14t-34.5 14t-14.5 35q0 20 14.5 34.5t34.5 14.5t34.5 -14.5t14.5 -34.5zM436 45q0 -20 -14.5 -34.5t-35.5 -14.5q-20 0 -34.5 14.5
t-14.5 34.5q0 21 14.5 35.5t34.5 14.5q21 0 35.5 -14.5t14.5 -35.5zM162 243q0 -20 -14.5 -34.5t-34.5 -14.5t-34.5 14.5t-14.5 34.5t14.5 34.5t34.5 14.5t34.5 -14.5t14.5 -34.5zM337 45q0 -20 -14.5 -34.5t-34.5 -14.5t-34.5 14.5t-14.5 34.5q0 21 14.5 35.5t34.5 14.5
t34.5 -14.5t14.5 -35.5zM177 147q0 -21 -14.5 -35.5t-35.5 -14.5q-20 0 -34.5 14.5t-14.5 35.5q0 20 14.5 34.5t34.5 14.5q21 0 35.5 -14.5t14.5 -34.5zM242 75q0 -20 -14.5 -34.5t-34.5 -14.5q-21 0 -35.5 14.5t-14.5 34.5t14.5 34.5t35.5 14.5q20 0 34.5 -14.5t14.5 -34.5
z" />
    <glyph glyph-name="v" unicode="v" horiz-adv-x="649" 
d="M599 640q0 -20 -14.5 -34.5t-35.5 -14.5q-20 0 -34.5 14.5t-14.5 34.5t14.5 34.5t35.5 14.5q20 0 34.5 -14.5t14.5 -34.5zM560 549q0 -20 -14.5 -34.5t-34.5 -14.5t-34.5 14.5t-14.5 34.5q0 21 14.5 35.5t34.5 14.5t34.5 -14.5t14.5 -35.5zM522 459q0 -21 -14.5 -35.5
t-35.5 -14.5q-20 0 -34.5 14.5t-14.5 35.5q0 20 14.5 34.5t35.5 14.5q20 0 34.5 -14.5t14.5 -34.5zM483 368q0 -20 -14.5 -34.5t-34.5 -14.5t-34.5 14.5t-14.5 34.5t14.5 34.5t34.5 14.5t34.5 -14.5t14.5 -34.5zM138 642q0 -20 -14.5 -34.5t-35.5 -14.5q-20 0 -34.5 14.5
t-14.5 34.5t14.5 34.5t34.5 14.5q21 0 35.5 -14.5t14.5 -34.5zM176 551q0 -20 -14.5 -34.5t-34.5 -14.5t-34.5 14.5t-14.5 34.5q0 21 14 35.5t35 14.5q20 0 34.5 -14.5t14.5 -35.5zM445 280q0 -21 -14.5 -35.5t-34.5 -14.5q-21 0 -35.5 14.5t-14.5 34.5q0 21 14.5 35.5
t35.5 14.5q20 0 34.5 -14.5t14.5 -34.5zM215 461q0 -20 -14.5 -34.5t-35.5 -14.5q-20 0 -34.5 14t-14.5 35q0 20 14.5 34.5t34.5 14.5q21 0 35.5 -14.5t14.5 -34.5zM253 370q0 -20 -14.5 -34.5t-34.5 -14.5q-21 0 -35 14.5t-14 34.5t14 34.5t35 14.5q20 0 34.5 -14.5
t14.5 -34.5zM409 192q0 -18 -13 -31t-31 -13t-31 13t-13 31t13 31t31 13t31 -13t13 -31zM291 280q0 -21 -14 -35.5t-35 -14.5q-20 0 -34.5 14.5t-14.5 34.5q0 21 14.5 35.5t34.5 14.5q21 0 35 -14.5t14 -34.5zM321 192q0 -18 -13 -31t-31 -13t-31 13t-13 31t13 31t31 13
t31 -13t13 -31zM368 110q0 -20 -14.5 -34.5t-34.5 -14.5t-34.5 14.5t-14.5 34.5t14.5 34.5t34.5 14.5t34.5 -14.5t14.5 -34.5zM350 31q0 -29 -29 -29t-29 29t29 29t29 -29z" />
    <glyph glyph-name="w" unicode="w" horiz-adv-x="1110" 
d="M1059 639q0 -20 -14.5 -34.5t-34.5 -14.5t-34.5 14.5t-14.5 34.5t14.5 34.5t34.5 14.5q21 0 35 -14.5t14 -34.5zM1021 549q0 -21 -14.5 -35.5t-34.5 -14.5q-21 0 -35.5 14.5t-14.5 35.5q0 20 14.5 34.5t35.5 14.5q20 0 34.5 -14.5t14.5 -34.5zM983 458q0 -20 -14.5 -34.5
t-35.5 -14.5q-20 0 -34.5 14.5t-14.5 34.5t14.5 34.5t34.5 14.5q21 0 35.5 -14.5t14.5 -34.5zM944 367q0 -20 -14.5 -34.5t-34.5 -14.5q-21 0 -35 14.5t-14 34.5q0 21 14.5 35t34.5 14t34.5 -14.5t14.5 -34.5zM598 632q0 -20 -14.5 -34.5t-34.5 -14.5t-34.5 14.5t-14.5 34.5
t14.5 34.5t34.5 14.5t34.5 -14.5t14.5 -34.5zM638 547q0 -18 -13 -31t-31 -13t-31 13t-13 31t13 31t31 13t31 -13t13 -31zM906 279q0 -21 -14.5 -35.5t-35.5 -14.5q-20 0 -34.5 14.5t-14.5 35.5q0 20 14.5 34.5t34.5 14.5q21 0 35.5 -14.5t14.5 -34.5zM675 460
q0 -20 -14.5 -34.5t-34.5 -14.5t-34.5 14.5t-14.5 34.5t14.5 34.5t34.5 14.5t34.5 -14.5t14.5 -34.5zM550 547q0 -18 -13 -31t-31 -13t-31 13t-13 31t13 31t31 13t31 -13t13 -31zM714 369q0 -20 -14.5 -34.5t-34.5 -14.5q-21 0 -35.5 14.5t-14.5 34.5q0 21 14.5 35.5
t34.5 14.5q21 0 35.5 -14.5t14.5 -35.5zM870 191q0 -18 -13 -31t-31 -13t-31 13t-13 31q0 19 13 32t31 13t31 -13t13 -32zM752 279q0 -21 -14.5 -35.5t-34.5 -14.5t-34.5 14.5t-14.5 35.5q0 20 14.5 34.5t34.5 14.5t34.5 -14.5t14.5 -34.5zM522 458q0 -20 -14.5 -34.5
t-35.5 -14.5q-20 0 -34.5 14.5t-14.5 34.5t14.5 34.5t34.5 14.5q21 0 35.5 -14.5t14.5 -34.5zM782 191q0 -18 -13 -31t-31 -13t-31.5 13t-13.5 31q0 19 13 32t32 13q18 0 31 -13t13 -32zM829 109q0 -20 -14.5 -34.5t-34.5 -14.5q-21 0 -35.5 14.5t-14.5 34.5q0 21 14.5 35
t35.5 14q20 0 34.5 -14.5t14.5 -34.5zM811 30q0 -29 -29 -29t-29 29t29 29t29 -29zM483 367q0 -20 -14.5 -34.5t-34.5 -14.5t-34.5 14.5t-14.5 34.5q0 21 14.5 35t34.5 14t34.5 -14.5t14.5 -34.5zM137 641q0 -20 -14 -34.5t-35 -14.5q-20 0 -34.5 14.5t-14.5 34.5
q0 21 14.5 35.5t34.5 14.5t34.5 -14.5t14.5 -35.5zM176 551q0 -21 -14.5 -35.5t-34.5 -14.5q-21 0 -35.5 14.5t-14.5 35.5q0 20 14.5 34.5t35.5 14.5q20 0 34.5 -14.5t14.5 -34.5zM445 279q0 -21 -14.5 -35.5t-34.5 -14.5q-21 0 -35.5 14.5t-14.5 35.5q0 20 14.5 34.5
t35.5 14.5q20 0 34.5 -14.5t14.5 -34.5zM214 460q0 -20 -14 -34.5t-35 -14.5q-20 0 -34.5 14.5t-14.5 34.5t14.5 34.5t34.5 14.5t34.5 -14.5t14.5 -34.5zM253 369q0 -20 -14.5 -34.5t-34.5 -14.5q-21 0 -35.5 14.5t-14.5 34.5q0 21 14.5 35.5t35.5 14.5q20 0 34.5 -14.5
t14.5 -35.5zM409 191q0 -18 -13 -31t-31 -13t-31 13t-13 31q0 19 13 32t31 13t31 -13t13 -32zM291 279q0 -21 -14.5 -35.5t-34.5 -14.5t-34.5 14.5t-14.5 35.5q0 20 14.5 34.5t34.5 14.5t34.5 -14.5t14.5 -34.5zM321 191q0 -18 -13 -31t-31 -13t-31 13t-13 31q0 19 13 32
t31 13t31 -13t13 -32zM368 109q0 -20 -14.5 -34.5t-34.5 -14.5t-34.5 14.5t-14.5 34.5q0 21 14.5 35t34.5 14t34.5 -14.5t14.5 -34.5zM350 30q0 -29 -29 -29t-29 29t29 29t29 -29z" />
    <glyph glyph-name="x" unicode="x" horiz-adv-x="729" 
d="M666 643q0 -20 -14.5 -34.5t-35.5 -14.5q-20 0 -34.5 14.5t-14.5 34.5t14.5 34.5t34.5 14.5q21 0 35.5 -14.5t14.5 -34.5zM600 569q0 -20 -14.5 -34.5t-34.5 -14.5t-34.5 14.5t-14.5 34.5q0 21 14.5 35.5t34.5 14.5t34.5 -14.5t14.5 -35.5zM535 496q0 -21 -14.5 -35.5
t-34.5 -14.5q-21 0 -35 14.5t-14 35.5q0 20 14.5 34.5t34.5 14.5t34.5 -14.5t14.5 -34.5zM470 422q0 -20 -14.5 -34.5t-35.5 -14.5q-20 0 -34.5 14.5t-14.5 34.5t14.5 34.5t34.5 14.5q21 0 35.5 -14.5t14.5 -34.5zM143 643q0 -20 -14.5 -34.5t-34.5 -14.5t-34.5 14.5
t-14.5 34.5t14.5 34.5t34.5 14.5t34.5 -14.5t14.5 -34.5zM208 569q0 -20 -14 -34.5t-35 -14.5q-20 0 -34.5 14.5t-14.5 34.5q0 21 14.5 35.5t34.5 14.5t34.5 -14.5t14.5 -35.5zM274 496q0 -21 -14.5 -35.5t-34.5 -14.5q-21 0 -35.5 14.5t-14.5 35.5q0 20 14.5 34.5
t35.5 14.5q20 0 34.5 -14.5t14.5 -34.5zM339 422q0 -20 -14.5 -34.5t-34.5 -14.5t-34.5 14.5t-14.5 34.5t14.5 34.5t34.5 14.5t34.5 -14.5t14.5 -34.5zM404 348q0 -20 -14.5 -34.5t-34.5 -14.5t-34.5 14.5t-14.5 34.5q0 21 14.5 35t34.5 14t34.5 -14t14.5 -35zM469 274
q0 -21 -14.5 -35.5t-35.5 -14.5q-20 0 -34.5 14.5t-14.5 35.5q0 20 14.5 34.5t34.5 14.5q21 0 35.5 -14.5t14.5 -34.5zM533 199q0 -20 -14.5 -34.5t-34.5 -14.5q-21 0 -35.5 14.5t-14.5 34.5t14.5 34.5t35.5 14.5q20 0 34.5 -14.5t14.5 -34.5zM597 124q0 -20 -14.5 -34.5
t-34.5 -14.5t-34.5 14.5t-14.5 34.5q0 21 14.5 35.5t34.5 14.5t34.5 -14.5t14.5 -35.5zM662 50q0 -21 -14.5 -35t-35.5 -14q-20 0 -34.5 14t-14.5 35q0 20 14.5 34.5t34.5 14.5q21 0 35.5 -14.5t14.5 -34.5zM340 274q0 -21 -14.5 -35.5t-34.5 -14.5t-34.5 14.5t-14.5 35.5
q0 20 14.5 34.5t34.5 14.5t34.5 -14.5t14.5 -34.5zM276 199q0 -20 -14.5 -34.5t-34.5 -14.5q-21 0 -35.5 14.5t-14.5 34.5t14.5 34.5t35.5 14.5q20 0 34.5 -14.5t14.5 -34.5zM212 124q0 -20 -14.5 -34.5t-35.5 -14.5q-20 0 -34.5 14.5t-14.5 34.5q0 21 14.5 35.5t34.5 14.5
q21 0 35.5 -14.5t14.5 -35.5zM147 50q0 -21 -14.5 -35t-34.5 -14t-34.5 14t-14.5 35q0 20 14.5 34.5t34.5 14.5t34.5 -14.5t14.5 -34.5z" />
    <glyph glyph-name="y" unicode="y" horiz-adv-x="681" 
d="M643 640q0 -20 -14.5 -34.5t-35.5 -14.5q-20 0 -34.5 14.5t-14.5 34.5t14.5 34.5t34.5 14.5q21 0 35.5 -14.5t14.5 -34.5zM577 566q0 -20 -14.5 -34.5t-34.5 -14.5t-34.5 14.5t-14.5 34.5q0 21 14.5 35.5t34.5 14.5t34.5 -14.5t14.5 -35.5zM512 493q0 -21 -14.5 -35.5
t-34.5 -14.5q-21 0 -35 14.5t-14 35.5q0 20 14.5 34.5t34.5 14.5t34.5 -14.5t14.5 -34.5zM447 419q0 -20 -14.5 -34.5t-35.5 -14.5q-20 0 -34.5 14.5t-14.5 34.5t14.5 34.5t34.5 14.5q21 0 35.5 -14.5t14.5 -34.5zM124 643q0 -20 -14.5 -34.5t-34.5 -14.5t-34.5 14.5
t-14.5 34.5t14.5 34.5t34.5 14.5t34.5 -14.5t14.5 -34.5zM190 569q0 -20 -14.5 -34.5t-35.5 -14.5q-20 0 -34.5 14.5t-14.5 34.5q0 21 14.5 35.5t34.5 14.5q21 0 35.5 -14.5t14.5 -35.5zM255 496q0 -21 -14.5 -35.5t-34.5 -14.5q-21 0 -35.5 14.5t-14.5 35.5q0 20 14.5 34.5
t35.5 14.5q20 0 34.5 -14.5t14.5 -34.5zM320 422q0 -20 -14.5 -34.5t-34.5 -14.5t-34.5 14.5t-14.5 34.5t14.5 34.5t34.5 14.5t34.5 -14.5t14.5 -34.5zM383 345q0 -20 -14.5 -34.5t-34.5 -14.5t-34.5 14.5t-14.5 34.5q0 21 14.5 35t34.5 14q21 0 35 -14.5t14 -34.5zM382 247
q0 -21 -14.5 -35.5t-34.5 -14.5q-21 0 -35.5 14.5t-14.5 35.5q0 20 14.5 34.5t35.5 14.5q20 0 34.5 -14.5t14.5 -34.5zM382 148q0 -20 -14.5 -34.5t-34.5 -14.5q-21 0 -35.5 14.5t-14.5 34.5t14.5 34.5t35.5 14.5q20 0 34.5 -14.5t14.5 -34.5zM382 50q0 -21 -14.5 -35.5
t-34.5 -14.5q-21 0 -35.5 14.5t-14.5 35.5q0 20 14.5 34.5t35.5 14.5q20 0 34.5 -14.5t14.5 -34.5z" />
    <glyph glyph-name="z" unicode="z" horiz-adv-x="684" 
d="M646 644q0 -21 -14.5 -35.5t-35.5 -14.5q-20 0 -34.5 14.5t-14.5 35.5q0 20 14.5 34.5t34.5 14.5q21 0 35.5 -14.5t14.5 -34.5zM540 648q0 -18 -13 -31t-31 -13t-31 13t-13 31t13 31t31 13t31 -13t13 -31zM579 567q0 -19 -13.5 -32t-31.5 -13t-31 13t-13 32q0 18 13 31
t31 13q19 0 32 -13t13 -31zM447 644q0 -20 -14.5 -34.5t-35.5 -14.5q-20 0 -34.5 14.5t-14.5 34.5t14.5 34.5t34.5 14.5q21 0 35.5 -14.5t14.5 -34.5zM515 496q0 -20 -14.5 -34.5t-34.5 -14.5q-21 0 -35.5 14.5t-14.5 34.5t14.5 34.5t35.5 14.5q20 0 34.5 -14.5t14.5 -34.5z
M348 644q0 -20 -14.5 -34.5t-34.5 -14.5q-21 0 -35.5 14.5t-14.5 34.5t14.5 34.5t35.5 14.5q20 0 34.5 -14.5t14.5 -34.5zM249 644q0 -20 -14.5 -34.5t-34.5 -14.5t-34.5 14.5t-14.5 34.5t14.5 34.5t34.5 14.5t34.5 -14.5t14.5 -34.5zM450 422q0 -20 -14.5 -34.5
t-35.5 -14.5q-20 0 -34.5 14.5t-14.5 34.5q0 21 14.5 35.5t34.5 14.5q21 0 35.5 -14.5t14.5 -35.5zM151 644q0 -20 -14.5 -34.5t-35.5 -14.5q-20 0 -34.5 14.5t-14.5 34.5t14.5 34.5t34.5 14.5q21 0 35.5 -14.5t14.5 -34.5zM384 349q0 -21 -14.5 -35.5t-34.5 -14.5
t-34.5 14.5t-14.5 35.5q0 20 14.5 34.5t34.5 14.5t34.5 -14.5t14.5 -34.5zM621 50q0 -20 -14.5 -34.5t-34.5 -14.5q-21 0 -35.5 14.5t-14.5 34.5q0 21 14.5 35.5t35.5 14.5q20 0 34.5 -14.5t14.5 -35.5zM320 274q0 -20 -14.5 -34.5t-34.5 -14.5q-21 0 -35.5 14.5t-14.5 34.5
t14.5 34.5t35.5 14.5q20 0 34.5 -14.5t14.5 -34.5zM522 50q0 -20 -14.5 -34.5t-34.5 -14.5t-34.5 14.5t-14.5 34.5q0 21 14.5 35.5t34.5 14.5t34.5 -14.5t14.5 -35.5zM423 50q0 -20 -14.5 -34.5t-34.5 -14.5t-34.5 14.5t-14.5 34.5q0 21 14.5 35.5t34.5 14.5t34.5 -14.5
t14.5 -35.5zM256 199q0 -20 -14.5 -34.5t-35.5 -14.5q-20 0 -34.5 14.5t-14.5 35.5q0 20 14.5 34.5t34.5 14.5q21 0 35.5 -14.5t14.5 -35.5zM324 50q0 -20 -14 -34.5t-35 -14.5q-20 0 -34.5 14.5t-14.5 34.5q0 21 14.5 35.5t34.5 14.5q21 0 35 -14.5t14 -35.5zM29 50
q0 21 14.5 35.5t34.5 14.5t34.5 -14.5t14.5 -35.5q0 -20 -14.5 -34.5t-34.5 -14.5t-34.5 14.5t-14.5 34.5zM134 46q0 18 13 31t31 13t31 -13t13 -31q0 -19 -13 -32t-31 -13t-31 13t-13 32zM96 127q0 19 13 32t31 13t31 -13t13 -32q0 -18 -13 -31t-31 -13t-31 13t-13 31z" />
    <glyph glyph-name="braceleft" unicode="{" horiz-adv-x="395" 
d="M334 765q0 -20 -14.5 -34.5t-35.5 -14.5q-20 0 -34.5 14.5t-14.5 34.5t14.5 34.5t34.5 14.5q21 0 35.5 -14.5t14.5 -34.5zM258 705q0 -20 -14.5 -34.5t-34.5 -14.5t-34.5 14.5t-14.5 34.5t14.5 34.5t34.5 14.5t34.5 -14.5t14.5 -34.5zM249 606q0 -20 -14.5 -34.5
t-34.5 -14.5q-21 0 -35.5 14.5t-14.5 34.5t14.5 34.5t35.5 14.5q20 0 34.5 -14.5t14.5 -34.5zM246 507q0 -20 -14.5 -34.5t-34.5 -14.5q-21 0 -35.5 14.5t-14.5 34.5q0 21 14.5 35.5t35.5 14.5q20 0 34.5 -14.5t14.5 -35.5zM216 414q0 -21 -14.5 -35t-34.5 -14t-34.5 14
t-14.5 35q0 20 14.5 34.5t34.5 14.5t34.5 -14.5t14.5 -34.5zM146 342q0 -20 -14.5 -34.5t-35.5 -14.5q-20 0 -34.5 14.5t-14.5 34.5t14.5 34.5t34.5 14.5q21 0 35.5 -14.5t14.5 -34.5zM216 270q0 -20 -14.5 -34.5t-34.5 -14.5t-34.5 14.5t-14.5 34.5t14.5 34.5t34.5 14.5
t34.5 -14.5t14.5 -34.5zM246 176q0 -20 -14.5 -34.5t-34.5 -14.5q-21 0 -35.5 14.5t-14.5 34.5q0 21 14.5 35t35.5 14q20 0 34.5 -14t14.5 -35zM249 77q0 -20 -14.5 -34.5t-34.5 -14.5q-21 0 -35.5 14.5t-14.5 34.5q0 21 14.5 35.5t35.5 14.5q20 0 34.5 -14.5t14.5 -35.5z
M334 -81q0 -21 -14.5 -35.5t-35.5 -14.5q-20 0 -34.5 14.5t-14.5 35.5q0 20 14.5 34.5t34.5 14.5q21 0 35.5 -14.5t14.5 -34.5zM258 -21q0 -21 -14.5 -35t-34.5 -14t-34.5 14t-14.5 35q0 20 14.5 34.5t34.5 14.5t34.5 -14.5t14.5 -34.5z" />
    <glyph glyph-name="braceright" unicode="}" horiz-adv-x="395" 
d="M47 765q0 -20 14.5 -34.5t34.5 -14.5q21 0 35.5 14.5t14.5 34.5t-14.5 34.5t-35.5 14.5q-20 0 -34.5 -14.5t-14.5 -34.5zM123 705q0 -20 14 -34.5t35 -14.5q20 0 34.5 14.5t14.5 34.5t-14.5 34.5t-34.5 14.5q-21 0 -35 -14.5t-14 -34.5zM132 606q0 -20 14.5 -34.5
t34.5 -14.5t34.5 14.5t14.5 34.5t-14.5 34.5t-34.5 14.5t-34.5 -14.5t-14.5 -34.5zM135 507q0 -20 14.5 -34.5t34.5 -14.5t34.5 14.5t14.5 34.5q0 21 -14.5 35.5t-34.5 14.5t-34.5 -14.5t-14.5 -35.5zM165 414q0 -21 14.5 -35t34.5 -14t34.5 14t14.5 35q0 20 -14.5 34.5
t-34.5 14.5t-34.5 -14.5t-14.5 -34.5zM235 342q0 -20 14.5 -34.5t34.5 -14.5q21 0 35.5 14.5t14.5 34.5t-14.5 34.5t-35.5 14.5q-20 0 -34.5 -14.5t-14.5 -34.5zM165 270q0 -20 14.5 -34.5t34.5 -14.5t34.5 14.5t14.5 34.5t-14.5 34.5t-34.5 14.5t-34.5 -14.5t-14.5 -34.5z
M135 176q0 -20 14.5 -34.5t34.5 -14.5t34.5 14.5t14.5 34.5q0 21 -14.5 35t-34.5 14t-34.5 -14t-14.5 -35zM132 77q0 -20 14.5 -34.5t34.5 -14.5t34.5 14.5t14.5 34.5q0 21 -14.5 35.5t-34.5 14.5t-34.5 -14.5t-14.5 -35.5zM47 -81q0 -21 14.5 -35.5t34.5 -14.5
q21 0 35.5 14.5t14.5 35.5q0 20 -14.5 34.5t-35.5 14.5q-20 0 -34.5 -14.5t-14.5 -34.5zM123 -21q0 -21 14 -35t35 -14q20 0 34.5 14t14.5 35q0 20 -14.5 34.5t-34.5 14.5q-21 0 -35 -14.5t-14 -34.5z" />
    <glyph glyph-name="asciitilde" unicode="~" horiz-adv-x="565" 
d="M564 325q-1 -20 -16 -34t-35 -13q-21 1 -34.5 16.5t-12.5 35.5t16.5 34t35.5 13t34 -16.5t12 -35.5zM473 290q-1 -21 -16.5 -34.5t-35.5 -12.5t-34 16.5t-12 35.5q1 20 16 34t35 13q21 -2 34.5 -17t12.5 -35zM376 312q-1 -21 -16 -34.5t-36 -12.5q-20 1 -33.5 16.5
t-12.5 35.5t16 33.5t36 12.5q20 -1 33.5 -16t12.5 -35zM288 351q-1 -20 -16.5 -34t-35.5 -12q-20 1 -34 16t-12 35q1 21 16 34.5t35 12.5q21 -1 34.5 -16.5t12.5 -35.5zM193 381q-1 -20 -16 -33.5t-35 -12.5q-21 1 -34.5 16t-12.5 36q1 20 16.5 33.5t35.5 12.5t33.5 -16
t12.5 -36zM99 354q-1 -20 -16 -33.5t-36 -12.5q-20 1 -33.5 16t-12.5 36q1 20 16 33.5t35 12.5q21 -1 34.5 -16t12.5 -36z" />
    <glyph glyph-name="Adieresis" unicode="&#xc4;" horiz-adv-x="667" 
d="M406 643q0 -20 -14.5 -34.5t-34.5 -14.5q-21 0 -35.5 14.5t-14.5 34.5t14.5 34.5t35.5 14.5q20 0 34.5 -14.5t14.5 -34.5zM406 475zM324 482q2 -20 -10 -35.5t-31 -17.5q-20 -2 -35 10t-18 31q-2 20 10 35.5t31 17.5q20 2 35.5 -10t17.5 -31zM501 216q0 -20 -14.5 -34
t-33.5 -14q-20 0 -34.5 14t-14.5 34t14.5 34.5t34.5 14.5q19 0 33.5 -14.5t14.5 -34.5zM287 395q2 -20 -10 -35.5t-31 -17.5t-34.5 10t-18.5 31q-2 20 10 35.5t31 17.5q20 2 35.5 -10t17.5 -31zM405 216q0 -20 -14 -34t-34 -14t-34 14.5t-14 33.5q0 20 14 34.5t34 14.5
t34 -14.5t14 -34.5zM250 308q3 -20 -9.5 -35.5t-31.5 -17.5t-34.5 10t-18.5 31q-2 20 10 35t31 18q20 2 35.5 -10t17.5 -31zM310 216q0 -19 -14.5 -33.5t-34.5 -14.5q-19 0 -33.5 14.5t-14.5 33.5q0 20 14.5 34.5t33.5 14.5q20 0 34.5 -14.5t14.5 -34.5zM213 221
q3 -20 -9.5 -35.5t-31.5 -17.5t-34.5 10t-18.5 31q-2 19 10 34.5t31 18.5q20 2 35.5 -10t17.5 -31zM139 47q3 -19 -9.5 -34.5t-31.5 -17.5q-19 -3 -34.5 9.5t-18.5 31.5q-2 19 10 34.5t32 18.5q19 2 34.5 -10t17.5 -32zM357 566q2 -18 -9.5 -32.5t-29.5 -17.5
q-19 -2 -33.5 9.5t-16.5 29.5q-2 19 9.5 33.5t29.5 16.5q18 3 33 -8.5t17 -30.5zM178 134q2 -19 -10 -34.5t-32 -18.5q-19 -2 -34.5 10t-17.5 32q-3 19 9.5 34.5t31.5 17.5q19 3 34.5 -9.5t18.5 -31.5zM308 476zM389 482q-2 -19 10 -34.5t32 -18.5q19 -2 34.5 10t17.5 31
q3 20 -9.5 35.5t-31.5 17.5t-34.5 -10t-18.5 -31zM426 395q-2 -20 10 -35.5t32 -17.5q19 -2 34.5 10t17.5 31q3 20 -9.5 35.5t-31.5 17.5t-34.5 -10t-18.5 -31zM463 308q-2 -20 10 -35.5t32 -17.5q19 -2 34.5 10t17.5 31q3 20 -9.5 35.5t-31.5 17.5t-34.5 -10t-18.5 -31z
M500 221q-2 -20 10 -35.5t32 -17.5q19 -2 34.5 10t17.5 31q3 20 -9.5 35.5t-31.5 17.5t-34.5 -10t-18.5 -31zM574 48q-2 -20 10 -35.5t31 -17.5q20 -3 35.5 9.5t17.5 31.5q3 19 -9.5 34.5t-31.5 18.5q-19 2 -34.5 -10t-18.5 -31zM356 566q-2 -18 9.5 -32.5t30.5 -17.5
q18 -2 32.5 9.5t17.5 30.5q2 18 -9.5 32.5t-30.5 17.5q-18 2 -32.5 -9.5t-17.5 -30.5zM536 134q-3 -19 9.5 -34.5t31.5 -17.5q19 -3 34.5 9t18.5 32q2 19 -10 34.5t-31 17.5q-20 3 -35.5 -9t-17.5 -32zM495 806q0 -18 -13 -31t-31 -13t-31 13t-13 31t13 31t31 13t31 -13
t13 -31zM309 806q0 -18 -13 -31t-32 -13q-18 0 -31 13t-13 31t13 31t31 13q19 0 32 -13t13 -31z" />
    <glyph glyph-name="Aring" unicode="&#xc5;" horiz-adv-x="667" 
d="M406 643q0 -20 -14.5 -34.5t-34.5 -14.5q-21 0 -35.5 14.5t-14.5 34.5t14.5 34.5t35.5 14.5q20 0 34.5 -14.5t14.5 -34.5zM406 475zM324 482q2 -20 -10 -35.5t-31 -17.5q-20 -2 -35 10t-18 31q-2 20 10 35.5t31 17.5q20 2 35.5 -10t17.5 -31zM501 216q0 -20 -14.5 -34
t-33.5 -14q-20 0 -34.5 14t-14.5 34t14.5 34.5t34.5 14.5q19 0 33.5 -14.5t14.5 -34.5zM287 395q2 -20 -10 -35.5t-31 -17.5t-34.5 10t-18.5 31q-2 20 10 35.5t31 17.5q20 2 35.5 -10t17.5 -31zM405 216q0 -20 -14 -34t-34 -14t-34 14.5t-14 33.5q0 20 14 34.5t34 14.5
t34 -14.5t14 -34.5zM250 308q3 -20 -9.5 -35.5t-31.5 -17.5t-34.5 10t-18.5 31q-2 20 10 35t31 18q20 2 35.5 -10t17.5 -31zM310 216q0 -19 -14.5 -33.5t-34.5 -14.5q-19 0 -33.5 14.5t-14.5 33.5q0 20 14.5 34.5t33.5 14.5q20 0 34.5 -14.5t14.5 -34.5zM213 221
q3 -20 -9.5 -35.5t-31.5 -17.5t-34.5 10t-18.5 31q-2 19 10 34.5t31 18.5q20 2 35.5 -10t17.5 -31zM139 47q3 -19 -9.5 -34.5t-31.5 -17.5q-19 -3 -34.5 9.5t-18.5 31.5q-2 19 10 34.5t32 18.5q19 2 34.5 -10t17.5 -32zM357 566q2 -18 -9.5 -32.5t-29.5 -17.5
q-19 -2 -33.5 9.5t-16.5 29.5q-2 19 9.5 33.5t29.5 16.5q18 3 33 -8.5t17 -30.5zM178 134q2 -19 -10 -34.5t-32 -18.5q-19 -2 -34.5 10t-17.5 32q-3 19 9.5 34.5t31.5 17.5q19 3 34.5 -9.5t18.5 -31.5zM308 476zM389 482q-2 -19 10 -34.5t32 -18.5q19 -2 34.5 10t17.5 31
q3 20 -9.5 35.5t-31.5 17.5t-34.5 -10t-18.5 -31zM426 395q-2 -20 10 -35.5t32 -17.5q19 -2 34.5 10t17.5 31q3 20 -9.5 35.5t-31.5 17.5t-34.5 -10t-18.5 -31zM463 308q-2 -20 10 -35.5t32 -17.5q19 -2 34.5 10t17.5 31q3 20 -9.5 35.5t-31.5 17.5t-34.5 -10t-18.5 -31z
M500 221q-2 -20 10 -35.5t32 -17.5q19 -2 34.5 10t17.5 31q3 20 -9.5 35.5t-31.5 17.5t-34.5 -10t-18.5 -31zM574 48q-2 -20 10 -35.5t31 -17.5q20 -3 35.5 9.5t17.5 31.5q3 19 -9.5 34.5t-31.5 18.5q-19 2 -34.5 -10t-18.5 -31zM356 566q-2 -18 9.5 -32.5t30.5 -17.5
q18 -2 32.5 9.5t17.5 30.5q2 18 -9.5 32.5t-30.5 17.5q-18 2 -32.5 -9.5t-17.5 -30.5zM536 134q-3 -19 9.5 -34.5t31.5 -17.5q19 -3 34.5 9t18.5 32q2 19 -10 34.5t-31 17.5q-20 3 -35.5 -9t-17.5 -32zM474 792q0 -16 -11.5 -27.5t-28.5 -11.5q-16 0 -27.5 11.5t-11.5 27.5
q0 17 11.5 28.5t27.5 11.5q17 0 28.5 -11.5t11.5 -28.5zM316 792q0 -16 -11.5 -27.5t-27.5 -11.5t-28 11.5t-12 27.5q0 17 12 28.5t28 11.5t27.5 -11.5t11.5 -28.5zM434 860q0 -16 -11.5 -27.5t-27.5 -11.5t-27.5 11.5t-11.5 28.5q0 16 11.5 27.5t27.5 11.5t27.5 -11.5
t11.5 -28.5zM356 724q0 -16 -11.5 -27.5t-28.5 -11.5q-16 0 -27.5 11.5t-11.5 27.5t11.5 27.5t27.5 11.5q17 0 28.5 -11.5t11.5 -27.5zM316 900q17 0 28.5 -11.5t11.5 -27.5q0 -17 -11.5 -28.5t-28.5 -11.5q-16 0 -27.5 11.5t-11.5 27.5q0 17 11.5 28.5t27.5 11.5zM395 763
q16 0 27.5 -11.5t11.5 -27.5t-11.5 -27.5t-27.5 -11.5t-27.5 11.5t-11.5 27.5t11.5 27.5t27.5 11.5z" />
    <glyph glyph-name="Ccedilla" unicode="&#xc7;" horiz-adv-x="671" 
d="M636 594q0 -20 -14 -34.5t-35 -14.5q-20 0 -34.5 14t-14.5 35q0 20 14.5 34.5t34.5 14.5t34.5 -14.5t14.5 -34.5zM546 632q0 -20 -14.5 -34.5t-34.5 -14.5q-21 0 -35.5 14t-14.5 35q0 20 14.5 34.5t34.5 14.5t35 -14.5t15 -34.5zM448 645q0 -20 -14.5 -34.5t-34.5 -14.5
q-21 0 -35.5 14t-14.5 35q0 20 14.5 34.5t34.5 14.5q21 0 35.5 -14.5t14.5 -34.5zM349 632q0 -21 -14.5 -35t-34.5 -14q-21 0 -35 14.5t-14 34.5t14.5 34.5t34.5 14.5t34.5 -14.5t14.5 -34.5zM258 594q0 -21 -14.5 -35t-34.5 -14t-34.5 14.5t-14.5 34.5t14.5 34.5t34.5 14.5
q21 0 35 -14.5t14 -34.5zM636 90q0 -20 -14.5 -34.5t-34.5 -14.5q-21 0 -35.5 14t-14.5 35q0 20 14.5 34.5t34.5 14.5t35 -14.5t15 -34.5zM185 528q0 -20 -14.5 -34.5t-34.5 -14.5t-34.5 15t-14.5 35t14.5 34.5t34.5 14.5q21 0 35 -14.5t14 -35.5zM545 51q0 -20 -14.5 -34.5
t-34.5 -14.5t-34.5 14.5t-14.5 34.5t14 34.5t35 14.5q20 0 34.5 -14t14.5 -35zM139 441q0 -20 -14.5 -34.5t-34.5 -14.5q-21 0 -35 14.5t-14 35.5q0 20 14.5 34.5t34.5 14.5t34.5 -15t14.5 -35zM447 37q0 -20 -14.5 -34.5t-34.5 -14.5t-34.5 14.5t-14.5 34.5q0 21 14.5 35
t34.5 14q21 0 35 -14.5t14 -34.5zM129 342q0 -20 -14.5 -34.5t-35.5 -14.5q-20 0 -34.5 14.5t-14.5 35.5q0 20 14.5 34.5t35.5 14.5q20 0 34.5 -14.5t14.5 -35.5zM350 51q0 -20 -14.5 -34.5t-35.5 -14.5q-20 0 -34.5 14.5t-14.5 34.5q0 21 14.5 35t35.5 14q20 0 34.5 -14.5
t14.5 -34.5zM141 243q0 -20 -14.5 -34.5t-34.5 -14.5t-34.5 14.5t-14.5 35.5q0 20 14.5 34.5t34.5 14.5q21 0 35 -15t14 -35zM259 90q0 -21 -14.5 -35t-34.5 -14q-21 0 -35 14.5t-14 34.5t14.5 34.5t34.5 14.5t34.5 -14.5t14.5 -34.5zM187 155q0 -20 -14.5 -34.5
t-35.5 -14.5q-20 0 -34.5 15t-14.5 35t14.5 34.5t35.5 14.5q20 0 34.5 -14.5t14.5 -35.5zM376 -26q0 -15 -10.5 -25.5t-25.5 -10.5t-25.5 10.5t-10.5 25.5t10.5 25.5t25.5 10.5t25.5 -10.5t10.5 -25.5zM423 -79q0 -15 -10.5 -25.5t-24.5 -10.5q-15 0 -25.5 10.5t-10.5 25.5
t10.5 25.5t25.5 10.5q14 0 24.5 -10.5t10.5 -25.5zM387 -141q0 -15 -10.5 -25.5t-25.5 -10.5t-25.5 10.5t-10.5 25.5t10.5 25.5t25.5 10.5t25.5 -10.5t10.5 -25.5zM316 -144q0 -15 -10.5 -25.5t-25.5 -10.5t-25.5 10.5t-10.5 25.5t10.5 25.5t25.5 10.5q14 0 25 -10.5
t11 -25.5z" />
    <glyph glyph-name="Eacute" unicode="&#xc9;" horiz-adv-x="500" 
d="M446 639q0 -21 -14.5 -35.5t-34.5 -14.5t-34.5 14.5t-14.5 35.5q0 20 14.5 34.5t34.5 14.5t34.5 -14.5t14.5 -34.5zM347 639q0 -21 -14.5 -35.5t-34.5 -14.5t-34.5 14.5t-14.5 35.5q0 20 14.5 34.5t34.5 14.5t34.5 -14.5t14.5 -34.5zM249 639q0 -21 -14.5 -35.5
t-35.5 -14.5q-20 0 -34.5 14.5t-14.5 35.5q0 20 14.5 34.5t34.5 14.5q21 0 35.5 -14.5t14.5 -34.5zM446 343q0 -20 -14.5 -34.5t-34.5 -14.5t-34.5 14.5t-14.5 34.5t14.5 34.5t34.5 14.5t34.5 -14.5t14.5 -34.5zM150 639q0 -21 -14.5 -35.5t-34.5 -14.5q-21 0 -35.5 14.5
t-14.5 35.5q0 20 14.5 34.5t35.5 14.5q20 0 34.5 -14.5t14.5 -34.5zM347 343q0 -20 -14.5 -34.5t-34.5 -14.5t-34.5 14.5t-14.5 34.5t14.5 34.5t34.5 14.5t34.5 -14.5t14.5 -34.5zM150 540q0 -20 -14.5 -34.5t-34.5 -14.5q-21 0 -35.5 14.5t-14.5 34.5t14.5 34.5t35.5 14.5
q20 0 34.5 -14.5t14.5 -34.5zM249 343q0 -20 -14.5 -34.5t-35.5 -14.5q-20 0 -34.5 14.5t-14.5 34.5t14.5 34.5t34.5 14.5q21 0 35.5 -14.5t14.5 -34.5zM150 442q0 -21 -14.5 -35.5t-34.5 -14.5q-21 0 -35.5 14.5t-14.5 35.5q0 20 14.5 34.5t35.5 14.5q20 0 34.5 -14.5
t14.5 -34.5zM446 48q0 -21 -14.5 -35.5t-34.5 -14.5t-34.5 14.5t-14.5 35.5q0 20 14.5 34.5t34.5 14.5t34.5 -14.5t14.5 -34.5zM150 343q0 -20 -14.5 -34.5t-34.5 -14.5q-21 0 -35.5 14.5t-14.5 34.5t14.5 34.5t35.5 14.5q20 0 34.5 -14.5t14.5 -34.5zM347 48
q0 -21 -14.5 -35.5t-34.5 -14.5t-34.5 14.5t-14.5 35.5q0 20 14.5 34.5t34.5 14.5t34.5 -14.5t14.5 -34.5zM150 245q0 -21 -14.5 -35.5t-34.5 -14.5q-21 0 -35.5 14.5t-14.5 35.5q0 20 14.5 34.5t35.5 14.5q20 0 34.5 -14.5t14.5 -34.5zM249 48q0 -21 -14.5 -35.5
t-35.5 -14.5q-20 0 -34.5 14.5t-14.5 35.5q0 20 14.5 34.5t34.5 14.5q21 0 35.5 -14.5t14.5 -34.5zM150 146q0 -20 -14.5 -34.5t-34.5 -14.5q-21 0 -35.5 14.5t-14.5 34.5t14.5 34.5t35.5 14.5q20 0 34.5 -14.5t14.5 -34.5zM150 48q0 -21 -14.5 -35.5t-34.5 -14.5
q-21 0 -35.5 14.5t-14.5 35.5q0 20 14.5 34.5t35.5 14.5q20 0 34.5 -14.5t14.5 -34.5zM321 855q0 -20 -14.5 -34.5t-35.5 -14.5q-20 0 -34.5 14.5t-14.5 34.5t14.5 34.5t34.5 14.5q21 0 35.5 -14.5t14.5 -34.5zM266 777q0 -19 -13 -32t-31 -13q-19 0 -32 13t-13 32
q0 18 13 31t32 13q18 0 31 -13t13 -31z" />
    <glyph glyph-name="Ntilde" unicode="&#xd1;" horiz-adv-x="781" 
d="M711 637q0 -20 -14.5 -34.5t-34.5 -14.5t-34.5 14.5t-14.5 34.5q0 21 14.5 35.5t34.5 14.5t34.5 -14.5t14.5 -35.5zM711 539q0 -20 -14.5 -34.5t-34.5 -14.5t-34.5 14.5t-14.5 34.5t14.5 34.5t34.5 14.5t34.5 -14.5t14.5 -34.5zM711 440q0 -20 -14.5 -34.5t-34.5 -14.5
t-34.5 14.5t-14.5 34.5q0 21 14.5 35.5t34.5 14.5t34.5 -14.5t14.5 -35.5zM711 342q0 -20 -14.5 -34.5t-34.5 -14.5t-34.5 14.5t-14.5 34.5t14.5 34.5t34.5 14.5t34.5 -14.5t14.5 -34.5zM711 243q0 -20 -14.5 -34.5t-34.5 -14.5t-34.5 14.5t-14.5 34.5q0 21 14.5 35.5
t34.5 14.5t34.5 -14.5t14.5 -35.5zM303 490q0 -21 -14.5 -35.5t-34.5 -14.5q-21 0 -35.5 14.5t-14.5 35.5q0 20 14.5 34.5t35.5 14.5q20 0 34.5 -14.5t14.5 -34.5zM371 416q0 -21 -14.5 -35t-34.5 -14q-21 0 -35 14t-14 35q0 20 14 34.5t35 14.5q20 0 34.5 -14.5t14.5 -34.5
zM439 342q0 -20 -14.5 -34.5t-34.5 -14.5t-34.5 14.5t-14.5 34.5t14.5 34.5t34.5 14.5t34.5 -14.5t14.5 -34.5zM507 268q0 -20 -14.5 -34.5t-34.5 -14.5t-34.5 14.5t-14.5 34.5t14.5 34.5t34.5 14.5t34.5 -14.5t14.5 -34.5zM575 194q0 -20 -14.5 -34.5t-34.5 -14.5
t-34.5 14.5t-14.5 34.5t14.5 34.5t34.5 14.5t34.5 -14.5t14.5 -34.5zM167 440q0 -20 -14.5 -34.5t-34.5 -14.5q-21 0 -35.5 14.5t-14.5 34.5q0 21 14.5 35.5t35.5 14.5q20 0 34.5 -14.5t14.5 -35.5zM167 342q0 -20 -14.5 -34.5t-34.5 -14.5q-21 0 -35.5 14.5t-14.5 34.5
t14.5 34.5t35.5 14.5q20 0 34.5 -14.5t14.5 -34.5zM167 243q0 -20 -14.5 -34.5t-34.5 -14.5q-21 0 -35.5 14.5t-14.5 34.5q0 21 14.5 35.5t35.5 14.5q20 0 34.5 -14.5t14.5 -35.5zM167 145q0 -20 -14.5 -34.5t-34.5 -14.5q-21 0 -35.5 14.5t-14.5 34.5t14.5 34.5t35.5 14.5
q20 0 34.5 -14.5t14.5 -34.5zM167 46q0 -20 -14.5 -34.5t-34.5 -14.5q-21 0 -35.5 14.5t-14.5 34.5q0 21 14.5 35.5t35.5 14.5q20 0 34.5 -14.5t14.5 -35.5zM167 637q0 -20 -14.5 -34.5t-34.5 -14.5q-21 0 -35.5 14.5t-14.5 34.5q0 21 14.5 35.5t35.5 14.5q20 0 34.5 -14.5
t14.5 -35.5zM233 566q0 -17 -12 -29.5t-30 -12.5q-17 0 -29 12.5t-12 29.5t12 29.5t29 12.5q18 0 30 -12.5t12 -29.5zM153 539q0 -17 -12.5 -29.5t-29.5 -12.5t-29.5 12.5t-12.5 29.5t12.5 29.5t29.5 12.5t29.5 -12.5t12.5 -29.5zM613 46q0 21 14.5 35.5t34.5 14.5
t34.5 -14.5t14.5 -35.5q0 -20 -14.5 -34.5t-34.5 -14.5t-34.5 14.5t-14.5 34.5zM546 118q0 17 12.5 29.5t29.5 12.5t29.5 -12.5t12.5 -29.5q0 -18 -12.5 -30t-29.5 -12t-29.5 12t-12.5 30zM627 145q0 17 12 29t30 12q17 0 29.5 -12t12.5 -29q0 -18 -12.5 -30t-29.5 -12
q-18 0 -30 12t-12 30zM549 824q-1 -17 -13.5 -27.5t-29.5 -9.5q-16 1 -27 13.5t-10 28.5q1 17 14 28t29 9q16 -1 27 -13.5t10 -28.5zM391 829q-1 -18 -15 -30t-32 -11q-19 2 -31 15.5t-11 32.5q2 18 16 30t32 11q18 -2 30 -15.5t11 -32.5zM306 801q-1 -16 -13.5 -27
t-28.5 -10q-17 1 -27.5 13.5t-9.5 29.5q1 16 13.5 27t28.5 10q17 -2 28 -14.5t9 -28.5zM473 795q2 18 -10.5 32t-30.5 15t-32 -11t-15 -30t11 -32t30 -15q18 -2 32 10.5t15 30.5z" />
    <glyph glyph-name="Odieresis" unicode="&#xd6;" horiz-adv-x="823" 
d="M728 533q0 -20 -14 -35t-35 -15q-20 0 -34.5 14.5t-14.5 34.5q0 21 14.5 35.5t34.5 14.5t34.5 -14.5t14.5 -34.5zM655 598q0 -20 -14 -34.5t-35 -14.5q-20 0 -34.5 14t-14.5 35q0 20 14.5 34.5t34.5 14.5t34.5 -14.5t14.5 -34.5zM775 446q0 -21 -14.5 -35.5t-34.5 -14.5
q-21 0 -35.5 14.5t-14.5 34.5t14.5 35t34.5 15t35 -14.5t15 -34.5zM565 636q0 -20 -14.5 -34.5t-35.5 -14.5q-20 0 -34.5 14t-14.5 35q0 20 14.5 34.5t34.5 14.5t35 -14.5t15 -34.5zM785 347q0 -21 -14.5 -35.5t-34.5 -14.5t-35 14.5t-15 34.5t14.5 35t34.5 15
q21 0 35.5 -14.5t14.5 -34.5zM467 649q0 -20 -14.5 -34.5t-34.5 -14.5q-21 0 -35.5 14t-14.5 35q0 20 14.5 34.5t34.5 14.5q21 0 35.5 -14.5t14.5 -34.5zM772 248q0 -21 -14 -35.5t-35 -14.5q-20 0 -34.5 14.5t-14.5 34.5t14.5 35t34.5 15t34.5 -14.5t14.5 -34.5zM368 636
q0 -21 -14.5 -35t-34.5 -14q-21 0 -35 14.5t-14 34.5t14.5 34.5t34.5 14.5t34.5 -14.5t14.5 -34.5zM727 160q0 -20 -14.5 -35t-34.5 -15t-34.5 14.5t-14.5 34.5q0 21 14 35.5t35 14.5q20 0 34.5 -14.5t14.5 -34.5zM277 598q0 -21 -14.5 -35t-34.5 -14t-34.5 14.5t-14.5 34.5
t14.5 34.5t34.5 14.5q21 0 35 -14.5t14 -34.5zM654 94q0 -20 -14 -34.5t-35 -14.5q-20 0 -34.5 14t-14.5 35q0 20 14.5 34.5t34.5 14.5t34.5 -14.5t14.5 -34.5zM204 532q0 -20 -14.5 -34.5t-34.5 -14.5q-21 0 -35 15t-14 35t14.5 34.5t34.5 14.5t34.5 -14.5t14.5 -35.5z
M564 55q0 -20 -14.5 -34.5t-34.5 -14.5t-34.5 14.5t-14.5 34.5t14 34.5t35 14.5q20 0 34.5 -14t14.5 -35zM158 445q0 -20 -14.5 -34.5t-34.5 -14.5q-21 0 -35 14.5t-14 35.5q0 20 14.5 34.5t34.5 14.5t34.5 -15t14.5 -35zM466 41q0 -20 -14.5 -34.5t-34.5 -14.5t-34.5 14.5
t-14.5 34.5q0 21 14.5 35t34.5 14q21 0 35 -14.5t14 -34.5zM148 346q0 -20 -14.5 -34.5t-35.5 -14.5q-20 0 -34.5 14.5t-14.5 35.5q0 20 14.5 34.5t35.5 14.5q20 0 34.5 -15t14.5 -35zM369 55q0 -20 -15 -34.5t-35 -14.5t-34.5 14.5t-14.5 34.5q0 21 14.5 35t35.5 14
q20 0 34.5 -14.5t14.5 -34.5zM160 247q0 -20 -14.5 -34.5t-34.5 -14.5q-21 0 -35 14.5t-14 35.5q0 20 14.5 34.5t34.5 14.5t34.5 -15t14.5 -35zM278 94q0 -21 -14.5 -35t-34.5 -14q-21 0 -35 14.5t-14 34.5t14.5 34.5t34.5 14.5t34.5 -14.5t14.5 -34.5zM206 159
q0 -20 -15 -34.5t-35 -14.5t-34.5 15t-14.5 35t14.5 34.5t35.5 14.5q20 0 34.5 -14.5t14.5 -35.5zM555 806q0 -18 -13 -31t-31 -13t-31 13t-13 31t13 31t31 13t31 -13t13 -31zM369 806q0 -18 -13 -31t-32 -13q-18 0 -31 13t-13 31t13 31t31 13q19 0 32 -13t13 -31z" />
    <glyph glyph-name="Udieresis" unicode="&#xdc;" horiz-adv-x="708" 
d="M611 638q0 -20 -14.5 -34.5t-35.5 -14.5q-20 0 -34.5 14.5t-14.5 34.5q0 21 14.5 35t34.5 14q21 0 35.5 -14t14.5 -35zM611 540q0 -21 -14.5 -35.5t-35.5 -14.5q-20 0 -34.5 14.5t-14.5 35.5q0 20 14.5 34.5t34.5 14.5q21 0 35.5 -14.5t14.5 -34.5zM611 441
q0 -20 -14.5 -34.5t-35.5 -14.5q-20 0 -34.5 14.5t-14.5 34.5q0 21 14.5 35t34.5 14q21 0 35.5 -14t14.5 -35zM611 343q0 -21 -14.5 -35t-35.5 -14q-20 0 -34.5 14t-14.5 35q0 20 14.5 34.5t34.5 14.5q21 0 35.5 -14.5t14.5 -34.5zM611 243q0 -20 -14.5 -34.5t-35.5 -14.5
q-20 0 -34.5 14.5t-14.5 34.5t14.5 34.5t34.5 14.5q21 0 35.5 -14.5t14.5 -34.5zM162 638q0 -20 -14.5 -34.5t-34.5 -14.5t-34.5 14.5t-14.5 34.5q0 21 14.5 35t34.5 14t34.5 -14t14.5 -35zM596 147q0 -21 -14.5 -35.5t-34.5 -14.5t-34.5 14.5t-14.5 35.5q0 20 14.5 34.5
t34.5 14.5t34.5 -14.5t14.5 -34.5zM162 540q0 -21 -14.5 -35.5t-34.5 -14.5t-34.5 14.5t-14.5 35.5q0 20 14.5 34.5t34.5 14.5t34.5 -14.5t14.5 -34.5zM531 75q0 -20 -14.5 -34.5t-34.5 -14.5q-21 0 -35 14.5t-14 34.5t14 34.5t35 14.5q20 0 34.5 -14.5t14.5 -34.5zM162 441
q0 -20 -14.5 -34.5t-34.5 -14.5t-34.5 14.5t-14.5 34.5q0 21 14.5 35t34.5 14t34.5 -14t14.5 -35zM162 343q0 -21 -14.5 -35t-34.5 -14t-34.5 14t-14.5 35q0 20 14.5 34.5t34.5 14.5t34.5 -14.5t14.5 -34.5zM436 45q0 -20 -14.5 -34.5t-35.5 -14.5q-20 0 -34.5 14.5
t-14.5 34.5q0 21 14.5 35.5t34.5 14.5q21 0 35.5 -14.5t14.5 -35.5zM162 243q0 -20 -14.5 -34.5t-34.5 -14.5t-34.5 14.5t-14.5 34.5t14.5 34.5t34.5 14.5t34.5 -14.5t14.5 -34.5zM337 45q0 -20 -14.5 -34.5t-34.5 -14.5t-34.5 14.5t-14.5 34.5q0 21 14.5 35.5t34.5 14.5
t34.5 -14.5t14.5 -35.5zM177 147q0 -21 -14.5 -35.5t-35.5 -14.5q-20 0 -34.5 14.5t-14.5 35.5q0 20 14.5 34.5t34.5 14.5q21 0 35.5 -14.5t14.5 -34.5zM242 75q0 -20 -14.5 -34.5t-34.5 -14.5q-21 0 -35.5 14.5t-14.5 34.5t14.5 34.5t35.5 14.5q20 0 34.5 -14.5t14.5 -34.5
zM476 806q0 -18 -13 -31t-31 -13t-31 13t-13 31t13 31t31 13t31 -13t13 -31zM290 806q0 -18 -13 -31t-32 -13q-18 0 -31 13t-13 31t13 31t31 13q19 0 32 -13t13 -31z" />
    <glyph glyph-name="aacute" unicode="&#xe1;" 
d="M406 643q0 -20 -14.5 -34.5t-34.5 -14.5q-21 0 -35.5 14.5t-14.5 34.5t14.5 34.5t35.5 14.5q20 0 34.5 -14.5t14.5 -34.5zM406 475zM324 482q2 -20 -10 -35.5t-31 -17.5q-20 -2 -35 10t-18 31q-2 20 10 35.5t31 17.5q20 2 35.5 -10t17.5 -31zM501 216q0 -20 -14.5 -34
t-33.5 -14q-20 0 -34.5 14t-14.5 34t14.5 34.5t34.5 14.5q19 0 33.5 -14.5t14.5 -34.5zM287 395q2 -20 -10 -35.5t-31 -17.5t-34.5 10t-18.5 31q-2 20 10 35.5t31 17.5q20 2 35.5 -10t17.5 -31zM405 216q0 -20 -14 -34t-34 -14t-34 14.5t-14 33.5q0 20 14 34.5t34 14.5
t34 -14.5t14 -34.5zM250 308q3 -20 -9.5 -35.5t-31.5 -17.5t-34.5 10t-18.5 31q-2 20 10 35t31 18q20 2 35.5 -10t17.5 -31zM310 216q0 -19 -14.5 -33.5t-34.5 -14.5q-19 0 -33.5 14.5t-14.5 33.5q0 20 14.5 34.5t33.5 14.5q20 0 34.5 -14.5t14.5 -34.5zM213 221
q3 -20 -9.5 -35.5t-31.5 -17.5t-34.5 10t-18.5 31q-2 19 10 34.5t31 18.5q20 2 35.5 -10t17.5 -31zM139 47q3 -19 -9.5 -34.5t-31.5 -17.5q-19 -3 -34.5 9.5t-18.5 31.5q-2 19 10 34.5t32 18.5q19 2 34.5 -10t17.5 -32zM357 566q2 -18 -9.5 -32.5t-29.5 -17.5
q-19 -2 -33.5 9.5t-16.5 29.5q-2 19 9.5 33.5t29.5 16.5q18 3 33 -8.5t17 -30.5zM178 134q2 -19 -10 -34.5t-32 -18.5q-19 -2 -34.5 10t-17.5 32q-3 19 9.5 34.5t31.5 17.5q19 3 34.5 -9.5t18.5 -31.5zM308 476zM389 482q-2 -19 10 -34.5t32 -18.5q19 -2 34.5 10t17.5 31
q3 20 -9.5 35.5t-31.5 17.5t-34.5 -10t-18.5 -31zM426 395q-2 -20 10 -35.5t32 -17.5q19 -2 34.5 10t17.5 31q3 20 -9.5 35.5t-31.5 17.5t-34.5 -10t-18.5 -31zM463 308q-2 -20 10 -35.5t32 -17.5q19 -2 34.5 10t17.5 31q3 20 -9.5 35.5t-31.5 17.5t-34.5 -10t-18.5 -31z
M500 221q-2 -20 10 -35.5t32 -17.5q19 -2 34.5 10t17.5 31q3 20 -9.5 35.5t-31.5 17.5t-34.5 -10t-18.5 -31zM574 48q-2 -20 10 -35.5t31 -17.5q20 -3 35.5 9.5t17.5 31.5q3 19 -9.5 34.5t-31.5 18.5q-19 2 -34.5 -10t-18.5 -31zM356 566q-2 -18 9.5 -32.5t30.5 -17.5
q18 -2 32.5 9.5t17.5 30.5q2 18 -9.5 32.5t-30.5 17.5q-18 2 -32.5 -9.5t-17.5 -30.5zM536 134q-3 -19 9.5 -34.5t31.5 -17.5q19 -3 34.5 9t18.5 32q2 19 -10 34.5t-31 17.5q-20 3 -35.5 -9t-17.5 -32zM434 855q0 -20 -14.5 -34.5t-35.5 -14.5q-20 0 -34.5 14.5t-14.5 34.5
t14.5 34.5t34.5 14.5q21 0 35.5 -14.5t14.5 -34.5zM379 777q0 -19 -13 -32t-31 -13q-19 0 -32 13t-13 32q0 18 13 31t32 13q18 0 31 -13t13 -31z" />
    <glyph glyph-name="agrave" unicode="&#xe0;" 
d="M406 643q0 -20 -14.5 -34.5t-34.5 -14.5q-21 0 -35.5 14.5t-14.5 34.5t14.5 34.5t35.5 14.5q20 0 34.5 -14.5t14.5 -34.5zM406 475zM324 482q2 -20 -10 -35.5t-31 -17.5q-20 -2 -35 10t-18 31q-2 20 10 35.5t31 17.5q20 2 35.5 -10t17.5 -31zM501 216q0 -20 -14.5 -34
t-33.5 -14q-20 0 -34.5 14t-14.5 34t14.5 34.5t34.5 14.5q19 0 33.5 -14.5t14.5 -34.5zM287 395q2 -20 -10 -35.5t-31 -17.5t-34.5 10t-18.5 31q-2 20 10 35.5t31 17.5q20 2 35.5 -10t17.5 -31zM405 216q0 -20 -14 -34t-34 -14t-34 14.5t-14 33.5q0 20 14 34.5t34 14.5
t34 -14.5t14 -34.5zM250 308q3 -20 -9.5 -35.5t-31.5 -17.5t-34.5 10t-18.5 31q-2 20 10 35t31 18q20 2 35.5 -10t17.5 -31zM310 216q0 -19 -14.5 -33.5t-34.5 -14.5q-19 0 -33.5 14.5t-14.5 33.5q0 20 14.5 34.5t33.5 14.5q20 0 34.5 -14.5t14.5 -34.5zM213 221
q3 -20 -9.5 -35.5t-31.5 -17.5t-34.5 10t-18.5 31q-2 19 10 34.5t31 18.5q20 2 35.5 -10t17.5 -31zM139 47q3 -19 -9.5 -34.5t-31.5 -17.5q-19 -3 -34.5 9.5t-18.5 31.5q-2 19 10 34.5t32 18.5q19 2 34.5 -10t17.5 -32zM357 566q2 -18 -9.5 -32.5t-29.5 -17.5
q-19 -2 -33.5 9.5t-16.5 29.5q-2 19 9.5 33.5t29.5 16.5q18 3 33 -8.5t17 -30.5zM178 134q2 -19 -10 -34.5t-32 -18.5q-19 -2 -34.5 10t-17.5 32q-3 19 9.5 34.5t31.5 17.5q19 3 34.5 -9.5t18.5 -31.5zM308 476zM389 482q-2 -19 10 -34.5t32 -18.5q19 -2 34.5 10t17.5 31
q3 20 -9.5 35.5t-31.5 17.5t-34.5 -10t-18.5 -31zM426 395q-2 -20 10 -35.5t32 -17.5q19 -2 34.5 10t17.5 31q3 20 -9.5 35.5t-31.5 17.5t-34.5 -10t-18.5 -31zM463 308q-2 -20 10 -35.5t32 -17.5q19 -2 34.5 10t17.5 31q3 20 -9.5 35.5t-31.5 17.5t-34.5 -10t-18.5 -31z
M500 221q-2 -20 10 -35.5t32 -17.5q19 -2 34.5 10t17.5 31q3 20 -9.5 35.5t-31.5 17.5t-34.5 -10t-18.5 -31zM574 48q-2 -20 10 -35.5t31 -17.5q20 -3 35.5 9.5t17.5 31.5q3 19 -9.5 34.5t-31.5 18.5q-19 2 -34.5 -10t-18.5 -31zM356 566q-2 -18 9.5 -32.5t30.5 -17.5
q18 -2 32.5 9.5t17.5 30.5q2 18 -9.5 32.5t-30.5 17.5q-18 2 -32.5 -9.5t-17.5 -30.5zM536 134q-3 -19 9.5 -34.5t31.5 -17.5q19 -3 34.5 9t18.5 32q2 19 -10 34.5t-31 17.5q-20 3 -35.5 -9t-17.5 -32zM280 855q0 -20 14.5 -34.5t35.5 -14.5q20 0 34.5 14.5t14.5 34.5
t-14.5 34.5t-34.5 14.5q-21 0 -35.5 -14.5t-14.5 -34.5zM335 777q0 -19 13 -32t31 -13q19 0 32 13t13 32q0 18 -13 31t-32 13q-18 0 -31 -13t-13 -31z" />
    <glyph glyph-name="acircumflex" unicode="&#xe2;" 
d="M406 643q0 -20 -14.5 -34.5t-34.5 -14.5q-21 0 -35.5 14.5t-14.5 34.5t14.5 34.5t35.5 14.5q20 0 34.5 -14.5t14.5 -34.5zM406 475zM324 482q2 -20 -10 -35.5t-31 -17.5q-20 -2 -35 10t-18 31q-2 20 10 35.5t31 17.5q20 2 35.5 -10t17.5 -31zM501 216q0 -20 -14.5 -34
t-33.5 -14q-20 0 -34.5 14t-14.5 34t14.5 34.5t34.5 14.5q19 0 33.5 -14.5t14.5 -34.5zM287 395q2 -20 -10 -35.5t-31 -17.5t-34.5 10t-18.5 31q-2 20 10 35.5t31 17.5q20 2 35.5 -10t17.5 -31zM405 216q0 -20 -14 -34t-34 -14t-34 14.5t-14 33.5q0 20 14 34.5t34 14.5
t34 -14.5t14 -34.5zM250 308q3 -20 -9.5 -35.5t-31.5 -17.5t-34.5 10t-18.5 31q-2 20 10 35t31 18q20 2 35.5 -10t17.5 -31zM310 216q0 -19 -14.5 -33.5t-34.5 -14.5q-19 0 -33.5 14.5t-14.5 33.5q0 20 14.5 34.5t33.5 14.5q20 0 34.5 -14.5t14.5 -34.5zM213 221
q3 -20 -9.5 -35.5t-31.5 -17.5t-34.5 10t-18.5 31q-2 19 10 34.5t31 18.5q20 2 35.5 -10t17.5 -31zM139 47q3 -19 -9.5 -34.5t-31.5 -17.5q-19 -3 -34.5 9.5t-18.5 31.5q-2 19 10 34.5t32 18.5q19 2 34.5 -10t17.5 -32zM357 566q2 -18 -9.5 -32.5t-29.5 -17.5
q-19 -2 -33.5 9.5t-16.5 29.5q-2 19 9.5 33.5t29.5 16.5q18 3 33 -8.5t17 -30.5zM178 134q2 -19 -10 -34.5t-32 -18.5q-19 -2 -34.5 10t-17.5 32q-3 19 9.5 34.5t31.5 17.5q19 3 34.5 -9.5t18.5 -31.5zM308 476zM389 482q-2 -19 10 -34.5t32 -18.5q19 -2 34.5 10t17.5 31
q3 20 -9.5 35.5t-31.5 17.5t-34.5 -10t-18.5 -31zM426 395q-2 -20 10 -35.5t32 -17.5q19 -2 34.5 10t17.5 31q3 20 -9.5 35.5t-31.5 17.5t-34.5 -10t-18.5 -31zM463 308q-2 -20 10 -35.5t32 -17.5q19 -2 34.5 10t17.5 31q3 20 -9.5 35.5t-31.5 17.5t-34.5 -10t-18.5 -31z
M500 221q-2 -20 10 -35.5t32 -17.5q19 -2 34.5 10t17.5 31q3 20 -9.5 35.5t-31.5 17.5t-34.5 -10t-18.5 -31zM574 48q-2 -20 10 -35.5t31 -17.5q20 -3 35.5 9.5t17.5 31.5q3 19 -9.5 34.5t-31.5 18.5q-19 2 -34.5 -10t-18.5 -31zM356 566q-2 -18 9.5 -32.5t30.5 -17.5
q18 -2 32.5 9.5t17.5 30.5q2 18 -9.5 32.5t-30.5 17.5q-18 2 -32.5 -9.5t-17.5 -30.5zM536 134q-3 -19 9.5 -34.5t31.5 -17.5q19 -3 34.5 9t18.5 32q2 19 -10 34.5t-31 17.5q-20 3 -35.5 -9t-17.5 -32zM475 778q0 -18 -13 -31t-32 -13q-18 0 -31 13t-13 31q0 19 13 32t31 13
q19 0 32 -13t13 -32zM406 835q0 -20 -14.5 -34.5t-34.5 -14.5t-34.5 14.5t-14.5 34.5t14.5 34.5t34.5 14.5t34.5 -14.5t14.5 -34.5zM328 778q0 -18 -13 -31t-32 -13q-18 0 -31 13t-13 31q0 19 13 32t31 13q19 0 32 -13t13 -32z" />
    <glyph glyph-name="adieresis" unicode="&#xe4;" 
d="M406 643q0 -20 -14.5 -34.5t-34.5 -14.5q-21 0 -35.5 14.5t-14.5 34.5t14.5 34.5t35.5 14.5q20 0 34.5 -14.5t14.5 -34.5zM406 475zM324 482q2 -20 -10 -35.5t-31 -17.5q-20 -2 -35 10t-18 31q-2 20 10 35.5t31 17.5q20 2 35.5 -10t17.5 -31zM501 216q0 -20 -14.5 -34
t-33.5 -14q-20 0 -34.5 14t-14.5 34t14.5 34.5t34.5 14.5q19 0 33.5 -14.5t14.5 -34.5zM287 395q2 -20 -10 -35.5t-31 -17.5t-34.5 10t-18.5 31q-2 20 10 35.5t31 17.5q20 2 35.5 -10t17.5 -31zM405 216q0 -20 -14 -34t-34 -14t-34 14.5t-14 33.5q0 20 14 34.5t34 14.5
t34 -14.5t14 -34.5zM250 308q3 -20 -9.5 -35.5t-31.5 -17.5t-34.5 10t-18.5 31q-2 20 10 35t31 18q20 2 35.5 -10t17.5 -31zM310 216q0 -19 -14.5 -33.5t-34.5 -14.5q-19 0 -33.5 14.5t-14.5 33.5q0 20 14.5 34.5t33.5 14.5q20 0 34.5 -14.5t14.5 -34.5zM213 221
q3 -20 -9.5 -35.5t-31.5 -17.5t-34.5 10t-18.5 31q-2 19 10 34.5t31 18.5q20 2 35.5 -10t17.5 -31zM139 47q3 -19 -9.5 -34.5t-31.5 -17.5q-19 -3 -34.5 9.5t-18.5 31.5q-2 19 10 34.5t32 18.5q19 2 34.5 -10t17.5 -32zM357 566q2 -18 -9.5 -32.5t-29.5 -17.5
q-19 -2 -33.5 9.5t-16.5 29.5q-2 19 9.5 33.5t29.5 16.5q18 3 33 -8.5t17 -30.5zM178 134q2 -19 -10 -34.5t-32 -18.5q-19 -2 -34.5 10t-17.5 32q-3 19 9.5 34.5t31.5 17.5q19 3 34.5 -9.5t18.5 -31.5zM308 476zM389 482q-2 -19 10 -34.5t32 -18.5q19 -2 34.5 10t17.5 31
q3 20 -9.5 35.5t-31.5 17.5t-34.5 -10t-18.5 -31zM426 395q-2 -20 10 -35.5t32 -17.5q19 -2 34.5 10t17.5 31q3 20 -9.5 35.5t-31.5 17.5t-34.5 -10t-18.5 -31zM463 308q-2 -20 10 -35.5t32 -17.5q19 -2 34.5 10t17.5 31q3 20 -9.5 35.5t-31.5 17.5t-34.5 -10t-18.5 -31z
M500 221q-2 -20 10 -35.5t32 -17.5q19 -2 34.5 10t17.5 31q3 20 -9.5 35.5t-31.5 17.5t-34.5 -10t-18.5 -31zM574 48q-2 -20 10 -35.5t31 -17.5q20 -3 35.5 9.5t17.5 31.5q3 19 -9.5 34.5t-31.5 18.5q-19 2 -34.5 -10t-18.5 -31zM356 566q-2 -18 9.5 -32.5t30.5 -17.5
q18 -2 32.5 9.5t17.5 30.5q2 18 -9.5 32.5t-30.5 17.5q-18 2 -32.5 -9.5t-17.5 -30.5zM536 134q-3 -19 9.5 -34.5t31.5 -17.5q19 -3 34.5 9t18.5 32q2 19 -10 34.5t-31 17.5q-20 3 -35.5 -9t-17.5 -32zM495 806q0 -18 -13 -31t-31 -13t-31 13t-13 31t13 31t31 13t31 -13
t13 -31zM309 806q0 -18 -13 -31t-32 -13q-18 0 -31 13t-13 31t13 31t31 13q19 0 32 -13t13 -31z" />
    <glyph glyph-name="atilde" unicode="&#xe3;" 
d="M406 643q0 -20 -14.5 -34.5t-34.5 -14.5q-21 0 -35.5 14.5t-14.5 34.5t14.5 34.5t35.5 14.5q20 0 34.5 -14.5t14.5 -34.5zM406 475zM324 482q2 -20 -10 -35.5t-31 -17.5q-20 -2 -35 10t-18 31q-2 20 10 35.5t31 17.5q20 2 35.5 -10t17.5 -31zM501 216q0 -20 -14.5 -34
t-33.5 -14q-20 0 -34.5 14t-14.5 34t14.5 34.5t34.5 14.5q19 0 33.5 -14.5t14.5 -34.5zM287 395q2 -20 -10 -35.5t-31 -17.5t-34.5 10t-18.5 31q-2 20 10 35.5t31 17.5q20 2 35.5 -10t17.5 -31zM405 216q0 -20 -14 -34t-34 -14t-34 14.5t-14 33.5q0 20 14 34.5t34 14.5
t34 -14.5t14 -34.5zM250 308q3 -20 -9.5 -35.5t-31.5 -17.5t-34.5 10t-18.5 31q-2 20 10 35t31 18q20 2 35.5 -10t17.5 -31zM310 216q0 -19 -14.5 -33.5t-34.5 -14.5q-19 0 -33.5 14.5t-14.5 33.5q0 20 14.5 34.5t33.5 14.5q20 0 34.5 -14.5t14.5 -34.5zM213 221
q3 -20 -9.5 -35.5t-31.5 -17.5t-34.5 10t-18.5 31q-2 19 10 34.5t31 18.5q20 2 35.5 -10t17.5 -31zM139 47q3 -19 -9.5 -34.5t-31.5 -17.5q-19 -3 -34.5 9.5t-18.5 31.5q-2 19 10 34.5t32 18.5q19 2 34.5 -10t17.5 -32zM357 566q2 -18 -9.5 -32.5t-29.5 -17.5
q-19 -2 -33.5 9.5t-16.5 29.5q-2 19 9.5 33.5t29.5 16.5q18 3 33 -8.5t17 -30.5zM178 134q2 -19 -10 -34.5t-32 -18.5q-19 -2 -34.5 10t-17.5 32q-3 19 9.5 34.5t31.5 17.5q19 3 34.5 -9.5t18.5 -31.5zM308 476zM389 482q-2 -19 10 -34.5t32 -18.5q19 -2 34.5 10t17.5 31
q3 20 -9.5 35.5t-31.5 17.5t-34.5 -10t-18.5 -31zM426 395q-2 -20 10 -35.5t32 -17.5q19 -2 34.5 10t17.5 31q3 20 -9.5 35.5t-31.5 17.5t-34.5 -10t-18.5 -31zM463 308q-2 -20 10 -35.5t32 -17.5q19 -2 34.5 10t17.5 31q3 20 -9.5 35.5t-31.5 17.5t-34.5 -10t-18.5 -31z
M500 221q-2 -20 10 -35.5t32 -17.5q19 -2 34.5 10t17.5 31q3 20 -9.5 35.5t-31.5 17.5t-34.5 -10t-18.5 -31zM574 48q-2 -20 10 -35.5t31 -17.5q20 -3 35.5 9.5t17.5 31.5q3 19 -9.5 34.5t-31.5 18.5q-19 2 -34.5 -10t-18.5 -31zM356 566q-2 -18 9.5 -32.5t30.5 -17.5
q18 -2 32.5 9.5t17.5 30.5q2 18 -9.5 32.5t-30.5 17.5q-18 2 -32.5 -9.5t-17.5 -30.5zM536 134q-3 -19 9.5 -34.5t31.5 -17.5q19 -3 34.5 9t18.5 32q2 19 -10 34.5t-31 17.5q-20 3 -35.5 -9t-17.5 -32zM512 824q-1 -17 -13.5 -27.5t-29.5 -9.5q-16 1 -27 13.5t-10 28.5
q1 17 14 28t29 9q16 -1 27 -13.5t10 -28.5zM354 829q-1 -18 -15 -30t-32 -11q-19 2 -31 15.5t-11 32.5q2 18 16 30t32 11q18 -2 30 -15.5t11 -32.5zM269 801q-1 -16 -13.5 -27t-28.5 -10q-17 1 -27.5 13.5t-9.5 29.5q1 16 13.5 27t28.5 10q17 -2 28 -14.5t9 -28.5zM436 795
q2 18 -10.5 32t-30.5 15t-32 -11t-15 -30t11 -32t30 -15q18 -2 32 10.5t15 30.5z" />
    <glyph glyph-name="aring" unicode="&#xe5;" horiz-adv-x="667" 
d="M406 643q0 -20 -14.5 -34.5t-34.5 -14.5q-21 0 -35.5 14.5t-14.5 34.5t14.5 34.5t35.5 14.5q20 0 34.5 -14.5t14.5 -34.5zM406 475zM324 482q2 -20 -10 -35.5t-31 -17.5q-20 -2 -35 10t-18 31q-2 20 10 35.5t31 17.5q20 2 35.5 -10t17.5 -31zM501 216q0 -20 -14.5 -34
t-33.5 -14q-20 0 -34.5 14t-14.5 34t14.5 34.5t34.5 14.5q19 0 33.5 -14.5t14.5 -34.5zM287 395q2 -20 -10 -35.5t-31 -17.5t-34.5 10t-18.5 31q-2 20 10 35.5t31 17.5q20 2 35.5 -10t17.5 -31zM405 216q0 -20 -14 -34t-34 -14t-34 14.5t-14 33.5q0 20 14 34.5t34 14.5
t34 -14.5t14 -34.5zM250 308q3 -20 -9.5 -35.5t-31.5 -17.5t-34.5 10t-18.5 31q-2 20 10 35t31 18q20 2 35.5 -10t17.5 -31zM310 216q0 -19 -14.5 -33.5t-34.5 -14.5q-19 0 -33.5 14.5t-14.5 33.5q0 20 14.5 34.5t33.5 14.5q20 0 34.5 -14.5t14.5 -34.5zM213 221
q3 -20 -9.5 -35.5t-31.5 -17.5t-34.5 10t-18.5 31q-2 19 10 34.5t31 18.5q20 2 35.5 -10t17.5 -31zM139 47q3 -19 -9.5 -34.5t-31.5 -17.5q-19 -3 -34.5 9.5t-18.5 31.5q-2 19 10 34.5t32 18.5q19 2 34.5 -10t17.5 -32zM357 566q2 -18 -9.5 -32.5t-29.5 -17.5
q-19 -2 -33.5 9.5t-16.5 29.5q-2 19 9.5 33.5t29.5 16.5q18 3 33 -8.5t17 -30.5zM178 134q2 -19 -10 -34.5t-32 -18.5q-19 -2 -34.5 10t-17.5 32q-3 19 9.5 34.5t31.5 17.5q19 3 34.5 -9.5t18.5 -31.5zM308 476zM389 482q-2 -19 10 -34.5t32 -18.5q19 -2 34.5 10t17.5 31
q3 20 -9.5 35.5t-31.5 17.5t-34.5 -10t-18.5 -31zM426 395q-2 -20 10 -35.5t32 -17.5q19 -2 34.5 10t17.5 31q3 20 -9.5 35.5t-31.5 17.5t-34.5 -10t-18.5 -31zM463 308q-2 -20 10 -35.5t32 -17.5q19 -2 34.5 10t17.5 31q3 20 -9.5 35.5t-31.5 17.5t-34.5 -10t-18.5 -31z
M500 221q-2 -20 10 -35.5t32 -17.5q19 -2 34.5 10t17.5 31q3 20 -9.5 35.5t-31.5 17.5t-34.5 -10t-18.5 -31zM574 48q-2 -20 10 -35.5t31 -17.5q20 -3 35.5 9.5t17.5 31.5q3 19 -9.5 34.5t-31.5 18.5q-19 2 -34.5 -10t-18.5 -31zM356 566q-2 -18 9.5 -32.5t30.5 -17.5
q18 -2 32.5 9.5t17.5 30.5q2 18 -9.5 32.5t-30.5 17.5q-18 2 -32.5 -9.5t-17.5 -30.5zM536 134q-3 -19 9.5 -34.5t31.5 -17.5q19 -3 34.5 9t18.5 32q2 19 -10 34.5t-31 17.5q-20 3 -35.5 -9t-17.5 -32zM474 792q0 -16 -11.5 -27.5t-28.5 -11.5q-16 0 -27.5 11.5t-11.5 27.5
q0 17 11.5 28.5t27.5 11.5q17 0 28.5 -11.5t11.5 -28.5zM316 792q0 -16 -11.5 -27.5t-27.5 -11.5t-28 11.5t-12 27.5q0 17 12 28.5t28 11.5t27.5 -11.5t11.5 -28.5zM434 860q0 -16 -11.5 -27.5t-27.5 -11.5t-27.5 11.5t-11.5 28.5q0 16 11.5 27.5t27.5 11.5t27.5 -11.5
t11.5 -28.5zM356 724q0 -16 -11.5 -27.5t-28.5 -11.5q-16 0 -27.5 11.5t-11.5 27.5t11.5 27.5t27.5 11.5q17 0 28.5 -11.5t11.5 -27.5zM316 900q17 0 28.5 -11.5t11.5 -27.5q0 -17 -11.5 -28.5t-28.5 -11.5q-16 0 -27.5 11.5t-11.5 27.5q0 17 11.5 28.5t27.5 11.5zM395 763
q16 0 27.5 -11.5t11.5 -27.5t-11.5 -27.5t-27.5 -11.5t-27.5 11.5t-11.5 27.5t11.5 27.5t27.5 11.5z" />
    </font>
</defs>
</svg>
