<?xml version="1.0" standalone="no"?>
<!DOCTYPE svg PUBLIC "-//W3C//DTD SVG 1.1//EN" "http://www.w3.org/Graphics/SVG/1.1/DTD/svg11.dtd" >
<svg>
<metadata>
Created by FontForge 20090622 at Fri Jan 20 10:51:14 2017
 By deploy user
FREE FOR PERSONAL USE
</metadata>
<defs>
<font id="DancingintheMoonlight" horiz-adv-x="178" >
  <font-face 
    font-family="Dancing in the Moonlight"
    font-weight="400"
    font-stretch="normal"
    units-per-em="1000"
    panose-1="0 0 0 0 0 0 0 0 0 0"
    ascent="750"
    descent="-250"
    x-height="204"
    cap-height="389"
    bbox="-354 -285 1173 482.667"
    underline-thickness="50"
    underline-position="-50"
    unicode-range="U+0020-U+FB02"
  />
<missing-glyph horiz-adv-x="146" 
 />
    <glyph glyph-name=".notdef" horiz-adv-x="146" 
 />
    <glyph glyph-name="one" unicode="1" horiz-adv-x="290" 
d="M257 404q17 5 22.5 1t0.5 -12l-249 -436q-2 -3 -6 -5q-3 -2 -7 -2.5t-10 3.5q0 1 -0.5 0.5t-0.5 0.5q-4 2 -2 6l248 433q-14 -6 -45.5 -27t-66 -47.5t-64 -53.5t-37.5 -44q-2 -2 -3 -6t1 -6q2 -1 11 -3t39 6q6 2 6 -4q2 -4 -3 -6q-55 -13 -62 4q-6 12 10 32.5t40 42
t49.5 41l39.5 29.5q44 31 63 41t26 12z" />
    <glyph glyph-name="two" unicode="2" horiz-adv-x="328" 
d="M317 369q-18 -25 -46.5 -54.5l-61.5 -62l-66 -66t-59 -65t-41 -59.5t-12 -49q3 -17 18 -29q47 -31 90 -26q45 6 76 50q4 4 7 1q5 -2 1 -6q-34 -49 -83 -55h-12q-35 0 -75 23q-5 2 -9.5 4t-7.5 4q-4 2 -6 4t-4 3t-4 3q-16 13 -19 34q-2 21 12.5 47t38.5 55t55.5 60
l63.5 62l68 67t51 58q13 21 8 25q-5 5 -24.5 0.5t-45.5 -16.5t-56.5 -30.5t-58.5 -42.5q-14 -12 -30.5 -29.5t-27.5 -37.5t-13 -41.5t12 -42.5q2 -4 -1 -7q-6 -2 -7 1q-23 35 -7.5 77t68.5 88q25 22 55 40.5t57.5 31t49.5 18t32 0.5q-2 2 -4 3q19 -3 26.5 -10.5t-8.5 -29.5z
" />
    <glyph glyph-name="three" unicode="3" horiz-adv-x="390" 
d="M202 221q14 0 28 -2.5t24.5 -8.5t17 -16t6.5 -26q0 -21 -11 -47.5t-28 -52.5t-37.5 -48.5t-39.5 -37.5q-26 -20 -55.5 -29.5t-53.5 -9.5q-18 0 -32.5 10t-14.5 34q0 13 5.5 30.5t19.5 42.5q2 2 5 2q4 0 4 -4q0 -2 -1 -3q-23 -43 -23 -69q0 -33 37 -33q18 0 41 8.5
t43 24.5q19 15 39.5 37.5t37 48t27.5 51t11 45.5q0 22 -15 32.5t-49 10.5q-26 0 -58.5 -7.5l-71.5 -16.5q-6 0 -6 5q0 4 4 5q99 23 159 47t92.5 46t42.5 39.5t10 26.5q0 20 -20 30t-57 10q-36 0 -86 -9t-113 -27h-1q-5 0 -5 5q0 4 12.5 8.5t32 9t43.5 9t46.5 7.5t41 5
t28.5 2q46 0 75 -11.5t29 -38.5q0 -6 -4.5 -19t-23.5 -31.5t-59 -40.5t-110 -44h13v0z" />
    <glyph glyph-name="four" unicode="4" horiz-adv-x="303" 
d="M290 112q4 2 6 -4q2 -4 -4 -6q-17 -5 -34 -6l-66 -141q-1 -5 -5 -7q-3 -2 -7.5 0t-12.5 10l63 136h-1q-32 0 -63 6.5t-58 14.5q-17 -10 -35.5 -11.5t-29.5 0.5q-12 2 -22 8.5t-15 16.5q-1 2 -2.5 8t3.5 10q6 6 21 2.5t41 -12.5l12.5 -4t14.5 -4q2 1 3 2t3 2q8 10 22.5 34
t31 54.5l33 63l30.5 60l23 45t9 18.5h1v1q9 3 15 4q5 0 8 -2.5t0 -10.5l-13 -25.5l-21 -41l-26 -50.5l-28 -53l-27 -48.5t-23 -37.5q-4 -6 -7 -10t-5 -7l1 2l-3.5 -3.5l-3.5 -3.5q26 -8 55.5 -13.5t60.5 -4.5l29 62q9 3 15 4q5 1 8.5 -1.5t-0.5 -10.5l-24 -52q7 2 13.5 3
t13.5 3zM44 113q20 -3 41 9q-5 2 -9.5 3t-9.5 3q-14 5 -28 9t-21 4q-3 0 -3 -1v-2q0 -3 1 -5q8 -17 29 -20z" />
    <glyph glyph-name="five" unicode="5" horiz-adv-x="323" 
d="M274 395q23 -5 32.5 -9.5t11.5 -11.5q2 -10 -9 -20t-34 -27q-5 -3 -7 1q-4 4 1 6v1q16 11 28.5 21.5t11.5 15.5q-1 2 -7.5 5.5t-29.5 7.5q-4 1 -14 3q-21 4 -49.5 8.5t-51.5 2.5q-9 -3 -16 -11l-12 -21l-20 -36.5l-22.5 -44t-19.5 -44t-11 -35t3 -18.5q12 1 23 1.5
t21 1.5q25 2 43.5 2.5t33.5 -0.5q35 2 51.5 -6.5t21.5 -26.5q7 -25 -1 -60t-27.5 -67t-47.5 -56.5t-60 -28.5q-3 0 -5 -1q-8 -1 -15.5 -1.5t-14.5 -0.5q-23 0 -38 4.5t-23.5 11t-12 13.5t-4.5 12q-3 17 6.5 33.5t25.5 21.5q4 1 6 -3q1 -4 -3 -6q-11 -3 -19.5 -16t-5.5 -28
q1 -5 5 -11.5t14.5 -12t29 -8t48.5 0.5q49 6 84 60q22 34 31 74t1 69q-3 10 -9.5 15t-20.5 7t-36.5 1.5t-56.5 -2.5q-25 -1 -62 -3q-8 0 -11 6q-5 7 -0.5 24.5t13.5 40t21 46.5l23 44.5l19 34.5t9 16q6 10 20.5 14.5t34 4t42.5 -4t47 -8.5q4 -1 7 -1t7 -1z" />
    <glyph glyph-name="six" unicode="6" horiz-adv-x="334" 
d="M325 404q5 -2 4 -6q-2 -5 -6 -3q-24 6 -49 4q-35 -9 -67 -33.5t-58 -54.5t-45 -61.5t-29 -55.5l-6 -11.5t-5 -11.5q48 39 88 50t66 -8q26 -18 30.5 -57t-13.5 -87q-22 -63 -59 -95.5t-87 -32.5q-6 0 -12.5 0.5t-13.5 1.5q-37 7 -52 41q-6 13 -8 29t-1 34q2 38 15 81
t36 84l15 27.5t19 29.5q19 28 45 56.5t56.5 49.5t65 30t71.5 -1zM213 205q-25 17 -64 5t-87 -52q-3 -3 -6 -5q-14 -33 -21.5 -65t-6.5 -59t10.5 -47t29.5 -29q34 -5 60 4t45 27t32 41.5t21 47.5q17 45 13.5 80.5t-26.5 51.5z" />
    <glyph glyph-name="seven" unicode="7" horiz-adv-x="284" 
d="M281 402q1 -4 -10.5 -27t-30.5 -58l-43 -78l-49 -86q12 -2 24.5 -1.5t23.5 5.5q5 0 7 -3q2 -5 -3 -7q-14 -5 -28.5 -5t-28.5 2l-42 -72l-35 -60l-34 -57q-2 -5 -6 -7q-7 -5 -17 3q-1 0 -1 1q-4 2 -2 6l54.5 93l57.5 98q-20 5 -33 5.5t-20 -10.5q-2 -2 -4 -2t-3 1
q-5 2 -1 6q10 16 27.5 15t37.5 -6h1l45.5 79l39 69.5l29.5 54.5t16 34q-3 -2 -11 -6l-39 -19.5t-48 -19.5t-50.5 -10t-45.5 8q-5 2 -2 7q2 4 6 2q19 -9 43 -7t48.5 10.5t46.5 19t36 18.5q10 5 14.5 7t6.5 3v1q10 1 16 -2t7 -5z" />
    <glyph glyph-name="eight" unicode="8" horiz-adv-x="346" 
d="M238 408q18 -2 36 -8t32.5 -17t24 -26t9.5 -33q0 -31 -15.5 -52.5t-38 -36.5t-48 -25.5t-45.5 -20.5q16 -7 31 -15t27 -17.5t19.5 -22.5t7.5 -29q0 -10 -3 -20q-17 -70 -64.5 -109.5t-113.5 -39.5q-44 0 -68.5 16t-24.5 56q0 24 11.5 52.5t32 55t49 47t63.5 27.5q1 1 2 1
t2 1q-29 14 -52 33.5t-23 53.5q0 12 3.5 25t10.5 29q19 42 46 59t72 17h8.5t8.5 -1zM266 87q1 5 1.5 9t0.5 9q0 29 -24.5 45.5t-57.5 31.5q-2 0 -4 2q-2 -1 -5 -1q-32 -11 -59 -29t-46.5 -41t-31 -49t-11.5 -53q0 -25 15.5 -45t49.5 -20q63 0 109 36.5t63 104.5zM309 300
q3 7 4 14t1 14q0 15 -7.5 28t-20.5 23t-29.5 15.5t-35.5 5.5q-42 0 -67 -16.5t-42 -54.5q-13 -29 -13 -50q0 -32 23 -50t55 -32q20 7 40 16.5t38 21.5t32 28t22 37z" />
    <glyph glyph-name="nine" unicode="9" horiz-adv-x="342" 
d="M272 407q37 -6 52 -41q8 -18 9 -40.5t-3.5 -48t-13.5 -52t-21 -52.5q-3 -10 -16 -32l-2 -4q-8 -14 -15 -24l-2 -2q-17 -25 -42 -54.5t-54 -55.5t-60.5 -43.5t-62.5 -17.5q-16 0 -32 6q-5 2 -3 7q2 4 7 2q56 -20 130 41q21 17 40.5 37t36 40t29.5 39t22 34l7.5 15t7.5 14
q0 2 0.5 2.5t0.5 1.5l-2 -2q-50 -42 -92.5 -53.5t-71.5 8.5q-28 20 -33.5 60t12.5 89q25 71 69 103.5t103 22.5zM293 191q22 51 28.5 97t-6.5 75q-12 29 -44 34q-7 2 -13.5 2h-12.5h-13q-38 -11 -64 -42.5t-43 -78.5q-20 -53 -10.5 -93.5t41.5 -54.5q51 -6 122 54q2 2 6.5 5
t8.5 2z" />
    <glyph glyph-name="A" unicode="A" horiz-adv-x="763" 
d="M146 -51q-38 -8 -68 -8q-6 0 -14 0.5t-16 1.5t-13.5 3t-5.5 6q2 4 5 4q10 0 21 -2.5t24 -2.5q43 0 95.5 15.5t110 41t118 59.5l119.5 70q-66 0 -135 0.5t-125.5 -4.5t-93 -18.5t-38.5 -40.5q0 -4 -5 -4t-5 5q2 31 40 46.5t97.5 21t133 5t147.5 -0.5l108.5 69.5l96.5 63.5
q84 56 123 79.5t53 23.5q6 0 11 -1.5t5 -5.5q0 -7 -15 -27t-39 -47.5l-55 -61.5l-63 -69q4 2 9 4t7 2q4 0 4 -4q0 -5 -12 -9.5t-21 -6.5l-53.5 -61t-45 -56.5t-31.5 -46.5t-12 -32q0 -5 2.5 -7.5t2.5 -6.5q0 -2 -1.5 -3.5t-7.5 -1.5q-7 0 -11 1l-4 3q-5 4 -7 12q0 23 34 71
t97 119q-34 -6 -74 -8t-85 -3q-53 -33 -107.5 -63.5t-107 -56t-101.5 -43.5t-92 -25zM904 364q-22 -12 -56.5 -35l-78 -52l-94.5 -62.5l-105 -67.5q44 1 83 3.5t71 9.5l48 54l53 58.5l47 53t32 38.5z" />
    <glyph glyph-name="B" unicode="B" horiz-adv-x="479" 
d="M27 315q-7 0 -7 5q0 4 4 4q32 12 79 23t100 19t108.5 12.5t105.5 4.5q87 0 141 -13t54 -39q0 -6 -8.5 -19t-40.5 -31t-94 -39t-170 -42q14 1 25.5 1h22.5q21 0 41 -1.5t35.5 -6t25 -13.5t9.5 -24q0 -21 -16 -45.5t-40.5 -49t-54 -46t-57.5 -35.5q-35 -17 -75.5 -27
t-70.5 -10q-29 0 -47.5 10t-18.5 31q0 27 36 71q1 1 3 1q5 0 5 -4q0 -2 -1 -3q-33 -41 -33 -65q0 -17 15.5 -24t38.5 -7q28 0 62 9t63 23q30 15 59.5 37t53.5 46.5t38.5 49t14.5 43.5q0 4 -2.5 9.5t-12 10t-28.5 8t-51 3.5q-23 0 -55.5 -2.5t-74.5 -7.5l-58.5 -67.5
l-53.5 -62l-39.5 -45.5t-16.5 -19q-2 -1 -3 -1q-2 -1 -5 -1q-4 0 -6.5 2.5t-2.5 11.5q2 2 18.5 21l42.5 49l57.5 67l63 74l60 70l48.5 56q3 0 6 1q2 0 5 0.5t6 0.5q8 0 8 -3q0 -1 -9 -12.5l-25 -30.5l-38 -44l-47 -54q111 19 182.5 39.5t112 38.5t56 33t15.5 24q0 11 -13 19
t-35.5 13.5t-53.5 8t-67 2.5q-48 0 -102.5 -4t-107 -11.5t-99.5 -18.5t-81 -24z" />
    <glyph glyph-name="C" unicode="C" horiz-adv-x="347" 
d="M40 -59q-16 6 -22 21.5t-6 36.5q0 56 48 126t146 154q60 51 117 77.5t108 26.5q44 0 63 -17t19 -39q0 -17 -10 -35t-27.5 -32.5t-42 -24t-52.5 -9.5q-21 0 -35 10.5t-14 29.5q0 20 16.5 34t41.5 14q5 0 15.5 -0.5t10.5 -5.5t-5 -5t-10 1t-10 1q-17 0 -27 -5t-15 -11.5
t-6.5 -13t-1.5 -9.5q0 -14 11 -22.5t28 -8.5q22 0 43 8t37 21.5t25.5 30t9.5 34.5q0 44 -61 44q-39 0 -83.5 -20t-88.5 -52t-84.5 -72.5t-71.5 -82.5t-49.5 -81t-18.5 -67q0 -23 7 -37t26 -14q25 3 57.5 16.5t65 30.5t60.5 34.5l44 27.5q1 1 2 1q5 0 5 -4q0 -3 -2 -5
l-62 -38t-65 -36t-62 -26.5t-52 -10.5q-14 0 -22 4z" />
    <glyph glyph-name="D" unicode="D" horiz-adv-x="501" 
d="M114 135q-105 6 -105 55q0 16 16.5 36.5t44 42.5t64 43t76.5 38t81.5 27t78.5 10q34 0 63 -8.5t50.5 -24.5t33.5 -38t12 -50q0 -42 -25.5 -86.5t-69.5 -84.5q-82 -75 -156.5 -114.5t-141.5 -39.5q-29 0 -36.5 10.5t-7.5 30.5q0 4 0.5 7t0.5 6q0 10 -0.5 18.5t-5.5 8.5
q-3 0 -10.5 -3.5t-24.5 -16.5l-2 -3q-1 -1 -4 -2q-6 -2 -10 -2q-9 0 -11 7l121 133q-4 0 -7.5 -0.5t-7.5 -0.5q-5 0 -9 0.5t-8 0.5zM125 296q-49 -29 -77.5 -57t-28.5 -49q0 -20 30 -33t86 -13h10.5t10.5 1l177 193v-1q1 0 5 0.5t9 0.5q9 0 9 -4l-2 -4l-166 -181
q52 10 107.5 35.5t118.5 70.5q1 1 3 1q5 0 5 -5q0 -2 -2 -4q-135 -94 -242 -109l-100 -108q3 1 9 1q11 0 13.5 -8.5t2.5 -20.5v-20q0 -21 6.5 -26t27.5 -5q56 0 123.5 36.5t149.5 111.5q42 39 67 82t25 82q0 54 -37 84t-94 30q-29 0 -60.5 -6.5t-63.5 -17.5t-63.5 -26
t-58.5 -31z" />
    <glyph glyph-name="E" unicode="E" horiz-adv-x="371" 
d="M40 -48q-31 14 -31 47q0 22 12 47.5t30.5 49.5t40 43.5t40.5 29.5q-55 2 -55 35q0 23 25 54.5t64 60t88 48t97 19.5h15q-2 1 -6 1q43 -3 70 -19t27 -57q0 -28 -12 -52t-32.5 -42t-47 -28t-55.5 -10q-53 0 -97 47q-1 1 -1 3q0 5 5 5q2 0 3 -1q42 -44 92 -44q25 0 47 11
t38 28.5t25 39.5t9 43q0 30 -17 48t-60 18q-44 0 -89 -20.5t-81 -48t-59 -56.5t-23 -46q0 -11 9 -19t31 -8q10 0 22 1.5t26 3.5q4 0 6 -5q0 -5 -4.5 -5.5t-6.5 -0.5q-29 -8 -56 -30t-48 -48.5t-33.5 -54t-12.5 -45.5q0 -16 9.5 -26.5t30.5 -12.5q31 1 73 18.5t83.5 40.5
t77 47.5t53.5 40.5q1 1 3 1q4 0 4 -5q0 -2 -1 -3q-18 -17 -54 -42.5t-79.5 -49.5t-87.5 -41t-77 -17q-17 0 -30 6z" />
    <glyph glyph-name="F" unicode="F" horiz-adv-x="264" 
d="M94 193q-3 0 -5.5 -0.5t-5.5 -0.5q-29 0 -50.5 11.5t-21.5 28.5q0 8 8 18.5t31 21.5l18.5 8.5l47 21l63.5 27t70 27t66.5 20.5t51.5 8q18 0 32 -3.5t14 -14.5q0 -4 -7.5 -16t-21 -30t-32 -40.5l-39.5 -47.5h42q5 0 5 -4q0 -5 -5 -5l-50 -1l-69 -81.5l-67 -77l-52.5 -60
t-25.5 -30.5q-3 -2 -6 -3q-5 -3 -11 -3q-3 0 -6.5 1t-3.5 5q0 1 17.5 21.5l47 54l67.5 78l80 94.5l-79 -2q-5 0 -5 5t4 5l88 2l39.5 48l33 41t22.5 30t8 16q0 6 -6 7.5t-14 1.5h-8t-9 -1q-30 -7 -67.5 -20t-76 -28.5l-73.5 -31l-60 -27.5q-20 -9 -28 -18t-8 -18
q0 -11 13 -20t33 -9q2 0 5 0.5t5 0.5q7 1 21.5 4t29.5 13t27.5 27.5t15.5 47.5q2 5 6 5q4 -2 4 -6q-3 -32 -16.5 -51.5t-30 -30.5t-32.5 -14.5t-24 -4.5z" />
    <glyph glyph-name="G" unicode="G" horiz-adv-x="388" 
d="M31 -59q-15 6 -21.5 21t-6.5 36q0 113 195 281q60 51 116.5 77.5t107.5 26.5q48 0 68 -17.5t20 -38.5q0 -16 -9.5 -33.5t-25.5 -32t-37.5 -24.5t-45.5 -11q-29 0 -48.5 8.5t-19.5 34.5q0 20 16.5 33t39.5 13q5 0 16 -1t11 -6t-4 -5q-5 0 -10.5 1t-10.5 1q-20 0 -34.5 -10
t-14.5 -27q0 -16 13 -24t33 -8q21 0 40.5 8.5t34.5 22t23.5 30t8.5 32.5q0 44 -61 44q-45 0 -98.5 -27.5t-104.5 -71.5q-41 -35 -76 -71t-61 -71t-41 -69t-15 -65q0 -23 7 -37t25 -14q25 2 57.5 15.5t65 31t61 35l44.5 27.5q1 1 2.5 1.5t9.5 0.5q6 0 6 -2t-2 -4l-78 -91
l-74 -85.5l-57 -63t-27 -24.5q-9 0 -15 9q9 12 27.5 33.5l44.5 51l57.5 64.5l65.5 74q-26 -16 -53 -31t-52.5 -26.5t-48.5 -18.5t-41 -7q-14 0 -23 4z" />
    <glyph glyph-name="H" unicode="H" horiz-adv-x="481" 
d="M91 193q-3 0 -5.5 -0.5t-5.5 -0.5q-29 0 -50.5 11.5t-21.5 28.5q0 8 8 18.5t31 21.5q1 0 19 8.5l46.5 21l64 27t71 27t66.5 20.5t52 8q42 0 45 -18q0 -6 -13.5 -26t-36 -48.5l-52 -63l-60.5 -70.5q28 1 59 2.5t58 3l46.5 2.5t25.5 2l55 70l55 68t46.5 51.5t30.5 20.5
t10 -5l-2 -4q-21 -22 -53.5 -62l-70 -87l-75 -96l-68.5 -89l-50.5 -66t-20.5 -28l-4 -4q-3 -3 -9 -3q-7 0 -13 9q1 4 15 23.5l36 49l50.5 66l59.5 75.5q-12 0 -33.5 -1t-47.5 -2.5l-54.5 -3t-54.5 -2.5l-123.5 -142t-45.5 -43q-6 0 -9 8q0 5 39 50l109 125
q-20 -1 -34.5 -1.5t-20.5 -0.5q-5 0 -5 5t18 5t50 2l59.5 70l53.5 64.5t39 50t15 25.5t-6 7t-14 2q-26 0 -66 -12.5t-82.5 -29.5t-82 -35.5l-63.5 -30.5q-20 -9 -28 -18t-8 -18q0 -11 12.5 -20t33.5 -9q2 0 5 0.5t5 0.5q7 1 21.5 4t29.5 13t27.5 27.5t15.5 47.5q0 5 5 5
q5 -2 5 -6q-3 -32 -17 -51.5t-30.5 -30.5t-32.5 -14.5t-24 -4.5z" />
    <glyph glyph-name="I" unicode="I" horiz-adv-x="439" 
d="M4 -18q-4 0 -4 4q-1 4 4 6q11 1 30 1h44h59l16.5 19l20.5 24l54 67.5l67.5 81.5l70.5 82.5l62 71.5q11 14 13 20q-2 0 -8 -2q-45 -10 -90.5 -22t-86.5 -24t-74 -23.5t-52 -20.5q-24 -11 -31 -22t-2.5 -20t18 -15t31.5 -7h4q7 1 21.5 4t29.5 13t27.5 27.5t15.5 47.5
q2 5 6 5q4 -1 4 -6q-3 -32 -16.5 -51.5t-30 -30.5t-32.5 -14.5t-24 -4.5h-12q-26 0 -46 9t-24 24q-2 8 4 20.5t34 25.5q22 10 61.5 24t88.5 28t102 27t101 22q2 0 5 1q6 2 11 2q53 10 91.5 13t52.5 -5q7 -5 7 -12q2 -5 -4 -5q-5 0 -5 5v1q0 -1 -3 2q-12 7 -47.5 4t-85.5 -12
q-21 -22 -52 -58l-65.5 -77l-68.5 -82.5l-62 -75.5l-45.5 -56t-18.5 -24q27 1 53.5 2.5t48 5.5t36 9.5t17.5 13.5q4 8 -10 24q-4 3 0 7q3 3 7 0q18 -20 12 -35q-6 -13 -28.5 -20.5t-57.5 -11.5t-78.5 -5t-91.5 -1q-24 0 -43.5 0.5t-29.5 -1.5h-1v0z" />
    <glyph glyph-name="J" unicode="J" horiz-adv-x="414" 
d="M12 82q-6 7 -6 18q0 33 64 95q18 18 48 39.5t65 43t72.5 42t72 36.5t62.5 26t44 10l-1 1q30 0 39.5 -15.5t9.5 -36.5q0 -29 -16 -67t-43 -81.5t-62 -89.5t-74 -89l35.5 14t22.5 6q5 0 5 -5q0 -2 -8 -5.5t-19.5 -7.5l-25 -9l-24.5 -9q-39 -43 -77 -77.5t-70.5 -59
t-58.5 -38t-42 -13.5q-14 0 -19 8.5t-5 16.5q0 19 24.5 41.5t61.5 44.5t80.5 42.5t82.5 35.5q39 43 76 91t66 93.5t46.5 87t17.5 71.5q0 16 -6 28.5t-20 12.5h1q-27 -5 -73 -26t-96 -49.5t-95.5 -60t-72.5 -56.5q-32 -31 -46 -53.5t-14 -36.5q0 -27 40 -27q42 2 106 22
t144 61h2q5 0 5 -4q0 -2 -2 -4q-81 -41 -150 -63t-114 -22q-41 0 -53 18zM43 -176q16 6 37.5 20t46.5 35t52.5 47.5t55.5 56.5l-78 -36.5t-72.5 -39t-53.5 -38.5t-21 -34q0 -6 3.5 -10.5t11.5 -4.5q7 0 18 4z" />
    <glyph glyph-name="K" unicode="K" horiz-adv-x="442" 
d="M176 159q-57 -19 -99 -19q-30 0 -48 10.5t-18 32.5q0 24 22.5 58.5t58.5 67t80 55.5t87 23q14 0 33 -2.5t35.5 -9.5t28 -18.5t11.5 -29.5q0 -16 -8 -35.5t-21.5 -41.5t-31.5 -46t-39 -49q2 -8 2 -9q34 19 77.5 51t83.5 68.5t69 71.5t34 60q2 4 6 4q4 -1 4 -6
q-6 -26 -35.5 -62.5t-70 -73.5t-85 -70t-79.5 -52q7 -22 18 -53.5t30 -60.5t48 -49.5t73 -20.5q34 0 71 10h2q4 0 4 -5q0 -4 -11 -6.5t-24.5 -4.5t-26 -3t-15.5 -1q-49 0 -82 18.5t-54.5 46.5t-34.5 59.5t-21 58.5q-7 -4 -13 -5l-67 -76t-61 -72l-6 -4q-6 -4 -11 -4
q-2 0 -5.5 2t-3.5 6q0 2 1 3q26 33 58 70l66 73q-9 4 -9 16q0 10 5 20.5t12 19.5t14.5 14.5t13.5 5.5q8 0 10.5 -5.5t4.5 -10.5q35 43 58.5 82t23.5 66q0 14 -7.5 23.5t-19 15.5t-25 8.5t-24.5 3.5q-40 -2 -80.5 -25t-73.5 -53.5t-53.5 -63t-20.5 -52.5q0 -14 11.5 -24
t31.5 -10q39 0 93 18h2q4 0 4 -5q0 -4 -3 -4zM214 127l13.5 15t12.5 15q-5 19 -10 19t-8.5 -6.5t-6.5 -14.5q-4 -10 -6 -21q0 -7 5 -7z" />
    <glyph glyph-name="L" unicode="L" horiz-adv-x="428" 
d="M256 -59q-34 0 -72.5 19t-73.5 41q-13 -8 -26 -10.5t-24 -2.5q-24 0 -38 14.5t-14 37.5q0 8 4 13t12 5q3 0 12 -2.5t20 -7.5t23 -12.5t22 -17.5q7 7 19 21l27 33l33 41.5l38 47.5q-31 7 -51 25t-20 41q0 5 2 12.5t9 15.5t20 15.5t34 12.5q6 0 6 -6q0 -3 -3 -4
q-58 -14 -58 -46q0 -22 19 -36t48 -22l43.5 54.5l42.5 53.5l44 56q27 34 46 45.5t31 11.5q8 0 13 -3q38 -13 38 -55q0 -34 -20 -66t-51 -56.5t-69 -39.5t-74 -15q9 0 20 3q-15 -3 -29 -3q-5 0 -9 0.5t-8 0.5l-79.5 -98.5t-43.5 -50.5q33 -21 69.5 -39t68.5 -18q29 0 48 16.5
t19 32.5q0 10 -7 16t-17 6q-16 0 -32 -12q-1 -1 -3 -1q-4 0 -4 4t5 7.5t12 6t13.5 3.5t8.5 1q14 0 23.5 -8.5t9.5 -21.5q0 -20 -20.5 -39.5t-56.5 -19.5zM379 329l-61.5 -78l-68.5 -85q3 0 6 -0.5t6 -0.5q31 0 65 14t63 37t48 54t19 66q0 21 -6 28.5t-14 15.5
q-9 0 -23.5 -14t-33.5 -37zM47 -1q2 -1 9 -1t16 3t21 11l-40 24t-29 12h-4t-2 -8q0 -14 7.5 -26.5t21.5 -14.5z" />
    <glyph glyph-name="M" unicode="M" horiz-adv-x="489" 
d="M504 194q-10 -13 -31.5 -38l-43.5 -51.5t-38.5 -50.5t-16.5 -36q0 -4 3 -5q8 4 21.5 15t28.5 24.5t29 28.5t24 28q2 2 4 2q5 0 5 -5q0 -2 -1 -3q-14 -18 -32.5 -36t-36.5 -33t-32 -24.5t-20 -9.5q-15 0 -15 20q0 10 10 27.5t27 40.5t38.5 49.5l45.5 53.5l-24.5 -16
l-32.5 -22l-35 -25t-33 -25l-62 -77.5t-35 -32.5q-3 0 -7.5 1.5t-4.5 4.5q0 2 2 4l77 93t67.5 87t47.5 68.5t18 37.5q0 3 -3.5 4t-6.5 1q-13 0 -31 -10.5t-39.5 -28.5t-45.5 -42l-49 -51l-62 -85.5l-59 -76.5q-1 -2 -4 -4q-6 -4 -10 -4q-2 0 -6.5 2t-4.5 6q0 1 0.5 1.5
t0.5 1.5l11 13.5l27.5 35.5l36.5 49.5l40 55.5l37 54t28 45q8 15 13 34t5 37q0 25 -10 42.5t-33 17.5q-22 0 -47.5 -14t-50.5 -36t-48 -47.5t-40 -48.5q-10 -14 -24 -37.5t-26.5 -50t-21 -51.5t-8.5 -43q0 -25 20 -25h4q5 0 5 -5t-5 -5q-23 0 -28.5 11t-5.5 24
q0 20 9.5 47.5t22.5 54.5t27 50.5t23 35.5q18 24 41.5 50.5t50 48.5t52.5 36.5t49 14.5q8 0 14.5 -3t11.5 -3q-2 0 -3 1q7 -5 12 -9q-6 6 -9 8q19 -10 28.5 -32t9.5 -48q0 -30 -10.5 -51t-26.5 -47q37 37 71 62.5t57 27.5h-1q2 0 4.5 0.5t4.5 0.5q10 0 17.5 -3.5t7.5 -11.5
q0 -9 -8.5 -25t-22.5 -37t-32.5 -45.5l-37.5 -49.5q19 15 38.5 28.5l36 24t28 17t14.5 6.5q7 0 12 -2.5t5 -7.5q0 -2 -2 -4z" />
    <glyph glyph-name="N" unicode="N" horiz-adv-x="411" 
d="M228 369q-18 -11 -36 -26t-35 -32.5t-32 -35.5t-27 -34q-10 -14 -24 -37t-26.5 -49.5t-21 -51.5t-8.5 -43q0 -26 20 -26h4q4 0 6 -5q0 -5 -5 -5q-23 0 -28.5 11t-5.5 23q0 20 9.5 47.5t22 55t26.5 51t23 35.5q17 24 41 50t50.5 48.5t53 37t49.5 14.5q8 0 14.5 -3t11.5 -3
q-2 0 -3 1q4 -2 6.5 -4.5t5.5 -4.5q-6 6 -9 8q19 -10 28 -31.5t9 -47.5q0 -25 -8.5 -47.5t-20.5 -43t-26.5 -39t-26.5 -35.5q28 27 55 50t52.5 40.5t47.5 27t40 9.5q6 0 11 -2.5t5 -6.5q0 -2 -2 -4q-7 -9 -23.5 -28.5l-37 -44.5l-42 -51.5l-40 -50.5t-30 -42t-11.5 -25
q0 -10 4 -10q2 0 3 1h-1q17 7 44.5 30.5t63.5 68.5q0 2 3 2q5 0 5 -4q0 -3 -1 -4q-38 -49 -72 -77t-54 -28q-5 0 -11.5 3.5t-6.5 17.5q0 9 15.5 33t41 58t58 73.5l66.5 79.5q-19 -2 -45.5 -17.5t-56.5 -39.5t-61.5 -53.5t-58.5 -57.5q-9 -12 -21 -30t-24.5 -34t-23.5 -27.5
t-17 -11.5q-4 0 -6 2l-5 5q0 2 0.5 2t0.5 2l11 14l27.5 36l36.5 49.5l40 55t37 53.5t28 45q8 15 13 33.5t5 36.5q0 26 -11 43.5t-34 17.5q-22 0 -55 -18z" />
    <glyph glyph-name="O" unicode="O" horiz-adv-x="341" 
d="M141 109q-8 11 -8 30q0 29 20 65t56 73q55 56 98.5 85.5t72.5 29.5t43 -14.5t14 -40.5q0 -42 -37 -104t-106 -128q9 2 23 8.5t24 6.5q5 0 5 -5q0 -3 -9 -7t-20.5 -7.5t-22.5 -6t-14 -3.5q-56 -52 -111.5 -84.5t-97.5 -32.5q-25 0 -42.5 18t-17.5 51q0 34 19 75.5t49 83
t66 78.5t71 61q2 1 4 1q3 0 10.5 -0.5t7.5 -4.5q0 -1 -3 -4q-35 -25 -70 -61.5t-63.5 -77t-46.5 -80.5t-18 -72q0 -27 11.5 -42.5t26.5 -15.5q16 0 36.5 8t43 22t45.5 32t45 38q-21 -3 -37 -3q-29 0 -44.5 8.5t-22.5 19.5zM380 382q-9 0 -23 -4.5t-34 -16.5t-46.5 -34
t-60.5 -56q-35 -36 -54.5 -71t-19.5 -61q0 -24 17 -36t48 -12q22 0 51 6q76 71 115 136.5t39 108.5q0 18 -6.5 29t-25.5 11z" />
    <glyph glyph-name="P" unicode="P" horiz-adv-x="430" 
d="M567 376q27 -24 15 -65q-3 -11 -19.5 -31.5t-41 -43.5t-54.5 -47t-61.5 -43.5t-61.5 -32t-54 -12.5q-7 0 -11 1q-40 4 -48 53l-138 -165q-3 -2 -7 -3q-8 -2 -13 6v1q-3 2 0 5l281 338q0 2 3 2q8 1 13 0t7.5 -2.5t-2.5 -6.5l-136 -165q4 -48 42 -54q10 -1 27 2
q37 11 79 38.5t78.5 58.5t62 59.5t30.5 43.5q9 29 -3 47t-39 27q-30 6 -71.5 4t-88 -9t-95 -18.5t-93.5 -25t-84 -27.5t-66 -26q-4 -2 -6 2q-2 3 2 7q32 15 80 31.5t102.5 31.5t111.5 26.5t108 15.5t90.5 -1t60.5 -22z" />
    <glyph glyph-name="Q" unicode="Q" horiz-adv-x="373" 
d="M28 72q-20 35 -20 72q0 33 13.5 63.5t34 56t45 46t47.5 33.5q14 8 35.5 17.5t46 18t51.5 14.5t51 6q39 0 61.5 -17.5t22.5 -54.5q0 -27 -14 -53t-34.5 -46t-44.5 -32t-45 -12q-4 0 -11 1.5t-13.5 4t-11 6t-4.5 8.5t4 5q3 0 5 -2q13 -13 31 -13q19 0 41.5 11.5t42 30.5
t32 43t12.5 48q0 62 -70 62q-22 -2 -45.5 -7.5t-45.5 -13t-41.5 -16t-33.5 -16.5q-24 -14 -48.5 -34.5t-44 -45t-32 -53t-12.5 -58.5q0 -23 8.5 -45.5t24.5 -40.5t38.5 -29t50.5 -11q30 0 57 9l53 61.5t47.5 51.5t37.5 35t24 13q9 0 9.5 -4.5t0.5 -5.5q0 -10 -13.5 -31.5
t-34.5 -45.5t-47 -45t-52 -30l-60.5 -76.5l-58.5 -77.5l-45.5 -60.5t-21.5 -24.5q-8 0 -12 12h-1q10 16 27 40l38.5 52.5l46.5 60l51 62.5q-25 -5 -46 -5q-42 0 -76 16.5t-51 45.5zM374 171q-19 -12 -51.5 -46.5t-70.5 -79.5q17 8 34 23t32 30q20 21 35.5 41.5t20.5 31.5z
" />
    <glyph glyph-name="R" unicode="R" horiz-adv-x="453" 
d="M576 324q0 -19 -15 -43.5t-39.5 -50.5t-56.5 -51t-66 -45t-68.5 -33t-63.5 -14q7 -21 16 -40.5t23 -33.5t35 -22.5t51 -8.5q11 0 26 5t24 5q5 0 5 -4q0 -5 -8 -8t-19.5 -5t-23.5 -3t-19 -1q-33 0 -55.5 9.5t-38 25.5t-25.5 37.5t-18 45.5q-13 3 -24.5 10.5t-19.5 22.5
l-109 -132q-1 -1 -3 -2t-7 -1q-6 0 -11 6v1q-1 0 -1 2t1 3l121 146q-3 12 -3 24q0 10 4 20.5t17 10.5q8 0 19 -11l123 148q2 2 2.5 2h9.5q5 0 8.5 -0.5t3.5 -3.5q0 -2 -3 -5l-130 -158q8 -15 13.5 -34.5l11.5 -40.5q24 0 53.5 11.5t60.5 30t60.5 41.5t53.5 47t40 46.5
t20 39.5q1 5 1.5 10t0.5 10q0 35 -28.5 47.5t-76.5 12.5q-50 0 -112 -11t-122.5 -27.5t-114.5 -35t-88 -34.5q-1 0 -1 -0.5t-1 -0.5q-5 0 -5 5q0 2 3 5q34 16 88 35t115.5 35t124 27t114.5 11q57 0 92.5 -17t35.5 -48v-6.5t-1 -6.5zM212 175q-2 4 -3.5 8t-4.5 7
q-6 0 -7.5 -5.5t-2.5 -12.5q0 -4 0.5 -8.5t0.5 -8.5zM203 130q9 -22 33 -30q-3 12 -9.5 26.5t-6.5 24.5z" />
    <glyph glyph-name="S" unicode="S" horiz-adv-x="405" 
d="M6 14q2 16 17.5 33t37.5 31t47.5 23.5t47.5 9.5h7t4 -5q0 -4 -5 -4q-21 0 -44.5 -9.5t-42.5 -23t-31.5 -29t-12.5 -28.5q0 -14 17.5 -23.5t59.5 -9.5q43 0 83 10.5t71 30t49 45.5t18 58t-24.5 53.5t-54 39t-54 35t-24.5 42.5q0 24 17.5 41t41.5 28.5t49.5 18t40.5 9.5
q19 3 39.5 5t40.5 2q12 0 27 -1t27.5 -3.5t21 -6.5t8.5 -9q0 -6 -5 -6q-1 0 -3 2q-8 7 -27.5 10.5t-45.5 3.5q-32 -1 -67.5 -6.5t-65.5 -16t-50 -27t-20 -38.5q0 -15 11.5 -27t28.5 -24t36.5 -24t36.5 -26.5t28.5 -33t11.5 -41.5q0 -37 -21.5 -66t-57 -48.5t-80 -29.5
t-89.5 -10q-33 0 -53 4t-30.5 11t-13.5 14.5t-3 15.5z" />
    <glyph glyph-name="T" unicode="T" horiz-adv-x="182" 
d="M590 413q1 -1 1 -4q0 -2 -1 -3q-16 -14 -44 -21.5t-64 -11.5t-77.5 -5t-83.5 -1l-55.5 -60.5l-62.5 -69.5l-62 -72t-53.5 -67t-37.5 -54.5t-14 -34.5q0 -1 0.5 -1.5t0.5 -1.5q14 4 34.5 15t41.5 26t39 31.5t27 31.5q1 2 4 2q5 0 5 -5v-2q-10 -17 -31 -36t-45 -35.5
t-47.5 -27.5t-37.5 -11q-17 0 -17 16q1 14 17.5 40.5t42.5 60l57.5 71l62.5 72.5l58 64.5l44 47.5q-51 0 -99 -1.5t-85.5 -7.5t-60.5 -18t-23 -33q0 -7 4.5 -15.5t4.5 -16.5q0 -4 -4 -6q-4 0 -6.5 5t-4.5 11.5t-3 12.5t-1 9q0 26 24 40t64 20.5t91.5 8t107.5 1.5q4 4 5.5 7
t3 4.5t6 2.5t14.5 1q9 0 9 -4q0 -2 -3 -5l-6 -6q41 0 80 1t73 4.5t60 11t40 20.5q1 0 1.5 0.5t1.5 0.5q2 0 4 -2z" />
    <glyph glyph-name="U" unicode="U" horiz-adv-x="417" 
d="M84 181q-11 -4 -24 -4q-8 0 -17 2.5t-16.5 8.5t-12.5 17t-5 28q0 29 16.5 59t44.5 55t64.5 40.5t75.5 15.5q12 0 31.5 -2t38 -9t32 -20t13.5 -35q0 -27 -17 -62.5t-43.5 -74t-57 -77.5l-57.5 -73t-27 -53q0 -10 6 -14q18 0 46.5 10t59 27t58.5 39.5t45 47.5q2 2 3 2h1
l56.5 78l58 76l48 61l26.5 34l1 -1q2 1 7.5 2t10.5 1q6 0 6 -3q0 -2 -3 -5l-37 -46.5l-52 -67.5l-57 -77l-53 -74.5t-39 -60t-15 -33.5q0 -2 2 -2l1 -5h1l1 -4q-8 -3 -14 -3q-5 0 -10.5 3.5t-6.5 8.5q0 8 9 26t26 44q-20 -18 -44.5 -34t-49 -28t-47 -19t-39.5 -7
q-11 0 -17.5 3t-9.5 6.5t-4 8t-1 7.5q0 21 28 56l14 18l53.5 68.5t52 72t39 68t15.5 57.5q0 16 -8.5 27t-21 17t-28 8.5t-29.5 2.5q-39 0 -74 -15t-61.5 -38.5t-42 -52t-15.5 -55.5q0 -22 11.5 -33.5t30.5 -11.5q13 0 28.5 6.5t29.5 20.5t24.5 35t15.5 51q0 4 4 4q5 0 5 -4
q0 -26 -9.5 -46.5t-22.5 -35.5t-27.5 -24.5t-24.5 -12.5z" />
    <glyph glyph-name="V" unicode="V" horiz-adv-x="344" 
d="M84 182q-15 -5 -25 -5q-9 0 -18.5 2.5t-18 9t-13.5 18t-5 28.5q0 28 18 59t48.5 57.5t71 43.5t86.5 17q19 0 38.5 -3t35 -10t25 -18.5t9.5 -29.5q0 -25 -17 -59t-43 -72t-55.5 -76.5l-55.5 -72t-43 -59t-17 -36.5q0 -3 4 -3q19 7 53.5 31t79 65t97 99t108.5 133
q6 8 16.5 11t23.5 3q10 0 20.5 -1t20.5 -1q14 0 25 2.5t18 10.5q0 2 3 2q5 0 5 -5q0 -6 -5.5 -9.5t-13 -5.5t-15.5 -3t-13 -1q-11 0 -21 0.5t-20 0.5q-12 0 -19 -7q-74 -99 -138 -164t-113.5 -103.5t-82 -54t-42.5 -15.5q-9 0 -12.5 4.5t-3.5 10.5q0 20 37 66q26 38 59.5 80
t63 83t50 79t20.5 68q0 14 -7 23.5t-18.5 15.5t-26.5 8.5t-31 2.5q-46 0 -85 -17t-67.5 -42t-44.5 -54.5t-16 -53.5q0 -22 12 -35t32 -13q13 0 28 6t28.5 19.5t24 35t13.5 52.5q0 4 4 4q6 0 6 -5q-6 -51 -29.5 -79.5t-48.5 -37.5z" />
    <glyph glyph-name="W" unicode="W" horiz-adv-x="492" 
d="M301 92q14 26 36.5 58.5l53.5 75.5q-52 -55 -101 -101.5t-90.5 -81t-71.5 -54t-44 -19.5q-5 0 -8.5 2t-3.5 8q0 11 17 36t42 58l54.5 71.5t54.5 75.5t42 70.5t17 56.5q0 15 -7.5 25t-19 15.5t-26.5 8t-30 2.5q-43 0 -80 -16t-64 -40.5t-42.5 -53.5t-15.5 -54
q0 -22 12 -35t32 -13q13 0 28 6t28.5 19.5t24 35t13.5 52.5q2 4 4 4q6 0 6 -5q-4 -33 -15.5 -56t-26.5 -37.5t-31.5 -21.5t-29.5 -7q-9 0 -18.5 2.5t-18 9t-13.5 18t-5 28.5q0 28 17 58.5t45.5 56t67 42.5t81.5 17q16 0 35.5 -2.5t36.5 -9.5t28 -19t11 -30q0 -28 -20 -66.5
t-49 -80t-62 -83l-60 -75.5l-27 -36t-11 -20q0 -3 4 -3q-12 -5 -16 -5q9 0 38.5 19t77 58.5t110 100.5t136.5 144q2 4 7.5 4.5t10.5 0.5q9 0 9 -4q0 -2 -5 -9l-29.5 -39l-29 -40.5l-35.5 -52l-49 -72.5q-12 -24 -19.5 -42.5t-7.5 -26.5q0 -6 3 -6q1 0 5 2l-6 -3
q17 6 46 29.5t64.5 57l73.5 73l73 78t63 73t43 57.5q1 0 6.5 1t10.5 1q8 0 8 -4q0 -2 -3 -6q-18 -27 -51 -65t-72.5 -79.5t-82.5 -82t-81 -72.5t-67.5 -52t-41.5 -20q-14 0 -14 17q0 22 25 73z" />
    <glyph glyph-name="X" unicode="X" horiz-adv-x="397" 
d="M451 346q1 1 9.5 10t21.5 19t28 16.5t29 3.5q22 -6 30 -41q8 -33 -16 -54q-20 -16 -41 -8q-19 8 -22 36q0 5 5 5t5 -4q2 -22 16 -28h1q11 0 17 6t8.5 15.5t2 20.5t-3.5 20q-3 17 -12 23q-9 0 -20 -5.5t-20.5 -13t-18 -15t-12.5 -12.5l-171 -180q-1 0 -2 -1l-3 -3
q-1 -29 0.5 -56t5 -48t11 -35t18.5 -17q1 -6 -7 -6q-4 0 -10 1q-13 1 -22 12q-12 16 -17 48.5t-6 73.5l-128 -133q-2 -2 -11.5 -10.5t-22.5 -17.5t-27.5 -16t-26.5 -7q-4 0 -12 2q-18 7 -18 43q0 17 9 42.5t23 49.5t31 42t34 21q9 2 20.5 -4t19.5 -31q1 -5 -3 -6q-4 -2 -6 3
q-11 32 -30 29q-14 -3 -30 -20t-29 -40t-21.5 -47t-8.5 -39q0 -28 13 -34q9 -4 21.5 0.5t25.5 13t24.5 18t17.5 15.5l135 140q0 40 3 82t6.5 76.5t7 58t4.5 26.5q9 6 15 9q5 2 8.5 -0.5t1.5 -13.5q-1 -8 -4 -29t-6 -50t-5.5 -63.5t-3.5 -68.5l59 61zM517 301q3 -1 8 -1
q-5 0 -8 1z" />
    <glyph glyph-name="Y" unicode="Y" horiz-adv-x="425" 
d="M525 316q4 0 8 0.5t7 0t4 -2.5t-3 -6l-49 -60.5l-61 -73.5l-69 -80.5l-72 -81.5l36 15.5t21.5 8.5t14.5 4.5t15 4.5q6 2 6 -4q2 -4 -3 -6l-19.5 -5.5t-19.5 -6.5t-27 -10.5t-41 -18.5l-63.5 -67.5t-57.5 -56t-49 -40t-36 -18.5q-8 -4 -15 -4h-2q-9 0 -14 9q-6 14 2 31
t29 35.5t50 37.5t63.5 37.5l69.5 35.5l25.5 28.5l25.5 29.5q-35 -25 -71 -38.5t-62 -13.5q-21 0 -30 8q-10 8 -10 27t30 58l15 19.5l15 20.5l45.5 60t40 57.5t26.5 52t5 43.5q-4 21 -26 33q-31 15 -68 14.5t-75 -16.5q-40 -17 -69.5 -45t-40.5 -59q-8 -25 -6 -44t13 -30
q19 -19 53 -8q23 8 45 34.5t27 74.5q0 6 5 4q6 0 4 -5q-5 -51 -29 -79.5t-49 -37.5q-37 -14 -63 10q-8 8 -14.5 27t5.5 57q11 33 42 63t73 47q52 22 102 16q20 -1 36 -6t32 -13q32 -18 29.5 -50t-24.5 -71.5t-56.5 -84.5l-67.5 -88q-29 -38 -28 -57.5t20 -21.5q18 1 41 9
t46.5 21t46 30.5t39.5 37.5q1 0 1 0.5t1 0.5l87.5 105l68.5 85l13 16q2 3 6 1zM61 -181q12 4 30 17.5t40.5 34t48 47.5l53.5 57l-22 -11.5l-22 -11.5q-39 -24 -68 -46.5t-45.5 -41t-20.5 -31t6 -14.5z" />
    <glyph glyph-name="Z" unicode="Z" horiz-adv-x="263" 
d="M380 406q21 -1 29.5 -11t-11.5 -36l-44.5 -56.5l-51 -65.5l-53 -67.5l-49.5 -63l-41.5 -52.5l-28.5 -35q-8 -8 -16.5 -13.5t-16.5 -9.5q18 -12 39.5 -23t46 -16t51 -3.5t55.5 13.5q4 2 6 -3q2 -4 -3 -6q-36 -15 -71 -15q-40 0 -74 15t-60 33q-21 -6 -35 -3q-5 0 -8 1
q-26 5 -34 31q-4 17 -4 24t4 10q5 4 13.5 -1.5t24.5 -18.5q14 -13 34 -28q5 3 11 7.5l13 9.5l32 41l47 61l48 62l49.5 63.5l48 60.5l42.5 52t13 29q-4 5 -17.5 5.5t-34.5 -4.5t-46.5 -14.5t-53.5 -23.5q-27 -14 -53 -31t-45 -36t-28.5 -39t-3.5 -40q0 -5 -4 -6t-6 3
q-8 28 7.5 53.5t39.5 46.5t49.5 36t39.5 22q21 10 42.5 19t42 15t37.5 8t28 0zM46 -1q11 -4 26 3q-9 6 -16.5 12.5l-13.5 11.5l-15.5 12t-10.5 7q-1 -3 4 -22q6 -21 26 -24z" />
    <glyph glyph-name="a" unicode="a" 
d="M41 7q-2 8 -2 12q0 15 8 30.5t21 30.5l-72.5 -57.5t-43.5 -22.5q-12 0 -19 4t-7 15t7 23t9 14q21 28 51 54.5t61.5 47t59.5 33t45 12.5q6 0 13 -2.5t7 -13.5q0 -2 -1 -8t-5 -6q-6 0 -6 5q0 2 1 4t1 4q0 6 -3.5 7t-6.5 1q-6 -1 -16 -3t-21 -7q-19 -9 -48 -29.5t-56.5 -45
t-47 -50t-19.5 -43.5q0 -5 4 -5q7 0 21.5 9.5t32 23.5l36 29.5l33.5 27.5l18 15.5l19.5 16.5t17 13.5t10.5 5.5q1 0 9.5 -1.5t8.5 -6.5q0 -1 -2 -5q-30 -24 -49.5 -44.5t-30.5 -37t-15.5 -26.5t-4.5 -13q0 -6 4 -6h1q17 10 36 27l35.5 33l28 27.5t14.5 11.5q4 0 4 -5
q0 -2 -1 -3q-48 -48 -81 -76.5t-48 -28.5q-10 0 -11 9z" />
    <glyph glyph-name="b" unicode="b" horiz-adv-x="151" 
d="M240 393q9 2 14 2t7.5 -2t-0.5 -7l-34.5 -37.5l-41.5 -44l-44.5 -49l-44.5 -50.5q1 -1 2 -1t2 -1q19 -8 25 -29q3 -10 2 -19l14 2l14 2q5 1 9.5 1.5t9.5 0.5q5 2 5 -4q2 -5 -4 -5q-5 -1 -9.5 -1.5t-9.5 -1.5q-8 -1 -15.5 -1.5t-15.5 -2.5q-6 -19 -21.5 -41t-36 -42
t-42.5 -36t-41 -23q-9 -3 -15 -3q-11 0 -17 6q-8 8 -8 17q-1 1 -1 3v3q1 2 1 7q2 8 18.5 34t37.5 53q7 8 14 17l15 19q-3 3 -3 8q-3 22 28 35q10 4 15 5l49 55.5l47.5 52l41.5 44.5l32 33zM58 193q-13 -5 -18.5 -12.5t-4.5 -12.5l1 -1q5 7 10.5 13zM-20 12q19 7 40.5 22
t40.5 34t33.5 39t20.5 37q-14 -1 -28 -1.5t-28 1.5q-3 1 -6 1t-6 2q-32 -40 -53.5 -71.5t-24.5 -48.5q0 -7 1.5 -11.5t9.5 -3.5zM116 171q-6 17 -20 23q-2 1 -3.5 1.5t-3.5 1.5l-18 -21.5l-17 -20.5q2 -1 6 -1q14 -2 28.5 -1.5t28.5 1.5q2 10 -1 17z" />
    <glyph glyph-name="c" unicode="c" horiz-adv-x="150" 
d="M-29 3q-13 7 -13 32q0 12 9.5 34t29 46.5t49.5 48.5t71 41q7 3 14 3q8 0 13 -4.5t5 -12.5q0 -11 -12 -23.5t-42 -31.5q-1 -1 -3 -1q-5 0 -5 4q0 3 3 5q19 13 29 21t14.5 13t5 7.5t0.5 5.5q0 6 -5 6q-2 0 -6 -2q-36 -17 -63 -39.5t-45 -45.5t-27 -43.5t-9 -32.5
q0 -22 10 -22q9 0 22 8t20 13q9 6 27.5 19.5l37 28l32.5 25t16 10.5q4 0 4 -5q0 -3 -2 -4l-56 -43.5t-43.5 -33.5t-36 -22t-32.5 -8q-8 0 -12 3zM-4 12q-6 -2 -8 -2q2 0 8 2z" />
    <glyph glyph-name="d" unicode="d" horiz-adv-x="234" 
d="M192 173l-51.5 -66t-30 -43t-13.5 -27t-3 -18q0 -7 4 -7q9 4 25 14.5t34.5 24t37.5 29l36 30.5q1 1 3 1q5 0 5 -5q0 -3 -1 -3q-19 -17 -43 -35.5t-46 -33.5t-39.5 -25t-23.5 -10q-11 0 -14.5 7t-3.5 15q0 9 1.5 16t5.5 15t11.5 19t20.5 28l-69 -58l-38.5 -30t-19 -11.5
t-10.5 -1.5q-9 0 -13 6t-4 15q0 14 6.5 33t14.5 32q10 18 30.5 39t44.5 39t49.5 30t45.5 12q6 0 15.5 -2t9.5 -7q0 -2 -1.5 -4t-3.5 -2q-3 0 -7 2.5t-9 2.5q-32 -6 -62.5 -27t-54.5 -47.5t-38.5 -54t-14.5 -45.5q0 -8 4 -8q1 0 40.5 30.5t111.5 92.5l71 88t78 89t69 69
t44 28q5 0 8.5 -2t3.5 -7q0 -10 -18 -33t-48 -53.5l-69 -67zM397 394q-14 -10 -32.5 -27.5t-40 -40.5l-45 -50l-46.5 -54l80 75.5t49 50.5t25.5 30.5t9.5 15.5z" />
    <glyph glyph-name="e" unicode="e" horiz-adv-x="147" 
d="M-42 4q-16 8 -16 25q0 14 11 31.5t28 36t37 36.5t39 32.5l33.5 25t20.5 14.5q14 7 21 7q14 0 14 -12q0 -14 -18 -32t-42.5 -35t-49 -30.5t-37.5 -18.5q-14 -17 -23.5 -33t-9.5 -27q0 -13 14 -14q20 2 47 19t52.5 36.5l45 35.5t24.5 16t5 -5q0 -2 -2 -4q-17 -11 -39.5 -29
l-46.5 -35.5t-48.5 -30.5t-43.5 -13q-11 0 -16 4zM128 196q-6 -4 -18.5 -13t-28 -21.5l-32.5 -27.5t-33 -31q12 6 32 18t39.5 26.5t34 28.5t14.5 23v2v-2h-1q-4 0 -7 -3z" />
    <glyph glyph-name="f" unicode="f" horiz-adv-x="115" 
d="M252 409q3 0 6 1q6 2 11 2q7 0 7 -3q0 -4 -4 -8q-18 -18 -42 -44.5l-52 -58l-58.5 -66l-61.5 -70.5q11 1 23 1h23q8 0 10.5 -5t-7.5 -5h-29.5t-28.5 -1q-8 -11 -17 -20l13 -6.5t5 -14.5q0 -20 -18 -54t-43 -70t-51.5 -67.5t-42.5 -46.5q-55 -47 -76 -47q-8 0 -11.5 5
t-3.5 13q0 9 4 21t10 24t12 22t10 16q10 15 26.5 37l37.5 48l45.5 55l50.5 60q-6 2 -7 6t-1 5q0 9 6.5 14.5t29.5 7.5l64.5 74l61.5 69.5l54 59.5l42 45q1 1 2 1zM2 140q0 -3 5 -4q3 3 6 6.5t6 6.5q-14 -2 -15 -5t-2 -4zM35 121q-6 2 -10 2q-102 -119 -149.5 -184.5
t-47.5 -93.5q0 -5 3 -5q6 0 21.5 11.5t35.5 28.5q11 10 27 28t33 40l33.5 45.5t29.5 46t21 41t8 29.5q0 9 -5 11z" />
    <glyph glyph-name="g" unicode="g" 
d="M44 14q0 12 5 27l-113 -138l-56 -65.5t-42.5 -42t-23.5 -9.5t-10 13q0 8 6 24.5t23 48.5q12 24 38 54.5t53 50t47 19.5q13 0 14.5 -7.5t1.5 -8.5l41.5 52l44.5 54q-57 -46 -86.5 -66t-37.5 -20q-22 0 -22 19q0 11 7 22.5t9 14.5q21 28 51.5 54.5t62 47.5t60.5 33.5
t46 12.5q7 0 13.5 -3t6.5 -14q0 -2 -1 -7.5t-6 -5.5t-5 4q0 3 1 5.5t1 4.5q0 5 -4 6t-9 1q-19 -5 -44.5 -19t-52 -33t-52 -42.5t-43.5 -48.5l-11 -18.5t-6 -17.5q0 -4 4 -4h3q16 8 45.5 31.5l59.5 48l54.5 44t32.5 19.5q4 0 8 -1l6 -2t3 -3q0 -3 -4 -6q-48 -39 -74 -73
t-26 -52q0 -6 4 -6l4 2l-4 -2l-4 -2q16 8 35.5 25t36.5 34l29.5 29.5t14.5 12.5q5 0 5 -5q0 -2 -5 -7l-12 -12q-43 -42 -70.5 -65.5t-41.5 -23.5q-3 0 -5 1q-5 2 -6 9v6zM-40 -51l11 17.5t6 14.5q0 3 -4 5q-28 -13 -51.5 -32.5t-51 -59.5t-35 -63t-5.5 -24q0 -2 2 -2
q9 7 23 20.5t35 37.5l26 30t44 56z" />
    <glyph glyph-name="h" unicode="h" horiz-adv-x="180" 
d="M185 106q0 -3 -2 -4l-69.5 -51l-44.5 -32t-25.5 -16.5t-12.5 -4.5q-8 0 -10.5 5t-2.5 12q0 12 7 26q4 9 21 27l38 40l42.5 44t34.5 39q-14 -9 -38 -26.5l-51.5 -39l-56 -44l-51.5 -41.5l-38 -31l-15 -12q0 -2 -3 -2q-2 0 -3 1q-3 1 -3 5q0 1 2 3l55.5 66.5l62.5 72.5
l64.5 73.5l61.5 69.5l39 44l27 30q1 1 3 1h2q2 0 5 0.5t6 0.5q10 0 10 -4q0 -1 -2 -5l-48.5 -54l-59 -68.5l-71.5 -83l-56 -64.5l49 39.5l49.5 40t41.5 30.5t24 12q1 0 1 -0.5t1 -0.5q1 1 7.5 2t12.5 1q8 0 8 -4q0 -2 -10 -13l-25 -27l-33 -35l-34.5 -36.5t-29 -32
t-15.5 -21.5l-4 -10t-2 -8q0 -4 2 -4t4 1q11 7 31 22.5l40.5 31.5l37 28t21.5 12q3 0 5 -2v-3z" />
    <glyph glyph-name="i" unicode="i" horiz-adv-x="82" 
d="M105 191l-37 -36.5l-50 -51.5t-43.5 -52t-18.5 -38q14 7 45 30.5t79 65.5q1 1 3 1q5 0 5 -5q0 -2 -1 -3l-56 -47.5t-40.5 -31.5t-27 -17.5t-16.5 -5.5q-11 0 -14 4.5t-3 9.5q0 10 11 28t28 38l36.5 41l36.5 38t28.5 27.5t12.5 11.5t2.5 1.5t12.5 0.5q10 0 10 -4
q0 -2 -3 -5zM154 239q-3 -6 -9 -11t-13 -9t-14 -6.5t-11 -2.5q-6 0 -6 7q1 3 5.5 10l10 15t12.5 14t13 6q2 0 8 -3t6 -13q0 -3 -2 -7zM122 224q8 5 16 11.5t8 11.5q0 1 -0.5 1.5t-0.5 1.5l-2 2h-1q-5 0 -11.5 -11.5t-8.5 -16.5z" />
    <glyph glyph-name="j" unicode="j" horiz-adv-x="79" 
d="M-263 -205l-33.5 -32.5t-23 -19.5t-15.5 -9t-9 -2q-10 0 -10 12q0 8 6.5 24.5t23.5 48.5q13 24 39 57.5t56 64t59.5 51.5t50.5 21q6 0 10 -4.5t4 -9.5q29 32 58 68.5t67 75.5l5 5l8.5 8.5t7.5 8.5t2 4q-3 0 -7 1t-4 5q2 5 6 5q2 -1 6 -1q13 2 18.5 6t13.5 15q2 2 5.5 2
h12.5t9 -4q0 -2 -3 -5q-13 -12 -37.5 -36.5t-49 -52t-43 -52.5t-18.5 -37q29 15 124 96q1 1 3 1q5 0 5 -4q0 -2 -2 -4q-64 -56 -96 -79t-44 -23q-10 0 -13.5 4t-3.5 9q0 3 1 5l-31.5 -37.5l-32.5 -40.5l-75 -88zM-299 -186q-13 -24 -21.5 -41.5t-8.5 -22.5l1 -1q8 6 18 15
t26.5 25.5t40.5 43.5l61 71q7 9 18.5 21.5t22.5 26t18.5 25.5t7.5 18v2.5t-2 3.5v-1q-1 1 -2 1q-9 1 -34 -20t-53.5 -51t-54.5 -62.5t-38 -53.5zM150 255q3 -3 3 -8q0 -7 -5.5 -13.5t-13.5 -12t-16.5 -8.5t-13.5 -3q-6 0 -6 7q1 3 5.5 10l10 15t12.5 14t13 6t11 -7zM143 247
q0 3 -2.5 4t-1.5 1q-5 0 -11.5 -11.5t-8.5 -16.5q20 11 24 23z" />
    <glyph glyph-name="k" unicode="k" horiz-adv-x="164" 
d="M181 204q0 -3 -2 -5l-111 -56l-15.5 -45.5t-13 -40.5t-9 -30.5t-3.5 -14.5q10 6 32 21l45 31.5l41 29t20 12.5q5 0 5 -5q0 -3 -2 -3q-65 -52 -107 -76t-46 -24q-8 0 -11 5t-3 11q0 3 2.5 14t7 27t10.5 34.5t14 36.5l-14 -7l-83.5 -91t-29.5 -29q-6 0 -6 7q0 4 23.5 32.5
l59.5 69.5l78.5 88.5l80.5 89.5l63 71t38 41.5t21 19.5t12 5t9 -1t4 -5q0 -3 -1 -4l-47 -50.5l-63 -68.5l-70.5 -77l-70.5 -77l136 68h2q2 0 4 -2v-2z" />
    <glyph glyph-name="l" unicode="l" horiz-adv-x="116" 
d="M-9 77q-2 -5 -7 -12t-9.5 -15t-8 -16.5t-3.5 -15.5t2 -9q12 3 30 13.5t38.5 25l41.5 30.5l38 30q1 1 3 1q5 0 5 -4t-21 -21.5t-49 -36.5t-55 -34t-40 -15q-11 0 -15 6.5t-4 13.5q0 11 7 25t14 25l2 3q1 2 3.5 5t2.5 5l33 43l50.5 62t60.5 68.5t62.5 63.5t56.5 47t43 18
q2 0 5 -1.5t3 -8.5q-1 -10 -16 -30.5t-38.5 -46.5t-53 -55l-60 -57l-59.5 -52.5t-51 -40.5q-4 -4 -6.5 -7.5zM269 370q-24 -11 -56.5 -40t-67 -66t-67 -76.5l-56.5 -69.5q22 17 48.5 40.5l54 49l53.5 51.5t46 48.5t32.5 39t12.5 23.5z" />
    <glyph glyph-name="m" unicode="m" horiz-adv-x="292" 
d="M257 165q-17 -11 -45 -32.5l-57 -44.5l-54.5 -43.5t-36 -27.5t-22 -14t-11.5 -4q-6 0 -6 6q0 9 11.5 28t28.5 41.5t37 46.5t37 42l-98 -78.5l-61 -50.5t-34 -27t-17 -8q-2 0 -4 1t-2 6q0 8 10.5 25t26.5 38t35.5 43.5l37 42l30.5 33t17 16.5q1 1 4 1h11.5t9.5 -5l-80 -84
l-29 -32l-25.5 -29t-18 -22t-6.5 -12q0 -1 1 -1q-3 -2 -7 -6q21 13 54 40.5l67.5 56.5l65 54t45.5 34h5.5t9.5 -0.5t9.5 -1.5t4.5 -4q0 -2 -2 -4q-8 -6 -22.5 -19.5t-31 -31l-33.5 -37l-31 -36.5t-22.5 -29t-8.5 -15q0 -1 1 -1q39 27 75.5 56l67 52.5t53 38.5t33.5 15
q9 0 9.5 -1.5t0.5 -2.5q0 -8 -18.5 -28l-42 -43.5l-45 -44.5t-27.5 -31q-3 -4 -5.5 -9t-2.5 -8q0 -2 2 -2q1 0 21.5 15.5l45 34l46.5 34t28 15.5q4 0 4 -5q0 -3 -2 -4l-69 -50.5l-43.5 -31t-25 -16t-13.5 -4.5q-10 0 -13 5t-3 11q0 11 13.5 27.5t33.5 36.5l42.5 42t40.5 43z
" />
    <glyph glyph-name="n" unicode="n" horiz-adv-x="191" 
d="M192 106q5 0 5 -5q0 -3 -2 -3l-18 -13q-63 -45 -97 -66t-39 -21q-7 0 -10.5 5.5t-3.5 11.5q0 11 7 23q4 8 19.5 25.5t35.5 37.5l40 40l33 33q-17 -11 -46 -34l-60 -48l-56.5 -45t-37 -28.5t-22.5 -15t-12 -4.5q-2 0 -4.5 0.5t-2.5 5.5q0 8 11 25t27.5 38l36 44t37.5 42
l31.5 33t17.5 17q2 0 2.5 0.5t10.5 0.5q4 0 7.5 -1t3.5 -3l-80 -84l-29 -32l-25.5 -29t-18 -22.5t-6.5 -12.5q0 -1 1 -1q34 24 70.5 53.5l69 55.5t58 43.5t37.5 17.5q11 0 11 -4q0 -8 -19 -29.5t-43 -46l-45.5 -46t-26.5 -29.5q-3 -5 -7 -11t-4 -10q0 -2 2 -2q4 0 19 9.5
t33.5 22.5l37.5 26.5l31 22.5l17 13h3z" />
    <glyph glyph-name="o" unicode="o" horiz-adv-x="139" 
d="M107 110q-12 -19 -30 -39t-37.5 -36t-38 -26t-31.5 -10q-12 0 -16 7.5t-4 18.5q0 16 7 32.5t18 32t26 29.5t30 25q-4 9 -4 19q0 19 17.5 30t34.5 11t32 -11.5t15 -31.5q0 -16 -13 -40q32 6 72 32q1 0 1.5 0.5t1.5 0.5q4 0 4 -5q0 -3 -2 -4q-24 -17 -45 -25t-38 -10z
M77 191q-8 -4 -15 -13.5t-10 -20.5q9 5 18.5 7t14.5 2q8 0 8 -4q0 -2 -6.5 -5.5t-14 -8t-13.5 -7.5l-6 -3q2 -11 14.5 -15t27.5 -4q6 0 10 5.5t6.5 13t3.5 14.5t1 9q0 15 -12.5 25t-26.5 5zM-19 10q13 5 28.5 15.5t31 24t29 29t24.5 30.5q-34 0 -52 20q-29 -22 -49 -51
t-20 -57q0 -11 8 -11z" />
    <glyph glyph-name="p" unicode="p" horiz-adv-x="211" 
d="M183 171q2 -4 4 -9t2 -13q0 -9 -4 -20.5t-15.5 -24.5t-31 -28.5t-49.5 -31.5q-9 -5 -22.5 -11.5t-29 -12.5t-31 -10t-28.5 -4q-25 0 -25 21v6l-76 -86.5l-68.5 -78.5t-51.5 -57t-25 -22q-7 0 -7 5q0 2 1 3l35.5 42.5l53.5 62.5l64 75l69 80.5l68 79l61 70.5q1 0 2.5 1
t12.5 1q9 0 9 -4q0 -5 -8.5 -13.5t-13.5 -14.5q16 9 28.5 13t28.5 4q14 0 26.5 -5t20.5 -18zM66 49q33 18 52.5 34t29.5 29t13 23t3 16q0 18 -14.5 25.5t-24.5 7.5q-17 0 -36 -12.5t-39.5 -32t-42.5 -44.5l-43 -50q1 -1 1 -3q0 -4 -1.5 -8t-1.5 -8q0 -10 15 -10q14 0 39 9.5
t50 23.5z" />
    <glyph glyph-name="q" unicode="q" horiz-adv-x="203" 
d="M198 208q2 0 4.5 0.5t4.5 0.5q9 0 9 -4q0 -3 -2 -5l-59 -69t-41.5 -49t-25 -36.5t-8.5 -30.5v-5.5t2 -0.5q15 0 102 85q17 17 19 17q5 0 5 -5q0 -2 -5 -7l-12 -12q-42 -42 -69.5 -65t-40.5 -23q-2 0 -6.5 2t-4.5 13q0 7 2 14t5 15l-80 -91.5l-71 -82t-53.5 -59
t-26.5 -22.5q-6 0 -6 5q0 2 1 3l38 45.5l57.5 67l69 80.5l73.5 85q-16 -14 -33 -27t-34 -23.5t-32.5 -17t-28.5 -7.5q-12 0 -19.5 4t-7.5 15t7.5 22.5t9.5 15.5q20 27 49 52t59 44.5t57 31t45 11.5q7 0 13 -2t6 -7t-4 -5q-3 0 -5 2t-8 2q-11 0 -34.5 -11.5t-51.5 -30.5
t-55.5 -43t-45.5 -49q-5 -7 -10.5 -17t-5.5 -17t6 -7q1 0 1.5 0.5t2.5 0.5v-1q33 8 68 34.5t67.5 58t58.5 61l40 44.5h4z" />
    <glyph glyph-name="r" unicode="r" horiz-adv-x="166" 
d="M170 109q0 -1 0.5 -2t0.5 -2t-8.5 -8.5l-21.5 -19l-29 -24.5l-31.5 -24.5t-28.5 -20t-20 -9.5q-12 0 -19.5 3t-7.5 14q0 9 5 18.5t10 16.5q2 3 18 20l36 39l40.5 43.5l31.5 32.5q-9 2 -15.5 5.5t-6.5 13.5q0 2 -5 2t-4 2l-112 -107q-1 -1 -2 -1q-1 -1 -4 -1q-5 0 -5 5
l124 130h6q3 0 6 0.5t6 0.5q2 0 4 -1.5t2 -2.5q0 -5 -2 -11t-2 -10q0 -16 18 -16q5 0 6.5 1t14.5 1q5 0 5 -2l-9 -9.5l-22.5 -24.5l-30 -32.5l-31 -34l-26 -29.5t-15.5 -18q-7 -10 -13 -20t-6 -15q0 -3 3 -3q5 1 17 8.5t26.5 19l30.5 24.5l29.5 23.5l22.5 18t10 7.5
q3 0 4 -1z" />
    <glyph glyph-name="s" unicode="s" horiz-adv-x="147" 
d="M176 204q-19 -14 -41.5 -48.5l-48 -70.5t-53.5 -63.5t-56 -27.5q-22 0 -28 6.5t-6 12.5t4 15t13 18t23 15.5t35 6.5q5 0 5 -5q0 -4 -4 -4q-18 -1 -30.5 -6t-20.5 -12t-11.5 -14.5t-3.5 -11.5q0 -8 8 -9.5t12 -1.5q17 0 32.5 11t30.5 28.5t28.5 39.5l26.5 43q9 15 19 29
t17 27q-29 -14 -62.5 -35.5t-61.5 -44.5q-1 -2 -4 -2.5t-5 0.5t-2 3t5 6q68 57 109 82.5t66 25.5q11 0 11 -4q0 -3 -7 -9z" />
    <glyph glyph-name="t" unicode="t" horiz-adv-x="92" 
d="M142 260l-69 -80.5t-58 -73t-40 -58.5t-15 -36q0 -2 1 -2t1.5 0.5t1.5 0.5q-2 -1 -5 -2t-5 -2q9 2 24.5 11.5t34.5 24t38.5 32t37.5 36.5q1 0 1.5 0.5t2.5 0.5q4 0 4 -5q0 -2 -1 -3l-35.5 -34t-41.5 -35t-40 -27t-31 -11q-4 0 -8.5 2t-4.5 11q0 13 15.5 39t41 60t57.5 73
l66 78h-74q-4 0 -4 5q0 4 4 4h83l60.5 68.5l40.5 43.5q-1 -2 3.5 1t18.5 3q6 0 6 -2q0 -4 -13 -18.5l-22 -24l-30 -31.5l-37 -40h125q4 0 4 -4q0 -5 -4 -5h-134z" />
    <glyph glyph-name="u" unicode="u" horiz-adv-x="183" 
d="M180 204q2 0 6 1q6 2 12 2q7 0 7 -4q0 -3 -5 -8q-14 -13 -38 -39l-48 -53.5t-41.5 -51.5t-17.5 -33q0 -5 4 -5q10 5 24 15.5l29.5 23l31.5 26.5l31 27l4 4q1 1 4 1q4 0 4 -5q0 -2 -1 -3l-5 -4l-83.5 -70.5t-52.5 -28.5q-9 0 -12 5t-3 9q0 13 18 39q-24 -22 -45 -37.5
t-37 -15.5q-28 0 -28 31q0 14 10 31q5 7 21.5 25.5l37 40.5l40 43l30.5 32q1 1 8.5 2.5t12.5 1.5q6 0 6 -3t-5 -8l-52.5 -54.5t-45 -51.5t-31 -42t-11.5 -25q0 -12 12 -12t29.5 13t37.5 32t40.5 41.5l37.5 40.5l7 8q0 1 2 1q36 42 55 58z" />
    <glyph glyph-name="v" unicode="v" horiz-adv-x="140" 
d="M202 156q0 -4 -3 -5q-22 -9 -45 -16t-46 -5q-44 -47 -75.5 -73.5t-52.5 -39t-32 -15.5t-14 -3q-5 0 -6 2.5t-1 4.5q0 10 16 36.5t37 57l42.5 59.5l32.5 44q1 1 9.5 4t14.5 3q5 0 5 -3q0 -2 -5 -9q-2 -4 -12.5 -17.5l-24 -32l-28.5 -40l-28 -40t-21.5 -32.5t-8.5 -18
q0 -1 1 -1q2 0 3 1l-1 -1q19 10 52.5 35.5t86.5 80.5q-8 3 -8 11q0 11 12 23t26.5 22t26.5 16.5t11 6.5q5 0 5 -6q0 -2 -1 -6t-3 -4q-13 -16 -25.5 -29.5l-23.5 -26.5q1 0 2 -1.5t8 -0.5t22.5 5.5t45.5 16.5h2q2 0 4 -2v-2zM105 141q12 12 24.5 26l26.5 30
q-9 -5 -18.5 -12.5t-18 -15t-14 -14.5t-5.5 -11q0 -3 5 -3z" />
    <glyph glyph-name="w" unicode="w" horiz-adv-x="209" 
d="M263 154q0 -4 -3 -5q-31 -14 -48 -17.5t-22 -3.5h-2q-4 -2 -10 -2q-2 0 -2.5 0.5t-2.5 0.5q-28 -39 -48 -63t-34.5 -38t-23 -19t-13.5 -6q-17 0 -17 18q0 13 11.5 37t27 50t32 50l26.5 38q-11 -7 -30.5 -26l-45 -45l-54.5 -58l-57 -64q-2 -2 -4 -2q-12 0 -12 13t17 39.5
t40.5 55.5l47 55.5l35.5 39.5q5 6 9.5 7t13.5 1q6 0 6 -3q0 -2 -3 -6q-4 -5 -16 -18l-27.5 -30.5l-32.5 -37.5l-31 -37.5t-23 -30.5t-9 -17l1 -1l48 53.5l55 58.5t49 47t31 19q3 0 12.5 -1t9.5 -7l-2 -4q-8 -11 -24.5 -36.5l-34 -53.5t-30.5 -52.5t-13 -34.5q0 -3 2 -3
q10 7 33.5 31t67.5 83q-4 2 -7.5 5t-3.5 8q0 11 9.5 23.5t21.5 23t22.5 17.5t12.5 7q4 0 5 -2.5t1 -4.5q0 -6 -5.5 -15.5t-13 -20l-14.5 -19.5l-11 -14h7q1 0 17.5 2.5t51.5 18.5h2q1 0 5 -2v-2zM169 137l20.5 29.5l22.5 32.5q-8 -5 -16.5 -12.5t-15.5 -15.5t-12 -15.5
t-5 -12.5q0 -3 0.5 -4t5.5 -2z" />
    <glyph glyph-name="x" unicode="x" horiz-adv-x="99" 
d="M-31 7q-3 6 -3 16q0 17 6 38l-71 -63q-1 -1 -4 -1q-5 0 -5 4q0 2 2 4l84 74q6 19 14.5 39l16 36.5t13.5 28.5l8 16q1 2 7.5 4.5t12.5 2.5t6 -5q0 -2 -12 -24.5t-29 -64.5l101 89q1 1 2 1q6 0 6 -6q0 -2 -1 -3l-116 -102q-9 -21 -15 -39t-6 -29q0 -8 5 -8q7 0 34.5 23.5
t71.5 66.5q0 1 3 1q4 0 4 -5q0 -2 -1 -3q-36 -36 -59 -55.5t-36.5 -29.5t-19 -12t-6.5 -2q-10 0 -13 8z" />
    <glyph glyph-name="y" unicode="y" horiz-adv-x="181" 
d="M184 103q-50 -50 -81 -77.5t-46 -27.5q-4 0 -8 3t-4 15q0 4 2 12l-67 -80.5l-62 -75l-47.5 -56t-22.5 -24.5l-33.5 -32.5t-23 -19.5t-15 -9.5t-8.5 -2.5q-11 0 -11 13q0 8 6 24.5t23 48.5q13 24 36 55.5t50 59.5t53.5 47.5t46.5 19.5q13 0 14.5 -7t1.5 -9l28 34.5
t29 34.5l-45.5 -35t-34.5 -15q-12 0 -19.5 7t-7.5 22q0 17 11 33l21.5 25l37 41l40 43l30.5 32q1 1 7 2t11 1q7 0 7 -3t-4 -7l-52 -55.5t-44 -51t-30.5 -41t-11.5 -26.5q0 -11 8 -11q1 0 1.5 0.5t2.5 0.5q38 14 88.5 64.5t119.5 127.5q1 -1 0.5 -0.5t0 1t3.5 1t11 0.5
q11 0 11 -4q0 -3 -6 -9q-28 -26 -53 -54t-43.5 -52.5t-29.5 -43t-11 -24.5t4 -6l4 2q-2 -1 -3.5 -2t-3.5 -2q16 9 35 25.5t36.5 33.5l29.5 29.5t15 12.5q5 0 5 -4q0 -2 -2 -4zM-39 -51l11 17t6 15v2.5t-3 2.5q-24 -8 -47 -27.5t-44.5 -44.5t-40 -52.5t-32 -51.5t-21 -40.5
t-7.5 -20.5q0 -2 2 -2q8 6 21.5 18t33.5 34q3 2 5 5l17 17.5t30 33.5t35.5 44.5t33.5 49.5z" />
    <glyph glyph-name="z" unicode="z" horiz-adv-x="179" 
d="M157 194q18 0 29 -6.5t0 -19.5l-27 -26.5t-30.5 -32.5t-25.5 -35t-12 -34q11 6 30.5 21.5t53.5 47.5l1 1q3 3 7 0q3 -4 0 -7l-2 -2q-26 -24 -43.5 -38.5t-30 -23t-20 -11.5t-11.5 -3t-5 1q-2 1 -4 3.5t-2 7.5q-1 5 1 15l-37.5 -44l-33.5 -38l9 3q26 11 46 16t29 -5
q4 -7 3 -18q21 2 34 -5q28 -12 28 -54q1 -2 -0.5 -3.5t-3.5 -1.5q-2 -1 -3.5 0.5t-1.5 3.5q-1 36 -23 46q-13 6 -33 4q-5 -15 -18 -36q-21 -35 -52 -69.5t-62.5 -63t-61 -47.5t-47.5 -23q-8 -2 -11 -2q-15 0 -20 11q-8 17 3 41.5t34.5 50.5t55 52t64 47t61.5 34t47 14
q2 6 1 8.5t-2 3.5q-3 4 -10.5 3.5t-17 -3t-19.5 -6.5l-17 -7q-14 -5 -19.5 -6.5t-8.5 0.5t-1 7l1 1q9 9 22.5 25l29.5 34l31 36.5l27 33.5q14 20 32.5 38.5l39.5 38.5q3 4 3.5 6t0.5 3q-1 2 -7 3t-14.5 1t-17.5 -0.5t-16 -0.5q-14 -1 -23 -1.5t-17 0.5l-41 -47.5l-40 -45.5
q-2 -2 -4 -2t-3 1q-4 2 -1 7l37 44.5l37 44.5q-8 3 -10 8q-4 11 19 31q6 5 12.5 5t10.5 -4q3 -3 3.5 -8.5t-4.5 -11.5q-2 -3 -5 -6t-6 -7q8 0 17.5 0.5t16.5 0.5q16 2 28 2t21 -1h-1zM63 193q9 10 15 18q2 2 2 4q-5 -5 -10.5 -9.5t-7.5 -12.5h1zM53 -75q10 16 15 27
q-23 -4 -52.5 -20.5t-59 -39.5t-56.5 -49.5t-45 -50t-24 -41.5t7 -24q16 4 43.5 22t58.5 45t61 61t52 70z" />
    <glyph glyph-name="tilde" unicode="&#x2dc;" horiz-adv-x="149" 
d="M126 244q-12 -14 -25.5 -10.5t-25.5 9.5q-9 4 -16.5 6.5t-15.5 0.5q-10 -4 -19 -21q0 -3 -4 -3h-2q-5 3 -2 7q9 22 24 26q10 4 19.5 0.5t19.5 -8.5q14 -6 22.5 -7.5t16.5 7.5q3 3 7 0q3 -3 1 -7z" />
    <glyph glyph-name="cedilla" unicode="&#xb8;" horiz-adv-x="833" 
d="M178 8q4 -4 2 -7l-4 -8q1 -4 2.5 -12t-3.5 -15q-2 -3 -5.5 -6t-10.5 -3h-3q-8 0 -12 3t-6 5q-7 10 1 24q2 4 6 2q5 -2 2 -7q-4 -9 -1 -14q4 -4 12 -4q7 2 9 5q2 5 1 11.5t-2 9.5q-1 1 0 4l5 9q2 5 7 3z" />
    <glyph glyph-name="space" unicode=" " horiz-adv-x="146" 
 />
    <glyph glyph-name="grave" unicode="`" horiz-adv-x="68" 
d="M9 239q-2 4 -2 7q0 10 6 13t8 3q6 0 8.5 -6t5 -13.5t8 -15t19.5 -10.5q0 -7 -6 -7q-5 0 -11.5 2.5t-13.5 6.5t-13 9t-9 11z" />
    <glyph glyph-name="acute" unicode="&#xb4;" horiz-adv-x="68" 
d="M59 239q-3 -6 -9 -11t-13 -9t-14 -6.5t-11 -2.5q-6 0 -6 7q13 3 19 10.5t8.5 15t5 13.5t8.5 6q2 0 8 -3t6 -13q0 -3 -2 -7z" />
    <glyph glyph-name="circumflex" unicode="&#x2c6;" horiz-adv-x="100" 
d="M81 202q-7 2 -16 9t-17 15q-10 -5 -21.5 -7t-17.5 -1q-5 1 -4 9q14 0 21 4t10.5 9t7 9t9.5 3l1 -1h2q6 -2 7 -6.5t2.5 -10.5t6 -13t16.5 -13q-1 -7 -7 -6z" />
    <glyph glyph-name="dieresis" unicode="&#xa8;" horiz-adv-x="81" 
d="M32 226q-2 -5 -11.5 -6t-11.5 8q-2 5 0 11t13 6q2 0 6.5 -2t4.5 -10q0 -5 -1 -7zM73 226q-2 -5 -11.5 -6t-11.5 8q-2 5 0 11t13 6q2 0 6.5 -2t4.5 -10q0 -5 -1 -7z" />
    <glyph glyph-name="ring" unicode="&#x2da;" horiz-adv-x="38" 
d="M31 226q-2 -5 -11.5 -6t-11.5 8q-2 5 0 11t13 6q2 0 6.5 -2t4.5 -10q0 -5 -1 -7zM24 232q0 5 -4 5q-7 0 -5 -7q1 -3 4 -3t5 2v3z" />
    <glyph glyph-name="exclam" unicode="!" horiz-adv-x="302" 
d="M322 404q17 5 21.5 1t-1.5 -12l-342 -436q-2 -3 -6 -5q-3 -2 -7 -2.5t-9 3.5q0 1 -0.5 0.5t-0.5 0.5q-3 2 -1 6l339 433q1 1 0.5 2t-1 2.5t1 3t6.5 3.5zM-23 -82q-3 -5 -13 -6t-9 8q-1 5 2 11t14 6q2 0 6.5 -2t2.5 -10q-1 -2 -1 -3.5t-2 -3.5z" />
    <glyph glyph-name="question" unicode="?" horiz-adv-x="378" 
d="M31 -82q-2 -5 -11.5 -6t-11.5 8q-2 5 0 11t13 6q2 0 6.5 -2t4.5 -10q0 -5 -1 -7zM354 369q-18 -25 -47 -57l-62.5 -67.5l-67 -72.5t-61 -71t-44 -64.5t-14.5 -51.5q1 -11 0.5 -19t-9.5 -5q-10 3 -13.5 13t-5.5 21q-2 21 14 51.5t42 64.5t59 69.5t65 66.5l68 67t51 58
q13 21 8 25q-5 5 -24.5 0.5t-45.5 -16.5t-56.5 -30.5t-58.5 -42.5q-14 -12 -30.5 -29.5t-27.5 -37.5t-13 -41.5t12 -42.5q2 -4 -1 -7q-6 -2 -7 1q-23 35 -7.5 77t68.5 88q25 22 55 40.5t57.5 31t49.5 18t32 0.5q-2 2 -4 3q19 -3 26.5 -10.5t-8.5 -29.5z" />
    <glyph glyph-name="caron" unicode="&#x2c7;" horiz-adv-x="97" 
d="M90 240q3 -2 4 -3t-1 -6q-14 1 -21 -2.5t-11.5 -8.5l-7.5 -8.5t-9 -1.5l-2 1h-1q-6 2 -7 7t-2 11.5t-4.5 13.5t-15.5 14q2 5 3 5.5t5 -0.5q6 -2 15 -9.5t15 -16.5q11 4 22 5t18 -1z" />
    <glyph glyph-name="slash" unicode="/" horiz-adv-x="288" 
d="M256 404q17 5 22.5 1t0.5 -12l-249 -436q-2 -3 -6 -5q-3 -2 -7 -2.5t-10 3.5q0 1 -0.5 0.5t-0.5 0.5q-4 2 -2 6l248 433q1 1 0 2t-2 2.5t0 3t6 3.5z" />
    <glyph glyph-name="equal" unicode="=" horiz-adv-x="141" 
d="M129 134q3 -10 2.5 -16t-2.5 -5l-117 -2q-1 0 -2 2q-2 4 -2 14v1v3q0 1 1 1l117 1q1 -1 1 3t2 -2zM129 98q3 -10 2.5 -16t-2.5 -5l-117 -2q-1 0 -2 2q-2 4 -2 14v1v3q0 1 1 1l117 1q1 -1 1 3t2 -2z" />
    <glyph glyph-name="hyphen" unicode="-" horiz-adv-x="280" 
d="M216 117q3 -10 2.5 -16t-2.5 -5l-117 -2q-1 0 -2 2q-2 4 -2 14v1v3q0 1 1 1l117 1q1 -1 1 3t2 -2z" />
    <glyph glyph-name="plus" unicode="+" horiz-adv-x="135" 
d="M62 166q10 2 16 1.5t5 -2.5l-4 -50l44 1q1 -1 1 3t2 -2q3 -10 2.5 -16t-2.5 -5l-48 -1l-3 -47q0 -1 -2 -2q-4 -2 -14 -1h-1l-4 2l3 48l-48 -1q-1 0 -2 2q-2 4 -2 14v1v3q0 1 1 1h53l4 48q1 1 -3 1t2 2z" />
    <glyph glyph-name="period" unicode="." horiz-adv-x="57" 
d="M52 5q-2 -5 -11.5 -6t-11.5 8q-2 5 0 11t13 6q2 0 6.5 -2t4.5 -10q0 -5 -1 -7z" />
    <glyph glyph-name="comma" unicode="," horiz-adv-x="53" 
d="M47 5q-1 -3 -8 -9.5l-14.5 -13t-12.5 -10t-2 0.5q7 10 10 19.5t5 16.5t4.5 11t7.5 4q2 0 6.5 -2t4.5 -10q0 -5 -1 -7z" />
    <glyph glyph-name="asterisk" unicode="*" horiz-adv-x="262" 
d="M235 358q17 -9 12 -11l-18 -19l20 1q1 -1 1 2t2 -2q2 -8 2 -12.5t-2 -3.5l-27 -1l19 -18q0 -1 2 1.5t-1 -2.5q-3 -7 -6.5 -10.5t-4.5 -1.5l-18 18l1 -25q0 -1 -2 -2t-11 -1h-1h-2q-1 0 -1 1l-1 25l-17 -18q0 -1 -2 0l-4 2t-6 5v1q-1 1 -1 2l21 22h-32q-1 0 -2 2t-1 11v1
v2q0 1 1 1h30l-19 19q-1 0 0 2q0 1 6 9h1q0 2 2 2h1l22 -23v28q1 1 -2.5 1t1.5 2q8 2 13 2t4 -2v-31l19 20q1 0 -1.5 1.5t2.5 -0.5z" />
    <glyph glyph-name="parenleft" unicode="(" horiz-adv-x="292" 
d="M34 -95q-16 6 -22 21.5t-6 36.5q0 28 18.5 71t50 91.5t74 98.5t91.5 92q30 25 67 50.5t75 46t73 33t60 11.5q21 -1 18.5 -4.5t-15.5 -5.5q-54 -9 -111.5 -40.5t-111.5 -76t-102 -97t-83.5 -103.5t-56.5 -95.5t-21 -72.5q0 -23 7 -37t26 -14q8 2 5 -4t-14 -6q-14 0 -22 4z
" />
    <glyph glyph-name="parenright" unicode=")" horiz-adv-x="373" 
d="M329 455q16 -6 22 -21.5t6 -36.5q0 -28 -18.5 -71t-50 -91.5t-74 -98.5t-91.5 -92q-30 -26 -67 -51.5t-75 -45.5t-73 -32.5t-60 -11.5q-21 1 -18.5 4.5t15.5 5.5q54 9 111.5 40.5t111.5 76t102 97t83.5 103.5t56.5 95t21 73q0 23 -7 37t-26 14q-8 -2 -5 4t14 6
q14 0 22 -4z" />
    <glyph glyph-name="colon" unicode=":" horiz-adv-x="116" 
d="M57 32q-2 -5 -11.5 -6t-11.5 8q-2 5 0 11t13 6q2 0 6.5 -2t4.5 -10q0 -5 -1 -7zM89 122q-2 -5 -11.5 -6t-11.5 8q-2 5 0 11t13 6q2 0 6.5 -2t4.5 -10q0 -5 -1 -7z" />
    <glyph glyph-name="semicolon" unicode=";" horiz-adv-x="112" 
d="M80 122q-2 -5 -11.5 -6t-11.5 8q-2 5 0 11t13 6q2 0 6.5 -2t4.5 -10q0 -5 -1 -7zM47 30q-1 -3 -8 -9.5l-14.5 -13t-12.5 -10t-2 0.5q7 10 10 19.5t5 16.5t4.5 11t7.5 4q2 0 6.5 -2t4.5 -10q0 -5 -1 -7z" />
    <glyph glyph-name="quotesingle" unicode="'" horiz-adv-x="113" 
d="M184 357q-1 -3 -8 -9.5l-14.5 -13t-12.5 -10t-2 0.5q7 10 10 19.5t5 16.5t4.5 11t7.5 4q2 0 6.5 -2t4.5 -10q0 -5 -1 -7z" />
    <glyph glyph-name="percent" unicode="%" horiz-adv-x="290" 
d="M255 404q17 5 22.5 1t0.5 -12l-249 -436q-2 -3 -6 -5q-3 -2 -7 -2.5t-10 3.5q0 1 -0.5 0.5t-0.5 0.5q-4 2 -2 6l248 433q1 1 0 2t-2 2.5t0 3t6 3.5zM260 72q0 -6 -3.5 -15.5t-7.5 -16.5q-8 -12 -18 -24.5t-21.5 -22.5t-22 -16.5t-18.5 -6.5t-10 4.5t-2 11.5q0 20 14.5 41
t32.5 35q-2 4 -2 11q0 12 10 19t20 7t19 -7t9 -20zM211 52q-17 -14 -29 -32.5t-12 -35.5q0 -7 5 -7q16 7 35 25t31 37q5 5 9 17.5t4 15.5q0 10 -5.5 14.5t-11.5 6.5l-6 -2q-10 -5 -15 -21q12 5 20 5q4 0 4 -2q0 -1 -4 -3.5l-9 -5.5t-9.5 -6.5t-6.5 -5.5zM132 356
q0 -6 -3.5 -15.5t-7.5 -16.5q-8 -12 -18 -24.5t-21.5 -22.5t-22 -16.5t-18.5 -6.5t-10 4.5t-2 11.5q0 20 14.5 41t32.5 35q-2 4 -2 11q0 12 10 19t20 7t19 -7t9 -20zM83 336q-17 -14 -29 -32.5t-12 -35.5q0 -7 5 -7q16 7 35 25t31 37q5 5 9 17.5t4 15.5q0 10 -5.5 14.5
t-11.5 6.5l-6 -2q-10 -5 -15 -21q12 5 20 5q4 0 4 -2q0 -1 -4 -3.5l-9 -5.5t-9.5 -6.5t-6.5 -5.5z" />
    <glyph glyph-name="at" unicode="@" horiz-adv-x="463" 
d="M248 37q-3 6 -3 12q-2 15 4 31t17 33q-38 -40 -65 -65.5t-41 -27.5q-12 -2 -19 1.5t-9 14.5q-1 11 4.5 23.5t7.5 14.5q17 30 44 60t55.5 54t55 40t43.5 18q6 0 13 -1.5t9 -12.5v-8t-4 -7q-7 0 -7 5q0 2 0.5 4t0.5 4q-1 6 -4.5 6.5t-6.5 0.5l-15 -5t-20 -10
q-18 -11 -44.5 -34.5t-50.5 -51.5t-40.5 -55t-14.5 -45q0 -5 4 -5q7 1 20.5 12t29.5 27l32.5 33.5l29.5 31.5q7 7 15.5 17t17 19t15.5 15.5t10 6.5q1 0 9.5 -0.5t9.5 -5.5q0 -2 -0.5 -2.5t-0.5 -2.5q-27 -27 -44 -50t-26 -40.5t-12 -28t-3 -13.5q0 -5 3 -5q33 15 58 43.5
t41.5 60.5t25 62t8.5 49q0 27 -11.5 42.5t-26.5 15.5q-31 0 -66 -17t-68.5 -44t-64 -60.5t-53.5 -67.5t-36.5 -64.5t-13.5 -50.5q0 -30 26 -41.5t61 -9t71 14.5t56 28l7 -7q-19 -15 -44 -26.5t-52.5 -17t-54.5 -5.5t-48 7.5t-34 22.5t-13 39q0 27 15.5 60.5t41.5 68t59.5 67
t70.5 57.5t74 40.5t70 15.5q25 0 42.5 -18t17.5 -51q0 -32 -14 -65.5t-36 -64.5t-49.5 -56t-55.5 -40q-2 -2 -6 -4q-2 -1 -4 -1t-2 1q-9 0 -12 8z" />
    <glyph glyph-name="dollar" unicode="$" horiz-adv-x="365" 
d="M294 396q9 3 12 0.5t1 -7.5l-20 -34h7q15 0 33 -3t18 -9q0 -4 -3 -4l-2 2q-10 8 -44 8q-8 0 -12 -1l-58 -101q16 -11 28 -24t12 -33t-10.5 -36t-27.5 -27.5t-40 -18.5t-47 -9l-20 -36q-1 -2 -3 -3q-5 -3 -11 1v1q-4 0 -1 3l19 33h-8q-20 0 -32 2.5t-18 6.5t-8 8.5t-2 9.5
q1 9 10.5 19.5t22.5 19t28.5 14t28.5 5.5h4.5t2.5 -3q0 -2 -3 -2q-13 0 -27 -5.5t-25.5 -14t-19 -18t-7.5 -16.5q0 -9 10.5 -14.5t35.5 -5.5h10l80 139q-19 11 -35 22t-16 27q0 14 10.5 24.5t25 17.5t29.5 11t24 6l25 3l20 35q1 1 -1 3t4 4zM251 190q0 15 -9 26t-22 20
l-75 -131q45 6 75.5 29t30.5 56zM174 296q0 -12 12 -21.5t28 -19.5l52 91q-17 -2 -33.5 -6t-29.5 -10t-21 -14.5t-8 -19.5z" />
    <glyph glyph-name="Euro" unicode="&#x20ac;" horiz-adv-x="463" 
d="M92 110q-16 6 -16 35q0 31 27 73h-25q-1 0 -2 1q-2 2 -2 6q0 1 1 2h34l6 7h-37q-1 0 -2 1q-2 2 -2 6q0 1 1 2h47q27 33 70 70q74 62 136 62q26 0 37.5 -10t11.5 -24q0 -10 -6 -20.5t-16.5 -19.5t-25.5 -14.5t-32 -5.5q-12 0 -20.5 6.5t-8.5 17.5q0 12 10.5 20.5t24.5 8.5
q3 0 9 -0.5t6 -3.5t-2 -3q-4 0 -7 0.5t-5 0.5q-21 0 -25.5 -9.5t-4.5 -13.5q0 -8 6.5 -13.5t16.5 -5.5q27 0 48 18t21 39q0 26 -37 26q-22 0 -47 -11t-50 -28.5t-48.5 -40t-42.5 -46.5h41q1 0 1 1.5t2 -0.5q3 -5 2.5 -7.5t-2.5 -1.5l-51 -1l-5 -7l53 1q1 -1 1 1t2 -1
q3 -5 2.5 -7.5t-2.5 -1.5l-63 -1q-30 -44 -30 -74q0 -14 4 -22.5t16 -8.5q15 1 34.5 9.5t39 19t36 20.5l26.5 16q0 1 1 1q3 0 3 -2t-1 -3l-37 -23t-39.5 -21.5t-37.5 -16t-31 -6.5q-8 0 -14 3z" />
    <glyph glyph-name="less" unicode="&#x3c;" horiz-adv-x="208" 
d="M180 17q-8 -2 -7 1t-1 3l-167 54q-2 2 2 9l167 54q2 0 1 3t7 1q13 -3 14.5 -6.5t-5.5 -5.5l-153 -51l152 -50q6 -2 5 -5.5t-15 -6.5z" />
    <glyph glyph-name="greater" unicode="&#x3e;" horiz-adv-x="208" 
d="M28 142q8 2 7 -1t1 -3l167 -54q1 -1 1 -2.5t-3 -6.5l-167 -54q-2 0 -1 -3t-7 -1q-13 3 -14.5 6.5t5.5 5.5l153 51l-152 50q-6 2 -5 5.5t15 6.5z" />
    <glyph glyph-name="backslash" unicode="\" horiz-adv-x="288" 
d="M32 404q5 -2 6 -3.5t0 -3t-2 -2.5t0 -2l248 -433q2 -4 -2 -6q0 -1 -0.5 -0.5t-0.5 -0.5q-6 -4 -10.5 -3.5t-7.5 2.5q-4 2 -5 5l-249 436q-5 8 0.5 12t22.5 -1z" />
    <glyph glyph-name="underscore" unicode="_" horiz-adv-x="402" 
d="M369 -13q13 -12 11.5 -19t-9.5 -7l-335 -2q-4 0 -7 2q-7 3 -7 15v2q0 3 4 5l331 2q1 0 1.5 1.5t1.5 2.5t3 1t6 -3z" />
    <glyph glyph-name="quoteright" unicode="&#x2019;" horiz-adv-x="193" 
d="M256 357q-1 -3 -8 -9.5l-14.5 -13t-12.5 -10t-2 0.5q7 10 10 19.5t5 16.5t4.5 11t7.5 4q2 0 6.5 -2t4.5 -10q0 -5 -1 -7z" />
    <glyph glyph-name="quotesinglbase" unicode="&#x201a;" horiz-adv-x="52" 
d="M47 5q-1 -3 -8 -9.5l-14.5 -13t-12.5 -10t-2 0.5q7 10 10 19.5t5 16.5t4.5 11t7.5 4q2 0 6.5 -2t4.5 -10q0 -5 -1 -7z" />
    <glyph glyph-name="quotedblbase" unicode="&#x201e;" horiz-adv-x="96" 
d="M49 5q-1 -3 -8 -9.5l-14.5 -13t-12.5 -10t-2 0.5q7 10 10 19.5t5 16.5t4.5 11t7.5 4q2 0 6.5 -2t4.5 -10q0 -5 -1 -7zM89 5q-1 -3 -8 -9.5l-14.5 -13t-12.5 -10t-2 0.5q7 10 10 19.5t5 16.5t4.5 11t7.5 4q2 0 6.5 -2t4.5 -10q0 -5 -1 -7z" />
    <glyph glyph-name="ellipsis" unicode="&#x2026;" horiz-adv-x="249" 
d="M52 5q-2 -5 -11.5 -6t-11.5 8q-2 5 0 11t13 6q2 0 6.5 -2t4.5 -10q0 -5 -1 -7zM109 5q-2 -5 -11.5 -6t-11.5 8q-2 5 0 11t13 6q2 0 6.5 -2t4.5 -10q0 -5 -1 -7zM166 5q-2 -5 -11.5 -6t-11.5 8q-2 5 0 11t13 6q2 0 6.5 -2t4.5 -10q0 -5 -1 -7z" />
    <glyph glyph-name="perthousand" unicode="&#x2030;" horiz-adv-x="308" 
d="M259 404q17 5 22.5 1t0.5 -12l-249 -436q-2 -3 -6 -5q-3 -2 -7 -2.5t-10 3.5q0 1 -0.5 0.5t-0.5 0.5q-4 2 -2 6l248 433q1 1 0 2t-2 2.5t0 3t6 3.5zM205 72q0 -6 -3.5 -15.5t-7.5 -16.5q-8 -12 -18 -24.5t-21.5 -22.5t-22 -16.5t-18.5 -6.5t-10 4.5t-2 11.5q0 20 14.5 41
t32.5 35q-2 4 -2 11q0 12 10 19t20 7t19 -7t9 -20zM156 52q-17 -14 -29 -32.5t-12 -35.5q0 -7 5 -7q16 7 35 25t31 37q5 5 9 17.5t4 15.5q0 10 -5.5 14.5t-11.5 6.5l-6 -2q-10 -5 -15 -21q12 5 20 5q4 0 4 -2q0 -1 -4 -3.5l-9 -5.5t-9.5 -6.5t-6.5 -5.5zM136 356
q0 -6 -3.5 -15.5t-7.5 -16.5q-8 -12 -18 -24.5t-21.5 -22.5t-22 -16.5t-18.5 -6.5t-10 4.5t-2 11.5q0 20 14.5 41t32.5 35q-2 4 -2 11q0 12 10 19t20 7t19 -7t9 -20zM87 336q-17 -14 -29 -32.5t-12 -35.5q0 -7 5 -7q16 7 35 25t31 37q5 5 9 17.5t4 15.5q0 10 -5.5 14.5
t-11.5 6.5l-6 -2q-10 -5 -15 -21q12 5 20 5q4 0 4 -2q0 -1 -4 -3.5l-9 -5.5t-9.5 -6.5t-6.5 -5.5zM302 72q0 -6 -3.5 -15.5t-7.5 -16.5q-8 -12 -18 -24.5t-21.5 -22.5t-22 -16.5t-18.5 -6.5t-10 4.5t-2 11.5q0 20 14.5 41t32.5 35q-2 4 -2 11q0 12 10 19t20 7t19 -7t9 -20z
M253 52q-17 -14 -29 -32.5t-12 -35.5q0 -7 5 -7q16 7 35 25t31 37q5 5 9 17.5t4 15.5q0 10 -5.5 14.5t-11.5 6.5l-6 -2q-10 -5 -15 -21q12 5 20 5q4 0 4 -2q0 -1 -4 -3.5l-9 -5.5t-9.5 -6.5t-6.5 -5.5z" />
    <glyph glyph-name="guilsinglleft" unicode="&#x2039;" horiz-adv-x="208" 
d="M180 17q-8 -2 -7 1t-1 3l-167 54q-2 2 2 9l167 54q2 0 1 3t7 1q13 -3 14.5 -6.5t-5.5 -5.5l-153 -51l152 -50q6 -2 5 -5.5t-15 -6.5z" />
    <glyph glyph-name="guillemotleft" unicode="&#xab;" horiz-adv-x="305" 
d="M182 17q-8 -2 -7 1t-1 3l-167 54q-2 2 2 9l167 54q2 0 1 3t7 1q13 -3 14.5 -6.5t-5.5 -5.5l-153 -51l152 -50q6 -2 5 -5.5t-15 -6.5zM276 17q-8 -2 -7 1t-1 3l-167 54q-2 2 2 9l167 54q2 0 1 3t7 1q13 -3 14.5 -6.5t-5.5 -5.5l-153 -51l152 -50q6 -2 5 -5.5t-15 -6.5z
" />
    <glyph glyph-name="guillemotright" unicode="&#xbb;" horiz-adv-x="305" 
d="M123 17q-14 3 -15 6.5t5 5.5l152 50l-153 51q-7 2 -5.5 5.5t14.5 6.5q8 2 7 -1t1 -3l167 -54q3 -5 3 -6.5t-1 -2.5l-167 -54q-2 0 -1 -3t-7 -1zM29 17q-14 3 -15 6.5t5 5.5l152 50l-153 51q-7 2 -5.5 5.5t14.5 6.5q8 2 7 -1t1 -3l167 -54q3 -5 3 -6.5t-1 -2.5l-167 -54
q-2 0 -1 -3t-7 -1z" />
    <glyph glyph-name="guilsinglright" unicode="&#x203a;" horiz-adv-x="208" 
d="M28 17q-14 3 -15 6.5t5 5.5l152 50l-153 51q-7 2 -5.5 5.5t14.5 6.5q8 2 7 -1t1 -3l167 -54q3 -5 3 -6.5t-1 -2.5l-167 -54q-2 0 -1 -3t-7 -1z" />
    <glyph glyph-name="fraction" unicode="&#x2044;" horiz-adv-x="288" 
d="M256 404q17 5 22.5 1t0.5 -12l-249 -436q-2 -3 -6 -5q-3 -2 -7 -2.5t-10 3.5q0 1 -0.5 0.5t-0.5 0.5q-4 2 -2 6l248 433q1 1 0 2t-2 2.5t0 3t6 3.5z" />
    <glyph glyph-name="fi" unicode="&#xfb01;" horiz-adv-x="190" 
d="M208 191l-37 -36.5l-50 -51.5t-43.5 -52t-18.5 -38q14 7 45 30.5t79 65.5q1 1 3 1q5 0 5 -5q0 -2 -1 -3l-56 -47.5t-40.5 -31.5t-27 -17.5t-16.5 -5.5q-11 0 -14 4.5t-3 9.5q0 12 15 33.5t36 45.5t43.5 47l37.5 38q-14 -5 -32 -9l-35 -8t-30.5 -6.5t-18.5 -2.5
q-8 -11 -17 -20l13 -6.5t5 -14.5q0 -20 -18 -54t-43 -70t-51.5 -67.5t-42.5 -46.5q-55 -47 -76 -47q-8 0 -11.5 5t-3.5 13q0 9 4 21t10 24t12 22t10 16q10 15 26.5 37l37.5 48l45.5 55l50.5 60q-8 2 -12 4t-5 7q0 19 45 22l64.5 74l61.5 69.5l54 59.5l42 45q1 1 2 1q3 0 6 1
q6 2 11 2q7 0 7 -3q0 -4 -4 -8q-18 -18 -42 -44.5l-52 -58l-58.5 -66l-61.5 -70.5q6 0 24 3.5t39 8.5t38.5 10.5t21.5 9.5q6 6 11 6h9q10 0 10 -4q0 -2 -3 -5zM35 121q-6 2 -10 2q-102 -119 -149.5 -184.5t-47.5 -93.5q0 -5 3 -5q6 0 21.5 11.5t35.5 28.5q11 10 27 28t33 40
l33.5 45.5t29.5 46t21 41t8 29.5q0 9 -5 11zM257 239q-3 -6 -9 -11t-13 -9t-14 -6.5t-11 -2.5q-6 0 -6 7q1 3 5.5 10l10 15t12.5 14t13 6q2 0 8 -3t6 -13q0 -3 -2 -7zM225 224q8 5 16 11.5t8 11.5q0 1 -0.5 1.5t-0.5 1.5l-2 2h-1q-5 0 -11.5 -11.5t-8.5 -16.5zM-7 140
q2 -2 6 -2.5t8 -1.5l12 13q-14 -2 -19.5 -5t-6.5 -4z" />
    <glyph glyph-name="fl" unicode="&#xfb02;" horiz-adv-x="212" 
d="M252 409q3 0 6 1q6 2 11 2q7 0 7 -3q0 -4 -4 -8q-18 -18 -42 -44.5l-52 -58l-58.5 -66l-61.5 -70.5q6 0 16 1t21 2.5t20.5 4t13.5 6.5l5 4q28 34 61 70t64.5 65.5t58.5 48.5t44 19q2 0 5 -1.5t3 -8.5q-1 -10 -16 -30.5t-38.5 -46.5t-53 -55l-60 -57l-59.5 -52.5
t-51 -40.5q-4 -4 -6.5 -7.5l-4.5 -6.5q-2 -5 -7 -12t-9.5 -15t-8 -16.5t-3.5 -15.5t2 -9q12 3 30 13.5t38.5 25l41.5 30.5l38 30q1 1 3 1q5 0 5 -4t-21 -21.5t-49 -36.5t-55 -34t-40 -15q-11 0 -15 6.5t-4 13.5q0 11 7 25t14 25l2 3q1 2 3.5 5t2.5 5q8 12 24.5 33l38.5 47
q-17 -5 -38.5 -7t-31.5 -2q-8 -11 -17 -20l13 -6.5t5 -14.5q0 -20 -18 -54t-43 -70t-51.5 -67.5t-42.5 -46.5q-55 -47 -76 -47q-8 0 -11.5 5t-3.5 13q0 9 4 21t10 24t12 22t10 16q10 15 26.5 37l37.5 48l45.5 55l50.5 60q-8 2 -12 4t-5 7q0 19 45 22l64.5 74l61.5 69.5
l54 59.5l42 45q1 1 2 1zM35 121q-6 2 -10 2q-102 -119 -149.5 -184.5t-47.5 -93.5q0 -5 3 -5q6 0 21.5 11.5t35.5 28.5q11 10 27 28t33 40l33.5 45.5t29.5 46t21 41t8 29.5q0 9 -5 11zM359 370q-24 -11 -56.5 -40t-67 -66t-67 -76.5l-56.5 -69.5q22 17 48.5 40.5l54 49
l53.5 51.5t46 48.5t32.5 39t12.5 23.5zM-7 140q2 -2 6 -2.5t8 -1.5l12 13q-14 -2 -19.5 -5t-6.5 -4z" />
    <glyph glyph-name="Lslash" unicode="&#x141;" horiz-adv-x="353" 
d="M256 -59q-34 0 -72.5 19t-73.5 41q-13 -8 -26 -10.5t-24 -2.5q-24 0 -38 14.5t-14 37.5q0 8 4 13t12 5q3 0 12 -2.5t20 -7.5t23 -12.5t22 -17.5q9 9 25.5 29l38.5 47h-47q-1 0 -2 1q-2 2 -2 10v2l1 1h61l42 53q-31 7 -51 25t-20 41q0 5 2 12.5t9 15.5t20 15.5t34 12.5
q6 0 6 -6q0 -3 -3 -4q-58 -14 -58 -46q0 -22 19 -36t48 -22l86 108l44 56q27 34 46 45.5t31 11.5q8 0 13 -3q38 -13 38 -55q0 -33 -19.5 -64.5t-49.5 -56t-67 -40t-73 -16.5q7 0 15 3q-15 -3 -29 -3q-5 0 -9 0.5t-8 0.5l-38 -48l32 1q1 -1 1 2t2 -2q7 -16 0 -14l-46 -1
l-47.5 -57.5t-26.5 -29.5q33 -21 69.5 -39t68.5 -18q29 0 48 16.5t19 32.5q0 10 -7 16t-17 6q-16 0 -32 -12q-1 -1 -3 -1q-4 0 -4 4t5 7.5t12 6t13.5 3.5t8.5 1q14 0 23.5 -8.5t9.5 -21.5q0 -20 -20.5 -39.5t-56.5 -19.5zM379 329l-61.5 -78l-68.5 -85q3 0 6 -0.5t6 -0.5
q31 0 65 14t63 37t48 54t19 66q0 21 -6 28.5t-14 15.5q-9 0 -23.5 -14t-33.5 -37zM47 -1q2 -1 9 -1t16 3t21 11l-40 24t-29 12h-4t-2 -8q0 -14 7.5 -26.5t21.5 -14.5z" />
    <glyph glyph-name="lslash" unicode="&#x142;" horiz-adv-x="123" 
d="M61 102q7 -16 0 -14l-62 -1l-8 -10q-2 -5 -7 -12t-9.5 -15t-8 -16.5t-3.5 -15.5t2 -9q12 3 30 13.5t38.5 25l41.5 30.5l38 30q1 1 3 1q5 0 5 -4t-21 -21.5t-49 -36.5t-55 -34t-40 -15q-11 0 -15 6.5t-4 13.5q0 11 7 25t14 25l2 3q1 2 3.5 5t2.5 5l5 6h-31q-1 0 -2 1
q-2 2 -2 10v2l1 1h44l38.5 49l51 60l56.5 62t56 55.5t50.5 40t38.5 15.5q2 0 5 -1.5t3 -8.5q-1 -9 -14.5 -28t-35 -43.5t-49 -52l-56.5 -54.5l-57.5 -51.5t-51.5 -42.5l42 1q1 -1 1 2t2 -2zM269 370q-24 -11 -56.5 -40t-67 -66t-67 -76.5l-56.5 -69.5q22 17 48.5 40.5l54 49
l53.5 51.5t46 48.5t32.5 39t12.5 23.5z" />
    <glyph glyph-name="Zcaron" unicode="&#x17d;" horiz-adv-x="263" 
d="M380 406q21 -1 29.5 -11t-11.5 -36l-44.5 -56.5l-51 -65.5l-53 -67.5l-49.5 -63l-41.5 -52.5l-28.5 -35q-8 -8 -16.5 -13.5t-16.5 -9.5q18 -12 39.5 -23t46 -16t51 -3.5t55.5 13.5q4 2 6 -3q2 -4 -3 -6q-36 -15 -71 -15q-40 0 -74 15t-60 33q-21 -6 -35 -3q-5 0 -8 1
q-26 5 -34 31q-4 17 -4 24t4 10q5 4 13.5 -1.5t24.5 -18.5q14 -13 34 -28q5 3 11 7.5l13 9.5l32 41l47 61l48 62l49.5 63.5l48 60.5l42.5 52t13 29q-4 5 -17.5 5.5t-34.5 -4.5t-46.5 -14.5t-53.5 -23.5q-27 -14 -53 -31t-45 -36t-28.5 -39t-3.5 -40q0 -5 -4 -6t-6 3
q-8 28 7.5 53.5t39.5 46.5t49.5 36t39.5 22q21 10 42.5 19t42 15t37.5 8t28 0zM46 -1q11 -4 26 3q-9 6 -16.5 12.5l-13.5 11.5l-15.5 12t-10.5 7q-1 -3 4 -22q6 -21 26 -24zM418 460q3 -2 4 -3t-1 -6q-14 1 -21 -2.5t-11.5 -8.5l-7.5 -8.5t-9 -1.5l-2 1h-1q-6 2 -7 7
t-2 11.5t-4.5 13.5t-15.5 14q2 5 3 5.5t5 -0.5q6 -2 15 -9.5t15 -16.5q11 4 22 5t18 -1z" />
    <glyph glyph-name="zcaron" unicode="&#x17e;" horiz-adv-x="188" 
d="M162 194q18 0 29 -6.5t0 -19.5l-27 -26.5t-30.5 -32.5t-25.5 -35t-12 -34q11 6 30.5 21.5t53.5 47.5l1 1q3 3 7 0q3 -4 0 -7l-2 -2q-26 -24 -43.5 -38.5t-30 -23t-20 -11.5t-11.5 -3t-5 1q-2 1 -4 3.5t-2 7.5q-1 5 1 15l-37.5 -44l-33.5 -38l9 3q26 11 46 16t29 -5
q4 -7 3 -18q21 2 34 -5q28 -12 28 -54q1 -2 -0.5 -3.5t-3.5 -1.5q-2 -1 -3.5 0.5t-1.5 3.5q-1 36 -23 46q-13 6 -33 4q-5 -15 -18 -36q-21 -35 -52 -69.5t-62.5 -63t-61 -47.5t-47.5 -23q-8 -2 -11 -2q-15 0 -20 11q-8 17 3 41.5t34.5 50.5t55 52t64 47t61.5 34t47 14
q2 6 1 8.5t-2 3.5q-3 4 -10.5 3.5t-17 -3t-19.5 -6.5l-17 -7q-14 -5 -19.5 -6.5t-8.5 0.5t-1 7l1 1q9 9 22.5 25l29.5 34l31 36.5l27 33.5q14 20 32.5 38.5l39.5 38.5q3 4 3.5 6t0.5 3q-1 2 -7 3t-14.5 1t-17.5 -0.5t-16 -0.5q-14 -1 -23 -1.5t-17 0.5l-41 -47.5l-40 -45.5
q-2 -2 -4 -2t-3 1q-4 2 -1 7l37 44.5l37 44.5q-8 3 -10 8q-4 11 19 31q6 5 12.5 5t10.5 -4q3 -3 3.5 -8.5t-4.5 -11.5q-2 -3 -5 -6t-6 -7q8 0 17.5 0.5t16.5 0.5q16 2 28 2t21 -1h-1zM68 193q9 10 15 18q2 2 2 4q-5 -5 -10.5 -9.5t-7.5 -12.5h1zM58 -75q10 16 15 27
q-23 -4 -52.5 -20.5t-59 -39.5t-56.5 -49.5t-45 -50t-24 -41.5t7 -24q16 4 43.5 22t58.5 45t61 61t52 70zM193 254q3 -2 4 -3t-1 -6q-14 1 -21 -2.5t-11.5 -8.5l-7.5 -8.5t-9 -1.5l-2 1h-1q-6 2 -7 7t-2 11.5t-4.5 13.5t-15.5 14q2 5 3 5.5t5 -0.5q6 -2 15 -9.5t15 -16.5
q11 4 22 5t18 -1z" />
    <glyph glyph-name="quotedbl" unicode="&#x22;" horiz-adv-x="195" 
d="M264 357q-1 -3 -8 -9.5l-14.5 -13t-12.5 -10t-2 0.5q7 10 10 19.5t5 16.5t4.5 11t7.5 4q2 0 6.5 -2t4.5 -10q0 -5 -1 -7zM301 357q-1 -3 -8 -9.5l-14.5 -13t-12.5 -10t-2 0.5q7 10 10 19.5t5 16.5t4.5 11t7.5 4q2 0 6.5 -2t4.5 -10q0 -5 -1 -7z" />
    <glyph glyph-name="numbersign" unicode="#" horiz-adv-x="399" 
d="M297 231q10 -10 9 -15t-7 -5l-47 -1l-40 -70q-1 -2 -4 -4q-6 -4 -13 1q0 1 -0.5 0.5t-0.5 0.5q-2 0 -2 4l39 68l-127 -2l-39 -68q-2 -2 -5 -4q-6 -4 -13 1q0 1 -0.5 0.5t-0.5 0.5q-1 0 -1.5 1.5t0.5 2.5l37 66h-25q-3 0 -6 2q-5 3 -5 12v2q0 3 3 3h44l63 110h-57
q-2 -1 -5 1q-6 2 -6 12l1 2q0 3 3 3h74l30 52q1 2 -2 4t5 4q13 5 17 1.5t0 -9.5l-29 -52l127 2l29 50q2 2 -1.5 4t4.5 4q13 5 17.5 1.5t0.5 -9.5l-29 -50h24q2 -1 2.5 3t5.5 -1q11 -10 10 -15t-8 -5l-44 -1l-63 -109h26q2 -1 2.5 3t6.5 -1zM115 227l126 2l63 109l-127 -1z
" />
    <glyph glyph-name="Scaron" unicode="&#x160;" horiz-adv-x="365" 
d="M6 14q2 16 17.5 33t37.5 31t47.5 23.5t47.5 9.5h7t4 -5q0 -4 -5 -4q-21 0 -44.5 -9.5t-42.5 -23t-31.5 -29t-12.5 -28.5q0 -14 17.5 -23.5t59.5 -9.5q43 0 83 10.5t71 30t49 45.5t18 58t-24.5 53.5t-54 39t-54 35t-24.5 42.5q0 24 17.5 41t41.5 28.5t49.5 18t40.5 9.5
q19 3 39.5 5t40.5 2q12 0 27 -1t27.5 -3.5t21 -6.5t8.5 -9q0 -6 -5 -6q-1 0 -3 2q-8 7 -27.5 10.5t-45.5 3.5q-32 -1 -67.5 -6.5t-65.5 -16t-50 -27t-20 -38.5q0 -15 11.5 -27t28.5 -24t36.5 -24t36.5 -26.5t28.5 -33t11.5 -41.5q0 -37 -21.5 -66t-57 -48.5t-80 -29.5
t-89.5 -10q-33 0 -53 4t-30.5 11t-13.5 14.5t-3 15.5zM404 460q3 -2 4 -3t-1 -6q-14 1 -21 -2.5t-11.5 -8.5l-7.5 -8.5t-9 -1.5l-2 1h-1q-6 2 -7 7t-2 11.5t-4.5 13.5t-15.5 14q2 5 3 5.5t5 -0.5q6 -2 15 -9.5t15 -16.5q11 4 22 5t18 -1z" />
    <glyph glyph-name="OE" unicode="&#x152;" horiz-adv-x="578" 
d="M141 109q-8 11 -8 30q0 29 20 65t56 73q55 56 98.5 85.5t72.5 29.5t43 -14.5t14 -40.5q0 -42 -37 -104t-106 -128q9 2 23 8.5t24 6.5q5 0 5 -5q0 -3 -9 -7t-20.5 -7.5t-22.5 -6t-14 -3.5q-56 -52 -111.5 -84.5t-97.5 -32.5q-25 0 -42.5 18t-17.5 51q0 34 19 75.5t49 83
t66 78.5t71 61q2 1 4 1q3 0 10.5 -0.5t7.5 -4.5q0 -1 -3 -4q-35 -25 -70 -61.5t-63.5 -77t-46.5 -80.5t-18 -72q0 -27 11.5 -42.5t26.5 -15.5q16 0 36.5 8t43 22t45.5 32t45 38q-21 -3 -37 -3q-29 0 -44.5 8.5t-22.5 19.5zM380 382q-9 0 -23 -4.5t-34 -16.5t-46.5 -34
t-60.5 -56q-35 -36 -54.5 -71t-19.5 -61q0 -24 17 -36t48 -12q22 0 51 6q76 71 115 136.5t39 108.5q0 18 -6.5 29t-25.5 11zM248 -48q-31 14 -31 47q0 22 12 47.5t30.5 49.5t40 43.5t40.5 29.5q-55 2 -55 35q0 23 25 54.5t64 60t88 48t97 19.5h15q-2 1 -6 1q43 -3 70 -19
t27 -57q0 -28 -12 -52t-32.5 -42t-47 -28t-55.5 -10q-53 0 -97 47q-1 1 -1 3q0 5 5 5q2 0 3 -1q42 -44 92 -44q25 0 47 11t38 28.5t25 39.5t9 43q0 30 -17 48t-60 18q-44 0 -89 -20.5t-81 -48t-59 -56.5t-23 -46q0 -11 9 -19t31 -8q10 0 22 1.5t26 3.5q4 0 6 -5
q0 -5 -4.5 -5.5t-6.5 -0.5q-29 -8 -56 -30t-48 -48.5t-33.5 -54t-12.5 -45.5q0 -16 9.5 -26.5t30.5 -12.5q31 1 73 18.5t83.5 40.5t77 47.5t53.5 40.5q1 1 3 1q4 0 4 -5q0 -2 -1 -3q-18 -17 -54 -42.5t-79.5 -49.5t-87.5 -41t-77 -17q-17 0 -30 6z" />
    <glyph glyph-name="endash" unicode="&#x2013;" horiz-adv-x="433" 
d="M332 117q3 -10 2.5 -16t-2.5 -5l-236 -2q-1 0 -2 2q-2 4 -2 14v1v3q0 1 1 1l236 1q1 -1 1 3t2 -2z" />
    <glyph glyph-name="emdash" unicode="&#x2014;" horiz-adv-x="567" 
d="M487 117q3 -10 2.5 -16t-2.5 -5l-383 -2q-1 0 -2 2q-2 4 -2 14v1v3q0 1 1 1l383 1q1 -1 1 3t2 -2z" />
    <glyph glyph-name="trademark" unicode="&#x2122;" horiz-adv-x="797" 
d="M594 322q-14 -9 -36 -26l-46 -36l-43.5 -34.5l-28.5 -22t-17.5 -11.5t-9.5 -3q-5 0 -5 5q0 7 9.5 22t23 33.5t29.5 37l30 33.5l-79 -63l-49.5 -40t-27.5 -21.5t-13 -6.5t-4 5q0 11 16 33q-22 -17 -46 -29.5t-38 -12.5q-13 0 -13 13q1 16 15 37.5t34 45.5t43.5 48l43.5 46
q-41 0 -79.5 -1t-68.5 -6t-48.5 -14.5t-18.5 -26.5q0 -6 3.5 -12.5t3.5 -13.5q0 -4 -3 -5q-3 0 -5.5 4t-4 9t-2 10.5t-0.5 7.5q0 21 19.5 32t51.5 16t73.5 6.5t85.5 1.5q3 3 4 5t2.5 3.5t5 2.5t11.5 1q7 0 7 -4q0 -1 -2.5 -3.5l-4.5 -4.5q33 0 79 -0.5t90.5 1t80 6
t47.5 14.5l2 1q1 0 3 -2q1 0 1 -3q0 -1 -1 -2q-12 -11 -49 -16t-83.5 -6.5t-94.5 -1t-82 0.5l-55 -59t-43.5 -49.5t-29 -40t-10.5 -30.5v-2q9 2 22.5 9t28 16t28 20.5t23.5 22.5l7 8l5 7q1 1 2 1l23 26t20.5 23l16.5 17l9 9q1 1 4 1h9t7 -4l-64 -68l-23.5 -25.5t-20 -23
t-14 -18t-5.5 -9.5h1l-6 -5q11 7 27 19.5l33.5 27.5l36.5 31l36 30t31 24.5t22 15.5h4.5t7.5 -0.5t7.5 -1.5t3.5 -3q0 -1 -0.5 -1.5t-0.5 -1.5q-10 -7 -30 -27.5l-40 -43t-35 -41.5t-15 -23h1l60.5 44.5l54 41.5t42.5 31t26 12t8 -1v-2q0 -6 -15 -22l-33.5 -35l-36 -36
t-21.5 -25q-6 -8 -6 -13q0 -2 1 -2t17 12.5l36 27l37.5 27t22.5 12.5q3 0 3 -4q0 -2 -1 -3l-55.5 -40t-35 -25t-20 -12.5t-10.5 -3.5q-8 0 -10.5 3.5t-2.5 8.5q0 9 11 22.5t27 29.5l34 33.5t32 34.5zM211 226q-2 -5 -9.5 -5.5t-8.5 6.5q-2 5 0 9.5t10 4.5q2 0 5.5 -2t3.5 -8
q0 -4 -1 -5zM657 226q-2 -5 -9 -5.5t-9 6.5q-2 5 0 9.5t10 4.5q2 0 5.5 -2t3.5 -8q0 -4 -1 -5z" />
    <glyph glyph-name="Agrave" unicode="&#xc0;" horiz-adv-x="749" 
d="M146 -51q-38 -8 -68 -8q-6 0 -14 0.5t-16 1.5t-13.5 3t-5.5 6q2 4 5 4q10 0 21 -2.5t24 -2.5q43 0 95.5 15.5t110 41t118 59.5l119.5 70q-66 0 -135 0.5t-125.5 -4.5t-93 -18.5t-38.5 -40.5q0 -4 -5 -4t-5 5q2 31 40 46.5t97.5 21t133 5t147.5 -0.5l108.5 69.5l96.5 63.5
q84 56 123 79.5t53 23.5q6 0 11 -1.5t5 -5.5q0 -7 -15 -27t-39 -47.5l-55 -61.5l-63 -69q4 2 9 4t7 2q4 0 4 -4q0 -5 -12 -9.5t-21 -6.5l-53.5 -61t-45 -56.5t-31.5 -46.5t-12 -32q0 -5 2.5 -7.5t2.5 -6.5q0 -2 -1.5 -3.5t-7.5 -1.5q-7 0 -11 1l-4 3q-5 4 -7 12q0 23 34 71
t97 119q-34 -6 -74 -8t-85 -3q-53 -33 -107.5 -63.5t-107 -56t-101.5 -43.5t-92 -25zM904 364q-22 -12 -56.5 -35l-78 -52l-94.5 -62.5l-105 -67.5q44 1 83 3.5t71 9.5l48 54l53 58.5l47 53t32 38.5zM904 423q-2 4 -2 7q0 10 6 13t8 3q6 0 8.5 -6t5 -13.5t8 -15t19.5 -10.5
q0 -7 -6 -7q-5 0 -11.5 2.5t-13.5 6.5t-13 9t-9 11z" />
    <glyph glyph-name="Aacute" unicode="&#xc1;" horiz-adv-x="749" 
d="M146 -51q-38 -8 -68 -8q-6 0 -14 0.5t-16 1.5t-13.5 3t-5.5 6q2 4 5 4q10 0 21 -2.5t24 -2.5q43 0 95.5 15.5t110 41t118 59.5l119.5 70q-66 0 -135 0.5t-125.5 -4.5t-93 -18.5t-38.5 -40.5q0 -4 -5 -4t-5 5q2 31 40 46.5t97.5 21t133 5t147.5 -0.5l108.5 69.5l96.5 63.5
q84 56 123 79.5t53 23.5q6 0 11 -1.5t5 -5.5q0 -7 -15 -27t-39 -47.5l-55 -61.5l-63 -69q4 2 9 4t7 2q4 0 4 -4q0 -5 -12 -9.5t-21 -6.5l-53.5 -61t-45 -56.5t-31.5 -46.5t-12 -32q0 -5 2.5 -7.5t2.5 -6.5q0 -2 -1.5 -3.5t-7.5 -1.5q-7 0 -11 1l-4 3q-5 4 -7 12q0 23 34 71
t97 119q-34 -6 -74 -8t-85 -3q-53 -33 -107.5 -63.5t-107 -56t-101.5 -43.5t-92 -25zM904 364q-22 -12 -56.5 -35l-78 -52l-94.5 -62.5l-105 -67.5q44 1 83 3.5t71 9.5l48 54l53 58.5l47 53t32 38.5zM940 424q-3 -6 -9 -11t-13 -9t-14 -6.5t-11 -2.5q-6 0 -6 7q13 3 19 10.5
t8.5 15t5 13.5t8.5 6q2 0 8 -3t6 -13q0 -3 -2 -7z" />
    <glyph glyph-name="Acircumflex" unicode="&#xc2;" horiz-adv-x="749" 
d="M146 -51q-38 -8 -68 -8q-6 0 -14 0.5t-16 1.5t-13.5 3t-5.5 6q2 4 5 4q10 0 21 -2.5t24 -2.5q43 0 95.5 15.5t110 41t118 59.5l119.5 70q-66 0 -135 0.5t-125.5 -4.5t-93 -18.5t-38.5 -40.5q0 -4 -5 -4t-5 5q2 31 40 46.5t97.5 21t133 5t147.5 -0.5l108.5 69.5l96.5 63.5
q84 56 123 79.5t53 23.5q6 0 11 -1.5t5 -5.5q0 -7 -15 -27t-39 -47.5l-55 -61.5l-63 -69q4 2 9 4t7 2q4 0 4 -4q0 -5 -12 -9.5t-21 -6.5l-53.5 -61t-45 -56.5t-31.5 -46.5t-12 -32q0 -5 2.5 -7.5t2.5 -6.5q0 -2 -1.5 -3.5t-7.5 -1.5q-7 0 -11 1l-4 3q-5 4 -7 12q0 23 34 71
t97 119q-34 -6 -74 -8t-85 -3q-53 -33 -107.5 -63.5t-107 -56t-101.5 -43.5t-92 -25zM904 364q-22 -12 -56.5 -35l-78 -52l-94.5 -62.5l-105 -67.5q44 1 83 3.5t71 9.5l48 54l53 58.5l47 53t32 38.5zM965 390q-7 2 -16 9t-17 15q-10 -5 -21.5 -7t-17.5 -1q-5 1 -4 9
q14 0 21 4t10.5 9t7 9t9.5 3l1 -1h2q6 -2 7 -6.5t2.5 -10.5t6 -13t16.5 -13q-1 -7 -7 -6z" />
    <glyph glyph-name="Atilde" unicode="&#xc3;" horiz-adv-x="749" 
d="M146 -51q-38 -8 -68 -8q-6 0 -14 0.5t-16 1.5t-13.5 3t-5.5 6q2 4 5 4q10 0 21 -2.5t24 -2.5q43 0 95.5 15.5t110 41t118 59.5l119.5 70q-66 0 -135 0.5t-125.5 -4.5t-93 -18.5t-38.5 -40.5q0 -4 -5 -4t-5 5q2 31 40 46.5t97.5 21t133 5t147.5 -0.5l108.5 69.5l96.5 63.5
q84 56 123 79.5t53 23.5q6 0 11 -1.5t5 -5.5q0 -7 -15 -27t-39 -47.5l-55 -61.5l-63 -69q4 2 9 4t7 2q4 0 4 -4q0 -5 -12 -9.5t-21 -6.5l-53.5 -61t-45 -56.5t-31.5 -46.5t-12 -32q0 -5 2.5 -7.5t2.5 -6.5q0 -2 -1.5 -3.5t-7.5 -1.5q-7 0 -11 1l-4 3q-5 4 -7 12q0 23 34 71
t97 119q-34 -6 -74 -8t-85 -3q-53 -33 -107.5 -63.5t-107 -56t-101.5 -43.5t-92 -25zM904 364q-22 -12 -56.5 -35l-78 -52l-94.5 -62.5l-105 -67.5q44 1 83 3.5t71 9.5l48 54l53 58.5l47 53t32 38.5zM978 409q-12 -14 -25.5 -10.5t-25.5 9.5q-9 4 -16.5 6.5t-15.5 0.5
q-10 -4 -19 -21q0 -3 -4 -3h-2q-5 3 -2 7q9 22 24 26q10 4 19.5 0.5t19.5 -8.5q14 -6 22.5 -7.5t16.5 7.5q3 3 7 0q3 -3 1 -7z" />
    <glyph glyph-name="Adieresis" unicode="&#xc4;" horiz-adv-x="749" 
d="M146 -51q-38 -8 -68 -8q-6 0 -14 0.5t-16 1.5t-13.5 3t-5.5 6q2 4 5 4q10 0 21 -2.5t24 -2.5q43 0 95.5 15.5t110 41t118 59.5l119.5 70q-66 0 -135 0.5t-125.5 -4.5t-93 -18.5t-38.5 -40.5q0 -4 -5 -4t-5 5q2 31 40 46.5t97.5 21t133 5t147.5 -0.5l108.5 69.5l96.5 63.5
q84 56 123 79.5t53 23.5q6 0 11 -1.5t5 -5.5q0 -7 -15 -27t-39 -47.5l-55 -61.5l-63 -69q4 2 9 4t7 2q4 0 4 -4q0 -5 -12 -9.5t-21 -6.5l-53.5 -61t-45 -56.5t-31.5 -46.5t-12 -32q0 -5 2.5 -7.5t2.5 -6.5q0 -2 -1.5 -3.5t-7.5 -1.5q-7 0 -11 1l-4 3q-5 4 -7 12q0 23 34 71
t97 119q-34 -6 -74 -8t-85 -3q-53 -33 -107.5 -63.5t-107 -56t-101.5 -43.5t-92 -25zM904 364q-22 -12 -56.5 -35l-78 -52l-94.5 -62.5l-105 -67.5q44 1 83 3.5t71 9.5l48 54l53 58.5l47 53t32 38.5zM916 415q-2 -5 -11.5 -6t-11.5 8q-2 5 0 11t13 6q2 0 6.5 -2t4.5 -10
q0 -5 -1 -7zM957 415q-2 -5 -11.5 -6t-11.5 8q-2 5 0 11t13 6q2 0 6.5 -2t4.5 -10q0 -5 -1 -7z" />
    <glyph glyph-name="Aring" unicode="&#xc5;" horiz-adv-x="749" 
d="M146 -51q-38 -8 -68 -8q-6 0 -14 0.5t-16 1.5t-13.5 3t-5.5 6q2 4 5 4q10 0 21 -2.5t24 -2.5q43 0 95.5 15.5t110 41t118 59.5l119.5 70q-66 0 -135 0.5t-125.5 -4.5t-93 -18.5t-38.5 -40.5q0 -4 -5 -4t-5 5q2 31 40 46.5t97.5 21t133 5t147.5 -0.5l108.5 69.5l96.5 63.5
q84 56 123 79.5t53 23.5q6 0 11 -1.5t5 -5.5q0 -7 -15 -27t-39 -47.5l-55 -61.5l-63 -69q4 2 9 4t7 2q4 0 4 -4q0 -5 -12 -9.5t-21 -6.5l-53.5 -61t-45 -56.5t-31.5 -46.5t-12 -32q0 -5 2.5 -7.5t2.5 -6.5q0 -2 -1.5 -3.5t-7.5 -1.5q-7 0 -11 1l-4 3q-5 4 -7 12q0 23 34 71
t97 119q-34 -6 -74 -8t-85 -3q-53 -33 -107.5 -63.5t-107 -56t-101.5 -43.5t-92 -25zM904 364q-22 -12 -56.5 -35l-78 -52l-94.5 -62.5l-105 -67.5q44 1 83 3.5t71 9.5l48 54l53 58.5l47 53t32 38.5zM947 414q-2 -5 -11.5 -6t-11.5 8q-2 5 0 11t13 6q2 0 6.5 -2t4.5 -10
q0 -5 -1 -7zM940 420q0 5 -4 5q-7 0 -5 -7q1 -3 4 -3t5 2v3z" />
    <glyph glyph-name="AE" unicode="&#xc6;" horiz-adv-x="1087" 
d="M756 -48q-31 14 -31 47q0 22 12 47.5t30.5 49.5t40 43.5t40.5 29.5q-55 2 -55 35l-30 -33q4 2 9 4t7 2q4 0 4 -4q0 -5 -12 -9.5t-21 -6.5l-53.5 -61t-45 -56.5t-31.5 -46.5t-12 -32q0 -5 2.5 -7.5t2.5 -6.5q0 -2 -1.5 -3.5t-7.5 -1.5q-7 0 -11 1l-4 3q-5 4 -7 12
q0 23 34 71t97 119q-34 -6 -74 -8t-85 -3q-53 -33 -107.5 -63.5t-107 -56t-101.5 -43.5t-92 -25q-38 -8 -68 -8q-6 0 -14 0.5t-16 1.5t-13.5 3t-5.5 6q2 4 5 4q10 0 21 -2.5t24 -2.5q43 0 95.5 15.5t110 41t118 59.5l119.5 70q-66 0 -135 0.5t-125.5 -4.5t-93 -18.5
t-38.5 -40.5q0 -4 -5 -4t-5 5q2 31 40 46.5t97.5 21t133 5t147.5 -0.5l108.5 69.5l96.5 63.5q84 56 123 79.5t53 23.5q6 0 11 -1.5t5 -5.5q0 -9 -24 -39q35 21 75.5 35t80.5 14h15q-1 0 -2 1q42 -4 67.5 -20t25.5 -56q0 -28 -12 -52t-32.5 -42t-47 -28t-55.5 -10
q-53 0 -97 47q-1 1 -1 3q0 5 5 5q2 0 3 -1q42 -44 92 -44q25 0 47 11t38 28.5t25 39.5t9 43q0 30 -17 48t-60 18q-44 0 -89 -20.5t-81 -48t-59 -56.5t-23 -46q0 -11 9 -19t31 -8q10 0 22 1.5t26 3.5q4 0 6 -5q0 -5 -4.5 -5.5t-6.5 -0.5q-29 -8 -56 -30t-48 -48.5t-33.5 -54
t-12.5 -45.5q0 -16 9.5 -26.5t30.5 -12.5q31 1 73 18.5t83.5 40.5t77 47.5t53.5 40.5q1 1 3 1q4 0 4 -5q0 -2 -1 -3q-18 -17 -54 -42.5t-79.5 -49.5t-87.5 -41t-77 -17q-17 0 -30 6zM904 364q-22 -12 -56.5 -35l-78 -52l-94.5 -62.5l-105 -67.5q44 1 83 3.5t71 9.5l48 54
l53 58.5l47 53t32 38.5z" />
    <glyph glyph-name="Ccedilla" unicode="&#xc7;" horiz-adv-x="347" 
d="M62 -63q-11 0 -18 3l-3 -7q1 -4 2.5 -12t-3.5 -15q-2 -3 -5.5 -6t-10.5 -3h-3q-8 0 -12 3t-6 5q-7 10 1 24q2 4 6 2q5 -2 2 -7q-4 -9 -1 -14q4 -4 12 -4q7 2 9 5q2 5 1 11.5t-2 9.5q-1 1 0 4l4 8q-13 7 -18 21.5t-5 33.5q0 56 48 126t146 154q60 51 117 77.5t108 26.5
q44 0 63 -17t19 -39q0 -17 -10 -35t-27.5 -32.5t-42 -24t-52.5 -9.5q-21 0 -35 10.5t-14 29.5q0 20 16.5 34t41.5 14q5 0 15.5 -0.5t10.5 -5.5t-5 -5t-10 1t-10 1q-17 0 -27 -5t-15 -11.5t-6.5 -13t-1.5 -9.5q0 -14 11 -22.5t28 -8.5q22 0 43 8t37 21.5t25.5 30t9.5 34.5
q0 44 -61 44q-39 0 -83.5 -20t-88.5 -52t-84.5 -72.5t-71.5 -82.5t-49.5 -81t-18.5 -67q0 -23 7 -37t26 -14q25 3 57.5 16.5t65 30.5t60.5 34.5l44 27.5q1 1 2 1q5 0 5 -4q0 -3 -2 -5l-62 -38t-65 -36t-62 -26.5t-52 -10.5z" />
    <glyph glyph-name="Egrave" unicode="&#xc8;" horiz-adv-x="371" 
d="M40 -48q-31 14 -31 47q0 22 12 47.5t30.5 49.5t40 43.5t40.5 29.5q-55 2 -55 35q0 23 25 54.5t64 60t88 48t97 19.5h15q-2 1 -6 1q43 -3 70 -19t27 -57q0 -28 -12 -52t-32.5 -42t-47 -28t-55.5 -10q-53 0 -97 47q-1 1 -1 3q0 5 5 5q2 0 3 -1q42 -44 92 -44q25 0 47 11
t38 28.5t25 39.5t9 43q0 30 -17 48t-60 18q-44 0 -89 -20.5t-81 -48t-59 -56.5t-23 -46q0 -11 9 -19t31 -8q10 0 22 1.5t26 3.5q4 0 6 -5q0 -5 -4.5 -5.5t-6.5 -0.5q-29 -8 -56 -30t-48 -48.5t-33.5 -54t-12.5 -45.5q0 -16 9.5 -26.5t30.5 -12.5q31 1 73 18.5t83.5 40.5
t77 47.5t53.5 40.5q1 1 3 1q4 0 4 -5q0 -2 -1 -3q-18 -17 -54 -42.5t-79.5 -49.5t-87.5 -41t-77 -17q-17 0 -30 6zM348 425q-2 4 -2 7q0 10 6 13t8 3q6 0 8.5 -6t5 -13.5t8 -15t19.5 -10.5q0 -7 -6 -7q-5 0 -11.5 2.5t-13.5 6.5t-13 9t-9 11z" />
    <glyph glyph-name="Eacute" unicode="&#xc9;" horiz-adv-x="371" 
d="M40 -48q-31 14 -31 47q0 22 12 47.5t30.5 49.5t40 43.5t40.5 29.5q-55 2 -55 35q0 23 25 54.5t64 60t88 48t97 19.5h15q-2 1 -6 1q43 -3 70 -19t27 -57q0 -28 -12 -52t-32.5 -42t-47 -28t-55.5 -10q-53 0 -97 47q-1 1 -1 3q0 5 5 5q2 0 3 -1q42 -44 92 -44q25 0 47 11
t38 28.5t25 39.5t9 43q0 30 -17 48t-60 18q-44 0 -89 -20.5t-81 -48t-59 -56.5t-23 -46q0 -11 9 -19t31 -8q10 0 22 1.5t26 3.5q4 0 6 -5q0 -5 -4.5 -5.5t-6.5 -0.5q-29 -8 -56 -30t-48 -48.5t-33.5 -54t-12.5 -45.5q0 -16 9.5 -26.5t30.5 -12.5q31 1 73 18.5t83.5 40.5
t77 47.5t53.5 40.5q1 1 3 1q4 0 4 -5q0 -2 -1 -3q-18 -17 -54 -42.5t-79.5 -49.5t-87.5 -41t-77 -17q-17 0 -30 6zM395 421q-3 -6 -9 -11t-13 -9t-14 -6.5t-11 -2.5q-6 0 -6 7q13 3 19 10.5t8.5 15t5 13.5t8.5 6q2 0 8 -3t6 -13q0 -3 -2 -7z" />
    <glyph glyph-name="Ecircumflex" unicode="&#xca;" horiz-adv-x="371" 
d="M40 -48q-31 14 -31 47q0 22 12 47.5t30.5 49.5t40 43.5t40.5 29.5q-55 2 -55 35q0 23 25 54.5t64 60t88 48t97 19.5h15q-2 1 -6 1q43 -3 70 -19t27 -57q0 -28 -12 -52t-32.5 -42t-47 -28t-55.5 -10q-53 0 -97 47q-1 1 -1 3q0 5 5 5q2 0 3 -1q42 -44 92 -44q25 0 47 11
t38 28.5t25 39.5t9 43q0 30 -17 48t-60 18q-44 0 -89 -20.5t-81 -48t-59 -56.5t-23 -46q0 -11 9 -19t31 -8q10 0 22 1.5t26 3.5q4 0 6 -5q0 -5 -4.5 -5.5t-6.5 -0.5q-29 -8 -56 -30t-48 -48.5t-33.5 -54t-12.5 -45.5q0 -16 9.5 -26.5t30.5 -12.5q31 1 73 18.5t83.5 40.5
t77 47.5t53.5 40.5q1 1 3 1q4 0 4 -5q0 -2 -1 -3q-18 -17 -54 -42.5t-79.5 -49.5t-87.5 -41t-77 -17q-17 0 -30 6zM406 394q-7 2 -16 9t-17 15q-10 -5 -21.5 -7t-17.5 -1q-5 1 -4 9q14 0 21 4t10.5 9t7 9t9.5 3l1 -1h2q6 -2 7 -6.5t2.5 -10.5t6 -13t16.5 -13q-1 -7 -7 -6z
" />
    <glyph glyph-name="Edieresis" unicode="&#xcb;" horiz-adv-x="371" 
d="M40 -48q-31 14 -31 47q0 22 12 47.5t30.5 49.5t40 43.5t40.5 29.5q-55 2 -55 35q0 23 25 54.5t64 60t88 48t97 19.5h15q-2 1 -6 1q43 -3 70 -19t27 -57q0 -28 -12 -52t-32.5 -42t-47 -28t-55.5 -10q-53 0 -97 47q-1 1 -1 3q0 5 5 5q2 0 3 -1q42 -44 92 -44q25 0 47 11
t38 28.5t25 39.5t9 43q0 30 -17 48t-60 18q-44 0 -89 -20.5t-81 -48t-59 -56.5t-23 -46q0 -11 9 -19t31 -8q10 0 22 1.5t26 3.5q4 0 6 -5q0 -5 -4.5 -5.5t-6.5 -0.5q-29 -8 -56 -30t-48 -48.5t-33.5 -54t-12.5 -45.5q0 -16 9.5 -26.5t30.5 -12.5q31 1 73 18.5t83.5 40.5
t77 47.5t53.5 40.5q1 1 3 1q4 0 4 -5q0 -2 -1 -3q-18 -17 -54 -42.5t-79.5 -49.5t-87.5 -41t-77 -17q-17 0 -30 6zM363 415q-2 -5 -11.5 -6t-11.5 8q-2 5 0 11t13 6q2 0 6.5 -2t4.5 -10q0 -5 -1 -7zM404 415q-2 -5 -11.5 -6t-11.5 8q-2 5 0 11t13 6q2 0 6.5 -2t4.5 -10
q0 -5 -1 -7z" />
    <glyph glyph-name="Igrave" unicode="&#xcc;" horiz-adv-x="439" 
d="M4 -18q-4 0 -4 4q-1 4 4 6q11 1 30 1h44h59l16.5 19l20.5 24l54 67.5l67.5 81.5l70.5 82.5l62 71.5q11 14 13 20q-2 0 -8 -2q-45 -10 -90.5 -22t-86.5 -24t-74 -23.5t-52 -20.5q-24 -11 -31 -22t-2.5 -20t18 -15t31.5 -7h4q7 1 21.5 4t29.5 13t27.5 27.5t15.5 47.5
q2 5 6 5q4 -1 4 -6q-3 -32 -16.5 -51.5t-30 -30.5t-32.5 -14.5t-24 -4.5h-12q-26 0 -46 9t-24 24q-2 8 4 20.5t34 25.5q22 10 61.5 24t88.5 28t102 27t101 22q2 0 5 1q6 2 11 2q53 10 91.5 13t52.5 -5q7 -5 7 -12q2 -5 -4 -5q-5 0 -5 5v1q0 -1 -3 2q-12 7 -47.5 4t-85.5 -12
q-21 -22 -52 -58l-65.5 -77l-68.5 -82.5l-62 -75.5l-45.5 -56t-18.5 -24q27 1 53.5 2.5t48 5.5t36 9.5t17.5 13.5q4 8 -10 24q-4 3 0 7q3 3 7 0q18 -20 12 -35q-6 -13 -28.5 -20.5t-57.5 -11.5t-78.5 -5t-91.5 -1q-24 0 -43.5 0.5t-29.5 -1.5h-1v0zM449 419q-2 4 -2 7
q0 10 6 13t8 3q6 0 8.5 -6t5 -13.5t8 -15t19.5 -10.5q0 -7 -6 -7q-5 0 -11.5 2.5t-13.5 6.5t-13 9t-9 11z" />
    <glyph glyph-name="Iacute" unicode="&#xcd;" horiz-adv-x="439" 
d="M4 -18q-4 0 -4 4q-1 4 4 6q11 1 30 1h44h59l16.5 19l20.5 24l54 67.5l67.5 81.5l70.5 82.5l62 71.5q11 14 13 20q-2 0 -8 -2q-45 -10 -90.5 -22t-86.5 -24t-74 -23.5t-52 -20.5q-24 -11 -31 -22t-2.5 -20t18 -15t31.5 -7h4q7 1 21.5 4t29.5 13t27.5 27.5t15.5 47.5
q2 5 6 5q4 -1 4 -6q-3 -32 -16.5 -51.5t-30 -30.5t-32.5 -14.5t-24 -4.5h-12q-26 0 -46 9t-24 24q-2 8 4 20.5t34 25.5q22 10 61.5 24t88.5 28t102 27t101 22q2 0 5 1q6 2 11 2q53 10 91.5 13t52.5 -5q7 -5 7 -12q2 -5 -4 -5q-5 0 -5 5v1q0 -1 -3 2q-12 7 -47.5 4t-85.5 -12
q-21 -22 -52 -58l-65.5 -77l-68.5 -82.5l-62 -75.5l-45.5 -56t-18.5 -24q27 1 53.5 2.5t48 5.5t36 9.5t17.5 13.5q4 8 -10 24q-4 3 0 7q3 3 7 0q18 -20 12 -35q-6 -13 -28.5 -20.5t-57.5 -11.5t-78.5 -5t-91.5 -1q-24 0 -43.5 0.5t-29.5 -1.5h-1v0zM493 420q-3 -6 -9 -11
t-13 -9t-14 -6.5t-11 -2.5q-6 0 -6 7q13 3 19 10.5t8.5 15t5 13.5t8.5 6q2 0 8 -3t6 -13q0 -3 -2 -7z" />
    <glyph glyph-name="Icircumflex" unicode="&#xce;" horiz-adv-x="439" 
d="M4 -18q-4 0 -4 4q-1 4 4 6q11 1 30 1h44h59l16.5 19l20.5 24l54 67.5l67.5 81.5l70.5 82.5l62 71.5q11 14 13 20q-2 0 -8 -2q-45 -10 -90.5 -22t-86.5 -24t-74 -23.5t-52 -20.5q-24 -11 -31 -22t-2.5 -20t18 -15t31.5 -7h4q7 1 21.5 4t29.5 13t27.5 27.5t15.5 47.5
q2 5 6 5q4 -1 4 -6q-3 -32 -16.5 -51.5t-30 -30.5t-32.5 -14.5t-24 -4.5h-12q-26 0 -46 9t-24 24q-2 8 4 20.5t34 25.5q22 10 61.5 24t88.5 28t102 27t101 22q2 0 5 1q6 2 11 2q53 10 91.5 13t52.5 -5q7 -5 7 -12q2 -5 -4 -5q-5 0 -5 5v1q0 -1 -3 2q-12 7 -47.5 4t-85.5 -12
q-21 -22 -52 -58l-65.5 -77l-68.5 -82.5l-62 -75.5l-45.5 -56t-18.5 -24q27 1 53.5 2.5t48 5.5t36 9.5t17.5 13.5q4 8 -10 24q-4 3 0 7q3 3 7 0q18 -20 12 -35q-6 -13 -28.5 -20.5t-57.5 -11.5t-78.5 -5t-91.5 -1q-24 0 -43.5 0.5t-29.5 -1.5h-1v0zM503 390q-7 2 -16 9
t-17 15q-10 -5 -21.5 -7t-17.5 -1q-5 1 -4 9q14 0 21 4t10.5 9t7 9t9.5 3l1 -1h2q6 -2 7 -6.5t2.5 -10.5t6 -13t16.5 -13q-1 -7 -7 -6z" />
    <glyph glyph-name="Idieresis" unicode="&#xcf;" horiz-adv-x="439" 
d="M4 -18q-4 0 -4 4q-1 4 4 6q11 1 30 1h44h59l16.5 19l20.5 24l54 67.5l67.5 81.5l70.5 82.5l62 71.5q11 14 13 20q-2 0 -8 -2q-45 -10 -90.5 -22t-86.5 -24t-74 -23.5t-52 -20.5q-24 -11 -31 -22t-2.5 -20t18 -15t31.5 -7h4q7 1 21.5 4t29.5 13t27.5 27.5t15.5 47.5
q2 5 6 5q4 -1 4 -6q-3 -32 -16.5 -51.5t-30 -30.5t-32.5 -14.5t-24 -4.5h-12q-26 0 -46 9t-24 24q-2 8 4 20.5t34 25.5q22 10 61.5 24t88.5 28t102 27t101 22q2 0 5 1q6 2 11 2q53 10 91.5 13t52.5 -5q7 -5 7 -12q2 -5 -4 -5q-5 0 -5 5v1q0 -1 -3 2q-12 7 -47.5 4t-85.5 -12
q-21 -22 -52 -58l-65.5 -77l-68.5 -82.5l-62 -75.5l-45.5 -56t-18.5 -24q27 1 53.5 2.5t48 5.5t36 9.5t17.5 13.5q4 8 -10 24q-4 3 0 7q3 3 7 0q18 -20 12 -35q-6 -13 -28.5 -20.5t-57.5 -11.5t-78.5 -5t-91.5 -1q-24 0 -43.5 0.5t-29.5 -1.5h-1v0zM459 410q-2 -5 -11.5 -6
t-11.5 8q-2 5 0 11t13 6q2 0 6.5 -2t4.5 -10q0 -5 -1 -7zM500 410q-2 -5 -11.5 -6t-11.5 8q-2 5 0 11t13 6q2 0 6.5 -2t4.5 -10q0 -5 -1 -7z" />
    <glyph glyph-name="Eth" unicode="&#xd0;" horiz-adv-x="513" 
d="M114 135q-105 6 -105 55q0 16 16.5 36.5t44 42.5t64 43t76.5 38t81.5 27t78.5 10q34 0 63 -8.5t50.5 -24.5t33.5 -38t12 -50q0 -42 -25.5 -86.5t-69.5 -84.5q-82 -75 -156.5 -114.5t-141.5 -39.5q-29 0 -36.5 10.5t-7.5 30.5q0 4 0.5 7t0.5 6q0 10 -0.5 18.5t-5.5 8.5
q-3 0 -10.5 -3.5t-24.5 -16.5l-2 -3q-1 -1 -4 -2q-6 -2 -10 -2q-9 0 -11 7l63 69h-32q-1 0 -2 2q-2 4 -2 14v1v3q0 1 1 1h54l39 43q-4 0 -7.5 -0.5t-7.5 -0.5q-5 0 -9 0.5t-8 0.5zM173 94q3 -10 2.5 -16t-2.5 -5l-56 -1l-39 -42q3 1 9 1q11 0 13.5 -8.5t2.5 -20.5v-20
q0 -21 6.5 -26t27.5 -5q56 0 123.5 36.5t149.5 111.5q42 39 67 82t25 82q0 54 -37 81.5t-94 32.5q-22 2 -55.5 -5t-71.5 -21t-77 -33t-70.5 -40.5t-52.5 -44.5t-23 -45q-2 -20 28 -32t86 -12h10.5t10.5 1l177 193v-1q1 0 5 0.5t9 0.5q9 0 9 -4l-2 -4l-166 -181
q52 10 107.5 35.5t118.5 70.5q1 1 3 1q5 0 5 -5q0 -2 -2 -4q-135 -94 -242 -109l-42 -46l34 1q1 -1 1 3t2 -2z" />
    <glyph glyph-name="Ntilde" unicode="&#xd1;" horiz-adv-x="411" 
d="M228 369q-18 -11 -36 -26t-35 -32.5t-32 -35.5t-27 -34q-10 -14 -24 -37t-26.5 -49.5t-21 -51.5t-8.5 -43q0 -26 20 -26h4q4 0 6 -5q0 -5 -5 -5q-23 0 -28.5 11t-5.5 23q0 20 9.5 47.5t22 55t26.5 51t23 35.5q17 24 41 50t50.5 48.5t53 37t49.5 14.5q8 0 14.5 -3t11.5 -3
q-2 0 -3 1q4 -2 6.5 -4.5t5.5 -4.5q-6 6 -9 8q19 -10 28 -31.5t9 -47.5q0 -25 -8.5 -47.5t-20.5 -43t-26.5 -39t-26.5 -35.5q28 27 55 50t52.5 40.5t47.5 27t40 9.5q6 0 11 -2.5t5 -6.5q0 -2 -2 -4q-7 -9 -23.5 -28.5l-37 -44.5l-42 -51.5l-40 -50.5t-30 -42t-11.5 -25
q0 -10 4 -10q2 0 3 1h-1q17 7 44.5 30.5t63.5 68.5q0 2 3 2q5 0 5 -4q0 -3 -1 -4q-38 -49 -72 -77t-54 -28q-5 0 -11.5 3.5t-6.5 17.5q0 9 15.5 33t41 58t58 73.5l66.5 79.5q-19 -2 -45.5 -17.5t-56.5 -39.5t-61.5 -53.5t-58.5 -57.5q-9 -12 -21 -30t-24.5 -34t-23.5 -27.5
t-17 -11.5q-4 0 -6 2l-5 5q0 2 0.5 2t0.5 2l11 14l27.5 36l36.5 49.5l40 55t37 53.5t28 45q8 15 13 33.5t5 36.5q0 26 -11 43.5t-34 17.5q-22 0 -55 -18zM484 342q-12 -14 -25.5 -10.5t-25.5 9.5q-9 4 -16.5 6.5t-15.5 0.5q-10 -4 -19 -21q0 -3 -4 -3h-2q-5 3 -2 7
q9 22 24 26q10 4 19.5 0.5t19.5 -8.5q14 -6 22.5 -7.5t16.5 7.5q3 3 7 0q3 -3 1 -7z" />
    <glyph glyph-name="Ograve" unicode="&#xd2;" horiz-adv-x="341" 
d="M141 109q-8 11 -8 30q0 29 20 65t56 73q55 56 98.5 85.5t72.5 29.5t43 -14.5t14 -40.5q0 -42 -37 -104t-106 -128q9 2 23 8.5t24 6.5q5 0 5 -5q0 -3 -9 -7t-20.5 -7.5t-22.5 -6t-14 -3.5q-56 -52 -111.5 -84.5t-97.5 -32.5q-25 0 -42.5 18t-17.5 51q0 34 19 75.5t49 83
t66 78.5t71 61q2 1 4 1q3 0 10.5 -0.5t7.5 -4.5q0 -1 -3 -4q-35 -25 -70 -61.5t-63.5 -77t-46.5 -80.5t-18 -72q0 -27 11.5 -42.5t26.5 -15.5q16 0 36.5 8t43 22t45.5 32t45 38q-21 -3 -37 -3q-29 0 -44.5 8.5t-22.5 19.5zM380 382q-9 0 -23 -4.5t-34 -16.5t-46.5 -34
t-60.5 -56q-35 -36 -54.5 -71t-19.5 -61q0 -24 17 -36t48 -12q22 0 51 6q76 71 115 136.5t39 108.5q0 18 -6.5 29t-25.5 11zM388 423q-2 4 -2 7q0 10 6 13t8 3q6 0 8.5 -6t5 -13.5t8 -15t19.5 -10.5q0 -7 -6 -7q-5 0 -11.5 2.5t-13.5 6.5t-13 9t-9 11z" />
    <glyph glyph-name="Oacute" unicode="&#xd3;" horiz-adv-x="341" 
d="M141 109q-8 11 -8 30q0 29 20 65t56 73q55 56 98.5 85.5t72.5 29.5t43 -14.5t14 -40.5q0 -42 -37 -104t-106 -128q9 2 23 8.5t24 6.5q5 0 5 -5q0 -3 -9 -7t-20.5 -7.5t-22.5 -6t-14 -3.5q-56 -52 -111.5 -84.5t-97.5 -32.5q-25 0 -42.5 18t-17.5 51q0 34 19 75.5t49 83
t66 78.5t71 61q2 1 4 1q3 0 10.5 -0.5t7.5 -4.5q0 -1 -3 -4q-35 -25 -70 -61.5t-63.5 -77t-46.5 -80.5t-18 -72q0 -27 11.5 -42.5t26.5 -15.5q16 0 36.5 8t43 22t45.5 32t45 38q-21 -3 -37 -3q-29 0 -44.5 8.5t-22.5 19.5zM380 382q-9 0 -23 -4.5t-34 -16.5t-46.5 -34
t-60.5 -56q-35 -36 -54.5 -71t-19.5 -61q0 -24 17 -36t48 -12q22 0 51 6q76 71 115 136.5t39 108.5q0 18 -6.5 29t-25.5 11zM426 426q-3 -6 -9 -11t-13 -9t-14 -6.5t-11 -2.5q-6 0 -6 7q13 3 19 10.5t8.5 15t5 13.5t8.5 6q2 0 8 -3t6 -13q0 -3 -2 -7z" />
    <glyph glyph-name="Ocircumflex" unicode="&#xd4;" horiz-adv-x="341" 
d="M141 109q-8 11 -8 30q0 29 20 65t56 73q55 56 98.5 85.5t72.5 29.5t43 -14.5t14 -40.5q0 -42 -37 -104t-106 -128q9 2 23 8.5t24 6.5q5 0 5 -5q0 -3 -9 -7t-20.5 -7.5t-22.5 -6t-14 -3.5q-56 -52 -111.5 -84.5t-97.5 -32.5q-25 0 -42.5 18t-17.5 51q0 34 19 75.5t49 83
t66 78.5t71 61q2 1 4 1q3 0 10.5 -0.5t7.5 -4.5q0 -1 -3 -4q-35 -25 -70 -61.5t-63.5 -77t-46.5 -80.5t-18 -72q0 -27 11.5 -42.5t26.5 -15.5q16 0 36.5 8t43 22t45.5 32t45 38q-21 -3 -37 -3q-29 0 -44.5 8.5t-22.5 19.5zM380 382q-9 0 -23 -4.5t-34 -16.5t-46.5 -34
t-60.5 -56q-35 -36 -54.5 -71t-19.5 -61q0 -24 17 -36t48 -12q22 0 51 6q76 71 115 136.5t39 108.5q0 18 -6.5 29t-25.5 11zM440 390q-7 2 -16 9t-17 15q-10 -5 -21.5 -7t-17.5 -1q-5 1 -4 9q14 0 21 4t10.5 9t7 9t9.5 3l1 -1h2q6 -2 7 -6.5t2.5 -10.5t6 -13t16.5 -13
q-1 -7 -7 -6z" />
    <glyph glyph-name="Otilde" unicode="&#xd5;" horiz-adv-x="341" 
d="M141 109q-8 11 -8 30q0 29 20 65t56 73q55 56 98.5 85.5t72.5 29.5t43 -14.5t14 -40.5q0 -42 -37 -104t-106 -128q9 2 23 8.5t24 6.5q5 0 5 -5q0 -3 -9 -7t-20.5 -7.5t-22.5 -6t-14 -3.5q-56 -52 -111.5 -84.5t-97.5 -32.5q-25 0 -42.5 18t-17.5 51q0 34 19 75.5t49 83
t66 78.5t71 61q2 1 4 1q3 0 10.5 -0.5t7.5 -4.5q0 -1 -3 -4q-35 -25 -70 -61.5t-63.5 -77t-46.5 -80.5t-18 -72q0 -27 11.5 -42.5t26.5 -15.5q16 0 36.5 8t43 22t45.5 32t45 38q-21 -3 -37 -3q-29 0 -44.5 8.5t-22.5 19.5zM380 382q-9 0 -23 -4.5t-34 -16.5t-46.5 -34
t-60.5 -56q-35 -36 -54.5 -71t-19.5 -61q0 -24 17 -36t48 -12q22 0 51 6q76 71 115 136.5t39 108.5q0 18 -6.5 29t-25.5 11zM452 414q-12 -14 -25.5 -10.5t-25.5 9.5q-9 4 -16.5 6.5t-15.5 0.5q-10 -4 -19 -21q0 -3 -4 -3h-2q-5 3 -2 7q9 22 24 26q10 4 19.5 0.5t19.5 -8.5
q14 -6 22.5 -7.5t16.5 7.5q3 3 7 0q3 -3 1 -7z" />
    <glyph glyph-name="Odieresis" unicode="&#xd6;" horiz-adv-x="341" 
d="M141 109q-8 11 -8 30q0 29 20 65t56 73q55 56 98.5 85.5t72.5 29.5t43 -14.5t14 -40.5q0 -42 -37 -104t-106 -128q9 2 23 8.5t24 6.5q5 0 5 -5q0 -3 -9 -7t-20.5 -7.5t-22.5 -6t-14 -3.5q-56 -52 -111.5 -84.5t-97.5 -32.5q-25 0 -42.5 18t-17.5 51q0 34 19 75.5t49 83
t66 78.5t71 61q2 1 4 1q3 0 10.5 -0.5t7.5 -4.5q0 -1 -3 -4q-35 -25 -70 -61.5t-63.5 -77t-46.5 -80.5t-18 -72q0 -27 11.5 -42.5t26.5 -15.5q16 0 36.5 8t43 22t45.5 32t45 38q-21 -3 -37 -3q-29 0 -44.5 8.5t-22.5 19.5zM380 382q-9 0 -23 -4.5t-34 -16.5t-46.5 -34
t-60.5 -56q-35 -36 -54.5 -71t-19.5 -61q0 -24 17 -36t48 -12q22 0 51 6q76 71 115 136.5t39 108.5q0 18 -6.5 29t-25.5 11zM395 410q-2 -5 -11.5 -6t-11.5 8q-2 5 0 11t13 6q2 0 6.5 -2t4.5 -10q0 -5 -1 -7zM436 410q-2 -5 -11.5 -6t-11.5 8q-2 5 0 11t13 6q2 0 6.5 -2
t4.5 -10q0 -5 -1 -7z" />
    <glyph glyph-name="Oslash" unicode="&#xd8;" horiz-adv-x="341" 
d="M141 109q-8 11 -8 30q0 29 20 65t56 73q55 56 98.5 85.5t72.5 29.5q15 0 24 -4l7 3q18 5 22 1t-3 -12l-5 -5q12 -15 12 -38q0 -42 -37 -104t-106 -128q9 2 23 8.5t24 6.5q5 0 5 -5q0 -3 -9 -7t-20.5 -7.5t-22.5 -6t-14 -3.5q-56 -52 -111.5 -84.5t-97.5 -32.5
q-5 0 -8.5 0.5t-7.5 1.5l-29 -32q-4 -3 -8 -5t-7.5 -2.5t-8.5 3.5q0 1 -0.5 0.5t-0.5 0.5q-4 2 0 6l35 38q-11 9 -18 23.5t-7 34.5q0 34 19 75.5t49 83t66 78.5t71 61q2 1 4 1q3 0 10.5 -0.5t7.5 -4.5q0 -1 -3 -4q-35 -25 -70 -61.5t-63.5 -77t-46.5 -80.5t-18 -72
q0 -26 12 -43l96 104zM412 342q0 7 -2 17l-242 -262q15 -6 39 -6q22 0 51 6q76 71 115 136.5t39 108.5zM380 382q-9 0 -23 -4.5t-34 -16.5t-46.5 -34t-60.5 -56q-35 -36 -54.5 -71t-19.5 -61q0 -19 10 -29l248 266q-8 6 -20 6zM208 81q-31 0 -47 9l-96 -104q6 -2 10 -2
q16 0 36.5 8t43 22t45.5 32t45 38q-21 -3 -37 -3z" />
    <glyph glyph-name="Ugrave" unicode="&#xd9;" horiz-adv-x="417" 
d="M84 181q-11 -4 -24 -4q-8 0 -17 2.5t-16.5 8.5t-12.5 17t-5 28q0 29 16.5 59t44.5 55t64.5 40.5t75.5 15.5q12 0 31.5 -2t38 -9t32 -20t13.5 -35q0 -27 -17 -62.5t-43.5 -74t-57 -77.5l-57.5 -73t-27 -53q0 -10 6 -14q18 0 46.5 10t59 27t58.5 39.5t45 47.5q2 2 3 2h1
l56.5 78l58 76l48 61l26.5 34l1 -1q2 1 7.5 2t10.5 1q6 0 6 -3q0 -2 -3 -5l-37 -46.5l-52 -67.5l-57 -77l-53 -74.5t-39 -60t-15 -33.5q0 -2 2 -2l1 -5h1l1 -4q-8 -3 -14 -3q-5 0 -10.5 3.5t-6.5 8.5q0 8 9 26t26 44q-20 -18 -44.5 -34t-49 -28t-47 -19t-39.5 -7
q-11 0 -17.5 3t-9.5 6.5t-4 8t-1 7.5q0 21 28 56l14 18l53.5 68.5t52 72t39 68t15.5 57.5q0 16 -8.5 27t-21 17t-28 8.5t-29.5 2.5q-39 0 -74 -15t-61.5 -38.5t-42 -52t-15.5 -55.5q0 -22 11.5 -33.5t30.5 -11.5q13 0 28.5 6.5t29.5 20.5t24.5 35t15.5 51q0 4 4 4q5 0 5 -4
q0 -26 -9.5 -46.5t-22.5 -35.5t-27.5 -24.5t-24.5 -12.5zM387 415q-2 4 -2 7q0 10 6 13t8 3q6 0 8.5 -6t5 -13.5t8 -15t19.5 -10.5q0 -7 -6 -7q-5 0 -11.5 2.5t-13.5 6.5t-13 9t-9 11z" />
    <glyph glyph-name="Uacute" unicode="&#xda;" horiz-adv-x="417" 
d="M84 181q-11 -4 -24 -4q-8 0 -17 2.5t-16.5 8.5t-12.5 17t-5 28q0 29 16.5 59t44.5 55t64.5 40.5t75.5 15.5q12 0 31.5 -2t38 -9t32 -20t13.5 -35q0 -27 -17 -62.5t-43.5 -74t-57 -77.5l-57.5 -73t-27 -53q0 -10 6 -14q18 0 46.5 10t59 27t58.5 39.5t45 47.5q2 2 3 2h1
l56.5 78l58 76l48 61l26.5 34l1 -1q2 1 7.5 2t10.5 1q6 0 6 -3q0 -2 -3 -5l-37 -46.5l-52 -67.5l-57 -77l-53 -74.5t-39 -60t-15 -33.5q0 -2 2 -2l1 -5h1l1 -4q-8 -3 -14 -3q-5 0 -10.5 3.5t-6.5 8.5q0 8 9 26t26 44q-20 -18 -44.5 -34t-49 -28t-47 -19t-39.5 -7
q-11 0 -17.5 3t-9.5 6.5t-4 8t-1 7.5q0 21 28 56l14 18l53.5 68.5t52 72t39 68t15.5 57.5q0 16 -8.5 27t-21 17t-28 8.5t-29.5 2.5q-39 0 -74 -15t-61.5 -38.5t-42 -52t-15.5 -55.5q0 -22 11.5 -33.5t30.5 -11.5q13 0 28.5 6.5t29.5 20.5t24.5 35t15.5 51q0 4 4 4q5 0 5 -4
q0 -26 -9.5 -46.5t-22.5 -35.5t-27.5 -24.5t-24.5 -12.5zM444 418q-3 -6 -9 -11t-13 -9t-14 -6.5t-11 -2.5q-6 0 -6 7q13 3 19 10.5t8.5 15t5 13.5t8.5 6q2 0 8 -3t6 -13q0 -3 -2 -7z" />
    <glyph glyph-name="Ucircumflex" unicode="&#xdb;" horiz-adv-x="417" 
d="M84 181q-11 -4 -24 -4q-8 0 -17 2.5t-16.5 8.5t-12.5 17t-5 28q0 29 16.5 59t44.5 55t64.5 40.5t75.5 15.5q12 0 31.5 -2t38 -9t32 -20t13.5 -35q0 -27 -17 -62.5t-43.5 -74t-57 -77.5l-57.5 -73t-27 -53q0 -10 6 -14q18 0 46.5 10t59 27t58.5 39.5t45 47.5q2 2 3 2h1
l56.5 78l58 76l48 61l26.5 34l1 -1q2 1 7.5 2t10.5 1q6 0 6 -3q0 -2 -3 -5l-37 -46.5l-52 -67.5l-57 -77l-53 -74.5t-39 -60t-15 -33.5q0 -2 2 -2l1 -5h1l1 -4q-8 -3 -14 -3q-5 0 -10.5 3.5t-6.5 8.5q0 8 9 26t26 44q-20 -18 -44.5 -34t-49 -28t-47 -19t-39.5 -7
q-11 0 -17.5 3t-9.5 6.5t-4 8t-1 7.5q0 21 28 56l14 18l53.5 68.5t52 72t39 68t15.5 57.5q0 16 -8.5 27t-21 17t-28 8.5t-29.5 2.5q-39 0 -74 -15t-61.5 -38.5t-42 -52t-15.5 -55.5q0 -22 11.5 -33.5t30.5 -11.5q13 0 28.5 6.5t29.5 20.5t24.5 35t15.5 51q0 4 4 4q5 0 5 -4
q0 -26 -9.5 -46.5t-22.5 -35.5t-27.5 -24.5t-24.5 -12.5zM469 390q-7 2 -16 9t-17 15q-10 -5 -21.5 -7t-17.5 -1q-5 1 -4 9q14 0 21 4t10.5 9t7 9t9.5 3l1 -1h2q6 -2 7 -6.5t2.5 -10.5t6 -13t16.5 -13q-1 -7 -7 -6z" />
    <glyph glyph-name="Udieresis" unicode="&#xdc;" horiz-adv-x="417" 
d="M84 181q-11 -4 -24 -4q-8 0 -17 2.5t-16.5 8.5t-12.5 17t-5 28q0 29 16.5 59t44.5 55t64.5 40.5t75.5 15.5q12 0 31.5 -2t38 -9t32 -20t13.5 -35q0 -27 -17 -62.5t-43.5 -74t-57 -77.5l-57.5 -73t-27 -53q0 -10 6 -14q18 0 46.5 10t59 27t58.5 39.5t45 47.5q2 2 3 2h1
l56.5 78l58 76l48 61l26.5 34l1 -1q2 1 7.5 2t10.5 1q6 0 6 -3q0 -2 -3 -5l-37 -46.5l-52 -67.5l-57 -77l-53 -74.5t-39 -60t-15 -33.5q0 -2 2 -2l1 -5h1l1 -4q-8 -3 -14 -3q-5 0 -10.5 3.5t-6.5 8.5q0 8 9 26t26 44q-20 -18 -44.5 -34t-49 -28t-47 -19t-39.5 -7
q-11 0 -17.5 3t-9.5 6.5t-4 8t-1 7.5q0 21 28 56l14 18l53.5 68.5t52 72t39 68t15.5 57.5q0 16 -8.5 27t-21 17t-28 8.5t-29.5 2.5q-39 0 -74 -15t-61.5 -38.5t-42 -52t-15.5 -55.5q0 -22 11.5 -33.5t30.5 -11.5q13 0 28.5 6.5t29.5 20.5t24.5 35t15.5 51q0 4 4 4q5 0 5 -4
q0 -26 -9.5 -46.5t-22.5 -35.5t-27.5 -24.5t-24.5 -12.5zM416 410q-2 -5 -11.5 -6t-11.5 8q-2 5 0 11t13 6q2 0 6.5 -2t4.5 -10q0 -5 -1 -7zM457 410q-2 -5 -11.5 -6t-11.5 8q-2 5 0 11t13 6q2 0 6.5 -2t4.5 -10q0 -5 -1 -7z" />
    <glyph glyph-name="Yacute" unicode="&#xdd;" horiz-adv-x="425" 
d="M525 316q4 0 8 0.5t7 0t4 -2.5t-3 -6l-49 -60.5l-61 -73.5l-69 -80.5l-72 -81.5l36 15.5t21.5 8.5t14.5 4.5t15 4.5q6 2 6 -4q2 -4 -3 -6l-19.5 -5.5t-19.5 -6.5t-27 -10.5t-41 -18.5l-63.5 -67.5t-57.5 -56t-49 -40t-36 -18.5q-8 -4 -15 -4h-2q-9 0 -14 9q-6 14 2 31
t29 35.5t50 37.5t63.5 37.5l69.5 35.5l25.5 28.5l25.5 29.5q-35 -25 -71 -38.5t-62 -13.5q-21 0 -30 8q-10 8 -10 27t30 58l15 19.5l15 20.5l45.5 60t40 57.5t26.5 52t5 43.5q-4 21 -26 33q-31 15 -68 14.5t-75 -16.5q-40 -17 -69.5 -45t-40.5 -59q-8 -25 -6 -44t13 -30
q19 -19 53 -8q23 8 45 34.5t27 74.5q0 6 5 4q6 0 4 -5q-5 -51 -29 -79.5t-49 -37.5q-37 -14 -63 10q-8 8 -14.5 27t5.5 57q11 33 42 63t73 47q52 22 102 16q20 -1 36 -6t32 -13q32 -18 29.5 -50t-24.5 -71.5t-56.5 -84.5l-67.5 -88q-29 -38 -28 -57.5t20 -21.5q18 1 41 9
t46.5 21t46 30.5t39.5 37.5q1 0 1 0.5t1 0.5l87.5 105l68.5 85l13 16q2 3 6 1zM61 -181q12 4 30 17.5t40.5 34t48 47.5l53.5 57l-22 -11.5l-22 -11.5q-39 -24 -68 -46.5t-45.5 -41t-20.5 -31t6 -14.5zM454 421q-3 -6 -9 -11t-13 -9t-14 -6.5t-11 -2.5q-6 0 -6 7
q13 3 19 10.5t8.5 15t5 13.5t8.5 6q2 0 8 -3t6 -13q0 -3 -2 -7z" />
    <glyph glyph-name="agrave" unicode="&#xe0;" 
d="M41 7q-2 8 -2 12q0 15 8 30.5t21 30.5l-72.5 -57.5t-43.5 -22.5q-12 0 -19 4t-7 15t7 23t9 14q21 28 51 54.5t61.5 47t59.5 33t45 12.5q6 0 13 -2.5t7 -13.5q0 -2 -1 -8t-5 -6q-6 0 -6 5q0 2 1 4t1 4q0 6 -3.5 7t-6.5 1q-6 -1 -16 -3t-21 -7q-19 -9 -48 -29.5t-56.5 -45
t-47 -50t-19.5 -43.5q0 -5 4 -5q7 0 21.5 9.5t32 23.5l36 29.5l33.5 27.5l18 15.5l19.5 16.5t17 13.5t10.5 5.5q1 0 9.5 -1.5t8.5 -6.5q0 -1 -2 -5q-30 -24 -49.5 -44.5t-30.5 -37t-15.5 -26.5t-4.5 -13q0 -6 4 -6h1q17 10 36 27l35.5 33l28 27.5t14.5 11.5q4 0 4 -5
q0 -2 -1 -3q-48 -48 -81 -76.5t-48 -28.5q-10 0 -11 9zM137 251q-2 4 -2 7q0 10 6 13t8 3q6 0 8.5 -6t5 -13.5t8 -15t19.5 -10.5q0 -7 -6 -7q-5 0 -11.5 2.5t-13.5 6.5t-13 9t-9 11z" />
    <glyph glyph-name="aacute" unicode="&#xe1;" 
d="M41 7q-2 8 -2 12q0 15 8 30.5t21 30.5l-72.5 -57.5t-43.5 -22.5q-12 0 -19 4t-7 15t7 23t9 14q21 28 51 54.5t61.5 47t59.5 33t45 12.5q6 0 13 -2.5t7 -13.5q0 -2 -1 -8t-5 -6q-6 0 -6 5q0 2 1 4t1 4q0 6 -3.5 7t-6.5 1q-6 -1 -16 -3t-21 -7q-19 -9 -48 -29.5t-56.5 -45
t-47 -50t-19.5 -43.5q0 -5 4 -5q7 0 21.5 9.5t32 23.5l36 29.5l33.5 27.5l18 15.5l19.5 16.5t17 13.5t10.5 5.5q1 0 9.5 -1.5t8.5 -6.5q0 -1 -2 -5q-30 -24 -49.5 -44.5t-30.5 -37t-15.5 -26.5t-4.5 -13q0 -6 4 -6h1q17 10 36 27l35.5 33l28 27.5t14.5 11.5q4 0 4 -5
q0 -2 -1 -3q-48 -48 -81 -76.5t-48 -28.5q-10 0 -11 9zM188 253q-3 -6 -9 -11t-13 -9t-14 -6.5t-11 -2.5q-6 0 -6 7q13 3 19 10.5t8.5 15t5 13.5t8.5 6q2 0 8 -3t6 -13q0 -3 -2 -7z" />
    <glyph glyph-name="acircumflex" unicode="&#xe2;" 
d="M41 7q-2 8 -2 12q0 15 8 30.5t21 30.5l-72.5 -57.5t-43.5 -22.5q-12 0 -19 4t-7 15t7 23t9 14q21 28 51 54.5t61.5 47t59.5 33t45 12.5q6 0 13 -2.5t7 -13.5q0 -2 -1 -8t-5 -6q-6 0 -6 5q0 2 1 4t1 4q0 6 -3.5 7t-6.5 1q-6 -1 -16 -3t-21 -7q-19 -9 -48 -29.5t-56.5 -45
t-47 -50t-19.5 -43.5q0 -5 4 -5q7 0 21.5 9.5t32 23.5l36 29.5l33.5 27.5l18 15.5l19.5 16.5t17 13.5t10.5 5.5q1 0 9.5 -1.5t8.5 -6.5q0 -1 -2 -5q-30 -24 -49.5 -44.5t-30.5 -37t-15.5 -26.5t-4.5 -13q0 -6 4 -6h1q17 10 36 27l35.5 33l28 27.5t14.5 11.5q4 0 4 -5
q0 -2 -1 -3q-48 -48 -81 -76.5t-48 -28.5q-10 0 -11 9zM201 223q-7 2 -16 9t-17 15q-10 -5 -21.5 -7t-17.5 -1q-5 1 -4 9q14 0 21 4t10.5 9t7 9t9.5 3l1 -1h2q6 -2 7 -6.5t2.5 -10.5t6 -13t16.5 -13q-1 -7 -7 -6z" />
    <glyph glyph-name="atilde" unicode="&#xe3;" 
d="M41 7q-2 8 -2 12q0 15 8 30.5t21 30.5l-72.5 -57.5t-43.5 -22.5q-12 0 -19 4t-7 15t7 23t9 14q21 28 51 54.5t61.5 47t59.5 33t45 12.5q6 0 13 -2.5t7 -13.5q0 -2 -1 -8t-5 -6q-6 0 -6 5q0 2 1 4t1 4q0 6 -3.5 7t-6.5 1q-6 -1 -16 -3t-21 -7q-19 -9 -48 -29.5t-56.5 -45
t-47 -50t-19.5 -43.5q0 -5 4 -5q7 0 21.5 9.5t32 23.5l36 29.5l33.5 27.5l18 15.5l19.5 16.5t17 13.5t10.5 5.5q1 0 9.5 -1.5t8.5 -6.5q0 -1 -2 -5q-30 -24 -49.5 -44.5t-30.5 -37t-15.5 -26.5t-4.5 -13q0 -6 4 -6h1q17 10 36 27l35.5 33l28 27.5t14.5 11.5q4 0 4 -5
q0 -2 -1 -3q-48 -48 -81 -76.5t-48 -28.5q-10 0 -11 9zM215 242q-12 -14 -25.5 -10.5t-25.5 9.5q-9 4 -16.5 6.5t-15.5 0.5q-10 -4 -19 -21q0 -3 -4 -3h-2q-5 3 -2 7q9 22 24 26q10 4 19.5 0.5t19.5 -8.5q14 -6 22.5 -7.5t16.5 7.5q3 3 7 0q3 -3 1 -7z" />
    <glyph glyph-name="adieresis" unicode="&#xe4;" 
d="M41 7q-2 8 -2 12q0 15 8 30.5t21 30.5l-72.5 -57.5t-43.5 -22.5q-12 0 -19 4t-7 15t7 23t9 14q21 28 51 54.5t61.5 47t59.5 33t45 12.5q6 0 13 -2.5t7 -13.5q0 -2 -1 -8t-5 -6q-6 0 -6 5q0 2 1 4t1 4q0 6 -3.5 7t-6.5 1q-6 -1 -16 -3t-21 -7q-19 -9 -48 -29.5t-56.5 -45
t-47 -50t-19.5 -43.5q0 -5 4 -5q7 0 21.5 9.5t32 23.5l36 29.5l33.5 27.5l18 15.5l19.5 16.5t17 13.5t10.5 5.5q1 0 9.5 -1.5t8.5 -6.5q0 -1 -2 -5q-30 -24 -49.5 -44.5t-30.5 -37t-15.5 -26.5t-4.5 -13q0 -6 4 -6h1q17 10 36 27l35.5 33l28 27.5t14.5 11.5q4 0 4 -5
q0 -2 -1 -3q-48 -48 -81 -76.5t-48 -28.5q-10 0 -11 9zM159 243q-2 -5 -11.5 -6t-11.5 8q-2 5 0 11t13 6q2 0 6.5 -2t4.5 -10q0 -5 -1 -7zM200 243q-2 -5 -11.5 -6t-11.5 8q-2 5 0 11t13 6q2 0 6.5 -2t4.5 -10q0 -5 -1 -7z" />
    <glyph glyph-name="aring" unicode="&#xe5;" 
d="M41 7q-2 8 -2 12q0 15 8 30.5t21 30.5l-72.5 -57.5t-43.5 -22.5q-12 0 -19 4t-7 15t7 23t9 14q21 28 51 54.5t61.5 47t59.5 33t45 12.5q6 0 13 -2.5t7 -13.5q0 -2 -1 -8t-5 -6q-6 0 -6 5q0 2 1 4t1 4q0 6 -3.5 7t-6.5 1q-6 -1 -16 -3t-21 -7q-19 -9 -48 -29.5t-56.5 -45
t-47 -50t-19.5 -43.5q0 -5 4 -5q7 0 21.5 9.5t32 23.5l36 29.5l33.5 27.5l18 15.5l19.5 16.5t17 13.5t10.5 5.5q1 0 9.5 -1.5t8.5 -6.5q0 -1 -2 -5q-30 -24 -49.5 -44.5t-30.5 -37t-15.5 -26.5t-4.5 -13q0 -6 4 -6h1q17 10 36 27l35.5 33l28 27.5t14.5 11.5q4 0 4 -5
q0 -2 -1 -3q-48 -48 -81 -76.5t-48 -28.5q-10 0 -11 9zM180 245q-2 -5 -11.5 -6t-11.5 8q-2 5 0 11t13 6q2 0 6.5 -2t4.5 -10q0 -5 -1 -7zM173 251q0 5 -4 5q-7 0 -5 -7q1 -3 4 -3t5 2v3z" />
    <glyph glyph-name="ae" unicode="&#xe6;" horiz-adv-x="250" 
d="M62 4q-1 0 -1.5 0.5t-1.5 0.5q-2 -8 -7 -7l-7.5 3t-3.5 6q-2 8 -2 12q0 15 8 30.5t21 30.5l-72.5 -57.5t-43.5 -22.5q-12 0 -19 4t-7 15t7 23t9 14q21 28 51 54.5t61.5 47t59.5 33t45 12.5q6 0 13 -2.5t7 -13.5v-4.5t-1 -4.5l37 27q14 7 21 7q14 0 14 -12q0 -14 -18 -32
t-42.5 -35t-49 -30.5t-37.5 -18.5q-14 -17 -23.5 -33t-9.5 -27q0 -13 14 -14q20 2 47 19t52.5 36.5l45 35.5t24.5 16t5 -5q0 -2 -2 -4q-17 -11 -39.5 -29l-46.5 -35.5t-48.5 -30.5t-43.5 -13q-11 0 -16 4zM78 101q23 19 45.5 35t47.5 37q-4 2 -4 5q0 2 1 4t1 4q0 6 -3.5 7
t-6.5 1q-6 -1 -16 -3t-21 -7q-19 -9 -48 -29.5t-56.5 -45t-47 -50t-19.5 -43.5q0 -5 4 -5q7 0 21.5 9.5t32 23.5l36 29.5zM232 196q-9 -5 -34 -25t-78 -68q12 6 32 18t39.5 26.5t34 28.5t14.5 23h-1q-4 0 -7 -3z" />
    <glyph glyph-name="ccedilla" unicode="&#xe7;" horiz-adv-x="150" 
d="M-20 0l-1 -2l-4 -8q1 -4 2.5 -12t-3.5 -15q-2 -3 -5.5 -6t-10.5 -3h-3q-8 0 -12 3t-6 5q-7 10 1 24q2 4 6 2q5 -2 2 -7q-4 -9 -1 -14q4 -4 12 -4q7 2 9 5q2 5 1 11.5t-2 9.5q-1 1 0 4l5 9l1 1q-13 7 -13 32q0 12 9.5 34t29 46.5t49.5 48.5t71 41q7 3 14 3q8 0 13 -4.5
t5 -12.5q0 -11 -12 -23.5t-42 -31.5q-1 -1 -3 -1q-5 0 -5 4q0 3 3 5q19 13 29 21t14.5 13t5 7.5t0.5 5.5q0 6 -5 6q-2 0 -6 -2q-36 -17 -63 -39.5t-45 -45.5t-27 -43.5t-9 -32.5q0 -22 10 -22q9 0 22 8t20 13q9 6 27.5 19.5l37 28l32.5 25t16 10.5q4 0 4 -5q0 -3 -2 -4
l-56 -43.5t-43.5 -33.5t-36 -22t-32.5 -8h-3z" />
    <glyph glyph-name="egrave" unicode="&#xe8;" horiz-adv-x="147" 
d="M-42 4q-16 8 -16 25q0 14 11 31.5t28 36t37 36.5t39 32.5l33.5 25t20.5 14.5q14 7 21 7q14 0 14 -12q0 -14 -18 -32t-42.5 -35t-49 -30.5t-37.5 -18.5q-14 -17 -23.5 -33t-9.5 -27q0 -13 14 -14q20 2 47 19t52.5 36.5l45 35.5t24.5 16t5 -5q0 -2 -2 -4q-17 -11 -39.5 -29
l-46.5 -35.5t-48.5 -30.5t-43.5 -13q-11 0 -16 4zM128 196q-6 -4 -18.5 -13t-28 -21.5l-32.5 -27.5t-33 -31q12 6 32 18t39.5 26.5t34 28.5t14.5 23v2v-2h-1q-4 0 -7 -3zM113 254q-2 4 -2 7q0 10 6 13t8 3q6 0 8.5 -6t5 -13.5t8 -15t19.5 -10.5q0 -7 -6 -7q-5 0 -11.5 2.5
t-13.5 6.5t-13 9t-9 11z" />
    <glyph glyph-name="eacute" unicode="&#xe9;" horiz-adv-x="147" 
d="M-42 4q-16 8 -16 25q0 14 11 31.5t28 36t37 36.5t39 32.5l33.5 25t20.5 14.5q14 7 21 7q14 0 14 -12q0 -14 -18 -32t-42.5 -35t-49 -30.5t-37.5 -18.5q-14 -17 -23.5 -33t-9.5 -27q0 -13 14 -14q20 2 47 19t52.5 36.5l45 35.5t24.5 16t5 -5q0 -2 -2 -4q-17 -11 -39.5 -29
l-46.5 -35.5t-48.5 -30.5t-43.5 -13q-11 0 -16 4zM128 196q-6 -4 -18.5 -13t-28 -21.5l-32.5 -27.5t-33 -31q12 6 32 18t39.5 26.5t34 28.5t14.5 23v2v-2h-1q-4 0 -7 -3zM159 256q-3 -6 -9 -11t-13 -9t-14 -6.5t-11 -2.5q-6 0 -6 7q13 3 19 10.5t8.5 15t5 13.5t8.5 6
q2 0 8 -3t6 -13q0 -3 -2 -7z" />
    <glyph glyph-name="ecircumflex" unicode="&#xea;" horiz-adv-x="147" 
d="M-42 4q-16 8 -16 25q0 14 11 31.5t28 36t37 36.5t39 32.5l33.5 25t20.5 14.5q14 7 21 7q14 0 14 -12q0 -14 -18 -32t-42.5 -35t-49 -30.5t-37.5 -18.5q-14 -17 -23.5 -33t-9.5 -27q0 -13 14 -14q20 2 47 19t52.5 36.5l45 35.5t24.5 16t5 -5q0 -2 -2 -4q-17 -11 -39.5 -29
l-46.5 -35.5t-48.5 -30.5t-43.5 -13q-11 0 -16 4zM128 196q-6 -4 -18.5 -13t-28 -21.5l-32.5 -27.5t-33 -31q12 6 32 18t39.5 26.5t34 28.5t14.5 23v2v-2h-1q-4 0 -7 -3zM168 223q-7 2 -16 9t-17 15q-10 -5 -21.5 -7t-17.5 -1q-5 1 -4 9q14 0 21 4t10.5 9t7 9t9.5 3l1 -1h2
q6 -2 7 -6.5t2.5 -10.5t6 -13t16.5 -13q-1 -7 -7 -6z" />
    <glyph glyph-name="edieresis" unicode="&#xeb;" horiz-adv-x="147" 
d="M-42 4q-16 8 -16 25q0 14 11 31.5t28 36t37 36.5t39 32.5l33.5 25t20.5 14.5q14 7 21 7q14 0 14 -12q0 -14 -18 -32t-42.5 -35t-49 -30.5t-37.5 -18.5q-14 -17 -23.5 -33t-9.5 -27q0 -13 14 -14q20 2 47 19t52.5 36.5l45 35.5t24.5 16t5 -5q0 -2 -2 -4q-17 -11 -39.5 -29
l-46.5 -35.5t-48.5 -30.5t-43.5 -13q-11 0 -16 4zM128 196q-6 -4 -18.5 -13t-28 -21.5l-32.5 -27.5t-33 -31q12 6 32 18t39.5 26.5t34 28.5t14.5 23v2v-2h-1q-4 0 -7 -3zM128 243q-2 -5 -11.5 -6t-11.5 8q-2 5 0 11t13 6q2 0 6.5 -2t4.5 -10q0 -5 -1 -7zM169 243
q-2 -5 -11.5 -6t-11.5 8q-2 5 0 11t13 6q2 0 6.5 -2t4.5 -10q0 -5 -1 -7z" />
    <glyph glyph-name="igrave" unicode="&#xec;" horiz-adv-x="82" 
d="M105 191l-37 -36.5l-50 -51.5t-43.5 -52t-18.5 -38q14 7 45 30.5t79 65.5q1 1 3 1q5 0 5 -5q0 -2 -1 -3l-56 -47.5t-40.5 -31.5t-27 -17.5t-16.5 -5.5q-11 0 -14 4.5t-3 9.5q0 10 11 28t28 38l36.5 41l36.5 38t28.5 27.5t12.5 11.5t2.5 1.5t12.5 0.5q10 0 10 -4
q0 -2 -3 -5zM114 251q-2 4 -2 7q0 10 6 13t8 3q6 0 8.5 -6t5 -13.5t8 -15t19.5 -10.5q0 -7 -6 -7q-5 0 -11.5 2.5t-13.5 6.5t-13 9t-9 11z" />
    <glyph glyph-name="iacute" unicode="&#xed;" horiz-adv-x="82" 
d="M105 191l-37 -36.5l-50 -51.5t-43.5 -52t-18.5 -38q14 7 45 30.5t79 65.5q1 1 3 1q5 0 5 -5q0 -2 -1 -3l-56 -47.5t-40.5 -31.5t-27 -17.5t-16.5 -5.5q-11 0 -14 4.5t-3 9.5q0 10 11 28t28 38l36.5 41l36.5 38t28.5 27.5t12.5 11.5t2.5 1.5t12.5 0.5q10 0 10 -4
q0 -2 -3 -5zM155 239q-3 -6 -9 -11t-13 -9t-14 -6.5t-11 -2.5q-6 0 -6 7q13 3 19 10.5t8.5 15t5 13.5t8.5 6q2 0 8 -3t6 -13q0 -3 -2 -7z" />
    <glyph glyph-name="icircumflex" unicode="&#xee;" horiz-adv-x="82" 
d="M105 191l-37 -36.5l-50 -51.5t-43.5 -52t-18.5 -38q14 7 45 30.5t79 65.5q1 1 3 1q5 0 5 -5q0 -2 -1 -3l-56 -47.5t-40.5 -31.5t-27 -17.5t-16.5 -5.5q-11 0 -14 4.5t-3 9.5q0 10 11 28t28 38l36.5 41l36.5 38t28.5 27.5t12.5 11.5t2.5 1.5t12.5 0.5q10 0 10 -4
q0 -2 -3 -5zM146 217q-7 2 -16 9t-17 15q-10 -5 -21.5 -7t-17.5 -1q-5 1 -4 9q14 0 21 4t10.5 9t7 9t9.5 3l1 -1h2q6 -2 7 -6.5t2.5 -10.5t6 -13t16.5 -13q-1 -7 -7 -6z" />
    <glyph glyph-name="idieresis" unicode="&#xef;" horiz-adv-x="82" 
d="M105 191l-37 -36.5l-50 -51.5t-43.5 -52t-18.5 -38q14 7 45 30.5t79 65.5q1 1 3 1q5 0 5 -5q0 -2 -1 -3l-56 -47.5t-40.5 -31.5t-27 -17.5t-16.5 -5.5q-11 0 -14 4.5t-3 9.5q0 10 11 28t28 38l36.5 41l36.5 38t28.5 27.5t12.5 11.5t2.5 1.5t12.5 0.5q10 0 10 -4
q0 -2 -3 -5zM101 226q-2 -5 -11.5 -6t-11.5 8q-2 5 0 11t13 6q2 0 6.5 -2t4.5 -10q0 -5 -1 -7zM142 226q-2 -5 -11.5 -6t-11.5 8q-2 5 0 11t13 6q2 0 6.5 -2t4.5 -10q0 -5 -1 -7z" />
    <glyph glyph-name="ntilde" unicode="&#xf1;" horiz-adv-x="191" 
d="M192 106q5 0 5 -5q0 -3 -2 -3l-18 -13q-63 -45 -97 -66t-39 -21q-7 0 -10.5 5.5t-3.5 11.5q0 11 7 23q4 8 19.5 25.5t35.5 37.5l40 40l33 33q-17 -11 -46 -34l-60 -48l-56.5 -45t-37 -28.5t-22.5 -15t-12 -4.5q-2 0 -4.5 0.5t-2.5 5.5q0 8 11 25t27.5 38l36 44t37.5 42
l31.5 33t17.5 17q2 0 2.5 0.5t10.5 0.5q4 0 7.5 -1t3.5 -3l-80 -84l-29 -32l-25.5 -29t-18 -22.5t-6.5 -12.5q0 -1 1 -1q34 24 70.5 53.5l69 55.5t58 43.5t37.5 17.5q11 0 11 -4q0 -8 -19 -29.5t-43 -46l-45.5 -46t-26.5 -29.5q-3 -5 -7 -11t-4 -10q0 -2 2 -2q4 0 19 9.5
t33.5 22.5l37.5 26.5l31 22.5l17 13h3zM222 244q-12 -14 -25.5 -10.5t-25.5 9.5q-9 4 -16.5 6.5t-15.5 0.5q-10 -4 -19 -21q0 -3 -4 -3h-2q-5 3 -2 7q9 22 24 26q10 4 19.5 0.5t19.5 -8.5q14 -6 22.5 -7.5t16.5 7.5q3 3 7 0q3 -3 1 -7z" />
    <glyph glyph-name="ograve" unicode="&#xf2;" horiz-adv-x="139" 
d="M107 110q-12 -19 -30 -39t-37.5 -36t-38 -26t-31.5 -10q-12 0 -16 7.5t-4 18.5q0 16 7 32.5t18 32t26 29.5t30 25q-4 9 -4 19q0 19 17.5 30t34.5 11t32 -11.5t15 -31.5q0 -16 -13 -40q32 6 72 32q1 0 1.5 0.5t1.5 0.5q4 0 4 -5q0 -3 -2 -4q-24 -17 -45 -25t-38 -10z
M77 191q-8 -4 -15 -13.5t-10 -20.5q9 5 18.5 7t14.5 2q8 0 8 -4q0 -2 -6.5 -5.5t-14 -8t-13.5 -7.5l-6 -3q2 -11 14.5 -15t27.5 -4q6 0 10 5.5t6.5 13t3.5 14.5t1 9q0 15 -12.5 25t-26.5 5zM-19 10q13 5 28.5 15.5t31 24t29 29t24.5 30.5q-34 0 -52 20q-29 -22 -49 -51
t-20 -57q0 -11 8 -11zM91 250q-2 4 -2 7q0 10 6 13t8 3q6 0 8.5 -6t5 -13.5t8 -15t19.5 -10.5q0 -7 -6 -7q-5 0 -11.5 2.5t-13.5 6.5t-13 9t-9 11z" />
    <glyph glyph-name="oacute" unicode="&#xf3;" horiz-adv-x="139" 
d="M107 110q-12 -19 -30 -39t-37.5 -36t-38 -26t-31.5 -10q-12 0 -16 7.5t-4 18.5q0 16 7 32.5t18 32t26 29.5t30 25q-4 9 -4 19q0 19 17.5 30t34.5 11t32 -11.5t15 -31.5q0 -16 -13 -40q32 6 72 32q1 0 1.5 0.5t1.5 0.5q4 0 4 -5q0 -3 -2 -4q-24 -17 -45 -25t-38 -10z
M77 191q-8 -4 -15 -13.5t-10 -20.5q9 5 18.5 7t14.5 2q8 0 8 -4q0 -2 -6.5 -5.5t-14 -8t-13.5 -7.5l-6 -3q2 -11 14.5 -15t27.5 -4q6 0 10 5.5t6.5 13t3.5 14.5t1 9q0 15 -12.5 25t-26.5 5zM-19 10q13 5 28.5 15.5t31 24t29 29t24.5 30.5q-34 0 -52 20q-29 -22 -49 -51
t-20 -57q0 -11 8 -11zM137 254q-3 -6 -9 -11t-13 -9t-14 -6.5t-11 -2.5q-6 0 -6 7q13 3 19 10.5t8.5 15t5 13.5t8.5 6q2 0 8 -3t6 -13q0 -3 -2 -7z" />
    <glyph glyph-name="ocircumflex" unicode="&#xf4;" horiz-adv-x="139" 
d="M107 110q-12 -19 -30 -39t-37.5 -36t-38 -26t-31.5 -10q-12 0 -16 7.5t-4 18.5q0 16 7 32.5t18 32t26 29.5t30 25q-4 9 -4 19q0 19 17.5 30t34.5 11t32 -11.5t15 -31.5q0 -16 -13 -40q32 6 72 32q1 0 1.5 0.5t1.5 0.5q4 0 4 -5q0 -3 -2 -4q-24 -17 -45 -25t-38 -10z
M77 191q-8 -4 -15 -13.5t-10 -20.5q9 5 18.5 7t14.5 2q8 0 8 -4q0 -2 -6.5 -5.5t-14 -8t-13.5 -7.5l-6 -3q2 -11 14.5 -15t27.5 -4q6 0 10 5.5t6.5 13t3.5 14.5t1 9q0 15 -12.5 25t-26.5 5zM-19 10q13 5 28.5 15.5t31 24t29 29t24.5 30.5q-34 0 -52 20q-29 -22 -49 -51
t-20 -57q0 -11 8 -11zM148 219q-7 2 -16 9t-17 15q-10 -5 -21.5 -7t-17.5 -1q-5 1 -4 9q14 0 21 4t10.5 9t7 9t9.5 3l1 -1h2q6 -2 7 -6.5t2.5 -10.5t6 -13t16.5 -13q-1 -7 -7 -6z" />
    <glyph glyph-name="otilde" unicode="&#xf5;" horiz-adv-x="139" 
d="M107 110q-12 -19 -30 -39t-37.5 -36t-38 -26t-31.5 -10q-12 0 -16 7.5t-4 18.5q0 16 7 32.5t18 32t26 29.5t30 25q-4 9 -4 19q0 19 17.5 30t34.5 11t32 -11.5t15 -31.5q0 -16 -13 -40q32 6 72 32q1 0 1.5 0.5t1.5 0.5q4 0 4 -5q0 -3 -2 -4q-24 -17 -45 -25t-38 -10z
M77 191q-8 -4 -15 -13.5t-10 -20.5q9 5 18.5 7t14.5 2q8 0 8 -4q0 -2 -6.5 -5.5t-14 -8t-13.5 -7.5l-6 -3q2 -11 14.5 -15t27.5 -4q6 0 10 5.5t6.5 13t3.5 14.5t1 9q0 15 -12.5 25t-26.5 5zM-19 10q13 5 28.5 15.5t31 24t29 29t24.5 30.5q-34 0 -52 20q-29 -22 -49 -51
t-20 -57q0 -11 8 -11zM169 244q-12 -14 -25.5 -10.5t-25.5 9.5q-9 4 -16.5 6.5t-15.5 0.5q-10 -4 -19 -21q0 -3 -4 -3h-2q-5 3 -2 7q9 22 24 26q10 4 19.5 0.5t19.5 -8.5q14 -6 22.5 -7.5t16.5 7.5q3 3 7 0q3 -3 1 -7z" />
    <glyph glyph-name="odieresis" unicode="&#xf6;" horiz-adv-x="139" 
d="M107 110q-12 -19 -30 -39t-37.5 -36t-38 -26t-31.5 -10q-12 0 -16 7.5t-4 18.5q0 16 7 32.5t18 32t26 29.5t30 25q-4 9 -4 19q0 19 17.5 30t34.5 11t32 -11.5t15 -31.5q0 -16 -13 -40q32 6 72 32q1 0 1.5 0.5t1.5 0.5q4 0 4 -5q0 -3 -2 -4q-24 -17 -45 -25t-38 -10z
M77 191q-8 -4 -15 -13.5t-10 -20.5q9 5 18.5 7t14.5 2q8 0 8 -4q0 -2 -6.5 -5.5t-14 -8t-13.5 -7.5l-6 -3q2 -11 14.5 -15t27.5 -4q6 0 10 5.5t6.5 13t3.5 14.5t1 9q0 15 -12.5 25t-26.5 5zM-19 10q13 5 28.5 15.5t31 24t29 29t24.5 30.5q-34 0 -52 20q-29 -22 -49 -51
t-20 -57q0 -11 8 -11zM111 237q-2 -5 -11.5 -6t-11.5 8q-2 5 0 11t13 6q2 0 6.5 -2t4.5 -10q0 -5 -1 -7zM152 237q-2 -5 -11.5 -6t-11.5 8q-2 5 0 11t13 6q2 0 6.5 -2t4.5 -10q0 -5 -1 -7z" />
    <glyph glyph-name="oslash" unicode="&#xf8;" horiz-adv-x="139" 
d="M127 235q13 4 17 1t1 -8l-29 -41q10 -12 10 -26q0 -16 -13 -40q32 6 72 32q1 0 1.5 0.5t1.5 0.5q4 0 4 -5q0 -3 -2 -4q-24 -17 -45 -25t-38 -10q-11 -17 -26 -34.5t-32 -32.5t-33.5 -26.5t-30.5 -15.5l-35 -49q-1 -2 -4 -3q-2 -1 -5.5 -1.5t-8.5 1.5v1q-4 0 -2 4l33 46
q-13 4 -13 25q0 16 7 32.5t18 32t26 29.5t30 25q-4 9 -4 19q0 19 17.5 30t34.5 11q12 0 23 -6l22 30q1 1 -2 3t5 4zM94 109q-9 0 -16 1.5t-14 3.5l-68 -97q25 14 52 39.5t46 52.5zM-27 21q0 -4 1 -6l75 107q-4 3 -7 7q-29 -22 -49 -51t-20 -57zM116 161q0 9 -6 17l-40 -56
q10 -3 25 -3q6 0 10 5.5t6.5 13t3.5 14.5t1 9zM77 191q-8 -4 -15 -13.5t-10 -20.5q14 6 27 8l18 25q-11 4 -20 1zM53 138q0 -4 2 -6l9 12z" />
    <glyph glyph-name="ugrave" unicode="&#xf9;" horiz-adv-x="183" 
d="M180 204q2 0 6 1q6 2 12 2q7 0 7 -4q0 -3 -5 -8q-14 -13 -38 -39l-48 -53.5t-41.5 -51.5t-17.5 -33q0 -5 4 -5q10 5 24 15.5l29.5 23l31.5 26.5l31 27l4 4q1 1 4 1q4 0 4 -5q0 -2 -1 -3l-5 -4l-83.5 -70.5t-52.5 -28.5q-9 0 -12 5t-3 9q0 13 18 39q-24 -22 -45 -37.5
t-37 -15.5q-28 0 -28 31q0 14 10 31q5 7 21.5 25.5l37 40.5l40 43l30.5 32q1 1 8.5 2.5t12.5 1.5q6 0 6 -3t-5 -8l-52.5 -54.5t-45 -51.5t-31 -42t-11.5 -25q0 -12 12 -12t29.5 13t37.5 32t40.5 41.5l37.5 40.5l7 8q0 1 2 1q36 42 55 58zM128 249q-2 4 -2 7q0 10 6 13t8 3
q6 0 8.5 -6t5 -13.5t8 -15t19.5 -10.5q0 -7 -6 -7q-5 0 -11.5 2.5t-13.5 6.5t-13 9t-9 11z" />
    <glyph glyph-name="uacute" unicode="&#xfa;" horiz-adv-x="183" 
d="M180 204q2 0 6 1q6 2 12 2q7 0 7 -4q0 -3 -5 -8q-14 -13 -38 -39l-48 -53.5t-41.5 -51.5t-17.5 -33q0 -5 4 -5q10 5 24 15.5l29.5 23l31.5 26.5l31 27l4 4q1 1 4 1q4 0 4 -5q0 -2 -1 -3l-5 -4l-83.5 -70.5t-52.5 -28.5q-9 0 -12 5t-3 9q0 13 18 39q-24 -22 -45 -37.5
t-37 -15.5q-28 0 -28 31q0 14 10 31q5 7 21.5 25.5l37 40.5l40 43l30.5 32q1 1 8.5 2.5t12.5 1.5q6 0 6 -3t-5 -8l-52.5 -54.5t-45 -51.5t-31 -42t-11.5 -25q0 -12 12 -12t29.5 13t37.5 32t40.5 41.5l37.5 40.5l7 8q0 1 2 1q36 42 55 58zM181 251q-3 -6 -9 -11t-13 -9
t-14 -6.5t-11 -2.5q-6 0 -6 7q13 3 19 10.5t8.5 15t5 13.5t8.5 6q2 0 8 -3t6 -13q0 -3 -2 -7z" />
    <glyph glyph-name="ucircumflex" unicode="&#xfb;" horiz-adv-x="183" 
d="M180 204q2 0 6 1q6 2 12 2q7 0 7 -4q0 -3 -5 -8q-14 -13 -38 -39l-48 -53.5t-41.5 -51.5t-17.5 -33q0 -5 4 -5q10 5 24 15.5l29.5 23l31.5 26.5l31 27l4 4q1 1 4 1q4 0 4 -5q0 -2 -1 -3l-5 -4l-83.5 -70.5t-52.5 -28.5q-9 0 -12 5t-3 9q0 13 18 39q-24 -22 -45 -37.5
t-37 -15.5q-28 0 -28 31q0 14 10 31q5 7 21.5 25.5l37 40.5l40 43l30.5 32q1 1 8.5 2.5t12.5 1.5q6 0 6 -3t-5 -8l-52.5 -54.5t-45 -51.5t-31 -42t-11.5 -25q0 -12 12 -12t29.5 13t37.5 32t40.5 41.5l37.5 40.5l7 8q0 1 2 1q36 42 55 58zM192 223q-7 2 -16 9t-17 15
q-10 -5 -21.5 -7t-17.5 -1q-5 1 -4 9q14 0 21 4t10.5 9t7 9t9.5 3l1 -1h2q6 -2 7 -6.5t2.5 -10.5t6 -13t16.5 -13q-1 -7 -7 -6z" />
    <glyph glyph-name="udieresis" unicode="&#xfc;" horiz-adv-x="183" 
d="M180 204q2 0 6 1q6 2 12 2q7 0 7 -4q0 -3 -5 -8q-14 -13 -38 -39l-48 -53.5t-41.5 -51.5t-17.5 -33q0 -5 4 -5q10 5 24 15.5l29.5 23l31.5 26.5l31 27l4 4q1 1 4 1q4 0 4 -5q0 -2 -1 -3l-5 -4l-83.5 -70.5t-52.5 -28.5q-9 0 -12 5t-3 9q0 13 18 39q-24 -22 -45 -37.5
t-37 -15.5q-28 0 -28 31q0 14 10 31q5 7 21.5 25.5l37 40.5l40 43l30.5 32q1 1 8.5 2.5t12.5 1.5q6 0 6 -3t-5 -8l-52.5 -54.5t-45 -51.5t-31 -42t-11.5 -25q0 -12 12 -12t29.5 13t37.5 32t40.5 41.5l37.5 40.5l7 8q0 1 2 1q36 42 55 58zM145 242q-2 -5 -11.5 -6t-11.5 8
q-2 5 0 11t13 6q2 0 6.5 -2t4.5 -10q0 -5 -1 -7zM186 242q-2 -5 -11.5 -6t-11.5 8q-2 5 0 11t13 6q2 0 6.5 -2t4.5 -10q0 -5 -1 -7z" />
    <glyph glyph-name="yacute" unicode="&#xfd;" horiz-adv-x="181" 
d="M184 103q-50 -50 -81 -77.5t-46 -27.5q-4 0 -8 3t-4 15q0 4 2 12l-67 -80.5l-62 -75l-47.5 -56t-22.5 -24.5l-33.5 -32.5t-23 -19.5t-15 -9.5t-8.5 -2.5q-11 0 -11 13q0 8 6 24.5t23 48.5q13 24 36 55.5t50 59.5t53.5 47.5t46.5 19.5q13 0 14.5 -7t1.5 -9l28 34.5
t29 34.5l-45.5 -35t-34.5 -15q-12 0 -19.5 7t-7.5 22q0 17 11 33l21.5 25l37 41l40 43l30.5 32q1 1 7 2t11 1q7 0 7 -3t-4 -7l-52 -55.5t-44 -51t-30.5 -41t-11.5 -26.5q0 -11 8 -11q1 0 1.5 0.5t2.5 0.5q38 14 88.5 64.5t119.5 127.5q1 -1 0.5 -0.5t0 1t3.5 1t11 0.5
q11 0 11 -4q0 -3 -6 -9q-28 -26 -53 -54t-43.5 -52.5t-29.5 -43t-11 -24.5t4 -6l4 2q-2 -1 -3.5 -2t-3.5 -2q16 9 35 25.5t36.5 33.5l29.5 29.5t15 12.5q5 0 5 -4q0 -2 -2 -4zM-39 -51l11 17t6 15v2.5t-3 2.5q-24 -8 -47 -27.5t-44.5 -44.5t-40 -52.5t-32 -51.5t-21 -40.5
t-7.5 -20.5q0 -2 2 -2q8 6 21.5 18t33.5 34q3 2 5 5l17 17.5t30 33.5t35.5 44.5t33.5 49.5zM175 250q-3 -6 -9 -11t-13 -9t-14 -6.5t-11 -2.5q-6 0 -6 7q13 3 19 10.5t8.5 15t5 13.5t8.5 6q2 0 8 -3t6 -13q0 -3 -2 -7z" />
    <glyph glyph-name="ydieresis" unicode="&#xff;" horiz-adv-x="181" 
d="M184 103q-50 -50 -81 -77.5t-46 -27.5q-4 0 -8 3t-4 15q0 4 2 12l-67 -80.5l-62 -75l-47.5 -56t-22.5 -24.5l-33.5 -32.5t-23 -19.5t-15 -9.5t-8.5 -2.5q-11 0 -11 13q0 8 6 24.5t23 48.5q13 24 36 55.5t50 59.5t53.5 47.5t46.5 19.5q13 0 14.5 -7t1.5 -9l28 34.5
t29 34.5l-45.5 -35t-34.5 -15q-12 0 -19.5 7t-7.5 22q0 17 11 33l21.5 25l37 41l40 43l30.5 32q1 1 7 2t11 1q7 0 7 -3t-4 -7l-52 -55.5t-44 -51t-30.5 -41t-11.5 -26.5q0 -11 8 -11q1 0 1.5 0.5t2.5 0.5q38 14 88.5 64.5t119.5 127.5q1 -1 0.5 -0.5t0 1t3.5 1t11 0.5
q11 0 11 -4q0 -3 -6 -9q-28 -26 -53 -54t-43.5 -52.5t-29.5 -43t-11 -24.5t4 -6l4 2q-2 -1 -3.5 -2t-3.5 -2q16 9 35 25.5t36.5 33.5l29.5 29.5t15 12.5q5 0 5 -4q0 -2 -2 -4zM-39 -51l11 17t6 15v2.5t-3 2.5q-24 -8 -47 -27.5t-44.5 -44.5t-40 -52.5t-32 -51.5t-21 -40.5
t-7.5 -20.5q0 -2 2 -2q8 6 21.5 18t33.5 34q3 2 5 5l17 17.5t30 33.5t35.5 44.5t33.5 49.5zM149 239q-2 -5 -11.5 -6t-11.5 8q-2 5 0 11t13 6q2 0 6.5 -2t4.5 -10q0 -5 -1 -7zM190 239q-2 -5 -11.5 -6t-11.5 8q-2 5 0 11t13 6q2 0 6.5 -2t4.5 -10q0 -5 -1 -7z" />
    <glyph glyph-name="scaron" unicode="&#x161;" horiz-adv-x="147" 
d="M176 204q-19 -14 -41.5 -48.5l-48 -70.5t-53.5 -63.5t-56 -27.5q-22 0 -28 6.5t-6 12.5t4 15t13 18t23 15.5t35 6.5q5 0 5 -5q0 -4 -4 -4q-18 -1 -30.5 -6t-20.5 -12t-11.5 -14.5t-3.5 -11.5q0 -8 8 -9.5t12 -1.5q17 0 32.5 11t30.5 28.5t28.5 39.5l26.5 43q9 15 19 29
t17 27q-29 -14 -62.5 -35.5t-61.5 -44.5q-1 -2 -4 -2.5t-5 0.5t-2 3t5 6q68 57 109 82.5t66 25.5q11 0 11 -4q0 -3 -7 -9zM204 263q3 -2 4 -3t-1 -6q-14 1 -21 -2.5t-11.5 -8.5l-7.5 -8.5t-9 -1.5l-2 1h-1q-6 2 -7 7t-2 11.5t-4.5 13.5t-15.5 14q2 5 3 5.5t5 -0.5
q6 -2 15 -9.5t15 -16.5q11 4 22 5t18 -1z" />
    <glyph glyph-name="oe" unicode="&#x153;" horiz-adv-x="254" 
d="M64 4q-16 8 -16 25q0 8 3 17q-22 -20 -43.5 -33.5t-37.5 -13.5q-12 0 -16 7.5t-4 18.5q0 16 7 32.5t18 32t26 29.5t30 25q-4 9 -4 19q0 19 17.5 30t34.5 11t32 -11.5t15 -31.5q0 -16 -11 -36q32 29 62 51.5t40 28.5q14 7 21 7q14 0 14 -12q0 -14 -18 -32t-42.5 -35
t-49 -30.5t-37.5 -18.5q-14 -17 -23.5 -33t-9.5 -27q0 -13 14 -14q20 2 47 19t52.5 36.5l45 35.5t24.5 16t5 -5q0 -2 -2 -4q-17 -11 -39.5 -29l-46.5 -35.5t-48.5 -30.5t-43.5 -13q-11 0 -16 4zM-19 10q13 5 28.5 15.5t31 24t29 29t24.5 30.5q-34 0 -52 20q-29 -22 -49 -51
t-20 -57q0 -11 8 -11zM77 191q-8 -4 -15 -13.5t-10 -20.5q9 5 18.5 7t14.5 2q8 0 8 -4q0 -2 -6.5 -5.5t-14 -8t-13.5 -7.5l-6 -3q2 -11 14.5 -15t27.5 -4q6 0 10 5.5t6.5 13t3.5 14.5t1 9q0 15 -12.5 25t-26.5 5zM234 196q-6 -4 -18.5 -13t-28 -21.5l-32.5 -27.5t-33 -31
q12 6 32 18t39.5 26.5t34 28.5t14.5 23h-1q-4 0 -7 -3z" />
    <glyph glyph-name="Ydieresis" unicode="&#x178;" horiz-adv-x="425" 
d="M525 316q4 0 8 0.5t7 0t4 -2.5t-3 -6l-49 -60.5l-61 -73.5l-69 -80.5l-72 -81.5l36 15.5t21.5 8.5t14.5 4.5t15 4.5q6 2 6 -4q2 -4 -3 -6l-19.5 -5.5t-19.5 -6.5t-27 -10.5t-41 -18.5l-63.5 -67.5t-57.5 -56t-49 -40t-36 -18.5q-8 -4 -15 -4h-2q-9 0 -14 9q-6 14 2 31
t29 35.5t50 37.5t63.5 37.5l69.5 35.5l25.5 28.5l25.5 29.5q-35 -25 -71 -38.5t-62 -13.5q-21 0 -30 8q-10 8 -10 27t30 58l15 19.5l15 20.5l45.5 60t40 57.5t26.5 52t5 43.5q-4 21 -26 33q-31 15 -68 14.5t-75 -16.5q-40 -17 -69.5 -45t-40.5 -59q-8 -25 -6 -44t13 -30
q19 -19 53 -8q23 8 45 34.5t27 74.5q0 6 5 4q6 0 4 -5q-5 -51 -29 -79.5t-49 -37.5q-37 -14 -63 10q-8 8 -14.5 27t5.5 57q11 33 42 63t73 47q52 22 102 16q20 -1 36 -6t32 -13q32 -18 29.5 -50t-24.5 -71.5t-56.5 -84.5l-67.5 -88q-29 -38 -28 -57.5t20 -21.5q18 1 41 9
t46.5 21t46 30.5t39.5 37.5q1 0 1 0.5t1 0.5l87.5 105l68.5 85l13 16q2 3 6 1zM61 -181q12 4 30 17.5t40.5 34t48 47.5l53.5 57l-22 -11.5l-22 -11.5q-39 -24 -68 -46.5t-45.5 -41t-20.5 -31t6 -14.5zM422 406q-2 -5 -11.5 -6t-11.5 8q-2 5 0 11t13 6q2 0 6.5 -2t4.5 -10
q0 -5 -1 -7zM463 406q-2 -5 -11.5 -6t-11.5 8q-2 5 0 11t13 6q2 0 6.5 -2t4.5 -10q0 -5 -1 -7z" />
    <glyph glyph-name="exclamdown" unicode="&#xa1;" horiz-adv-x="373" 
d="M-17.9609 -153.951q-16.998 -4.99902 -21.4971 -0.999023q-4.49902 3.99902 1.5 11.998l341.958 435.947q2 2.99902 5.99902 4.99902q3 2 6.99902 2.5q4 0.5 8.99902 -3.5q0 -1 0.5 -0.5t0.5 -0.5q3 -2 1 -5.99902l-338.959 -432.947q-0.999023 -1 -0.5 -2
q0.5 -0.999023 1 -2.49902t-1 -3q-1.49902 -1.5 -6.49902 -3.5zM326.997 331.99q3 4.99902 12.999 5.99902q9.99805 1 8.99805 -7.99902q1 -4.99902 -1.99902 -10.999q-3 -5.99902 -13.999 -5.99902q-1.99902 0 -6.49902 2q-4.49902 2 -2.49902 9.99902
q0.999023 1.99902 0.999023 3.49902t2 3.5z" />
    <glyph glyph-name="questiondown" unicode="&#xbf;" horiz-adv-x="378" 
d="M350.004 342.99q2 4.99902 11.498 5.99902q9.49902 1 11.499 -7.99902q2 -4.99902 0 -10.999q-2 -5.99902 -12.998 -5.99902q-2 0 -6.5 2q-4.49902 2 -4.49902 9.99902q0 4.99902 1 6.99902zM27.043 -107.955q17.998 24.9971 46.9941 56.9932l62.4932 67.4922
l66.9912 72.4912q33.4961 36.9951 60.9932 70.9912q27.4961 33.9951 43.9941 64.4922q16.498 30.4961 14.498 51.4932q-1 10.999 -0.5 18.998t9.49902 4.99902q9.99902 -2.99902 13.498 -12.998q3.5 -9.99902 5.5 -20.998q2 -20.9971 -13.998 -51.4932t-41.9951 -64.4922
t-58.9932 -69.4912q-32.9961 -35.4961 -64.9922 -66.4922l-67.9912 -66.9922t-50.9941 -57.9932q-12.998 -20.9971 -7.99902 -24.9961q5 -5 24.4971 -0.5q19.498 4.49902 45.4941 16.498q25.9971 11.998 56.4932 30.4961t58.4932 42.4941q13.998 11.999 30.4961 29.4971
t27.4971 37.4951q10.998 19.998 12.998 41.4951t-11.998 42.4951q-2 3.99902 1 6.99902q5.99902 1.99902 6.99902 -1q22.9971 -34.9961 7.49902 -76.9912q-15.498 -41.9941 -68.4922 -87.9883q-24.9971 -21.998 -54.9932 -40.4951q-29.9961 -18.498 -57.4932 -30.9971
q-27.4961 -12.498 -49.4941 -17.9971q-21.9971 -5.5 -31.9961 -0.5q2 -2 4 -3q-18.998 3 -26.4971 10.499t8.49902 29.4961z" />
    <glyph glyph-name="multiply" unicode="&#xd7;" horiz-adv-x="124" 
d="M99 152q8 -5 12 -9.5t2 -6.5l-38 -32l32 -31q0 -1 2.5 2t-0.5 -3q-5 -9 -9 -13t-5 -2l-35 33l-35 -31q-1 -1 -3 0q-5 2 -11 10l-2 4l36 32l-34 34q-1 0 0 2t2 4.5t6 7.5h1q0 2 2 2h1l38 -37l36 31q2 0 -0.5 3t2.5 0z" />
    <glyph glyph-name="divide" unicode="&#xf7;" horiz-adv-x="133" 
d="M122 116q1 -1 1 3t2 -2q3 -10 2.5 -16t-2.5 -5l-117 -2q-1 0 -2 2q-2 4 -2 14v1v3q0 1 1 1zM76 60q-1 -5 -10 -6t-13 8q-3 5 -3 11t11 6q2 0 7 -2t7 -10q2 -5 1 -7zM83 134q-1 -5 -10 -6t-14 8q-3 5 -2.5 11t11.5 6q2 0 7 -2t7 -10q1 -2 1 -7z" />
    <glyph glyph-name="zero" unicode="0" horiz-adv-x="384" 
d="M193 398q13 5 27 8.5t29 3.5q17 0 39.5 -7t42.5 -21.5t34 -37.5t14 -55q0 -28 -12 -61q-15 -41 -49.5 -90t-77.5 -91t-88 -70.5t-82 -28.5q-30 0 -48.5 20.5t-18.5 51.5q0 38 21.5 82t57 84.5t80 73.5t90.5 49h11q3 0 6 -0.5t3 -2.5q0 -3 -5 -5q-44 -17 -86.5 -49.5
t-76 -72.5t-54 -83t-20.5 -82q0 -24 12 -39t33 -17q10 0 23 5q30 11 61.5 32t61.5 48t57 59t47 65t32 64.5t12 58.5q0 30 -13 51t-32 34t-40 19t-37 6q-21 0 -37 -8t-27.5 -19t-17.5 -23t-6 -20q0 -11 6 -17.5t13 -11t13 -7.5t6 -5q0 -1 -1.5 -3t-3.5 -2q-12 0 -21.5 5.5
t-16.5 14t-11 17t-4 14.5q0 39 54 63z" />
    </font>
</defs>
</svg>
